<?xml version="1.0" standalone="no"?>
<!DOCTYPE svg PUBLIC "-//W3C//DTD SVG 1.1//EN" "http://www.w3.org/Graphics/SVG/1.1/DTD/svg11.dtd" >
<svg xmlns="http://www.w3.org/2000/svg" xmlns:xlink="http://www.w3.org/1999/xlink" version="1.1">
<metadata>
Created by FontForge 20170731 at Wed May 30 16:48:48 2018
 By Aleksey,,,
Copyright (c) 2017 by Alexander Slobzheninov. All rights reserved.
</metadata>
<defs>
<font id="Objectivity-RegularSlanted" horiz-adv-x="605" >
  <font-face 
    font-family="Objectivity"
    font-weight="400"
    font-style="oblique"
    font-stretch="normal"
    units-per-em="1000"
    panose-1="0 0 0 0 0 0 0 0 0 0"
    ascent="800"
    descent="-200"
    x-height="505"
    cap-height="705"
    bbox="-102 -280 1415.84 1008"
    underline-thickness="50"
    underline-position="-225"
    unicode-range="U+000D-F6C3"
  />
<missing-glyph horiz-adv-x="500" 
 />
    <glyph glyph-name=".notdef" horiz-adv-x="500" 
 />
    <glyph glyph-name=".null" horiz-adv-x="0" 
 />
    <glyph glyph-name="nonmarkingreturn" horiz-adv-x="333" 
 />
    <glyph glyph-name="NULL" horiz-adv-x="731" 
d="M667 705l-62 -705h-541l61 705h542zM138 62h403l51 580h-403z" />
    <glyph glyph-name="NULL" horiz-adv-x="731" 
d="M667 705l-62 -705h-541l61 705h542zM138 62h403l51 580h-403z" />
    <glyph glyph-name="CR" unicode="&#xd;" horiz-adv-x="30" 
 />
    <glyph glyph-name="space" unicode=" " horiz-adv-x="308" 
 />
    <glyph glyph-name="exclam" unicode="!" horiz-adv-x="245" 
d="M91 -12q-23 0 -36.5 14.5t-11.5 37.5q2 22 18 36.5t39 14.5q22 0 35.5 -14.5t11.5 -36.5q-2 -23 -17.5 -37.5t-38.5 -14.5zM196 705l-16 -185l-45 -309h-49l9 309l16 185h85z" />
    <glyph glyph-name="quotedbl" unicode="&#x22;" horiz-adv-x="325" 
d="M137 566l-22 -180h-54l8 180l13 139h67zM293 566l-22 -180h-55l9 180l12 139h68z" />
    <glyph glyph-name="numbersign" unicode="#" horiz-adv-x="950" 
d="M408 456l-55 -154h176l55 154h-176zM844 302l-6 -58h-262l-85 -244h-68l86 244h-176l-87 -244h-68l88 244h-226l5 58h241l55 154h-232l4 58h248l78 222h68l-78 -222h175l78 222h68l-78 -222h240l-5 -58h-256l-55 -154h248z" />
    <glyph glyph-name="dollar" unicode="$" horiz-adv-x="702" 
d="M350 -24l-9 -97h-78l9 99q-108 15 -169.5 83.5t-53.5 166.5h83q-7 -78 49.5 -128.5t151.5 -50.5q86 0 140 40.5t59 105.5q2 27 -8.5 47.5t-25.5 32t-46.5 20.5t-53.5 13t-64 9q-42 6 -65.5 10t-58.5 13.5t-55 22.5t-39.5 33t-26.5 49.5t-4 67.5q8 88 77.5 147.5
t175.5 67.5l8 92h78l-9 -93q102 -13 161 -78t52 -158h-81q7 72 -45 118.5t-138 46.5q-82 0 -136 -38t-59 -98q-2 -23 3.5 -40.5t20 -30t29 -21t41.5 -15t46.5 -9.5t53.5 -8q42 -6 65 -10t59.5 -13.5t56.5 -22t40.5 -32t28 -48t4.5 -65.5q-8 -96 -81 -159t-186 -70z" />
    <glyph glyph-name="percent" unicode="%" horiz-adv-x="1017" 
d="M547 192q8 89 69 145t150 56t140.5 -56t43.5 -145q-7 -90 -68.5 -146t-150.5 -56t-140 56t-44 146zM872 192q5 55 -26.5 89t-86.5 34q-54 0 -92 -34.5t-42 -88.5q-4 -55 27 -89t86 -34t92.5 34t41.5 89zM66 543q8 89 69 145.5t151 56.5q89 0 140.5 -56.5t43.5 -145.5
t-69 -145t-151 -56q-89 0 -140.5 56t-43.5 145zM391 543q5 55 -26 89t-86 34q-56 0 -93.5 -34t-41.5 -89q-5 -55 26.5 -89t86.5 -34t92.5 34t41.5 89zM742 735h94l-562 -735h-94z" />
    <glyph glyph-name="ampersand" unicode="&#x26;" horiz-adv-x="791" 
d="M464 127q-12 14 -96.5 99t-97.5 100q-62 -23 -96.5 -57.5t-40.5 -90.5q-7 -56 34.5 -92.5t111.5 -36.5q97 0 185 78zM306 394q12 -13 105 -104t107 -107q56 65 96 157h79q-50 -118 -124 -204q9 -10 70.5 -69.5t68.5 -66.5h-113l-80 80q-118 -105 -249 -105
q-101 0 -162 56.5t-54 144.5q7 76 51 122.5t117 79.5q-66 81 -57 164q6 77 65.5 128t143.5 52q80 0 132.5 -49t57.5 -126l-79 -15q-1 51 -31.5 83.5t-80.5 32.5t-86.5 -30.5t-41.5 -79.5q-7 -70 65 -144z" />
    <glyph glyph-name="quotesingle" unicode="'" horiz-adv-x="169" 
d="M137 566l-22 -180h-54l8 180l13 139h67z" />
    <glyph glyph-name="parenleft" unicode="(" horiz-adv-x="333" 
d="M252 -180h-80q-65 71 -98 197.5t-21 261.5t66.5 260.5t132.5 197.5h80q-85 -77 -141.5 -200t-68.5 -258q-12 -138 23 -261t107 -198z" />
    <glyph glyph-name="parenright" unicode=")" horiz-adv-x="333" 
d="M65 -180h-80q85 74 141.5 197.5t68.5 261.5q12 135 -23 258t-107 200h80q65 -71 98 -197t21 -261t-67 -261.5t-132 -197.5z" />
    <glyph glyph-name="asterisk" unicode="*" horiz-adv-x="512" 
d="M465 400l-33 -50l-142 88l-13 -173h-58l18 173l-157 -88l-25 50l159 85l-144 85l33 50l142 -89l12 174h59l-18 -174l157 89l25 -50l-159 -85z" />
    <glyph glyph-name="plus" unicode="+" horiz-adv-x="572" 
d="M310 90h-79l17 190h-196l6 70h196l16 180h78l-15 -180h195l-6 -70h-196z" />
    <glyph glyph-name="comma" unicode="," horiz-adv-x="211" 
d="M97 -12q-22 0 -34.5 14t-10.5 37q1 22 17 36t38 14q26 0 40 -19t11 -51q-4 -46 -28 -89t-57 -64l-36 27q24 16 41 42.5t19 52.5z" />
    <glyph glyph-name="hyphen" unicode="-" horiz-adv-x="512" 
d="M66 347h410l-6 -70h-410z" />
    <glyph glyph-name="period" unicode="." horiz-adv-x="206" 
d="M98 -12q-23 0 -36.5 14.5t-11.5 37.5q2 22 18 36.5t39 14.5q22 0 35.5 -14.5t11.5 -36.5q-1 -23 -17 -37.5t-39 -14.5z" />
    <glyph glyph-name="slash" unicode="/" horiz-adv-x="443" 
d="M365 705h76l-383 -935h-76z" />
    <glyph glyph-name="zero" unicode="0" horiz-adv-x="741" 
d="M336 -25q-133 0 -207 106.5t-59 270.5q14 165 106.5 271.5t225.5 106.5t207 -106.5t60 -271.5t-107 -271t-226 -106zM396 656q-97 0 -164.5 -85.5t-78.5 -218.5t41 -218t149 -85t164 85t78 218q12 133 -40 218.5t-149 85.5z" />
    <glyph glyph-name="one" unicode="1" horiz-adv-x="397" 
d="M179 0l52 594l-183 -131l9 99l200 143h67l-62 -705h-83z" />
    <glyph glyph-name="two" unicode="2" horiz-adv-x="613" 
d="M158 486l-79 16q23 99 97.5 163.5t165.5 64.5q101 0 161 -64.5t51 -163.5q-6 -72 -42 -123t-121 -124l-208 -181h322l-6 -74h-458l5 51l302 263q57 50 87.5 92.5t35.5 95.5q6 67 -32 110.5t-103 43.5q-62 0 -112 -48t-66 -122z" />
    <glyph glyph-name="three" unicode="3" horiz-adv-x="628" 
d="M430 631h-314l6 74h435l-5 -56l-209 -215q97 -5 153 -68.5t48 -159.5q-9 -101 -85 -166t-185 -65q-102 0 -169 68.5t-66 173.5l75 13q2 -79 48.5 -130t114.5 -51q74 0 126.5 44.5t58.5 113.5q6 70 -38 115t-118 45q-38 0 -68 -14l-20 61z" />
    <glyph glyph-name="four" unicode="4" 
d="M133 252h231l32 371zM357 178h-336l5 54l342 473h119l-40 -453h88l-7 -74h-87l-16 -178h-83z" />
    <glyph glyph-name="five" unicode="5" horiz-adv-x="638" 
d="M300 380h-178l64 325h360l-6 -74h-293l-34 -177h102q119 0 186.5 -67.5t58.5 -173.5q-9 -103 -85.5 -170.5t-184.5 -67.5q-103 0 -170 68.5t-66 173.5l75 13q0 -79 46 -130t117 -51q75 0 127 45.5t59 116.5q6 75 -42 122t-136 47z" />
    <glyph glyph-name="six" unicode="6" horiz-adv-x="611" 
d="M283 49q73 1 124.5 50.5t57.5 125.5q7 74 -36 122t-116 49q-76 0 -129.5 -48.5t-60.5 -122.5q-7 -77 38.5 -126.5t121.5 -49.5zM105 375l284 330h101l-218 -250q34 11 73 11q98 0 155.5 -68t48.5 -173q-10 -109 -87.5 -179.5t-187.5 -70.5q-111 0 -177.5 69t-57.5 174
q4 39 22.5 83.5t43.5 73.5z" />
    <glyph glyph-name="seven" unicode="7" horiz-adv-x="516" 
d="M521 655l-334 -655h-90l322 631h-376l6 74h477z" />
    <glyph glyph-name="eight" unicode="8" horiz-adv-x="674" 
d="M335 336q-77 0 -130 -40.5t-58 -102.5q-5 -63 40.5 -103.5t122.5 -40.5q76 0 129 40.5t58 103.5q6 62 -40.5 102.5t-121.5 40.5zM363 656q-67 0 -112.5 -34.5t-50.5 -87.5q-5 -54 35 -89t106 -35t112 35t50 89q5 53 -34.5 87.5t-105.5 34.5zM369 731q103 0 164.5 -53
t54.5 -136q-4 -59 -42.5 -105t-92.5 -60q65 -15 102.5 -69t31.5 -123q-8 -92 -88 -150.5t-196 -58.5t-186 59t-62 150q6 69 53.5 123t114.5 69q-52 14 -82 60t-25 105q7 82 78.5 135.5t174.5 53.5z" />
    <glyph glyph-name="nine" unicode="9" horiz-adv-x="611" 
d="M327 655q-73 0 -124.5 -49.5t-58.5 -125.5q-6 -74 37 -122.5t115 -48.5q76 -1 130 47.5t61 123.5q7 76 -38.5 126t-121.5 49zM505 330l-285 -330h-100l217 250q-38 -12 -72 -12q-98 0 -155.5 68.5t-48.5 173.5q9 108 86.5 178.5t187.5 70.5q112 0 178.5 -68.5
t57.5 -173.5q-4 -39 -22.5 -83t-43.5 -74z" />
    <glyph glyph-name="colon" unicode=":" horiz-adv-x="206" 
d="M81 -12q-23 0 -36.5 14.5t-11.5 37.5q2 22 18 36.5t39 14.5q22 0 35.5 -14.5t11.5 -36.5q-1 -23 -17 -37.5t-39 -14.5zM115 376q-23 0 -36.5 14.5t-11.5 37.5t18 37t39 14t36 -14.5t11 -36.5q-1 -22 -17 -37t-39 -15z" />
    <glyph glyph-name="semicolon" unicode=";" horiz-adv-x="211" 
d="M115 376q-23 0 -36.5 14.5t-11.5 37.5t18 37t39 14t36 -14.5t11 -36.5q-1 -22 -17 -37t-39 -15zM80 -12q-23 0 -35 14t-10 37q1 22 17 36t38 14q26 0 40 -19.5t11 -50.5q-4 -46 -28 -89t-58 -64l-35 27q24 16 41 42.5t19 52.5z" />
    <glyph glyph-name="less" unicode="&#x3c;" horiz-adv-x="466" 
d="M91 252l298 -179l-6 -73l-353 215l6 74l391 216l-7 -74z" />
    <glyph glyph-name="equal" unicode="=" horiz-adv-x="572" 
d="M49 223h470l-6 -70h-470zM71 474h470l-6 -70h-470z" />
    <glyph glyph-name="greater" unicode="&#x3e;" horiz-adv-x="466" 
d="M436 289l-7 -74l-390 -215l6 73l329 179l-298 179l7 74z" />
    <glyph glyph-name="question" unicode="?" horiz-adv-x="601" 
d="M262 -13q-23 0 -36.5 14.5t-11.5 37.5q2 22 18 36.5t39 14.5t36 -14.5t11 -36.5q-1 -23 -17 -37.5t-39 -14.5zM317 179h-77q7 79 36 123t87 82q34 22 52 36t35.5 39.5t19.5 55.5q5 60 -34.5 100.5t-103.5 40.5q-68 0 -117.5 -47t-64.5 -121l-77 15q21 100 94.5 163.5
t172.5 63.5t160.5 -61t53.5 -153q-6 -65 -39.5 -102.5t-101.5 -79.5q-48 -30 -69 -62.5t-27 -92.5z" />
    <glyph glyph-name="at" unicode="@" horiz-adv-x="1025" 
d="M651 260q6 67 -31 110.5t-101 43.5t-109.5 -43.5t-50.5 -110.5q-6 -66 31.5 -108.5t101.5 -42.5q63 0 108.5 42.5t50.5 108.5zM537 629q-164 0 -279.5 -104.5t-129.5 -264.5q-14 -159 75.5 -262.5t241.5 -103.5q82 0 146 34l-7 -69q-59 -31 -145 -31q-181 0 -291.5 123
t-94.5 309q17 189 155.5 312t334.5 123t313.5 -123t100.5 -312q-11 -118 -62 -192.5t-125 -74.5q-54 0 -85.5 38.5t-26.5 101.5q-23 -40 -77 -65.5t-116 -25.5q-89 0 -140 62t-43 156q8 96 76.5 158t165.5 62t154.5 -60t49.5 -152l-11 -128q-3 -38 13.5 -61.5t43.5 -23.5
q42 0 70.5 57t36.5 148q14 161 -83 265t-261 104z" />
    <glyph glyph-name="A" unicode="A" horiz-adv-x="704" 
d="M377 631l-197 -422h320zM153 144l-66 -144h-89l325 705h120l201 -705h-89l-41 144h-361z" />
    <glyph glyph-name="B" unicode="B" horiz-adv-x="704" 
d="M538 206q4 57 -40.5 93.5t-118.5 36.5h-202l-23 -262h202q74 0 125.5 37.5t56.5 94.5zM408 631h-206l-19 -221h205q65 0 109 30.5t48 79.5q5 48 -34 79.5t-103 31.5zM360 0h-296l61 705h298q96 0 154 -52t51 -132q-4 -52 -39.5 -93t-86.5 -54q57 -14 90 -62t28 -110
q-8 -88 -81 -145t-179 -57z" />
    <glyph glyph-name="C" unicode="C" horiz-adv-x="821" 
d="M399 49q89 0 164.5 52.5t104.5 133.5l79 -15q-35 -106 -135 -175.5t-219 -69.5q-159 0 -253.5 106.5t-79.5 270.5q14 164 127 271t272 107q119 0 206.5 -73t104.5 -184l-83 -10q-13 83 -79 138t-156 55q-123 0 -210 -85.5t-99 -218.5q-11 -132 61.5 -217.5t194.5 -85.5z
" />
    <glyph glyph-name="D" unicode="D" horiz-adv-x="781" 
d="M64 0l61 705h216q185 0 289 -97t90 -256q-13 -158 -134.5 -255t-306.5 -97h-215zM638 352q11 127 -72.5 203t-230.5 76h-133l-48 -557h132q148 0 244.5 75.5t107.5 202.5z" />
    <glyph glyph-name="E" unicode="E" horiz-adv-x="645" 
d="M174 330l-23 -256h411l-6 -74h-492l61 705h482l-6 -74h-401l-20 -231h361l-6 -70h-361z" />
    <glyph glyph-name="F" unicode="F" horiz-adv-x="581" 
d="M475 288h-302l-26 -288h-83l61 705h446l-7 -74h-362l-23 -274h302z" />
    <glyph glyph-name="G" unicode="G" horiz-adv-x="868" 
d="M413 49q120 0 208 78t98 193h-285l6 69h369q-4 -180 -117.5 -297t-285.5 -117q-165 0 -263 107t-83 270q14 164 130.5 271t281.5 107q121 0 209.5 -70.5t103.5 -179.5l-80 -15q-14 83 -82 137t-157 54q-130 0 -220.5 -85.5t-102.5 -218.5q-11 -131 65 -217t205 -86z" />
    <glyph glyph-name="H" unicode="H" horiz-adv-x="744" 
d="M147 0h-84l62 705h83l-26 -301h389l27 301h83l-61 -705h-84l29 330h-389z" />
    <glyph glyph-name="I" unicode="I" horiz-adv-x="273" 
d="M125 705h84l-62 -705h-83z" />
    <glyph glyph-name="J" unicode="J" horiz-adv-x="472" 
d="M281 211l43 494h84l-43 -493q-10 -104 -75 -168t-157 -64q-63 0 -125 20l6 72q59 -18 109 -18q64 0 108 42.5t50 114.5z" />
    <glyph glyph-name="K" unicode="K" horiz-adv-x="618" 
d="M64 0l61 705h84l-26 -301l325 301h109l-364 -333l312 -372h-109l-279 341l-30 -341h-83z" />
    <glyph glyph-name="L" unicode="L" horiz-adv-x="578" 
d="M508 0h-444l61 705h84l-55 -631h360z" />
    <glyph glyph-name="M" unicode="M" horiz-adv-x="946" 
d="M200 598l-52 -598h-84l61 705h121l205 -592l311 592h120l-62 -705h-83l52 599l-313 -599h-67z" />
    <glyph glyph-name="N" unicode="N" horiz-adv-x="747" 
d="M235 705l312 -603l53 603h83l-61 -705h-109l-313 603l-53 -603h-83l61 705h110z" />
    <glyph glyph-name="O" unicode="O" horiz-adv-x="880" 
d="M406 -25q-167 0 -264 105.5t-82 271.5q14 166 130 272t282 106t263.5 -106t83.5 -272q-15 -166 -130.5 -271.5t-282.5 -105.5zM466 656q-130 0 -220.5 -85.5t-102.5 -218.5q-11 -132 64.5 -217t205.5 -86q129 0 220 85.5t102 217.5q11 133 -64.5 218.5t-204.5 85.5z" />
    <glyph glyph-name="P" unicode="P" horiz-adv-x="675" 
d="M358 631h-158l-29 -330h158q92 0 154 46t67 118q7 73 -47 119.5t-145 46.5zM333 226h-168l-20 -226h-81l61 705h251q122 0 194.5 -67.5t63.5 -172.5q-10 -105 -94 -172t-207 -67z" />
    <glyph glyph-name="Q" unicode="Q" horiz-adv-x="880" 
d="M466 656q-130 0 -220.5 -85.5t-102.5 -218.5q-11 -132 64.5 -217t205.5 -86q128 0 219.5 85.5t102.5 217.5q11 133 -64.5 218.5t-204.5 85.5zM819 352q-9 -99 -55.5 -178.5t-122.5 -129.5l105 -154h-99l-80 116q-76 -31 -161 -31q-167 0 -264 105.5t-82 271.5
q14 166 130 272t282 106t263.5 -106t83.5 -272z" />
    <glyph glyph-name="R" unicode="R" horiz-adv-x="730" 
d="M424 631h-222l-25 -291h222q77 0 131 40t60 103q6 68 -40 108t-126 40zM171 266l-24 -266h-83l61 705h312q111 0 177.5 -62.5t57.5 -159.5q-6 -74 -59.5 -131.5t-131.5 -73.5l155 -278h-97l-143 266h-225z" />
    <glyph glyph-name="S" unicode="S" horiz-adv-x="702" 
d="M621 205q-9 -102 -89.5 -166t-203.5 -64q-129 0 -206.5 71.5t-68.5 181.5h83q-7 -78 49.5 -128.5t151.5 -50.5q86 0 140 40.5t59 105.5q2 27 -8.5 47.5t-25.5 32t-46.5 20.5t-53.5 13t-64 9q-42 6 -65.5 10t-58.5 13.5t-55 22.5t-39.5 33t-26.5 49.5t-4 67.5
q8 95 87.5 156t197.5 61q121 0 194 -67.5t64 -171.5h-81q6 72 -45.5 118.5t-137.5 46.5q-82 0 -136 -38t-59 -98q-2 -23 3.5 -40.5t20 -30t29 -21t41.5 -15t46.5 -9.5t53.5 -8q42 -6 65 -10t59.5 -13.5t56.5 -22t40.5 -32t28 -48t4.5 -65.5z" />
    <glyph glyph-name="T" unicode="T" horiz-adv-x="597" 
d="M226 0l55 631h-236l7 74h555l-7 -74h-236l-55 -631h-83z" />
    <glyph glyph-name="U" unicode="U" horiz-adv-x="749" 
d="M571 286l37 419h83l-37 -419q-11 -136 -99 -223.5t-213 -87.5q-126 0 -198.5 87t-60.5 224l36 419h84l-37 -419q-8 -99 42.5 -168t139.5 -69q90 0 152 66t71 171z" />
    <glyph glyph-name="V" unicode="V" horiz-adv-x="695" 
d="M59 705h89l175 -642l286 642h88l-318 -705h-124z" />
    <glyph glyph-name="W" unicode="W" horiz-adv-x="1076" 
d="M632 705l103 -649l239 649h86l-262 -705h-134l-103 618l-210 -618h-135l-139 705h87l125 -649l221 649h122z" />
    <glyph glyph-name="X" unicode="X" horiz-adv-x="697" 
d="M8 0l277 372l-206 333h100l173 -284l227 284h101l-270 -333l218 -372h-100l-185 321l-236 -321h-99z" />
    <glyph glyph-name="Y" unicode="Y" horiz-adv-x="647" 
d="M252 0l22 262l-215 443h93l171 -363l232 363h94l-291 -443l-23 -262h-83z" />
    <glyph glyph-name="Z" unicode="Z" horiz-adv-x="649" 
d="M20 55l484 580h-423l6 70h536l-5 -55l-483 -581h442l-6 -69h-555z" />
    <glyph glyph-name="bracketleft" unicode="[" horiz-adv-x="450" 
d="M196 676l-70 -798h249l-6 -58h-322l80 915h323l-5 -59h-249z" />
    <glyph glyph-name="backslash" unicode="\" horiz-adv-x="443" 
d="M140 705l219 -935h-76l-219 935h76z" />
    <glyph glyph-name="bracketright" unicode="]" horiz-adv-x="450" 
d="M308 -180h-323l5 58h249l70 798h-249l5 59h323z" />
    <glyph glyph-name="asciicircum" unicode="^" horiz-adv-x="573" 
d="M313 654l-182 -254h-78l223 305h82l170 -305h-77z" />
    <glyph glyph-name="underscore" unicode="_" horiz-adv-x="500" 
d="M-6 0h500l-6 -65h-500z" />
    <glyph glyph-name="grave" unicode="`" horiz-adv-x="312" 
d="M83 734l87 1l109 -165h-80z" />
    <glyph glyph-name="a" unicode="a" horiz-adv-x="669" 
d="M302 49q83 0 143 57.5t67 145.5q8 88 -41.5 145.5t-133.5 57.5t-143.5 -57t-67.5 -146q-8 -88 42 -145.5t134 -57.5zM527 415l8 90h77l-45 -505h-76l8 89q-80 -109 -213 -109q-113 0 -180 77t-56 195q11 119 91 196t193 77q64 0 114.5 -29t78.5 -81z" />
    <glyph glyph-name="b" unicode="b" horiz-adv-x="666" 
d="M353 451q-84 0 -143 -56.5t-67 -142.5t42 -142t134 -56t143.5 55.5t66.5 142.5q8 86 -42 142.5t-134 56.5zM605 252q-10 -118 -90.5 -195t-193.5 -77q-131 0 -193 107l-7 -87h-74l64 735h76l-27 -315q79 105 208 105q113 0 180 -77.5t57 -195.5z" />
    <glyph glyph-name="c" unicode="c" horiz-adv-x="610" 
d="M337 525q91 0 155.5 -52.5t72.5 -132.5l-75 -10q-10 56 -54.5 92t-104.5 36q-80 0 -139 -58.5t-66 -147.5t41 -147t128 -58q61 0 111 35t70 90l75 -10q-25 -80 -98.5 -131t-163.5 -51q-115 0 -182.5 76.5t-56.5 195.5t91.5 196t195.5 77z" />
    <glyph glyph-name="d" unicode="d" horiz-adv-x="666" 
d="M327 451q-83 0 -143 -56.5t-67 -142.5q-7 -87 42.5 -142.5t133.5 -55.5t143 56t67 142t-42 142.5t-134 56.5zM41 252q10 118 90.5 195.5t193.5 77.5q130 0 190 -105l28 315h76l-64 -735h-74l8 87q-37 -50 -92 -78.5t-119 -28.5q-113 0 -180.5 77t-56.5 195z" />
    <glyph glyph-name="e" unicode="e" horiz-adv-x="635" 
d="M133 294l373 -1q-4 72 -51 117t-122 45q-73 0 -128 -44.5t-72 -116.5zM50 258q11 116 93 191.5t199 75.5q115 0 183.5 -76t57.5 -192q0 -5 -1.5 -16t-1.5 -14l-454 1q2 -80 49.5 -129.5t122.5 -49.5q59 0 111.5 32.5t73.5 81.5l74 -12q-30 -74 -103.5 -122.5
t-157.5 -48.5q-117 0 -186.5 78.5t-59.5 199.5z" />
    <glyph glyph-name="f" unicode="f" horiz-adv-x="378" 
d="M228 602l-9 -97h129l-5 -63h-129l-39 -442h-77l39 442h-83l6 63h83l9 105q6 66 45.5 105.5t98.5 39.5q39 0 75 -13l-6 -66q-29 9 -56 9q-33 0 -55.5 -22.5t-25.5 -60.5z" />
    <glyph glyph-name="g" unicode="g" horiz-adv-x="666" 
d="M302 55q84 0 143 55.5t67 141.5q8 88 -41.5 145.5t-133.5 57.5t-143.5 -57t-67.5 -146q-7 -85 43 -141t133 -56zM287 -181q82 0 138 50.5t64 138.5l7 80q-80 -102 -208 -102q-114 0 -181.5 75t-56.5 191q11 118 91 194.5t194 76.5q130 0 190 -102l7 84h77l-44 -497
q-10 -119 -88.5 -188.5t-193.5 -69.5q-98 0 -166.5 56t-74.5 142l74 10q7 -61 55.5 -100t115.5 -39z" />
    <glyph glyph-name="h" unicode="h" 
d="M111 735h76l-26 -302q29 43 77.5 67.5t102.5 24.5q95 0 146.5 -62.5t43.5 -160.5l-27 -302h-76l26 302q6 68 -28.5 110.5t-100.5 42.5q-67 0 -118.5 -45.5t-57.5 -114.5l-26 -295h-76z" />
    <glyph glyph-name="i" unicode="i" horiz-adv-x="258" 
d="M104 505h77l-44 -505h-77zM150 598q-23 0 -36 15t-11 37q2 23 18 37t39 14t36 -14.5t11 -36.5q-2 -23 -18 -37.5t-39 -14.5z" />
    <glyph glyph-name="j" unicode="j" horiz-adv-x="254" 
d="M51 -75l50 580h77l-52 -588q-5 -64 -45 -103t-99 -39q-48 0 -84 13l6 67q26 -10 64 -10q34 0 56.5 22t26.5 58zM147 598q-23 0 -36 15t-11 37q1 22 17 36.5t39 14.5t36.5 -14t11.5 -37t-18 -37.5t-39 -14.5z" />
    <glyph glyph-name="k" unicode="k" horiz-adv-x="515" 
d="M47 0l64 735h76l-37 -434l237 204h103l-274 -235l240 -270h-103l-209 239l-21 -239h-76z" />
    <glyph glyph-name="l" unicode="l" horiz-adv-x="233" 
d="M110 735h77l-65 -735h-76z" />
    <glyph glyph-name="m" unicode="m" horiz-adv-x="928" 
d="M132 0h-76l44 505h74l-5 -63q57 83 157 83q62 0 107 -29t62 -77q29 49 77.5 77t107.5 28q89 0 140 -62.5t42 -159.5l-26 -302h-77l27 303q6 67 -28.5 109.5t-93.5 42.5q-62 0 -105.5 -42.5t-49.5 -109.5l-26 -303h-76l26 303q6 68 -27 110t-93 42q-64 0 -106 -42
t-48 -110z" />
    <glyph glyph-name="n" unicode="n" 
d="M100 505h77l-7 -71q30 42 79 66.5t102 24.5q95 0 146 -62.5t43 -160.5l-26 -302h-77l26 302q6 68 -27.5 110.5t-98.5 42.5q-67 0 -120 -46t-59 -114l-26 -295h-76z" />
    <glyph glyph-name="o" unicode="o" horiz-adv-x="639" 
d="M342 525q119 0 187.5 -76.5t58.5 -196.5q-10 -119 -92.5 -195.5t-200.5 -76.5t-187.5 76.5t-58.5 195.5q11 120 93 196.5t200 76.5zM301 49q84 0 143.5 57.5t67.5 145.5q7 88 -42.5 145.5t-133.5 57.5t-143.5 -57.5t-66.5 -145.5q-8 -88 41 -145.5t134 -57.5z" />
    <glyph glyph-name="p" unicode="p" horiz-adv-x="666" 
d="M328 54q84 0 143 56t67 142q7 87 -42.5 143t-133.5 56q-83 0 -143 -56.5t-67 -142.5q-8 -86 42 -142t134 -56zM615 252q-11 -118 -91.5 -195t-193.5 -77q-63 0 -112.5 27.5t-77.5 77.5l-28 -315h-76l64 735h74l-7 -87q37 50 92 78.5t119 28.5q113 0 180 -77.5t57 -195.5z
" />
    <glyph glyph-name="q" unicode="q" horiz-adv-x="666" 
d="M302 54q84 0 143 56t67 142q7 86 -42.5 142.5t-132.5 56.5q-84 0 -144 -56t-67 -143q-8 -86 42 -142t134 -56zM50 252q10 118 90.5 195.5t193.5 77.5q64 0 114.5 -28.5t78.5 -78.5l7 87h74l-64 -735h-76l27 315q-36 -50 -90.5 -77.5t-117.5 -27.5q-113 0 -180.5 77
t-56.5 195z" />
    <glyph glyph-name="r" unicode="r" horiz-adv-x="394" 
d="M100 505h74l-6 -70q56 88 148 88q33 0 67 -14l-6 -70q-35 16 -75 16q-58 0 -98 -48t-47 -124l-25 -283h-76z" />
    <glyph glyph-name="s" unicode="s" horiz-adv-x="544" 
d="M479 145q-6 -71 -68.5 -118t-153.5 -47q-97 0 -156 53.5t-51 135.5h75q-4 -52 34.5 -86t103.5 -34q58 0 98 25.5t44 63.5q2 22 -10.5 38t-37.5 25.5t-43 13.5t-46 8q-43 7 -65.5 11.5t-52 15.5t-43.5 25t-23 38.5t-6 57.5q6 66 65.5 110t141.5 44q94 0 151 -48.5
t51 -122.5l-75 1q4 43 -34 71.5t-100 28.5q-49 0 -85.5 -24.5t-40.5 -61.5q-3 -32 26 -47.5t102 -27.5q37 -7 57.5 -11t53.5 -16t50 -26t29 -39t9 -57z" />
    <glyph glyph-name="t" unicode="t" horiz-adv-x="388" 
d="M105 125l28 317h-83l5 63h87l21 118h62l-10 -118h130l-5 -63h-131l-27 -314q-3 -37 16 -59.5t55 -23.5q29 0 62 10l-6 -63q-39 -12 -81 -12q-62 0 -95 39.5t-28 105.5z" />
    <glyph glyph-name="u" unicode="u" 
d="M504 0h-76l6 71q-29 -42 -78.5 -66.5t-102.5 -24.5q-95 0 -146 62.5t-42 160.5l26 302h76l-26 -302q-6 -68 27.5 -111t99.5 -43q67 0 119.5 46t58.5 114l26 296h77z" />
    <glyph glyph-name="v" unicode="v" horiz-adv-x="564" 
d="M313 0h-106l-152 505h82l128 -444l206 444h82z" />
    <glyph glyph-name="w" unicode="w" horiz-adv-x="879" 
d="M295 0h-103l-127 505h80l106 -430l165 430h89l93 -430l180 430h80l-216 -505h-104l-85 416z" />
    <glyph glyph-name="x" unicode="x" horiz-adv-x="555" 
d="M114 0h-93l201 262l-147 243h90l117 -197l152 197h90l-190 -243l156 -262h-93l-123 214z" />
    <glyph glyph-name="y" unicode="y" horiz-adv-x="569" 
d="M24 -208l6 67q38 -14 66 -14q18 0 34 7.5t26 15t23.5 28t19.5 30.5t20.5 38t18.5 37l-183 504h84l144 -410l194 410h81l-246 -512q-26 -55 -42.5 -84t-43 -65t-57 -51.5t-68.5 -15.5q-40 0 -77 15z" />
    <glyph glyph-name="z" unicode="z" horiz-adv-x="556" 
d="M33 50l363 385h-319l6 70h434l-4 -50l-364 -386h340l-6 -69h-454z" />
    <glyph glyph-name="braceleft" unicode="{" horiz-adv-x="371" 
d="M237 -122h58l-5 -58h-91q-50 0 -79 32t-24 83l21 242q2 29 -13.5 47.5t-43.5 18.5h-10l7 78h10q28 0 47 18.5t21 47.5l21 232q4 52 38.5 84t84.5 32h91l-5 -59h-58q-32 0 -54 -20.5t-25 -53.5l-19 -222q-4 -40 -30 -67t-64 -30l-10 -1l10 -1q38 -2 59.5 -29t17.5 -67
l-21 -233q-2 -33 16 -53.5t50 -20.5z" />
    <glyph glyph-name="bar" unicode="|" horiz-adv-x="262" 
d="M127 735h72l-84 -965h-73z" />
    <glyph glyph-name="braceright" unicode="}" horiz-adv-x="371" 
d="M76 -180h-91l5 58h58q32 0 54 20.5t24 53.5l21 233q4 41 30 67.5t64 28.5l10 1l-10 1q-38 3 -59.5 30t-17.5 67l19 222q3 33 -15 53.5t-50 20.5h-58l5 59h91q50 0 78.5 -32t24.5 -84l-20 -232q-3 -29 13 -47.5t44 -18.5h10l-7 -78h-10q-28 0 -47 -18.5t-22 -47.5
l-21 -242q-5 -51 -39 -83t-84 -32z" />
    <glyph glyph-name="asciitilde" unicode="~" horiz-adv-x="651" 
d="M91 272l-30 46q29 37 73 60.5t83 23.5q40 0 86.5 -29t90 -58t76.5 -29q61 2 109 61l30 -47q-28 -36 -69.5 -58.5t-79.5 -22.5q-32 0 -68.5 18t-63.5 39.5t-61 39.5t-62 18q-60 0 -114 -62z" />
    <glyph glyph-name="exclamdown" unicode="&#xa1;" horiz-adv-x="245" 
d="M38 -230l17 185l45 308h49l-10 -308l-16 -185h-85zM144 487q23 0 36 -14.5t11 -37.5q-1 -22 -17 -36.5t-39 -14.5t-36.5 14t-11.5 37t18 37.5t39 14.5z" />
    <glyph glyph-name="cent" unicode="&#xa2;" horiz-adv-x="610" 
d="M326 -17l-8 -91h-77l8 90q-100 13 -156.5 87.5t-46.5 182.5t79.5 182.5t170.5 87.5l7 86h78l-8 -86q78 -11 129.5 -61t58.5 -121l-75 -10q-9 56 -54 92t-105 36q-80 0 -138.5 -58.5t-65.5 -147.5q-8 -89 40 -147t128 -58q61 0 111 35t71 90l74 -10q-22 -70 -82.5 -119
t-138.5 -60z" />
    <glyph glyph-name="sterling" unicode="&#xa3;" 
d="M567 520l-75 -14q1 71 -28.5 114t-85.5 43q-53 0 -86 -39t-39 -102l-12 -138h251l-6 -69h-254q-14 -116 -45.5 -170t-83.5 -76h424l-7 -69h-501l8 89q25 5 43.5 15.5t36.5 34.5t30 68t18 108h-99l6 69h100l12 138q8 93 64.5 150.5t144.5 57.5t135.5 -58t48.5 -152z" />
    <glyph glyph-name="currency" unicode="&#xa4;" horiz-adv-x="749" 
d="M355 55q85 0 144.5 55.5t66.5 141.5q8 86 -41.5 142t-134.5 56q-83 0 -142.5 -56t-66.5 -142q-8 -86 41 -141.5t133 -55.5zM560 460l106 92l41 -50l-103 -90q47 -67 38 -160q-7 -92 -66 -160l89 -90l-52 -50l-89 93q-77 -53 -174 -53t-163 52l-107 -92l-43 49l104 91
q-45 67 -38 160q9 94 66 160l-87 91l52 49l89 -92q76 52 172 52q99 0 165 -52z" />
    <glyph glyph-name="yen" unicode="&#xa5;" horiz-adv-x="684" 
d="M56 289h218l-205 416h95l177 -374l239 374h96l-276 -416h217l-6 -69h-238l-7 -78h238l-6 -70h-238l-6 -72h-84l7 72h-240l6 70h240l7 78h-240z" />
    <glyph glyph-name="section" unicode="&#xa7;" horiz-adv-x="614" 
d="M462 278q2 23 -8 40t-23.5 26t-39 16t-40.5 8.5t-42 4.5q-18 2 -28 4q-59 -3 -99.5 -29.5t-43.5 -61.5q-2 -22 7 -38.5t21.5 -26t36 -16.5t39.5 -9.5t43 -5.5q5 0 15.5 -1.5t15.5 -2.5q62 3 102.5 28.5t43.5 63.5zM112 534q7 74 70.5 122.5t153.5 48.5q81 0 137.5 -49.5
t63.5 -126.5l-79 -9q-2 48 -39 79.5t-91 31.5q-57 0 -96 -25t-42 -64q-2 -21 6.5 -37.5t21 -26.5t38 -18.5t43.5 -12.5t51 -10q38 -7 59 -12t52 -16.5t46.5 -25.5t26.5 -37.5t8 -54.5q-4 -47 -41.5 -83.5t-94.5 -46.5q43 -12 68 -48.5t21 -84.5q-7 -81 -73 -132t-162 -51
q-82 0 -139.5 49.5t-63.5 126.5l81 10q3 -49 40 -80.5t92 -31.5q59 0 98.5 26.5t43.5 72.5q2 23 -7 41t-21.5 28t-38.5 18t-43.5 11.5t-51.5 8.5q-35 5 -59 10.5t-52 16.5t-45 25.5t-27 38t-7 54.5q4 47 40.5 83t91.5 47q-39 13 -61.5 49.5t-18.5 84.5z" />
    <glyph glyph-name="dieresis" unicode="&#xa8;" horiz-adv-x="444" 
d="M124 588q-23 0 -36.5 14.5t-11.5 36.5q2 23 18 37t39 14t36.5 -14t11.5 -37q-2 -22 -18 -36.5t-39 -14.5zM363 588q-23 0 -36.5 14.5t-11.5 36.5q2 23 18 37t39 14t36 -14.5t11 -36.5t-18 -36.5t-38 -14.5z" />
    <glyph glyph-name="copyright" unicode="&#xa9;" horiz-adv-x="937" 
d="M493 601q-153 0 -260 -98.5t-120 -249.5q-14 -153 75.5 -251.5t243.5 -98.5t260.5 98.5t120.5 251.5q13 151 -77 249.5t-243 98.5zM493 522q85 0 148 -49.5t75 -126.5l-55 -12q-13 58 -62 95t-114 37q-88 0 -150.5 -60t-70.5 -154t44 -154t142 -60q67 0 124.5 39.5
t79.5 101.5l47 -13q-25 -80 -97.5 -132t-159.5 -52q-116 0 -184.5 76t-57.5 194q11 119 92 194.5t199 75.5zM427 -150q-179 0 -283.5 113t-89.5 290q15 174 140 287.5t303 113.5q179 0 284 -112.5t89 -288.5q-16 -177 -140 -290t-303 -113z" />
    <glyph glyph-name="guillemotleft" unicode="&#xab;" horiz-adv-x="638" 
d="M364 505l-226 -253l181 -252h-91l-179 252l223 253h92zM599 505l-226 -253l182 -252h-92l-179 252l223 253h92z" />
    <glyph glyph-name="logicalnot" unicode="&#xac;" horiz-adv-x="642" 
d="M512 70l19 218h-471l6 66h531l-25 -284h-60z" />
    <glyph glyph-name="registered" unicode="&#xae;" horiz-adv-x="937" 
d="M113 254q-14 -154 75.5 -252t243.5 -98t261 98t120 252q13 150 -77 248.5t-243 98.5t-260 -98.5t-120 -248.5zM520 456h-144l-18 -200h149q47 0 79.5 28.5t36.5 74.5q4 45 -24.5 71t-78.5 26zM427 -149q-179 0 -283.5 113t-89.5 290q15 173 140 287t303 114
q179 0 284 -112.5t89 -288.5q-16 -177 -140 -290t-303 -113zM548 214l99 -203h-68l-94 197h-131l-17 -197h-60l43 494h215q70 0 111.5 -42t36.5 -107q-5 -55 -42 -93.5t-93 -48.5z" />
    <glyph glyph-name="macron" unicode="&#xaf;" horiz-adv-x="416" 
d="M394 668l-5 -54h-314l5 54h314z" />
    <glyph glyph-name="degree" unicode="&#xb0;" horiz-adv-x="503" 
d="M250 347q-91 0 -141.5 53.5t-42.5 140.5q8 88 67.5 141.5t150.5 53.5q90 0 140.5 -53.5t42.5 -141.5q-8 -87 -67.5 -140.5t-149.5 -53.5zM279 681q-64 0 -106 -38.5t-47 -101.5q-5 -62 30 -100.5t99 -38.5q63 0 105 38.5t47 100.5q5 63 -30 101.5t-98 38.5z" />
    <glyph glyph-name="plusminus" unicode="&#xb1;" horiz-adv-x="567" 
d="M35 71h466l-7 -71h-465zM317 186h-79l12 128h-194l6 71h194l10 120h79l-10 -120h193l-6 -71h-194z" />
    <glyph glyph-name="acute" unicode="&#xb4;" horiz-adv-x="312" 
d="M293 734l-145 -164h-80l139 165z" />
    <glyph glyph-name="paragraph" unicode="&#xb6;" horiz-adv-x="713" 
d="M654 645h-92l-76 -868h-70l76 868h-124l-76 -868h-69l48 549q-101 0 -157.5 52t-48.5 137q8 86 73.5 138t165.5 52h355z" />
    <glyph glyph-name="periodcentered" unicode="&#xb7;" horiz-adv-x="206" 
d="M109 235q-23 0 -36.5 14.5t-11.5 36.5q2 23 18 37t38 14q23 0 36.5 -14.5t11.5 -36.5t-18 -36.5t-38 -14.5z" />
    <glyph glyph-name="cedilla" unicode="&#xb8;" horiz-adv-x="320" 
d="M135 -99h-41l24 109h49l-17 -76q52 0 80.5 -29t23.5 -76q-4 -44 -36.5 -71.5t-81.5 -27.5q-42 0 -70 23t-32 59l43 11q5 -23 21.5 -37t38.5 -14q28 0 46 16.5t20 43.5q3 31 -15.5 50t-52.5 19z" />
    <glyph glyph-name="guillemotright" unicode="&#xbb;" horiz-adv-x="636" 
d="M353 252l-223 -252h-92l226 252l-182 253h92zM588 252l-223 -252h-92l226 252l-182 253h92z" />
    <glyph glyph-name="questiondown" unicode="&#xbf;" horiz-adv-x="601" 
d="M273 318h77q-7 -79 -36 -123t-87 -82q-35 -24 -51.5 -36.5t-34.5 -39t-21 -56.5q-5 -59 35 -99.5t104 -40.5q68 0 117.5 46.5t64.5 120.5l77 -15q-21 -100 -94.5 -163t-173.5 -63q-99 0 -160 61t-53 153q3 34 14 61t33 49t40.5 36t53.5 36q48 29 69 62t26 93zM329 510
q23 0 36 -15t11 -37q-1 -22 -17 -37t-39 -15t-36.5 14.5t-11.5 37.5t18 37.5t39 14.5z" />
    <glyph glyph-name="Agrave" unicode="&#xc0;" horiz-adv-x="704" 
d="M368 631l-198 -422h321zM144 144l-66 -144h-90l326 705h119l202 -705h-89l-41 144h-361zM337 775l-101 144h90l98 -144h-87z" />
    <glyph glyph-name="Aacute" unicode="&#xc1;" horiz-adv-x="704" 
d="M368 631l-198 -422h321zM144 144l-66 -144h-90l326 705h119l202 -705h-89l-41 144h-361zM331 775l123 144h90l-126 -144h-87z" />
    <glyph glyph-name="Acircumflex" unicode="&#xc2;" horiz-adv-x="704" 
d="M368 631l-198 -422h321zM144 144l-66 -144h-90l326 705h119l202 -705h-89l-41 144h-361zM391 876l-97 -101h-77l136 145h83l111 -145h-76z" />
    <glyph glyph-name="Atilde" unicode="&#xc3;" horiz-adv-x="704" 
d="M368 631l-197 -422h320zM145 144l-67 -144h-89l325 705h120l201 -705h-88l-41 144h-361zM258 810l-39 30q16 30 47 48t67 18q37 0 74 -28t60 -28q43 0 69 45l39 -29q-16 -31 -47.5 -49.5t-69.5 -18.5q-32 0 -55 14t-40.5 28t-36.5 14q-38 0 -68 -44z" />
    <glyph glyph-name="Adieresis" unicode="&#xc4;" horiz-adv-x="704" 
d="M369 631l-197 -422h320zM145 144l-66 -144h-89l325 705h120l201 -705h-88l-42 144h-361zM275 785q-23 0 -36 14.5t-11 36.5q1 22 17 36.5t39 14.5t36 -14.5t12 -36.5q-2 -23 -18 -37t-39 -14zM494 785q-23 0 -36 14.5t-12 36.5q2 22 18 36.5t39 14.5t36 -14.5t12 -36.5
q-2 -22 -18 -36.5t-39 -14.5z" />
    <glyph glyph-name="Aring" unicode="&#xc5;" horiz-adv-x="704" 
d="M367 631l-197 -422h320zM388 885q-19 0 -31.5 -11.5t-14.5 -29.5q-2 -19 9 -31t30 -12q18 0 31.5 12t14.5 31q2 18 -9 29.5t-30 11.5zM144 144l-67 -144h-89l325 705h120l201 -705h-88l-42 144h-360zM377 754q-41 0 -65.5 25.5t-20.5 63.5q3 39 31 64t69 25t65 -25
t21 -64t-31 -64t-69 -25z" />
    <glyph glyph-name="AE" unicode="&#xc6;" horiz-adv-x="939" 
d="M218 214h224l38 430zM506 74h350l-7 -74h-425l12 143h-258l-87 -143h-93l427 705h476l-6 -75h-340l-21 -237h300l-6 -70h-300z" />
    <glyph glyph-name="Ccedilla" unicode="&#xc7;" horiz-adv-x="821" 
d="M392 -99h-41l16 75q-149 9 -235 114t-72 262q14 164 127 271t272 107q119 0 206.5 -73t104.5 -184l-83 -10q-13 83 -79 138t-156 55q-123 0 -210 -85.5t-99 -218.5q-11 -132 61.5 -217.5t194.5 -85.5q89 0 164.5 52.5t104.5 133.5l79 -15q-34 -101 -126.5 -169
t-204.5 -75l-9 -42q51 0 79.5 -29t24.5 -76q-4 -44 -37 -71.5t-82 -27.5q-41 0 -69.5 23t-31.5 59l43 11q5 -23 21.5 -37t38.5 -14q27 0 45.5 16.5t20.5 43.5q3 31 -15.5 50t-52.5 19z" />
    <glyph glyph-name="Egrave" unicode="&#xc8;" horiz-adv-x="645" 
d="M164 330l-22 -256h411l-7 -74h-492l62 705h482l-7 -74h-400l-20 -231h360l-6 -70h-361zM219 919h91l98 -144h-87z" />
    <glyph glyph-name="Eacute" unicode="&#xc9;" horiz-adv-x="645" 
d="M164 330l-22 -256h411l-7 -74h-492l62 705h482l-7 -74h-400l-20 -231h360l-6 -70h-361zM438 919h90l-126 -144h-87z" />
    <glyph glyph-name="Ecircumflex" unicode="&#xca;" horiz-adv-x="645" 
d="M164 330l-22 -256h411l-7 -74h-492l62 705h482l-7 -74h-400l-20 -231h360l-6 -70h-361zM277 775h-76l136 145h83l111 -145h-76l-81 101z" />
    <glyph glyph-name="Edieresis" unicode="&#xcb;" horiz-adv-x="645" 
d="M166 330l-23 -256h411l-6 -74h-492l62 705h481l-6 -74h-401l-20 -231h361l-6 -70h-361zM259 785q-23 0 -36 14.5t-12 36.5q2 22 18 36.5t39 14.5t36 -14.5t12 -36.5q-2 -22 -18 -36.5t-39 -14.5zM478 785q-23 0 -36 14.5t-12 36.5q2 23 18 37t39 14t36 -14.5t11 -36.5
q-1 -22 -17 -36.5t-39 -14.5z" />
    <glyph glyph-name="Igrave" unicode="&#xcc;" horiz-adv-x="275" 
d="M117 705h83l-61 -705h-84zM18 919h91l97 -144h-87z" />
    <glyph glyph-name="Iacute" unicode="&#xcd;" horiz-adv-x="276" 
d="M118 705h83l-61 -705h-84zM237 919h91l-127 -144h-87z" />
    <glyph glyph-name="Icircumflex" unicode="&#xce;" horiz-adv-x="275" 
d="M118 705h83l-61 -705h-84zM77 775h-77l136 145h83l111 -145h-76l-80 101z" />
    <glyph glyph-name="Idieresis" unicode="&#xcf;" horiz-adv-x="275" 
d="M118 705h84l-62 -705h-83zM58 785q-23 0 -36.5 14.5t-11.5 36.5q2 23 18 37t39 14t36 -14.5t11 -36.5q-2 -23 -18 -37t-38 -14zM277 785q-23 0 -36.5 14.5t-11.5 36.5q2 23 18 37t38 14q23 0 36.5 -14.5t11.5 -36.5q-2 -23 -18 -37t-38 -14z" />
    <glyph glyph-name="Ntilde" unicode="&#xd1;" horiz-adv-x="747" 
d="M117 705h109l312 -603l53 603h84l-62 -705h-109l-313 603l-53 -603h-83zM276 810l-39 30q17 30 47.5 48t66.5 18q38 0 75 -28t59 -28q43 0 69 45l40 -29q-17 -31 -48.5 -49.5t-69.5 -18.5q-25 0 -45 9t-31 19t-25.5 19t-29.5 9q-39 0 -69 -44z" />
    <glyph glyph-name="Ograve" unicode="&#xd2;" horiz-adv-x="880" 
d="M398 -25q-167 0 -264 105.5t-83 271.5q15 166 131 272t282 106t263 -106t83 -272t-129.5 -271.5t-282.5 -105.5zM457 656q-129 0 -220 -85.5t-102 -218.5q-12 -132 64 -217t205 -86q130 0 220.5 85.5t102.5 217.5q11 133 -64.5 218.5t-205.5 85.5zM321 919h91l97 -144
h-86z" />
    <glyph glyph-name="Oacute" unicode="&#xd3;" horiz-adv-x="880" 
d="M398 -25q-167 0 -264 105.5t-83 271.5q15 166 131 272t282 106t263 -106t83 -272t-129.5 -271.5t-282.5 -105.5zM457 656q-129 0 -220 -85.5t-102 -218.5q-12 -132 64 -217t205 -86q130 0 220.5 85.5t102.5 217.5q11 133 -64.5 218.5t-205.5 85.5zM540 919h90l-127 -144
h-86z" />
    <glyph glyph-name="Ocircumflex" unicode="&#xd4;" horiz-adv-x="880" 
d="M457 656q-129 0 -220 -85.5t-102 -218.5q-12 -132 64 -217t205 -86q130 0 220.5 85.5t102.5 217.5q11 133 -64.5 218.5t-205.5 85.5zM398 -25q-167 0 -264 105.5t-83 271.5q15 166 131 272t282 106t263 -106t83 -272t-129.5 -271.5t-282.5 -105.5zM476 876l-97 -101h-77
l137 145h82l111 -145h-76z" />
    <glyph glyph-name="Otilde" unicode="&#xd5;" horiz-adv-x="880" 
d="M458 656q-130 0 -220.5 -85.5t-102.5 -218.5q-11 -132 64.5 -217t205.5 -86q129 0 220 85.5t102 217.5q12 133 -63.5 218.5t-205.5 85.5zM398 -25q-166 0 -263 105.5t-83 271.5t130 272t282 106t263.5 -106t83.5 -272q-15 -166 -130.5 -271.5t-282.5 -105.5zM342 810
l-39 30q16 30 46.5 48t66.5 18q38 0 75 -28t59 -28q42 0 70 45l39 -29q-16 -31 -48 -49.5t-70 -18.5q-41 0 -76 28t-55 28q-39 0 -68 -44z" />
    <glyph glyph-name="Odieresis" unicode="&#xd6;" horiz-adv-x="880" 
d="M399 -25q-167 0 -264 105.5t-82 271.5q14 166 130 272t282 106t263.5 -106t83.5 -272q-15 -166 -130.5 -271.5t-282.5 -105.5zM459 656q-130 0 -220.5 -85.5t-102.5 -218.5q-11 -132 64.5 -217t205.5 -86q129 0 220 85.5t102 217.5q12 133 -64 218.5t-205 85.5zM361 785
q-23 0 -36.5 14t-11.5 37t18 37t39 14t36 -14.5t11 -36.5q-1 -22 -17 -36.5t-39 -14.5zM580 785q-23 0 -36.5 14.5t-11.5 36.5q2 23 18 37t39 14t36 -14.5t11 -36.5q-1 -22 -17 -36.5t-39 -14.5z" />
    <glyph glyph-name="multiply" unicode="&#xd7;" horiz-adv-x="395" 
d="M90 141l-43 46l112 109l-93 109l51 46l90 -107l110 107l43 -46l-112 -109l92 -109l-50 -46l-91 107z" />
    <glyph glyph-name="Oslash" unicode="&#xd8;" horiz-adv-x="860" 
d="M450 656q-124 0 -212.5 -86t-100.5 -218q-7 -83 21.5 -149.5t84.5 -106.5l318 537q-51 23 -111 23zM397 49q125 0 213 85.5t99 217.5q7 78 -17.5 141.5t-73.5 103.5l-314 -533q42 -15 93 -15zM263 -4l-79 -136h-79l97 165q-78 48 -118 134t-30 193q14 164 128 271
t274 107q79 0 145 -29l94 159l79 1l-113 -192q70 -50 105.5 -133t26.5 -184q-14 -164 -128 -270.5t-275 -106.5q-64 0 -127 21z" />
    <glyph glyph-name="Ugrave" unicode="&#xd9;" horiz-adv-x="749" 
d="M562 286l36 419h84l-37 -419q-12 -136 -100 -223.5t-213 -87.5t-198 87.5t-61 223.5l37 419h84l-37 -419q-8 -99 42 -168t140 -69t151.5 66t71.5 171zM258 919h90l98 -144h-87z" />
    <glyph glyph-name="Uacute" unicode="&#xda;" horiz-adv-x="749" 
d="M562 286l36 419h84l-37 -419q-12 -136 -100 -223.5t-213 -87.5t-198 87.5t-61 223.5l37 419h84l-37 -419q-8 -99 42 -168t140 -69t151.5 66t71.5 171zM349 775l123 144h90l-126 -144h-87z" />
    <glyph glyph-name="Ucircumflex" unicode="&#xdb;" horiz-adv-x="749" 
d="M562 286l36 419h84l-37 -419q-12 -136 -100 -223.5t-213 -87.5t-198 87.5t-61 223.5l37 419h84l-37 -419q-8 -99 42 -168t140 -69t151.5 66t71.5 171zM411 876l-97 -101h-77l136 145h83l111 -145h-76z" />
    <glyph glyph-name="Udieresis" unicode="&#xdc;" horiz-adv-x="749" 
d="M563 286l37 419h83l-37 -419q-11 -136 -99 -223.5t-213 -87.5q-126 0 -198.5 87t-60.5 224l36 419h84l-37 -419q-8 -99 42.5 -168t139.5 -69q90 0 152 66t71 171zM295 785q-23 0 -36 14.5t-11 36.5q1 22 17 36.5t39 14.5t36.5 -14t11.5 -37t-18 -37t-39 -14zM514 785
q-23 0 -36 14.5t-11 36.5q1 22 17 36.5t39 14.5t36 -14.5t12 -36.5q-2 -23 -18 -37t-39 -14z" />
    <glyph glyph-name="Yacute" unicode="&#xdd;" horiz-adv-x="647" 
d="M242 0l23 262l-215 443h92l172 -363l232 363h94l-291 -443l-23 -262h-84zM420 919h91l-127 -144h-87z" />
    <glyph glyph-name="germandbls" unicode="&#xdf;" horiz-adv-x="684" 
d="M178 472l-41 -472h-84l42 480q9 105 83 173.5t180 68.5q98 0 158 -54.5t52 -136.5q-5 -61 -41.5 -103.5t-88.5 -50.5q77 -10 121.5 -65.5t37.5 -135.5q-7 -87 -72.5 -144t-157.5 -57q-77 0 -157 46l30 70q65 -43 128 -43q60 0 100.5 37.5t45.5 97.5q6 72 -35 114.5
t-128 42.5h-42l6 70h43q51 0 86.5 32t39.5 83q5 53 -33 88t-101 35q-70 0 -117.5 -48t-54.5 -128z" />
    <glyph glyph-name="agrave" unicode="&#xe0;" horiz-adv-x="669" 
d="M293 49q83 0 143 57.5t67 145.5q8 88 -41.5 145.5t-133.5 57.5t-143.5 -57t-67.5 -146q-8 -88 42 -145.5t134 -57.5zM518 415l8 90h77l-45 -505h-76l8 89q-80 -109 -213 -109q-113 0 -180 77t-56 195q11 119 91 196t193 77q64 0 114.5 -29t78.5 -81zM292 565l-116 164
l86 1l110 -165h-80z" />
    <glyph glyph-name="aacute" unicode="&#xe1;" horiz-adv-x="669" 
d="M293 49q83 0 143 57.5t67 145.5q8 88 -41.5 145.5t-133.5 57.5t-143.5 -57t-67.5 -146q-8 -88 42 -145.5t134 -57.5zM518 415l8 90h77l-45 -505h-76l8 89q-80 -109 -213 -109q-113 0 -180 77t-56 195q11 119 91 196t193 77q64 0 114.5 -29t78.5 -81zM282 565l138 164h87
l-145 -164h-80z" />
    <glyph glyph-name="acircumflex" unicode="&#xe2;" horiz-adv-x="669" 
d="M293 49q83 0 143 57.5t67 145.5q8 88 -41.5 145.5t-133.5 57.5t-143.5 -57t-67.5 -146q-8 -88 42 -145.5t134 -57.5zM518 415l8 90h77l-45 -505h-76l8 89q-80 -109 -213 -109q-113 0 -180 77t-56 195q11 119 91 196t193 77q64 0 114.5 -29t78.5 -81zM340 685l-99 -120
h-73l135 165h81l107 -165h-73z" />
    <glyph glyph-name="atilde" unicode="&#xe3;" horiz-adv-x="669" 
d="M295 49q83 0 143 57.5t67 145.5q8 88 -41.5 145.5t-133.5 57.5t-143.5 -57t-67.5 -146q-8 -88 42 -145.5t134 -57.5zM521 415l7 90h77l-44 -505h-77l8 89q-80 -109 -213 -109q-113 0 -180 77t-56 195q11 119 91 196t193 77q64 0 114.5 -29t79.5 -81zM219 592l-40 23
q17 29 48 47.5t65 18.5q36 0 75.5 -29t62.5 -29q43 0 64 38l41 -23q-16 -30 -47.5 -48.5t-69.5 -18.5q-39 0 -77 28.5t-60 28.5q-41 0 -62 -36z" />
    <glyph glyph-name="adieresis" unicode="&#xe4;" horiz-adv-x="669" 
d="M295 49q83 0 143 57.5t67 145.5q8 88 -41.5 145.5t-133.5 57.5t-143.5 -57t-67.5 -146q-8 -88 42 -145.5t134 -57.5zM520 415l8 90h77l-45 -505h-76l8 89q-80 -109 -213 -109q-113 0 -180 77t-56 195q11 119 91 196t193 77q64 0 114.5 -29t78.5 -81zM212 582
q-23 0 -36 14.5t-11 36.5q2 23 18 37t38 14q23 0 36.5 -14.5t11.5 -36.5q-2 -23 -18 -37t-39 -14zM451 582q-23 0 -36 14.5t-11 36.5q1 22 17 36.5t39 14.5t36.5 -14t11.5 -37t-18 -37t-39 -14z" />
    <glyph glyph-name="aring" unicode="&#xe5;" horiz-adv-x="669" 
d="M290 49q83 0 143.5 57.5t67.5 145.5t-42.5 145.5t-132.5 57.5q-84 0 -144 -57.5t-67 -145.5q-8 -88 41.5 -145.5t133.5 -57.5zM341 738q-30 0 -51.5 -19t-22.5 -49q-3 -30 14.5 -49.5t47.5 -19.5t51 19.5t23 49.5q3 30 -14.5 49t-47.5 19zM516 415l8 90h76l-44 -505h-76
l7 89q-37 -51 -92.5 -80t-119.5 -29q-113 0 -180 77t-57 195q11 119 91 196t193 77q65 0 115.5 -29t78.5 -81zM325 555q-53 0 -83.5 32.5t-26.5 82.5q5 50 41.5 82.5t88.5 32.5t83 -32.5t26 -82.5t-41 -82.5t-88 -32.5z" />
    <glyph glyph-name="ae" unicode="&#xe6;" horiz-adv-x="1083" 
d="M337 460q-84 0 -143.5 -58.5t-67.5 -149.5q-8 -90 41.5 -148.5t133.5 -58.5q83 0 143 57.5t68 149.5q8 91 -41.5 149.5t-133.5 58.5zM583 279h373q5 77 -44.5 126.5t-130.5 49.5q-75 0 -130 -49.5t-68 -126.5zM522 420l8 85h61l-8 -92q68 112 207 112q115 0 183.5 -75
t58.5 -191q-7 -43 -7 -45h-445q5 -75 52 -120t122 -45q58 0 108 31.5t68 79.5l71 -10q-20 -74 -90.5 -122t-158.5 -48q-68 0 -121 31.5t-76 84.5l-8 -96h-61l7 84q-81 -104 -211 -104q-112 0 -177.5 77t-54.5 195q11 119 89.5 196t190.5 77q63 0 113 -28t79 -77z" />
    <glyph glyph-name="ccedilla" unicode="&#xe7;" horiz-adv-x="610" 
d="M296 -99h-41l17 79q-108 7 -170 82.5t-52 189.5q11 119 91.5 196t195.5 77q91 0 155.5 -52.5t72.5 -132.5l-75 -10q-10 56 -54.5 92t-104.5 36q-80 0 -139 -58.5t-66 -147.5t41 -147t128 -58q61 0 111 35t70 90l75 -10q-22 -72 -85.5 -121.5t-143.5 -58.5l-11 -48
q51 0 79.5 -29t24.5 -76q-4 -44 -37 -71.5t-82 -27.5q-41 0 -69.5 23t-32.5 59l44 11q5 -23 21.5 -37t38.5 -14q27 0 45.5 16.5t20.5 43.5q2 32 -16 50.5t-52 18.5z" />
    <glyph glyph-name="egrave" unicode="&#xe8;" horiz-adv-x="635" 
d="M124 294l373 -1q-4 72 -51 117t-122 45q-73 0 -128 -44.5t-72 -116.5zM41 258q11 116 93 191.5t199 75.5q115 0 183.5 -76t57.5 -192q0 -5 -1.5 -16t-1.5 -14l-454 1q2 -80 49.5 -129.5t122.5 -49.5q59 0 111.5 32.5t73.5 81.5l74 -12q-30 -74 -103.5 -122.5
t-157.5 -48.5q-117 0 -186.5 78.5t-59.5 199.5zM302 565l-117 164l87 1l109 -165h-79z" />
    <glyph glyph-name="eacute" unicode="&#xe9;" horiz-adv-x="635" 
d="M124 294l373 -1q-4 72 -51 117t-122 45q-73 0 -128 -44.5t-72 -116.5zM41 258q11 116 93 191.5t199 75.5q115 0 183.5 -76t57.5 -192q0 -5 -1.5 -16t-1.5 -14l-454 1q2 -80 49.5 -129.5t122.5 -49.5q59 0 111.5 32.5t73.5 81.5l74 -12q-30 -74 -103.5 -122.5
t-157.5 -48.5q-117 0 -186.5 78.5t-59.5 199.5zM292 565l138 164h87l-145 -164h-80z" />
    <glyph glyph-name="ecircumflex" unicode="&#xea;" horiz-adv-x="635" 
d="M124 294l373 -1q-4 72 -51 117t-122 45q-73 0 -128 -44.5t-72 -116.5zM41 258q11 116 93 191.5t199 75.5q115 0 183.5 -76t57.5 -192q0 -5 -1.5 -16t-1.5 -14l-454 1q2 -80 49.5 -129.5t122.5 -49.5q59 0 111.5 32.5t73.5 81.5l74 -12q-30 -74 -103.5 -122.5
t-157.5 -48.5q-117 0 -186.5 78.5t-59.5 199.5zM350 685l-100 -120h-72l134 165h82l107 -165h-74z" />
    <glyph glyph-name="edieresis" unicode="&#xeb;" horiz-adv-x="635" 
d="M126 294l373 -1q-4 72 -51 117t-122 45q-73 0 -128 -44.5t-72 -116.5zM43 258q11 116 93 191.5t199 75.5q115 0 183.5 -76t57.5 -192q0 -5 -1.5 -16t-1.5 -14l-454 1q2 -80 49.5 -129.5t122.5 -49.5q59 0 111.5 32.5t73.5 81.5l74 -12q-30 -74 -103.5 -122.5
t-157.5 -48.5q-117 0 -186.5 78.5t-59.5 199.5zM222 582q-23 0 -36 14.5t-11 36.5q1 22 17 36.5t39 14.5t36.5 -14t11.5 -37t-18 -37t-39 -14zM461 582q-23 0 -36 14.5t-11 36.5q2 23 17.5 37t38.5 14t36.5 -14t11.5 -37t-18 -37t-39 -14z" />
    <glyph glyph-name="igrave" unicode="&#xec;" horiz-adv-x="233" 
d="M91 505h77l-44 -505h-77zM-18 729l87 1l109 -165h-80z" />
    <glyph glyph-name="iacute" unicode="&#xed;" horiz-adv-x="237" 
d="M93 505h76l-44 -505h-76zM228 729h87l-145 -164h-80z" />
    <glyph glyph-name="icircumflex" unicode="&#xee;" horiz-adv-x="232" 
d="M89 505h76l-44 -505h-76zM44 565h-72l135 165h81l107 -165h-74l-77 120z" />
    <glyph glyph-name="idieresis" unicode="&#xef;" horiz-adv-x="239" 
d="M96 505h76l-44 -505h-77zM21 582q-23 0 -36.5 14t-11.5 37t18 37t39 14t36 -14.5t11 -36.5q-1 -22 -17 -36.5t-39 -14.5zM260 582q-23 0 -36.5 14t-11.5 37t18 37t39 14t36 -14.5t11 -36.5q-1 -22 -17 -36.5t-39 -14.5z" />
    <glyph glyph-name="ntilde" unicode="&#xf1;" 
d="M49 0l44 505h77l-7 -71q30 42 79.5 66.5t102.5 24.5q95 0 145.5 -62.5t42.5 -160.5l-26 -302h-77l27 302q5 68 -28.5 110.5t-98.5 42.5q-67 0 -120 -46t-59 -114l-25 -295h-77zM194 592l-39 23q16 29 47 47.5t66 18.5q36 0 75 -29t62 -29q43 0 65 38l41 -23
q-17 -30 -48.5 -48.5t-68.5 -18.5q-32 0 -55.5 14.5t-42.5 28.5t-39 14q-40 0 -63 -36z" />
    <glyph glyph-name="ograve" unicode="&#xf2;" horiz-adv-x="640" 
d="M334 525q118 0 187 -76.5t59 -196.5q-11 -119 -93.5 -195.5t-200.5 -76.5t-187 76.5t-58 195.5q11 120 93 196.5t200 76.5zM293 49q83 0 143 57.5t67 145.5q8 88 -41.5 145.5t-133.5 57.5q-85 0 -144 -57t-67 -146q-8 -88 42 -145.5t134 -57.5zM185 729l87 1l109 -165
h-80z" />
    <glyph glyph-name="oacute" unicode="&#xf3;" horiz-adv-x="640" 
d="M334 525q118 0 187 -76.5t59 -196.5q-10 -119 -92.5 -195.5t-200.5 -76.5q-119 0 -188 76.5t-58 195.5q11 120 93 196.5t200 76.5zM293 49q83 0 143 57.5t67 145.5q8 88 -41.5 145.5t-133.5 57.5q-85 0 -144 -57t-67 -146q-8 -88 42 -145.5t134 -57.5zM430 729h86
l-144 -164h-80z" />
    <glyph glyph-name="ocircumflex" unicode="&#xf4;" horiz-adv-x="640" 
d="M293 49q83 0 143 57.5t67 145.5q8 88 -41.5 145.5t-133.5 57.5q-85 0 -144 -57t-67 -146q-8 -88 42 -145.5t134 -57.5zM334 525q118 0 187 -76.5t59 -196.5q-11 -119 -93.5 -195.5t-200.5 -76.5t-187 76.5t-58 195.5q11 120 93 196.5t200 76.5zM349 685l-99 -120h-72
l134 165h82l106 -165h-73z" />
    <glyph glyph-name="otilde" unicode="&#xf5;" horiz-adv-x="640" 
d="M295 49q84 0 143 57.5t67 145.5t-41.5 145.5t-133.5 57.5t-143.5 -57t-67.5 -146q-8 -88 42 -145.5t134 -57.5zM336 525q119 0 187.5 -76.5t58.5 -196.5q-10 -119 -92.5 -195.5t-200.5 -76.5t-187.5 76.5t-58.5 195.5q11 120 93 196.5t200 76.5zM218 592l-40 23
q17 29 48 47.5t65 18.5q36 0 75.5 -29t62.5 -29q43 0 65 38l40 -23q-16 -30 -47.5 -48.5t-68.5 -18.5q-32 0 -55.5 14.5t-42.5 28.5t-39 14q-40 0 -63 -36z" />
    <glyph glyph-name="odieresis" unicode="&#xf6;" horiz-adv-x="640" 
d="M336 525q118 0 187 -76.5t59 -196.5q-10 -119 -92.5 -195.5t-200.5 -76.5q-119 0 -188 76.5t-58 195.5q11 120 93 196.5t200 76.5zM295 49q83 0 143 57.5t67 145.5q8 88 -41.5 145.5t-133.5 57.5q-85 0 -144 -57t-67 -146q-8 -88 42 -145.5t134 -57.5zM222 582
q-23 0 -36.5 14t-11.5 37t18 37t39 14t36 -14.5t11 -36.5q-1 -22 -17 -36.5t-39 -14.5zM461 582q-23 0 -36.5 14.5t-11.5 36.5q2 23 18 37t39 14t36 -14.5t11 -36.5q-1 -22 -17 -36.5t-39 -14.5z" />
    <glyph glyph-name="divide" unicode="&#xf7;" horiz-adv-x="552" 
d="M255 20q-20 0 -32 13t-11 34q1 19 16 32t35 13q21 0 33.5 -12.5t10.5 -32.5q-2 -21 -16.5 -34t-35.5 -13zM55 308h450l-6 -70h-450zM290 417q-21 0 -33 13t-10 34q2 20 16 32.5t35 12.5t33 -12.5t10 -32.5q-1 -21 -16 -34t-35 -13z" />
    <glyph glyph-name="oslash" unicode="&#xf8;" horiz-adv-x="645" 
d="M337 465q-88 0 -150.5 -60t-70.5 -153q-5 -57 14 -103.5t58 -74.5l223 377q-36 14 -74 14zM300 40q88 0 150 60t70 152q9 105 -57 166l-219 -371q25 -7 56 -7zM212 -9l-41 -71h-74l57 96q-57 35 -85.5 96.5t-21.5 139.5q10 120 93 196.5t202 76.5q57 0 102 -18l54 93h73
l-72 -123q49 -36 73.5 -94.5t17.5 -130.5q-10 -119 -93 -195.5t-202 -76.5q-44 0 -83 11z" />
    <glyph glyph-name="ugrave" unicode="&#xf9;" 
d="M495 0h-77l6 71q-29 -42 -78.5 -66.5t-102.5 -24.5q-95 0 -146 62.5t-42 160.5l26 302h77l-27 -302q-6 -68 27.5 -111t99.5 -43q67 0 119.5 46t58.5 114l26 296h77zM172 729h87l109 -165h-80z" />
    <glyph glyph-name="uacute" unicode="&#xfa;" 
d="M495 0h-77l6 71q-29 -42 -78.5 -66.5t-102.5 -24.5q-95 0 -146 62.5t-42 160.5l26 302h77l-27 -302q-6 -68 27.5 -111t99.5 -43q67 0 119.5 46t58.5 114l26 296h77zM405 729l86 -1l-144 -164h-80z" />
    <glyph glyph-name="ucircumflex" unicode="&#xfb;" 
d="M495 0h-77l6 71q-29 -42 -78.5 -66.5t-102.5 -24.5q-95 0 -146 62.5t-42 160.5l26 302h77l-27 -302q-6 -68 27.5 -111t99.5 -43q67 0 119.5 46t58.5 114l26 296h77zM227 564h-72l134 165h82l106 -165h-73l-78 121z" />
    <glyph glyph-name="udieresis" unicode="&#xfc;" 
d="M497 0h-77l6 71q-29 -42 -78.5 -66.5t-102.5 -24.5q-95 0 -145.5 62.5t-42.5 160.5l26 302h77l-27 -302q-6 -68 27.5 -111t99.5 -43q67 0 119.5 46t58.5 114l26 296h77zM199 581q-23 0 -36.5 14.5t-11.5 36.5q2 23 18 37t39 14t36 -14.5t11 -36.5t-18 -36.5t-38 -14.5z
M438 581q-23 0 -36.5 14.5t-11.5 36.5q2 23 18 37t39 14t36 -14.5t11 -36.5t-18 -36.5t-38 -14.5z" />
    <glyph glyph-name="yacute" unicode="&#xfd;" horiz-adv-x="569" 
d="M14 -208l6 67q39 -14 66 -14q15 0 28.5 4t25.5 14.5t20 18.5t19 26.5t16 27.5t17 33l16 32l-183 504h85l143 -410l194 410h81l-246 -512q-26 -55 -42.5 -84t-43 -65t-57 -51.5t-68.5 -15.5q-40 0 -77 15zM392 729h87l-145 -164h-80z" />
    <glyph glyph-name="ydieresis" unicode="&#xff;" horiz-adv-x="569" 
d="M16 -208l6 67q38 -14 66 -14q15 0 28.5 4t25.5 14.5t20 18.5t19 26.5t16 27.5t17 33l16 32l-183 504h85l143 -410l194 410h81l-246 -512q-26 -55 -42.5 -84t-43 -65t-57 -51.5t-68.5 -15.5q-40 0 -77 15zM186 582q-23 0 -36 14.5t-11 36.5q1 22 17 36.5t39 14.5t36.5 -14
t11.5 -37t-18 -37t-39 -14zM425 582q-23 0 -36 14.5t-11 36.5q2 23 17.5 37t38.5 14t36.5 -14t11.5 -37t-18 -37t-39 -14z" />
    <glyph glyph-name="Amacron" unicode="&#x100;" horiz-adv-x="704" 
d="M370 631l-197 -422h321zM147 144l-67 -144h-89l326 705h119l201 -705h-88l-41 144h-361zM235 858h314l-4 -53h-314z" />
    <glyph glyph-name="amacron" unicode="&#x101;" horiz-adv-x="669" 
d="M296 49q83 0 143.5 57.5t67.5 145.5t-42.5 145.5t-132.5 57.5q-84 0 -144 -57.5t-67 -145.5q-8 -88 41.5 -145.5t133.5 -57.5zM522 415l8 90h76l-44 -505h-76l7 89q-37 -51 -92.5 -80t-119.5 -29q-113 0 -180 77t-57 195q11 119 91 196t193 77q65 0 115.5 -29t78.5 -81z
M182 648h314l-4 -53h-314z" />
    <glyph glyph-name="Abreve" unicode="&#x102;" horiz-adv-x="704" 
d="M368 631l-197 -422h320zM144 144l-66 -144h-90l326 705h119l202 -705h-89l-41 144h-361zM467 917h59q-5 -64 -42.5 -103t-101.5 -39q-63 0 -93.5 39t-25.5 103h60q-4 -37 14 -61.5t50 -24.5q31 0 53.5 24t26.5 62z" />
    <glyph glyph-name="abreve" unicode="&#x103;" horiz-adv-x="669" 
d="M293 49q83 0 143 57.5t68 145.5q7 88 -43 145.5t-133 57.5q-84 0 -143.5 -57t-67.5 -146q-8 -88 42 -145.5t134 -57.5zM519 415l7 90h77l-44 -505h-77l8 89q-80 -109 -213 -109q-113 0 -180 77t-56 195q11 119 91 196t193 77q65 0 115 -29t79 -81zM414 725h60
q-6 -67 -43.5 -113.5t-101.5 -46.5q-65 0 -94.5 46t-23.5 114h60q-4 -46 13.5 -75t48.5 -29t53.5 29t27.5 75z" />
    <glyph glyph-name="Aogonek" unicode="&#x104;" horiz-adv-x="752" 
d="M377 631l-197 -422h320zM556 0h-1l-41 144h-361l-66 -144h-89l325 705h120l201 -705h-11q-110 -30 -117 -101q-5 -54 38.5 -87t118.5 -35l-5 -56q-96 0 -153.5 47t-50.5 120q6 75 92 112z" />
    <glyph glyph-name="aogonek" unicode="&#x105;" horiz-adv-x="720" 
d="M302 49q83 0 143 57.5t67 145.5q8 88 -41.5 145.5t-133.5 57.5t-143.5 -57t-67.5 -146q-8 -88 42 -145.5t134 -57.5zM491 4l8 85q-80 -109 -213 -109q-113 0 -180 77t-56 195q11 119 91 196t193 77q64 0 114.5 -29t78.5 -81l8 90h77l-45 -505h-8q-111 -29 -118 -101
q-4 -54 39 -87t118 -35l-5 -56q-96 0 -153 46.5t-51 120.5q4 39 30.5 69t71.5 47z" />
    <glyph glyph-name="Cacute" unicode="&#x106;" horiz-adv-x="821" 
d="M391 49q89 0 164.5 52.5t104.5 133.5l79 -15q-35 -106 -135 -175.5t-219 -69.5q-160 0 -254 106.5t-80 270.5q15 164 127.5 271t272.5 107q119 0 206.5 -73t103.5 -184l-82 -10q-13 83 -79.5 138t-155.5 55q-123 0 -210.5 -85.5t-98.5 -218.5q-11 -132 61 -217.5
t195 -85.5zM510 919h91l-127 -144h-87z" />
    <glyph glyph-name="cacute" unicode="&#x107;" horiz-adv-x="610" 
d="M328 525q91 0 155.5 -52.5t72.5 -132.5l-75 -10q-10 56 -54.5 92t-104.5 36q-80 0 -138.5 -58.5t-66.5 -147.5q-7 -89 41 -147t128 -58q61 0 111 35t71 90l74 -10q-25 -80 -98.5 -131t-163.5 -51q-115 0 -182.5 76.5t-56.5 195.5t91.5 196t195.5 77zM423 729h87
l-145 -164h-80z" />
    <glyph glyph-name="Ccircumflex" unicode="&#x108;" horiz-adv-x="821" 
d="M391 49q89 0 164.5 52.5t104.5 133.5l79 -15q-35 -106 -135 -175.5t-219 -69.5q-160 0 -254 106.5t-80 270.5q15 164 127.5 271t272.5 107q119 0 206.5 -73t103.5 -184l-82 -10q-13 83 -79.5 138t-155.5 55q-123 0 -210.5 -85.5t-98.5 -218.5q-11 -132 61 -217.5
t195 -85.5zM350 775h-77l136 145h83l111 -145h-76l-80 101z" />
    <glyph glyph-name="ccircumflex" unicode="&#x109;" horiz-adv-x="610" 
d="M328 525q91 0 155.5 -52.5t72.5 -132.5l-75 -10q-10 56 -54.5 92t-104.5 36q-80 0 -138.5 -58.5t-66.5 -147.5q-7 -89 41 -147t128 -58q61 0 111 35t71 90l74 -10q-25 -80 -98.5 -131t-163.5 -51q-115 0 -182.5 76.5t-56.5 195.5t91.5 196t195.5 77zM244 565h-73l135 165
h81l107 -165h-73l-78 120z" />
    <glyph glyph-name="Cdotaccent" unicode="&#x10a;" horiz-adv-x="821" 
d="M393 49q89 0 164.5 52.5t104.5 133.5l78 -15q-35 -106 -134.5 -175.5t-218.5 -69.5q-160 0 -254 106.5t-80 270.5q15 164 127.5 271t271.5 107q120 0 207.5 -73t103.5 -184l-83 -10q-12 83 -78 138t-156 55q-124 0 -211 -85.5t-98 -218.5q-11 -132 61 -217.5t195 -85.5z
M441 780q-23 0 -36.5 13.5t-11.5 35.5q3 22 18.5 35t37.5 13q24 0 37 -13t11 -35q-1 -22 -17 -35.5t-39 -13.5z" />
    <glyph glyph-name="cdotaccent" unicode="&#x10b;" horiz-adv-x="610" 
d="M329 525q92 0 156 -52.5t72 -132.5l-75 -10q-9 55 -54 91.5t-104 36.5q-80 0 -139 -58.5t-66 -147.5q-8 -89 40 -147t128 -58q61 0 111 35t71 90l74 -10q-24 -79 -98 -130.5t-163 -51.5q-115 0 -182.5 77t-57.5 195t91.5 195.5t195.5 77.5zM336 595q-23 0 -36.5 14.5
t-11.5 37.5q2 22 18 36.5t39 14.5q22 0 35.5 -14.5t11.5 -36.5q-2 -23 -17.5 -37.5t-38.5 -14.5z" />
    <glyph glyph-name="Ccaron" unicode="&#x10c;" horiz-adv-x="821" 
d="M390 49q89 0 164.5 52.5t104.5 133.5l79 -15q-35 -106 -135 -175.5t-219 -69.5q-159 0 -253.5 106.5t-80.5 270.5q15 164 127.5 271t272.5 107q119 0 206.5 -73t104.5 -184l-83 -10q-13 83 -79.5 138t-155.5 55q-123 0 -210.5 -85.5t-98.5 -218.5q-11 -132 61 -217.5
t195 -85.5zM540 940h74l-136 -164h-81l-106 164h72l79 -120z" />
    <glyph glyph-name="ccaron" unicode="&#x10d;" horiz-adv-x="610" 
d="M328 525q91 0 155.5 -52.5t72.5 -132.5l-75 -10q-10 56 -54.5 92t-104.5 36q-80 0 -138.5 -58.5t-66.5 -147.5q-7 -89 41 -147t128 -58q61 0 111 35t71 90l74 -10q-25 -80 -98.5 -131t-163.5 -51q-115 0 -182.5 76.5t-56.5 195.5t91.5 196t195.5 77zM434 729l73 1
l-135 -165h-82l-105 164h72l78 -120z" />
    <glyph glyph-name="Dcaron" unicode="&#x10e;" horiz-adv-x="781" 
d="M627 352q11 128 -72 203.5t-231 75.5h-132l-48 -557h132q147 0 243.5 75.5t107.5 202.5zM269 0h-215l61 705h216q185 0 289 -97t90 -256q-13 -158 -134.5 -255t-306.5 -97zM389 817l98 120h74l-136 -164h-81l-106 164h72z" />
    <glyph glyph-name="dcaron" unicode="&#x10f;" horiz-adv-x="763" 
d="M327 451q-83 0 -143 -56.5t-67 -142.5q-7 -87 42.5 -142.5t133.5 -55.5t143 56t67 142t-42 142.5t-134 56.5zM41 252q10 118 90.5 195.5t193.5 77.5q130 0 190 -105l28 315h76l-64 -735h-74l8 87q-37 -50 -92 -78.5t-119 -28.5q-113 0 -180.5 77t-56.5 195zM716 633
q-19 0 -29.5 12.5t-9.5 32.5q2 20 15.5 32.5t32.5 12.5q23 0 36 -17t11 -43q-4 -37 -24.5 -73t-50.5 -57l-25 22q41 35 44 78z" />
    <glyph glyph-name="Dcroat" unicode="&#x110;" horiz-adv-x="828" 
d="M148 439l24 266h215q185 0 289 -97t90 -256q-14 -158 -135 -255t-305 -97h-216l32 369h-112l6 70h112zM684 352q11 127 -72.5 203t-230.5 76h-132l-17 -192h204l-6 -70h-204l-26 -295h132q148 0 244.5 75.5t107.5 202.5z" />
    <glyph glyph-name="dcroat" unicode="&#x111;" horiz-adv-x="715" 
d="M327 451q-83 0 -143 -56.5t-67 -142.5q-7 -87 42.5 -142.5t133.5 -55.5t143 56t67 142t-42 142.5t-134 56.5zM515 420l16 182h-211l5 57h211l7 76h76l-6 -76h94l-5 -57h-94l-53 -602h-74l8 87q-37 -50 -92 -78.5t-119 -28.5q-113 0 -180.5 77t-56.5 195
q10 118 90.5 195.5t193.5 77.5q130 0 190 -105z" />
    <glyph glyph-name="Emacron" unicode="&#x112;" horiz-adv-x="645" 
d="M167 330l-22 -256h410l-6 -74h-492l62 705h482l-7 -74h-401l-20 -231h361l-6 -70h-361zM533 858l-5 -53h-314l5 53h314z" />
    <glyph glyph-name="emacron" unicode="&#x113;" horiz-adv-x="635" 
d="M128 294l373 -1q-4 72 -51.5 117t-121.5 45t-128.5 -44.5t-71.5 -116.5zM45 258q10 116 92.5 191.5t199.5 75.5q115 0 183 -76t58 -192q-2 -21 -4 -30l-453 1q2 -80 49.5 -129.5t122.5 -49.5q59 0 111.5 32.5t73.5 81.5l73 -12q-29 -74 -103 -122.5t-158 -48.5
q-117 0 -186.5 78.5t-58.5 199.5zM192 648h314l-5 -53h-314z" />
    <glyph glyph-name="Ebreve" unicode="&#x114;" horiz-adv-x="645" 
d="M165 330l-23 -256h411l-7 -74h-491l61 705h482l-6 -74h-401l-20 -231h360l-6 -70h-360zM451 917h59q-6 -64 -43.5 -103t-100.5 -39t-93.5 39t-25.5 103h60q-4 -37 14 -61.5t50 -24.5q31 0 53.5 24t26.5 62z" />
    <glyph glyph-name="ebreve" unicode="&#x115;" horiz-adv-x="635" 
d="M124 294l374 -1q-4 72 -51.5 117t-122.5 45q-73 0 -128 -44.5t-72 -116.5zM42 258q10 116 92 191.5t199 75.5q115 0 183.5 -76t58.5 -192q-2 -21 -4 -30l-453 1q2 -80 49 -129.5t122 -49.5q59 0 111.5 32t74.5 82l73 -12q-29 -74 -103 -122.5t-158 -48.5
q-117 0 -186.5 78.5t-58.5 199.5zM423 725h61q-6 -67 -44 -113.5t-102 -46.5q-65 0 -94 46t-23 114h60q-4 -46 13.5 -75t48.5 -29t53.5 29t26.5 75z" />
    <glyph glyph-name="Edotaccent" unicode="&#x116;" horiz-adv-x="645" 
d="M166 330l-22 -256h411l-7 -74h-492l62 705h482l-7 -74h-400l-21 -231h361l-6 -70h-361zM368 780q-23 0 -36 13.5t-11 35.5t17.5 35t38.5 13t36 -13t12 -35q-2 -22 -17.5 -35.5t-39.5 -13.5z" />
    <glyph glyph-name="edotaccent" unicode="&#x117;" horiz-adv-x="635" 
d="M126 294l373 -1q-4 72 -51.5 117t-121.5 45t-128.5 -44.5t-71.5 -116.5zM43 258q10 116 92.5 191.5t199.5 75.5q115 0 183 -76t58 -192q-2 -21 -4 -30l-453 1q2 -80 49 -129.5t123 -49.5q59 0 111 32.5t74 81.5l73 -12q-29 -74 -103 -122.5t-158 -48.5
q-117 0 -186.5 78.5t-58.5 199.5zM342 595q-23 0 -36 14.5t-11 37.5q2 22 18 36.5t38 14.5q23 0 36.5 -14.5t11.5 -36.5q-2 -23 -18 -37.5t-39 -14.5z" />
    <glyph glyph-name="Eogonek" unicode="&#x118;" horiz-adv-x="645" 
d="M420 0h-356l61 705h482l-6 -74h-401l-20 -231h361l-6 -70h-361l-23 -256h411l-6 -74h-58q-112 -29 -119 -101q-4 -54 39 -87t118 -35l-5 -56q-96 0 -153 46.5t-51 120.5q8 76 93 112z" />
    <glyph glyph-name="eogonek" unicode="&#x119;" horiz-adv-x="635" 
d="M133 294l373 -1q-4 72 -51 117t-122 45q-73 0 -128 -44.5t-72 -116.5zM284 -20q-113 5 -178.5 82.5t-55.5 195.5q11 116 93 191.5t199 75.5q115 0 183.5 -76t57.5 -192q0 -5 -1.5 -16t-1.5 -14l-454 1q2 -80 49.5 -129.5t122.5 -49.5q59 0 111.5 32.5t73.5 81.5l74 -12
q-24 -60 -78 -104.5t-118 -58.5q-78 -30 -83 -90q-4 -54 39 -87t118 -35l-5 -56q-96 0 -153.5 47t-50.5 120q4 57 58 93z" />
    <glyph glyph-name="Ecaron" unicode="&#x11a;" horiz-adv-x="645" 
d="M164 330l-23 -256h411l-7 -74h-491l61 705h482l-6 -74h-401l-20 -231h360l-6 -70h-360zM468 939l73 1l-135 -165h-82l-106 164h73l78 -120z" />
    <glyph glyph-name="ecaron" unicode="&#x11b;" horiz-adv-x="635" 
d="M124 294l373 -1q-4 72 -51 117t-122 45q-73 0 -128 -44.5t-72 -116.5zM41 258q11 116 93 191.5t199 75.5q115 0 183.5 -76t57.5 -192q0 -5 -1.5 -16t-1.5 -14l-454 1q2 -80 49.5 -129.5t122.5 -49.5q59 0 111.5 32.5t73.5 81.5l74 -12q-30 -74 -103.5 -122.5
t-157.5 -48.5q-117 0 -186.5 78.5t-59.5 199.5zM342 609l99 120l73 1l-135 -165h-82l-106 164h73z" />
    <glyph glyph-name="Gcircumflex" unicode="&#x11c;" horiz-adv-x="868" 
d="M404 49q120 0 208.5 78t98.5 193h-285l6 69h368q-3 -180 -116.5 -297t-285.5 -117q-166 0 -263.5 106.5t-83.5 270.5t130.5 271t282.5 107q121 0 209.5 -70.5t102.5 -179.5l-79 -15q-15 83 -83 137t-157 54q-129 0 -220 -85.5t-102 -218.5q-12 -131 64 -217t205 -86z
M379 775h-77l137 145h82l111 -145h-76l-80 101z" />
    <glyph glyph-name="gcircumflex" unicode="&#x11d;" horiz-adv-x="666" 
d="M293 55q84 0 143 55.5t67 141.5q8 88 -41.5 145.5t-133.5 57.5t-143.5 -57t-67.5 -146q-7 -85 43 -141t133 -56zM278 -181q82 0 138 50.5t64 138.5l7 80q-80 -102 -208 -102q-114 0 -181.5 75t-56.5 191q11 118 91 194.5t194 76.5q130 0 190 -102l7 84h76l-43 -497
q-10 -119 -88.5 -188.5t-193.5 -69.5q-98 0 -166.5 56t-74.5 142l74 10q7 -61 55.5 -100t115.5 -39zM348 685l-100 -120h-72l134 165h82l107 -165h-74z" />
    <glyph glyph-name="Gbreve" unicode="&#x11e;" horiz-adv-x="868" 
d="M404 49q120 0 208.5 78t98.5 193h-285l6 69h368q-3 -180 -116.5 -297t-285.5 -117q-166 0 -263.5 106.5t-83.5 270.5q15 165 131.5 271.5t281.5 106.5q121 0 209.5 -70.5t103.5 -179.5l-80 -15q-15 83 -83 137t-157 54q-129 0 -220 -85.5t-102 -218.5
q-11 -132 64.5 -217.5t204.5 -85.5zM552 917h59q-5 -64 -42.5 -103t-100.5 -39t-94 39t-26 103h60q-3 -38 15.5 -62t49.5 -24t53.5 24t25.5 62z" />
    <glyph glyph-name="gbreve" unicode="&#x11f;" horiz-adv-x="666" 
d="M293 55q84 0 144 56t67 141q7 88 -42.5 145.5t-133.5 57.5t-143.5 -57t-67.5 -146q-7 -85 43 -141t133 -56zM278 -181q82 0 138 50.5t64 138.5l7 80q-80 -102 -208 -102q-113 0 -180.5 75t-57.5 191q10 118 91 194.5t194 76.5q130 0 190 -102l8 84h76l-44 -497
q-10 -119 -88.5 -188.5t-193.5 -69.5q-98 0 -166 56t-75 142l75 10q7 -61 55 -100t115 -39zM421 725h61q-6 -67 -44 -113.5t-102 -46.5q-65 0 -94.5 46t-23.5 114h61q-4 -46 13.5 -75t48.5 -29t53.5 29t26.5 75z" />
    <glyph glyph-name="Gdotaccent" unicode="&#x120;" horiz-adv-x="868" 
d="M406 49q120 0 208.5 78t98.5 193h-286l6 69h369q-3 -180 -117 -297t-285 -117q-166 0 -263.5 106.5t-83.5 270.5t130.5 271t282.5 107q121 0 209.5 -70.5t102.5 -179.5l-79 -15q-15 83 -83 137t-157 54q-129 0 -220 -85.5t-102 -218.5q-12 -131 64 -217t205 -86zM470 780
q-23 0 -36.5 13.5t-11.5 35.5q3 22 18.5 35t38.5 13t36 -13t11 -35q-1 -22 -17 -35.5t-39 -13.5z" />
    <glyph glyph-name="gdotaccent" unicode="&#x121;" horiz-adv-x="666" 
d="M294 55q84 0 144 56t67 141q7 88 -42.5 145.5t-133.5 57.5t-143.5 -57.5t-66.5 -145.5q-7 -85 42.5 -141t132.5 -56zM279 -181q83 0 139 50.5t63 138.5l7 80q-80 -102 -207 -102q-114 0 -181.5 75t-57.5 191q11 118 91.5 194.5t194.5 76.5q129 0 189 -102l8 84h76
l-44 -497q-10 -119 -88.5 -188.5t-193.5 -69.5q-98 0 -166 56t-75 142l75 10q7 -61 55 -100t115 -39zM340 595q-23 0 -36 14.5t-11 37.5q2 22 18 36.5t38 14.5q23 0 36.5 -14.5t11.5 -36.5q-2 -23 -18 -37.5t-39 -14.5z" />
    <glyph glyph-name="Gcommaaccent" unicode="&#x122;" horiz-adv-x="868" 
d="M413 49q120 0 208 78t98 193h-285l6 69h369q-4 -180 -117.5 -297t-285.5 -117q-165 0 -263 107t-83 270q14 164 130.5 271t281.5 107q121 0 209.5 -70.5t103.5 -179.5l-80 -15q-14 83 -82 137t-157 54q-130 0 -220.5 -85.5t-102.5 -218.5q-11 -131 65 -217t205 -86z
M394 -171q-19 0 -30 12.5t-9 32.5t15.5 32.5t32.5 12.5q23 0 36 -16.5t11 -43.5q-4 -37 -24.5 -72.5t-50.5 -56.5l-25 21q41 37 44 78z" />
    <glyph glyph-name="gcommaaccent" unicode="&#x123;" horiz-adv-x="666" 
d="M292 55q84 0 143 55.5t67 141.5q8 88 -41.5 145.5t-133.5 57.5t-143.5 -57t-67.5 -146q-7 -85 43 -141t133 -56zM277 -181q82 0 138 50.5t63 138.5l7 80q-78 -102 -207 -102q-114 0 -181.5 75t-56.5 191q10 118 90.5 194.5t194.5 76.5q130 0 190 -102l7 84h76l-43 -497
q-10 -119 -88.5 -188.5t-193.5 -69.5q-98 0 -166.5 56t-74.5 142l74 10q7 -61 55.5 -100t115.5 -39zM352 655q19 0 29.5 -12.5t8.5 -32.5t-15 -32.5t-33 -12.5q-23 0 -35.5 16.5t-10.5 43.5q3 36 24 72t51 57l25 -21q-41 -36 -44 -78z" />
    <glyph glyph-name="Itilde" unicode="&#x128;" horiz-adv-x="285" 
d="M55 0l62 705h84l-62 -705h-84zM38 810l-39 30q16 30 47 48t67 18q37 0 74 -28t60 -28q43 0 69 45l39 -29q-16 -31 -47.5 -49.5t-69.5 -18.5q-32 0 -55 14t-40.5 28t-36.5 14q-38 0 -68 -44z" />
    <glyph glyph-name="itilde" unicode="&#x129;" horiz-adv-x="254" 
d="M48 0l44 505h76l-44 -505h-76zM13 592l-39 23q16 29 47 47.5t66 18.5q36 0 75 -29t62 -29q43 0 65 38l41 -23q-17 -30 -48.5 -48.5t-68.5 -18.5q-32 0 -55.5 14.5t-42.5 28.5t-39 14q-40 0 -63 -36z" />
    <glyph glyph-name="Imacron" unicode="&#x12a;" horiz-adv-x="263" 
d="M114 705h83l-61 -705h-84zM326 858l-5 -53h-314l5 53h314z" />
    <glyph glyph-name="imacron" unicode="&#x12b;" horiz-adv-x="227" 
d="M91 505h77l-45 -505h-76zM299 648l-5 -53h-314l5 53h314z" />
    <glyph glyph-name="Iogonek" unicode="&#x12e;" horiz-adv-x="273" 
d="M65 0h-1l61 705h84l-62 -705h-5q-112 -30 -117 -101q-5 -54 38.5 -87t117.5 -35l-4 -56q-96 0 -153.5 47t-50.5 120q6 75 92 112z" />
    <glyph glyph-name="iogonek" unicode="&#x12f;" horiz-adv-x="240" 
d="M56 2l44 503h76l-44 -505h-2q-114 -30 -121 -102q-4 -54 39 -87t118 -35l-5 -56q-96 0 -153.5 47t-50.5 120q3 38 29 68t70 47zM146 598q-23 0 -36 15t-11 37q1 22 17 36.5t39 14.5t36.5 -14t11.5 -37t-18 -37.5t-39 -14.5z" />
    <glyph glyph-name="Idotaccent" unicode="&#x130;" horiz-adv-x="273" 
d="M118 705h83l-61 -705h-84zM166 780q-23 0 -36 13.5t-11 35.5t17.5 35t38.5 13t36 -13t12 -35q-2 -22 -17.5 -35.5t-39.5 -13.5z" />
    <glyph glyph-name="dotlessi" unicode="&#x131;" horiz-adv-x="230" 
d="M99 505h76l-44 -505h-76z" />
    <glyph glyph-name="IJ" unicode="&#x132;" horiz-adv-x="698" 
d="M125 705h84l-62 -705h-83zM510 211l43 494h84l-43 -493q-10 -104 -75 -168t-157 -64q-63 0 -125 20l6 72q59 -18 109 -18q64 0 107.5 42.5t50.5 114.5z" />
    <glyph glyph-name="ij" unicode="&#x133;" horiz-adv-x="461" 
d="M104 505h77l-44 -505h-77zM272 -75l50 580h77l-52 -588q-5 -64 -45 -103t-99 -39q-48 0 -84 13l6 67q27 -10 64 -10q34 0 57 22.5t26 57.5zM150 598q-23 0 -36 15t-11 37q2 23 18 37t39 14t36 -14.5t11 -36.5q-2 -23 -18 -37.5t-39 -14.5zM368 598q-23 0 -36 15t-11 37
q2 23 18 37t38 14q23 0 36.5 -14.5t11.5 -36.5q-2 -23 -18 -37.5t-39 -14.5z" />
    <glyph glyph-name="Kcommaaccent" unicode="&#x136;" horiz-adv-x="618" 
d="M64 0l61 705h84l-26 -301l325 301h109l-364 -333l312 -372h-109l-279 341l-30 -341h-83zM278 -171q-19 0 -30 12.5t-9 32.5t15 33t33 13q23 0 35.5 -17t10.5 -44q-3 -36 -23.5 -72t-50.5 -57l-25 21q41 37 44 78z" />
    <glyph glyph-name="kcommaaccent" unicode="&#x137;" horiz-adv-x="515" 
d="M47 0l64 735h76l-37 -434l237 204h103l-274 -235l240 -270h-103l-209 239l-21 -239h-76zM225 -162q-20 0 -30.5 12.5t-8.5 32.5t15 32.5t33 12.5q22 0 35 -17t11 -43q-3 -37 -23.5 -73t-50.5 -57l-26 22q40 33 45 78z" />
    <glyph glyph-name="Lacute" unicode="&#x139;" horiz-adv-x="578" 
d="M499 0h-445l62 705h84l-56 -631h361zM245 919h91l-127 -144h-87z" />
    <glyph glyph-name="lacute" unicode="&#x13a;" horiz-adv-x="351" 
d="M103 735h76l-64 -735h-77zM226 927h91l-127 -145h-87z" />
    <glyph glyph-name="Lcommaaccent" unicode="&#x13b;" horiz-adv-x="578" 
d="M514 74l-6 -74h-444l61 705h84l-55 -631h360zM272 -171q-19 0 -30 12.5t-9 32.5t15 33t33 13q23 0 35.5 -17t10.5 -44q-3 -36 -23.5 -72t-50.5 -57l-26 21q40 35 45 78z" />
    <glyph glyph-name="lcommaaccent" unicode="&#x13c;" horiz-adv-x="243" 
d="M111 735h76l-64 -735h-76zM70 -169q-19 -1 -30 12t-9 33t15 32.5t33 12.5q22 0 35 -17t11 -43q-3 -37 -23.5 -73t-50.5 -57l-26 22q40 33 45 78z" />
    <glyph glyph-name="Lcaron" unicode="&#x13d;" horiz-adv-x="578" 
d="M507 0h-444l61 705h84l-55 -631h360zM347 640q-19 0 -30 12.5t-9 32.5t15 32.5t33 12.5q23 0 35.5 -16.5t10.5 -43.5q-3 -36 -23.5 -72t-50.5 -57l-25 21q41 37 44 78z" />
    <glyph glyph-name="lcaron" unicode="&#x13e;" horiz-adv-x="340" 
d="M111 735h76l-64 -735h-76zM294 632q-19 0 -30 12.5t-9 32.5t15 33t33 13q23 0 35.5 -17t10.5 -44q-3 -36 -23.5 -72t-50.5 -57l-26 21q40 35 45 78z" />
    <glyph glyph-name="Lslash" unicode="&#x141;" horiz-adv-x="512" 
d="M20 258l117 71l32 376h84l-28 -321l362 222l-7 -74l-362 -223l-20 -235h360l-6 -74h-444l22 255l-116 -71z" />
    <glyph glyph-name="lslash" unicode="&#x142;" horiz-adv-x="433" 
d="M419 474l-164 -100l-33 -374h-76l28 325l-163 -99l7 74l163 99l29 336h76l-25 -287l164 100z" />
    <glyph glyph-name="Nacute" unicode="&#x143;" horiz-adv-x="747" 
d="M226 705l312 -603l53 603h83l-62 -705h-109l-312 603l-53 -603h-84l62 705h110zM474 919h91l-127 -144h-87z" />
    <glyph glyph-name="nacute" unicode="&#x144;" 
d="M91 505h77l-7 -71q30 42 79 66.5t102 24.5q95 0 146 -62.5t43 -160.5l-26 -302h-77l27 302q5 68 -28.5 110.5t-98.5 42.5q-67 0 -120 -46t-59 -114l-26 -295h-76zM426 729h87l-145 -164h-80z" />
    <glyph glyph-name="Ncommaaccent" unicode="&#x145;" horiz-adv-x="747" 
d="M235 705l312 -603l53 603h83l-61 -705h-109l-313 603l-53 -603h-83l61 705h110zM325 -172q-20 0 -30.5 12.5t-8.5 32.5t15 32.5t33 12.5q22 0 35 -17t11 -43q-3 -37 -24 -73t-51 -57l-25 22q40 33 45 78z" />
    <glyph glyph-name="ncommaaccent" unicode="&#x146;" 
d="M100 505h77l-7 -71q30 42 79 66.5t102 24.5q95 0 146 -62.5t43 -160.5l-26 -302h-77l26 302q6 68 -27.5 110.5t-98.5 42.5q-67 0 -120 -46t-59 -114l-26 -295h-76zM269 -172q-19 0 -30 12.5t-9 32.5t15 32.5t33 12.5q23 0 35.5 -17t10.5 -43q-3 -37 -23.5 -73t-50.5 -57
l-25 22q41 35 44 78z" />
    <glyph glyph-name="Ncaron" unicode="&#x147;" horiz-adv-x="747" 
d="M225 705l312 -603l53 603h83l-61 -705h-109l-313 603l-53 -603h-83l61 705h110zM504 939l74 1l-136 -165h-81l-106 164h72l79 -120z" />
    <glyph glyph-name="ncaron" unicode="&#x148;" 
d="M91 505h77l-7 -71q30 42 79 66.5t102 24.5q95 0 146 -62.5t43 -160.5l-26 -302h-77l27 302q5 68 -28.5 110.5t-98.5 42.5q-67 0 -120 -46t-59 -114l-26 -295h-76zM439 729l73 1l-136 -165h-81l-106 164h72l79 -120z" />
    <glyph glyph-name="Omacron" unicode="&#x14c;" horiz-adv-x="880" 
d="M400 -25q-166 0 -263 105.5t-83 271.5t130 272t282 106t263.5 -106t83.5 -272t-130 -271.5t-283 -105.5zM460 656q-130 0 -220.5 -85.5t-102.5 -218.5q-11 -132 64.5 -217t205.5 -86q130 0 220.5 85.5t101.5 217.5q12 133 -63.5 218.5t-205.5 85.5zM635 858l-5 -53h-314
l5 53h314z" />
    <glyph glyph-name="omacron" unicode="&#x14d;" horiz-adv-x="640" 
d="M338 525q118 0 186.5 -76.5t58.5 -196.5q-10 -119 -92.5 -195.5t-200.5 -76.5t-187 76.5t-59 195.5q10 120 92.5 196.5t201.5 76.5zM296 49q84 0 143.5 57.5t67.5 145.5q7 88 -42.5 145.5t-132.5 57.5q-85 0 -144 -57t-67 -146q-8 -88 41.5 -145.5t133.5 -57.5zM506 648
l-5 -53h-314l5 53h314z" />
    <glyph glyph-name="Obreve" unicode="&#x14e;" horiz-adv-x="880" 
d="M457 656q-129 0 -220 -85.5t-102 -218.5q-12 -132 64 -217t205 -86q130 0 220.5 85.5t102.5 217.5q11 133 -64.5 218.5t-205.5 85.5zM398 -25q-167 0 -264 105.5t-83 271.5q15 166 131 272t282 106q167 0 264 -106t82 -272q-14 -166 -129.5 -271.5t-282.5 -105.5z
M552 917h59q-5 -64 -42.5 -103t-100.5 -39t-94 39t-25 103h60q-4 -37 14 -61.5t50 -24.5q31 0 53.5 24t25.5 62z" />
    <glyph glyph-name="obreve" unicode="&#x14f;" horiz-adv-x="640" 
d="M293 49q84 0 143.5 57.5t67.5 145.5q7 88 -42.5 145.5t-133.5 57.5t-143.5 -57t-67.5 -146q-8 -88 42 -145.5t134 -57.5zM334 525q119 0 187.5 -76.5t58.5 -196.5q-10 -119 -92.5 -195.5t-200.5 -76.5t-187.5 76.5t-58.5 195.5q11 120 93 196.5t200 76.5zM423 725h61
q-7 -68 -44.5 -114t-101.5 -46q-65 0 -94.5 46t-23.5 114h61q-4 -46 13 -75t49 -29q31 0 53.5 29t26.5 75z" />
    <glyph glyph-name="Ohungarumlaut" unicode="&#x150;" horiz-adv-x="880" 
d="M398 -25q-167 0 -264 105.5t-83 271.5q15 166 131 272t282 106t263 -106t83 -272t-129.5 -271.5t-282.5 -105.5zM457 656q-129 0 -220 -85.5t-102 -218.5q-12 -132 64 -217t205 -86q130 0 220.5 85.5t102.5 217.5q11 133 -64.5 218.5t-205.5 85.5zM462 919h81l-130 -144
h-69zM624 919h79l-134 -144h-68z" />
    <glyph glyph-name="ohungarumlaut" unicode="&#x151;" horiz-adv-x="639" 
d="M333 525q118 0 186.5 -76.5t58.5 -196.5q-10 -119 -92.5 -195.5t-200.5 -76.5t-187 76.5t-59 195.5q10 120 92.5 196.5t201.5 76.5zM291 49q84 0 143.5 57.5t67.5 145.5q8 89 -41.5 146t-133.5 57q-85 0 -144 -57t-67 -146q-8 -88 41.5 -145.5t133.5 -57.5zM351 745h83
l-150 -180h-71zM513 745h82l-154 -180h-72z" />
    <glyph glyph-name="OE" unicode="&#x152;" horiz-adv-x="1069" 
d="M526 75l48 554q-43 18 -114 18q-127 0 -216 -82t-101 -213q-11 -129 62 -211.5t196 -82.5q76 0 125 17zM60 352q14 164 127 267t275 103q67 0 123 -17h445l-6 -74h-366l-21 -238h326l-6 -70h-326l-22 -249h376l-6 -74h-456q-58 -17 -125 -17q-162 0 -257 103t-81 266z
" />
    <glyph glyph-name="oe" unicode="&#x153;" horiz-adv-x="1098" 
d="M302 49q83 0 143 57.5t67 145.5q8 88 -41.5 145.5t-133.5 57.5q-85 0 -144 -57t-67 -146q-8 -88 42 -145.5t134 -57.5zM596 294l374 -1q-5 73 -52.5 117.5t-121.5 44.5q-73 0 -128 -44.5t-72 -116.5zM539 108q-40 -60 -103.5 -94t-140.5 -34q-118 0 -187 76.5t-58 195.5
q11 120 93 196.5t200 76.5q76 0 133 -33t87 -92q39 58 102.5 91.5t139.5 33.5q115 0 183.5 -75.5t58.5 -192.5q0 -4 -1.5 -14t-2.5 -16l-453 1q2 -80 49 -129.5t122 -49.5q59 0 111.5 32t74.5 82l73 -12q-30 -74 -103.5 -122.5t-157.5 -48.5q-75 0 -132.5 34t-87.5 94z" />
    <glyph glyph-name="Racute" unicode="&#x154;" horiz-adv-x="730" 
d="M415 631h-222l-25 -291h221q78 0 132 40t59 103q6 68 -40 108t-125 40zM161 266l-23 -266h-84l62 705h311q112 0 178 -62.5t58 -159.5q-7 -74 -60.5 -131.5t-130.5 -73.5l155 -278h-97l-144 266h-225zM347 775l123 144h90l-126 -144h-87z" />
    <glyph glyph-name="racute" unicode="&#x155;" horiz-adv-x="417" 
d="M91 505h74l-6 -70q56 88 148 88q33 0 67 -14l-7 -70q-33 16 -74 16q-58 0 -98 -48t-47 -124l-25 -283h-76zM329 729h87l-145 -164h-80z" />
    <glyph glyph-name="Rcommaaccent" unicode="&#x156;" horiz-adv-x="730" 
d="M424 631h-222l-25 -291h222q77 0 131 40t60 103q6 68 -40 108t-126 40zM171 266l-24 -266h-83l61 705h312q111 0 177.5 -62.5t57.5 -159.5q-6 -74 -59.5 -131.5t-131.5 -73.5l155 -278h-97l-143 266h-225zM322 -172q-19 0 -30 12.5t-9 32.5t15.5 32.5t32.5 12.5
q23 0 36 -16.5t11 -43.5q-4 -37 -24.5 -72.5t-50.5 -56.5l-25 21q41 35 44 78z" />
    <glyph glyph-name="rcommaaccent" unicode="&#x157;" horiz-adv-x="389" 
d="M56 0l44 505h74l-6 -70q56 88 148 88q33 0 67 -14l-6 -70q-35 16 -75 16q-58 0 -98 -48t-47 -124l-25 -283h-76zM79 -170q-19 0 -30 12.5t-9 32.5t15 32.5t33 12.5q23 0 35.5 -16.5t10.5 -43.5q-3 -37 -23.5 -72.5t-50.5 -56.5l-25 21q41 35 44 78z" />
    <glyph glyph-name="Rcaron" unicode="&#x158;" horiz-adv-x="730" 
d="M414 631h-222l-25 -291h221q78 0 132 40t59 103q6 68 -40 108t-125 40zM160 266l-23 -266h-83l61 705h311q112 0 178 -62.5t58 -159.5q-7 -74 -60.5 -131.5t-130.5 -73.5l155 -278h-97l-144 266h-225zM401 819l99 120l73 1l-135 -165h-82l-105 164h72z" />
    <glyph glyph-name="rcaron" unicode="&#x159;" horiz-adv-x="394" 
d="M91 505h74l-6 -70q56 88 148 88q33 0 67 -14l-7 -70q-33 16 -74 16q-58 0 -98 -48t-47 -124l-25 -283h-76zM340 729l73 1l-135 -165h-82l-106 164h73l78 -120z" />
    <glyph glyph-name="Sacute" unicode="&#x15a;" horiz-adv-x="702" 
d="M612 205q-8 -102 -88.5 -166t-203.5 -64q-130 0 -207.5 71.5t-67.5 181.5h83q-7 -78 49 -128.5t151 -50.5q86 0 140.5 40.5t59.5 105.5q2 27 -8.5 47.5t-25.5 32t-46.5 20.5t-54 13t-64.5 9q-31 4 -49 7t-46 9t-44.5 12.5t-37.5 17t-33 24.5t-23 31.5t-14.5 41.5t-0.5 53
q8 95 87.5 156t197.5 61q121 0 193.5 -67.5t63.5 -171.5h-80q6 72 -46 118.5t-138 46.5q-82 0 -135.5 -38t-58.5 -98q-2 -23 3.5 -40.5t20 -30t29 -21t41.5 -15t46.5 -9.5t53.5 -8q42 -6 65 -10t59.5 -13.5t56.5 -22t40.5 -32t27.5 -48t4 -65.5zM449 919h90l-127 -144h-86z
" />
    <glyph glyph-name="sacute" unicode="&#x15b;" horiz-adv-x="544" 
d="M470 145q-6 -71 -68.5 -118t-153.5 -47q-97 0 -156 53.5t-51 135.5h75q-4 -52 34.5 -86t103.5 -34q58 0 98 25.5t44 63.5q2 22 -10.5 38t-37.5 25.5t-43 13.5t-46 8q-42 7 -64.5 11.5t-52.5 15.5t-44 25t-23 38.5t-6 57.5q6 66 65.5 110t141.5 44q94 0 151 -48.5
t51 -122.5l-75 1q4 43 -34 71.5t-100 28.5q-49 0 -85.5 -24.5t-40.5 -61.5q-3 -32 26 -47.5t102 -27.5q37 -7 57.5 -11t53.5 -16t50 -26t29 -39t9 -57zM371 729h87l-145 -164h-80z" />
    <glyph glyph-name="Scircumflex" unicode="&#x15c;" horiz-adv-x="702" 
d="M612 205q-8 -102 -88.5 -166t-203.5 -64q-130 0 -207.5 71.5t-67.5 181.5h83q-7 -78 49 -128.5t151 -50.5q86 0 140.5 40.5t59.5 105.5q2 27 -8.5 47.5t-25.5 32t-46.5 20.5t-54 13t-64.5 9q-31 4 -49 7t-46 9t-44.5 12.5t-37.5 17t-33 24.5t-23 31.5t-14.5 41.5t-0.5 53
q8 95 87.5 156t197.5 61q121 0 193.5 -67.5t63.5 -171.5h-80q6 72 -46 118.5t-138 46.5q-82 0 -135.5 -38t-58.5 -98q-2 -23 3.5 -40.5t20 -30t29 -21t41.5 -15t46.5 -9.5t53.5 -8q42 -6 65 -10t59.5 -13.5t56.5 -22t40.5 -32t27.5 -48t4 -65.5zM288 775h-77l137 145h82
l111 -145h-76l-80 101z" />
    <glyph glyph-name="scircumflex" unicode="&#x15d;" horiz-adv-x="544" 
d="M470 145q-6 -71 -68.5 -118t-153.5 -47q-97 0 -156 53.5t-51 135.5h75q-4 -52 34.5 -86t103.5 -34q58 0 98 25.5t44 63.5q2 22 -10.5 38t-37.5 25.5t-43 13.5t-46 8q-43 7 -65.5 11.5t-52 15.5t-43.5 25t-23 38.5t-6 57.5q6 66 65.5 110t141.5 44q94 0 151 -48.5
t51 -122.5l-75 1q4 43 -34 71.5t-100 28.5q-49 0 -85.5 -24.5t-40.5 -61.5q-3 -32 26 -47.5t102 -27.5q37 -7 57.5 -11t53.5 -16t50 -26t29 -39t9 -57zM191 565h-72l134 165h82l106 -165h-73l-78 120z" />
    <glyph glyph-name="Scedilla" unicode="&#x15e;" horiz-adv-x="702" 
d="M307 -99h-42l17 77q-110 13 -173.5 82t-55.5 168h83q-7 -78 49.5 -128.5t151.5 -50.5q86 0 140 40.5t59 105.5q2 27 -8.5 47.5t-25.5 32t-46.5 20.5t-53.5 13t-64 9q-42 6 -65.5 10t-58.5 13.5t-55 22.5t-39.5 33t-26.5 49.5t-4 67.5q8 95 87.5 156t197.5 61
q121 0 194 -67.5t64 -171.5h-81q6 72 -45.5 118.5t-137.5 46.5q-82 0 -136 -38t-59 -98q-2 -23 3.5 -40.5t20 -30t29 -21t41.5 -15t46.5 -9.5t53.5 -8q42 -6 65 -10t59.5 -13.5t56.5 -22t40.5 -32t28 -48t4.5 -65.5q-9 -101 -88.5 -165t-201.5 -65l-9 -41q51 0 79.5 -29
t24.5 -76q-5 -44 -37.5 -71.5t-81.5 -27.5q-42 0 -70 23t-32 59l44 11q4 -22 21 -36.5t38 -14.5q28 0 46 16.5t21 43.5q2 32 -16 50.5t-52 18.5z" />
    <glyph glyph-name="scedilla" unicode="&#x15f;" horiz-adv-x="544" 
d="M251 -99h-41l18 80q-86 8 -135.5 60t-42.5 128h75q-4 -52 34.5 -86t103.5 -34q58 0 98 25.5t44 63.5q2 22 -10.5 38t-37.5 25.5t-43 13.5t-46 8q-43 7 -65.5 11.5t-52 15.5t-43.5 25t-23 38.5t-6 57.5q6 66 65.5 110t141.5 44q94 0 151 -48.5t51 -122.5l-75 1
q4 43 -34 71.5t-100 28.5q-49 0 -85.5 -24.5t-40.5 -61.5q-3 -32 26 -47.5t102 -27.5q37 -7 57.5 -11t53.5 -16t50 -26t29 -39t9 -57q-5 -67 -61.5 -113t-140.5 -51l-11 -47q52 0 80.5 -29t23.5 -76q-4 -44 -37 -71.5t-82 -27.5q-41 0 -69 23t-32 59l43 11q5 -23 21.5 -37
t38.5 -14q28 0 46 16.5t20 43.5q3 31 -15.5 50t-52.5 19z" />
    <glyph glyph-name="Scaron" unicode="&#x160;" horiz-adv-x="702" 
d="M611 205q-8 -102 -88.5 -166t-203.5 -64q-129 0 -207 71.5t-68 181.5h83q-7 -78 49.5 -128.5t151.5 -50.5q85 0 139.5 40.5t59.5 105.5q2 27 -8.5 47.5t-25.5 32t-46.5 20.5t-54 13t-64.5 9q-41 6 -64.5 10t-59 13.5t-55 22.5t-39 33t-26.5 49.5t-4 67.5q8 95 87.5 156
t197.5 61q121 0 193.5 -67.5t63.5 -171.5h-80q6 72 -46 118.5t-138 46.5q-82 0 -135.5 -38t-58.5 -98q-2 -23 3.5 -40.5t20 -30t29 -21t41.5 -15t46.5 -9.5t53.5 -8q42 -6 65 -10t59.5 -13.5t56.5 -22t40.5 -32t27.5 -48t4 -65.5zM479 939l73 1l-136 -165h-81l-106 164h72
l79 -120z" />
    <glyph glyph-name="scaron" unicode="&#x161;" horiz-adv-x="544" 
d="M470 145q-6 -71 -68.5 -118t-153.5 -47q-97 0 -156 53.5t-51 135.5h75q-4 -52 34.5 -86t103.5 -34q58 0 98 25.5t44 63.5q2 22 -10.5 38t-37.5 25.5t-43 13.5t-46 8q-43 7 -65.5 11.5t-52 15.5t-43.5 25t-23 38.5t-6 57.5q6 66 65.5 110t141.5 44q94 0 151 -48.5
t51 -122.5l-75 1q4 43 -34 71.5t-100 28.5q-49 0 -85.5 -24.5t-40.5 -61.5q-3 -32 26 -47.5t102 -27.5q37 -7 57.5 -11t53.5 -16t50 -26t29 -39t9 -57zM381 729l74 1l-136 -165h-81l-106 164h72l79 -120z" />
    <glyph glyph-name="Tcommaaccent" unicode="&#x162;" horiz-adv-x="597" 
d="M309 0h-83l55 631h-236l7 74h555l-7 -74h-236zM248 -172q-19 0 -29.5 12.5t-9.5 32.5t14.5 32.5t33.5 12.5q23 0 36 -16.5t10 -43.5q-3 -37 -23.5 -73t-50.5 -56l-25 21q41 35 44 78z" />
    <glyph glyph-name="tcommaaccent" unicode="&#x163;" horiz-adv-x="388" 
d="M105 125l28 317h-83l5 63h87l21 118h62l-10 -118h130l-5 -63h-131l-27 -314q-3 -37 16 -59.5t55 -23.5q29 0 62 10l-6 -63q-39 -12 -81 -12q-62 0 -95 39.5t-28 105.5zM192 -172q-20 0 -30.5 12.5t-8.5 32.5t15 32.5t33 12.5q22 0 35 -17t11 -43q-3 -37 -23.5 -73
t-50.5 -57l-26 22q40 33 45 78z" />
    <glyph glyph-name="Tcaron" unicode="&#x164;" horiz-adv-x="597" 
d="M216 0l55 631h-236l7 74h555l-7 -74h-236l-55 -631h-83zM427 933h74l-136 -165h-82l-105 165h72l79 -120z" />
    <glyph glyph-name="tcaron" unicode="&#x165;" horiz-adv-x="381" 
d="M100 125l28 317h-83l6 63h87l21 118h61l-10 -118h131l-6 -63h-130l-28 -314q-3 -37 16 -59.5t55 -23.5q29 0 62 10l-6 -63q-39 -12 -81 -12q-62 0 -95 39.5t-28 105.5zM313 642q-19 -1 -30 11.5t-9 32.5t15 33t33 13q22 0 35 -17t11 -43q-3 -37 -23.5 -73t-50.5 -57
l-25 22q41 35 44 78z" />
    <glyph glyph-name="Utilde" unicode="&#x168;" horiz-adv-x="749" 
d="M562 286l37 419h83l-36 -419q-12 -136 -100 -223.5t-213 -87.5q-126 0 -198.5 87t-60.5 224l37 419h83l-37 -419q-8 -99 42.5 -168t139.5 -69q90 0 152 66t71 171zM276 810l-39 30q16 30 47 48t67 18q37 0 74 -28t60 -28q43 0 69 45l39 -29q-16 -31 -47.5 -49.5
t-69.5 -18.5q-32 0 -55 14t-40.5 28t-36.5 14q-38 0 -68 -44z" />
    <glyph glyph-name="utilde" unicode="&#x169;" 
d="M541 505l-44 -505h-77l6 71q-29 -42 -78.5 -66.5t-102.5 -24.5q-95 0 -145.5 62.5t-42.5 160.5l26 302h77l-27 -302q-5 -69 28.5 -111.5t98.5 -42.5q67 0 119.5 46t59.5 114l25 296h77zM195 592l-39 22q16 30 47 48.5t65 18.5q36 0 75.5 -29.5t62.5 -29.5q43 0 65 38
l41 -22q-17 -31 -48 -49.5t-69 -18.5q-32 0 -55.5 14.5t-42.5 29t-39 14.5q-39 0 -63 -36z" />
    <glyph glyph-name="Umacron" unicode="&#x16a;" horiz-adv-x="749" 
d="M564 286l37 419h83l-36 -419q-12 -136 -100 -223.5t-213 -87.5q-126 0 -198.5 87t-60.5 224l37 419h83l-36 -419q-9 -99 41.5 -168t140.5 -69t151.5 66t70.5 171zM569 858l-4 -53h-314l4 53h314z" />
    <glyph glyph-name="umacron" unicode="&#x16b;" 
d="M498 0h-76l6 71q-29 -42 -78.5 -66.5t-102.5 -24.5q-95 0 -146 62.5t-43 160.5l27 302h76l-26 -302q-6 -68 27.5 -111t99.5 -43q67 0 119.5 46t58.5 114l26 296h76zM483 648l-5 -54h-314l5 54h314z" />
    <glyph glyph-name="Ubreve" unicode="&#x16c;" horiz-adv-x="749" 
d="M562 286l36 419h84l-37 -419q-12 -136 -99.5 -223.5t-212.5 -87.5q-126 0 -198.5 87t-61.5 224l37 419h84l-37 -419q-8 -99 42 -168t140 -69t152 66t71 171zM487 917h59q-5 -64 -42.5 -103t-101.5 -39q-63 0 -93.5 39t-25.5 103h60q-3 -38 15 -62t49 -24t53.5 24t26.5 62
z" />
    <glyph glyph-name="ubreve" unicode="&#x16d;" 
d="M495 0h-77l7 71q-30 -42 -79.5 -66.5t-102.5 -24.5q-95 0 -145.5 62.5t-42.5 160.5l26 302h77l-27 -302q-5 -69 28.5 -111.5t98.5 -42.5q67 0 120 46t59 114l26 296h76zM400 724h61q-7 -68 -44.5 -114t-101.5 -46t-94 46t-24 114h61q-4 -45 13 -74t49 -29q31 0 53.5 29
t26.5 74z" />
    <glyph glyph-name="Uring" unicode="&#x16e;" horiz-adv-x="749" 
d="M414 948q-30 0 -51.5 -19t-22.5 -49q-3 -30 14.5 -49.5t47.5 -19.5t51 19.5t24 49.5q2 30 -15.5 49t-47.5 19zM558 286l37 419h83l-36 -419q-12 -136 -100 -223.5t-213 -87.5q-126 0 -198.5 87t-60.5 224l37 419h83l-36 -419q-9 -99 41.5 -168t140.5 -69t151.5 66
t70.5 171zM398 765q-52 0 -83 32.5t-27 82.5q5 50 41.5 82.5t88.5 32.5t83 -32.5t26 -82.5t-41 -82.5t-88 -32.5z" />
    <glyph glyph-name="uring" unicode="&#x16f;" 
d="M327 737q-30 0 -51 -19t-23 -49q-3 -30 14.5 -49.5t47.5 -19.5t51 19.5t24 49.5q2 30 -15.5 49t-47.5 19zM536 505l-44 -505h-76l6 71q-29 -42 -78.5 -66.5t-102.5 -24.5q-95 0 -146 62.5t-43 160.5l27 302h76l-26 -302q-6 -68 27.5 -111t99.5 -43q67 0 119.5 46
t58.5 114l26 296h76zM311 554q-52 0 -83 32.5t-26 82.5q5 51 41 83t89 32q52 0 82.5 -32t25.5 -83q-5 -50 -41 -82.5t-88 -32.5z" />
    <glyph glyph-name="Uhungarumlaut" unicode="&#x170;" horiz-adv-x="749" 
d="M562 286l36 419h84l-37 -419q-12 -136 -100 -223.5t-213 -87.5t-198 87.5t-61 223.5l37 419h84l-37 -419q-8 -99 42 -168t140 -69t151.5 66t71.5 171zM397 919h80l-130 -144h-68zM558 919h80l-135 -144h-68z" />
    <glyph glyph-name="uhungarumlaut" unicode="&#x171;" horiz-adv-x="582" 
d="M494 0h-77l7 71q-30 -42 -79 -66.5t-102 -24.5q-95 0 -146 62.5t-43 160.5l27 302h76l-26 -302q-6 -68 27.5 -111t98.5 -43q67 0 120 46t59 114l26 296h76zM321 744h84l-150 -180h-72zM484 744h81l-154 -180h-71z" />
    <glyph glyph-name="Uogonek" unicode="&#x172;" horiz-adv-x="749" 
d="M334 -25q-122 3 -192.5 90t-58.5 221l36 419h84l-37 -419q-8 -99 42.5 -168t139.5 -69q90 0 152 66t71 171l37 419h83l-37 -419q-10 -118 -79 -201.5t-173 -103.5q-63 -31 -66 -83q-5 -54 38 -87t118 -35l-5 -56q-96 0 -153 47t-51 120q4 51 51 88z" />
    <glyph glyph-name="uogonek" unicode="&#x173;" horiz-adv-x="661" 
d="M428 4l6 67q-29 -42 -78.5 -66.5t-102.5 -24.5q-95 0 -146 62.5t-42 160.5l26 302h76l-26 -302q-6 -68 27.5 -111t99.5 -43q67 0 119.5 46t58.5 114l26 296h77l-45 -505h-9q-106 -30 -111 -100q-5 -53 38 -86t118 -35l-5 -56q-96 0 -153 46.5t-51 120.5q8 77 97 114z" />
    <glyph glyph-name="Wcircumflex" unicode="&#x174;" horiz-adv-x="1076" 
d="M622 705l104 -649l238 649h86l-262 -705h-133l-103 618l-211 -618h-134l-139 705h86l126 -649l220 649h122zM476 775h-76l136 145h83l111 -145h-76l-81 101z" />
    <glyph glyph-name="wcircumflex" unicode="&#x175;" horiz-adv-x="879" 
d="M286 0h-104l-127 505h80l106 -430l165 430h90l93 -430l179 430h80l-216 -505h-104l-84 416zM369 565h-72l134 165h82l106 -165h-73l-78 120z" />
    <glyph glyph-name="Ycircumflex" unicode="&#x176;" horiz-adv-x="647" 
d="M242 0l23 262l-215 443h92l172 -363l232 363h94l-291 -443l-23 -262h-84zM262 775h-77l137 145h82l111 -145h-76l-80 101z" />
    <glyph glyph-name="ycircumflex" unicode="&#x177;" horiz-adv-x="569" 
d="M14 -208l6 67q39 -14 66 -14q15 0 28.5 4t25.5 14.5t20 18.5t19 26.5t16 27.5t17 33l16 32l-183 504h85l143 -410l194 410h81l-246 -512q-26 -55 -42.5 -84t-43 -65t-57 -51.5t-68.5 -15.5q-40 0 -77 15zM214 565h-72l134 165h82l107 -165h-74l-77 120z" />
    <glyph glyph-name="Ydieresis" unicode="&#x178;" horiz-adv-x="647" 
d="M244 0l23 262l-216 443h93l171 -363l232 363h94l-291 -443l-23 -262h-83zM244 785q-23 0 -36.5 14t-11.5 37t18 37t39 14t36 -14.5t11 -36.5q-1 -22 -17 -36.5t-39 -14.5zM463 785q-23 0 -36.5 14.5t-11.5 36.5q2 23 18 37t39 14t36 -14.5t11 -36.5q-1 -22 -17 -36.5
t-39 -14.5z" />
    <glyph glyph-name="Zacute" unicode="&#x179;" horiz-adv-x="649" 
d="M11 55l483 580h-422l6 70h536l-5 -55l-483 -581h442l-6 -69h-556zM424 919h90l-127 -144h-86z" />
    <glyph glyph-name="zacute" unicode="&#x17a;" horiz-adv-x="556" 
d="M23 50l363 385h-319l6 70h434l-4 -50l-364 -386h340l-6 -69h-454zM388 729h86l-145 -164h-80z" />
    <glyph glyph-name="Zdotaccent" unicode="&#x17b;" horiz-adv-x="649" 
d="M13 55l483 580h-422l6 70h535l-4 -55l-483 -581h442l-6 -69h-556zM354 780q-23 0 -36.5 13.5t-11.5 35.5q3 22 18.5 35t38.5 13t36 -13t12 -35q-2 -22 -18 -35.5t-39 -13.5z" />
    <glyph glyph-name="zdotaccent" unicode="&#x17c;" horiz-adv-x="556" 
d="M25 50l363 385h-320l6 70h435l-5 -50l-363 -386h339l-6 -69h-454zM300 595q-23 0 -36.5 14.5t-11.5 37.5q2 22 18 36.5t39 14.5q22 0 35.5 -14.5t11.5 -36.5q-1 -23 -17 -37.5t-39 -14.5z" />
    <glyph glyph-name="Zcaron" unicode="&#x17d;" horiz-adv-x="649" 
d="M10 55l483 580h-422l6 70h536l-5 -55l-483 -581h442l-6 -69h-556zM454 939l73 1l-136 -165h-81l-106 164h73l78 -120z" />
    <glyph glyph-name="zcaron" unicode="&#x17e;" horiz-adv-x="556" 
d="M23 50l363 385h-319l6 70h434l-4 -50l-364 -386h340l-6 -69h-454zM398 729l73 1l-135 -165h-82l-105 164h72l78 -120z" />
    <glyph glyph-name="Aacutering" unicode="&#x1fa;" horiz-adv-x="704" 
d="M364 631l-197 -422h320zM382 849q-19 0 -32.5 -11.5t-14.5 -29.5q-2 -19 9 -31t30 -12t31.5 12t14.5 31q1 18 -9.5 29.5t-28.5 11.5zM140 144l-66 -144h-90l326 705h119l202 -705h-89l-41 144h-361zM370 718q-41 0 -65.5 25.5t-20.5 63.5q4 39 32 64t69 25
q40 0 64.5 -25.5t20.5 -63.5q-3 -39 -31 -64t-69 -25zM344 906l89 102h90l-92 -102h-87z" />
    <glyph glyph-name="aacutering" unicode="&#x1fb;" horiz-adv-x="669" 
d="M284 49q83 0 143.5 57.5t67.5 145.5t-42.5 145.5t-132.5 57.5q-84 0 -144 -57.5t-67 -145.5q-8 -88 41.5 -145.5t133.5 -57.5zM348 696q-19 0 -32 -11.5t-15 -30.5t9 -31t30 -12t31.5 12t14.5 31q1 19 -9.5 30.5t-28.5 11.5zM510 415l8 90h76l-44 -505h-76l8 89
q-37 -51 -93 -80t-120 -29q-113 0 -180 77t-56 195q10 119 90 196t193 77q65 0 115.5 -29t78.5 -81zM336 565q-41 0 -65 25t-21 64q4 39 32 64t69 25q40 0 64.5 -25.5t21.5 -63.5q-4 -39 -32 -64t-69 -25zM334 775l123 144h91l-127 -144h-87z" />
    <glyph glyph-name="AEacute" unicode="&#x1fc;" horiz-adv-x="939" 
d="M210 214h223l38 430zM497 74h350l-7 -74h-425l12 143h-258l-87 -143h-93l427 705h476l-6 -75h-340l-21 -237h300l-6 -70h-300zM522 765l123 144h91l-127 -144h-87z" />
    <glyph glyph-name="aeacute" unicode="&#x1fd;" horiz-adv-x="1083" 
d="M328 460q-85 0 -144 -58.5t-67 -149.5q-8 -90 41.5 -148.5t133.5 -58.5q83 0 143 57.5t68 149.5q8 91 -41.5 149.5t-133.5 58.5zM573 279h374q4 77 -45 126.5t-130 49.5q-75 0 -130 -49.5t-69 -126.5zM513 420l8 85h61l-8 -92q68 112 207 112q115 0 183.5 -75t57.5 -191
q-2 -24 -6 -45h-446q6 -75 53.5 -120t121.5 -45q58 0 108 31.5t68 79.5l71 -10q-20 -74 -90.5 -122t-158.5 -48q-68 0 -121 31.5t-76 84.5l-8 -96h-61l7 84q-81 -104 -211 -104q-112 0 -177.5 77t-54.5 195q10 118 89 195.5t191 77.5q63 0 113 -28t79 -77zM509 570l138 165
l87 -1l-145 -164h-80z" />
    <glyph glyph-name="Oslashacute" unicode="&#x1fe;" horiz-adv-x="860" 
d="M448 656q-124 0 -212.5 -86t-100.5 -218q-7 -83 21 -149.5t85 -106.5l318 537q-51 23 -111 23zM395 49q125 0 213 85.5t99 217.5q7 78 -17.5 141.5t-73.5 103.5l-314 -533q42 -15 93 -15zM261 -4l-79 -136h-79l97 165q-78 48 -118 134t-30 193q14 164 128 271t274 107
q79 0 145 -29l94 159l79 1l-113 -192q70 -50 105.5 -133t26.5 -184q-14 -164 -128 -270.5t-275 -106.5q-64 0 -127 21zM427 765l123 144h90l-126 -144h-87z" />
    <glyph glyph-name="oslashacute" unicode="&#x1ff;" horiz-adv-x="645" 
d="M331 465q-88 0 -150.5 -60t-70.5 -153q-5 -57 14.5 -103.5t57.5 -74.5l223 377q-34 14 -74 14zM294 40q88 0 150.5 60t69.5 152q9 105 -57 166l-218 -371q24 -7 55 -7zM206 -9l-41 -71h-73l57 96q-58 35 -86.5 96.5t-21.5 139.5q10 120 93.5 196.5t202.5 76.5
q56 0 101 -18l54 93h74l-73 -123q49 -36 73.5 -94.5t17.5 -130.5q-10 -119 -93 -195.5t-202 -76.5q-42 0 -83 11zM434 729h86l-145 -164h-79z" />
    <glyph glyph-name="Scommaaccent" unicode="&#x218;" horiz-adv-x="702" 
d="M621 205q-9 -102 -89.5 -166t-203.5 -64q-129 0 -206.5 71.5t-68.5 181.5h83q-7 -78 49.5 -128.5t151.5 -50.5q86 0 140 40.5t59 105.5q2 27 -8.5 47.5t-25.5 32t-46.5 20.5t-53.5 13t-64 9q-42 6 -65.5 10t-58.5 13.5t-55 22.5t-39.5 33t-26.5 49.5t-4 67.5
q8 95 87.5 156t197.5 61q121 0 194 -67.5t64 -171.5h-81q6 72 -45.5 118.5t-137.5 46.5q-82 0 -136 -38t-59 -98q-2 -23 3.5 -40.5t20 -30t29 -21t41.5 -15t46.5 -9.5t53.5 -8q42 -6 65 -10t59.5 -13.5t56.5 -22t40.5 -32t28 -48t4.5 -65.5zM299 -172q-19 -1 -30 11.5
t-9 33.5q2 20 15 32.5t33 12.5q23 0 35.5 -17t10.5 -43q-3 -37 -23.5 -73t-50.5 -57l-25 22q41 35 44 78z" />
    <glyph glyph-name="scommaaccent" unicode="&#x219;" horiz-adv-x="544" 
d="M479 145q-6 -71 -68.5 -118t-153.5 -47q-97 0 -156 53.5t-51 135.5h75q-4 -52 34.5 -86t103.5 -34q58 0 98 25.5t44 63.5q2 22 -10.5 38t-37.5 25.5t-43 13.5t-46 8q-43 7 -65.5 11.5t-52 15.5t-43.5 25t-23 38.5t-6 57.5q6 66 65.5 110t141.5 44q94 0 151 -48.5
t51 -122.5l-75 1q4 43 -34 71.5t-100 28.5q-49 0 -85.5 -24.5t-40.5 -61.5q-3 -32 26 -47.5t102 -27.5q37 -7 57.5 -11t53.5 -16t50 -26t29 -39t9 -57zM222 -172q-19 0 -29.5 12.5t-9.5 32.5q2 20 15.5 32.5t32.5 12.5q23 0 36 -17t11 -43q-4 -38 -24.5 -73.5t-50.5 -56.5
l-25 22q41 35 44 78z" />
    <glyph glyph-name="circumflex" unicode="&#x2c6;" horiz-adv-x="424" 
d="M68 570l135 165h81l107 -165h-73l-78 121l-99 -121h-73z" />
    <glyph glyph-name="caron" unicode="&#x2c7;" horiz-adv-x="424" 
d="M332 735h74l-136 -165h-82l-105 165h72l78 -121z" />
    <glyph glyph-name="breve" unicode="&#x2d8;" horiz-adv-x="365" 
d="M286 735h60q-6 -68 -43.5 -114.5t-101.5 -46.5q-65 0 -94.5 46t-23.5 115h61q-4 -46 13 -75t49 -29q31 0 53 29t27 75z" />
    <glyph glyph-name="dotaccent" unicode="&#x2d9;" horiz-adv-x="206" 
d="M123 560q-23 0 -36.5 14.5t-11.5 37.5t18 37t39 14t36 -14.5t11 -36.5q-1 -22 -17 -37t-39 -15z" />
    <glyph glyph-name="ring" unicode="&#x2da;" horiz-adv-x="340" 
d="M184 540q-53 0 -83.5 32.5t-26.5 82.5q4 51 40.5 83t89.5 32t83 -32t26 -83q-5 -50 -41 -82.5t-88 -32.5zM200 723q-30 0 -51.5 -19t-22.5 -49q-3 -30 14.5 -49t47.5 -19t51 19t24 49q2 30 -15.5 49t-47.5 19z" />
    <glyph glyph-name="ogonek" unicode="&#x2db;" horiz-adv-x="320" 
d="M175 12l38 -12q-114 -30 -121 -102q-4 -54 39 -87t118 -35l-5 -56q-96 0 -153 47t-51 120q4 46 40 79t95 46z" />
    <glyph glyph-name="tilde" unicode="&#x2dc;" horiz-adv-x="455" 
d="M114 596l-39 22q16 29 47 47.5t66 18.5q36 0 75 -29t62 -29q43 0 65 38l41 -22q-16 -30 -47.5 -49t-69.5 -19q-40 0 -77.5 29t-59.5 29q-39 0 -63 -36z" />
    <glyph glyph-name="hungarumlaut" unicode="&#x2dd;" horiz-adv-x="468" 
d="M206 750h84l-151 -180h-71zM368 750h82l-154 -180h-72z" />
    <glyph glyph-name="Wgrave" unicode="&#x1e80;" horiz-adv-x="1076" 
d="M622 705l104 -649l238 649h86l-262 -705h-133l-103 618l-211 -618h-134l-139 705h86l126 -649l220 649h122zM419 919h90l98 -144h-87z" />
    <glyph glyph-name="wgrave" unicode="&#x1e81;" horiz-adv-x="879" 
d="M286 0h-104l-127 505h80l106 -430l165 430h90l93 -430l179 430h80l-216 -505h-104l-84 416zM304 729l87 1l109 -165h-80z" />
    <glyph glyph-name="Wacute" unicode="&#x1e82;" horiz-adv-x="1076" 
d="M622 705l104 -649l238 649h86l-262 -705h-133l-103 618l-211 -618h-134l-139 705h86l126 -649l220 649h122zM637 919h90l-126 -144h-87z" />
    <glyph glyph-name="wacute" unicode="&#x1e83;" horiz-adv-x="879" 
d="M286 0h-104l-127 505h80l106 -430l165 430h90l93 -430l179 430h80l-216 -505h-104l-84 416zM549 729h86l-144 -164h-80z" />
    <glyph glyph-name="Wdieresis" unicode="&#x1e84;" horiz-adv-x="1076" 
d="M624 705l103 -649l239 649h86l-262 -705h-134l-103 618l-210 -618h-135l-139 705h87l125 -649l221 649h122zM501 785q-23 0 -36.5 14t-11.5 37t18 37t39 14t36 -14.5t11 -36.5q-1 -22 -17 -36.5t-39 -14.5zM634 785q-23 0 -36 14.5t-11 36.5q1 22 17 36.5t39 14.5
t36.5 -14t11.5 -37t-18 -37t-39 -14z" />
    <glyph glyph-name="wdieresis" unicode="&#x1e85;" horiz-adv-x="879" 
d="M288 0h-104l-127 505h80l107 -430l164 430h90l93 -430l179 430h80l-216 -505h-104l-84 416zM341 582q-23 0 -36.5 14t-11.5 37t18 37t39 14t36 -14.5t11 -36.5q-1 -22 -17 -36.5t-39 -14.5zM580 582q-23 0 -36.5 14t-11.5 37t18 37t39 14t36 -14.5t11 -36.5
q-1 -22 -17 -36.5t-39 -14.5z" />
    <glyph glyph-name="Germandbls" unicode="&#x1e9e;" horiz-adv-x="684" 
d="M178 472l-41 -472h-84l42 480q9 105 83 173.5t180 68.5q98 0 158 -54.5t52 -136.5q-5 -61 -41.5 -103.5t-88.5 -50.5q77 -10 121.5 -65.5t37.5 -135.5q-7 -87 -72.5 -144t-157.5 -57q-77 0 -157 46l30 70q65 -43 128 -43q60 0 100.5 37.5t45.5 97.5q6 72 -35 114.5
t-128 42.5h-42l6 70h43q51 0 86.5 32t39.5 83q5 53 -33 88t-101 35q-70 0 -117.5 -48t-54.5 -128z" />
    <glyph glyph-name="Ygrave" unicode="&#x1ef2;" horiz-adv-x="647" 
d="M242 0l23 262l-215 443h92l172 -363l232 363h94l-291 -443l-23 -262h-84zM206 919h91l97 -144h-86z" />
    <glyph glyph-name="ygrave" unicode="&#x1ef3;" horiz-adv-x="560" 
d="M10 -208l6 67q38 -14 65 -14q18 0 34 7.5t26.5 15t24.5 28t19.5 30t20 38.5l18.5 37l-183 504h84l144 -410l193 410h82l-246 -512q-27 -56 -43 -84.5t-43 -64.5t-57.5 -51.5t-68.5 -15.5q-39 0 -76 15zM263 565l-116 164l87 1l109 -165h-80z" />
    <glyph glyph-name="endash" unicode="&#x2013;" horiz-adv-x="667" 
d="M634 347l-6 -70h-570l6 70h570z" />
    <glyph glyph-name="emdash" unicode="&#x2014;" horiz-adv-x="827" 
d="M44 347h770l-6 -70h-770z" />
    <glyph glyph-name="quoteleft" unicode="&#x2018;" horiz-adv-x="211" 
d="M131 613q22 0 34.5 -14t10.5 -37q-2 -22 -18 -36t-38 -14q-25 0 -39 19t-12 51q5 47 29 90t57 63l35 -27q-24 -15 -40.5 -41.5t-18.5 -53.5z" />
    <glyph glyph-name="quoteright" unicode="&#x2019;" horiz-adv-x="211" 
d="M125 621q-22 0 -35 14.5t-11 37.5q2 22 18 36t38 14q26 0 40 -19.5t11 -50.5q-5 -47 -29 -90t-57 -63l-35 27q24 15 41 41.5t19 52.5z" />
    <glyph glyph-name="quotesinglbase" unicode="&#x201a;" horiz-adv-x="211" 
d="M97 -12q-22 0 -34.5 14t-10.5 37q1 22 17 36t38 14q26 0 40 -19t11 -51q-4 -46 -28 -89t-57 -64l-36 27q24 16 41 42.5t19 52.5z" />
    <glyph glyph-name="quotedblleft" unicode="&#x201c;" horiz-adv-x="374" 
d="M178 562q-1 -22 -17 -36t-38 -14q-26 0 -40 19t-11 51q4 46 28 89.5t57 63.5l35 -27q-23 -15 -40 -42t-19 -53q22 0 34.5 -14t10.5 -37zM337 562q-2 -22 -18 -36t-38 -14q-26 0 -40 19.5t-11 50.5q4 46 28 89.5t58 63.5l35 -27q-24 -15 -41 -42t-19 -53q22 0 35 -14
t11 -37z" />
    <glyph glyph-name="quotedblright" unicode="&#x201d;" horiz-adv-x="371" 
d="M82 674q1 22 17 36.5t38 14.5q26 0 40 -19.5t11 -50.5q-4 -47 -28 -90t-58 -63l-35 27q24 15 41 41.5t19 52.5q-22 0 -34.5 14t-10.5 37zM240 674q1 22 17 36.5t38 14.5q26 0 40 -19.5t11 -50.5q-4 -47 -28 -90t-58 -63l-35 27q24 15 41 41.5t19 52.5q-22 0 -34.5 14
t-10.5 37z" />
    <glyph glyph-name="quotedblbase" unicode="&#x201e;" horiz-adv-x="371" 
d="M53 40q2 22 18 36t38 14q25 0 39 -19t12 -51q-5 -47 -29 -90t-57 -63l-35 27q24 15 40.5 41.5t18.5 52.5q-22 0 -34.5 14.5t-10.5 37.5zM211 40q2 22 18 36t38 14q26 0 40 -19.5t11 -50.5q-5 -47 -29 -90t-57 -63l-35 27q24 15 41 41.5t19 52.5q-22 0 -35 14.5t-11 37.5z
" />
    <glyph glyph-name="bullet" unicode="&#x2022;" horiz-adv-x="224" 
d="M118 250q-27 0 -42.5 17t-13.5 43t20.5 43t45.5 17t43 -17t14 -43t-21 -43t-46 -17z" />
    <glyph glyph-name="ellipsis" unicode="&#x2026;" horiz-adv-x="538" 
d="M98 -12q-23 0 -36.5 14.5t-11.5 37.5q2 22 18 36.5t39 14.5q22 0 35.5 -14.5t11.5 -36.5q-1 -23 -17 -37.5t-39 -14.5zM264 -12q-23 0 -36.5 14.5t-11.5 37.5q2 22 18 36.5t39 14.5q22 0 35.5 -14.5t11.5 -36.5q-1 -23 -17 -37.5t-39 -14.5zM430 -12q-23 0 -36.5 14.5
t-11.5 37.5q2 22 18 36.5t39 14.5q22 0 35.5 -14.5t11.5 -36.5q-1 -23 -17 -37.5t-39 -14.5z" />
    <glyph glyph-name="perthousand" unicode="&#x2030;" horiz-adv-x="1482" 
d="M547 192q7 89 68.5 145t150.5 56t140.5 -56t43.5 -145q-7 -90 -68.5 -146t-151.5 -56q-89 0 -140 56t-43 146zM872 192q4 55 -27 89t-86 34t-92.5 -34t-41.5 -89q-5 -54 26.5 -88.5t85.5 -34.5q55 0 93 34t42 89zM1011 191q7 90 68.5 146t151.5 56q89 0 140 -56t44 -146
q-7 -89 -68.5 -145t-151.5 -56q-89 0 -140.5 56t-43.5 145zM1336 192q5 54 -26 88.5t-86 34.5t-92.5 -34.5t-42.5 -88.5q-5 -55 26.5 -89t86.5 -34t92.5 34t41.5 89zM66 543q7 89 68.5 145.5t150.5 56.5q90 0 141.5 -56.5t43.5 -145.5t-69 -145t-151 -56q-89 0 -140.5 56
t-43.5 145zM391 543q4 55 -27 89t-86 34t-92.5 -34t-42.5 -89t27 -89t87 -34t92 34t42 89zM742 735h93l-562 -735h-93z" />
    <glyph glyph-name="guilsinglleft" unicode="&#x2039;" horiz-adv-x="376" 
d="M348 505l-226 -253l182 -252h-92l-179 252l223 253h92z" />
    <glyph glyph-name="guilsinglright" unicode="&#x203a;" horiz-adv-x="376" 
d="M344 252l-224 -252h-91l225 252l-181 253h92z" />
    <glyph glyph-name="lira" unicode="&#x20a4;" 
d="M379 662q-52 0 -86.5 -39t-39.5 -102l-10 -122h251l-5 -54h-251q-2 -24 -8 -61h254l-5 -54h-262q-30 -132 -115 -170h424l-5 -60h-502l7 85q40 6 68.5 38.5t45.5 108.5h-93l4 52h101q3 19 7 61h-102l5 54h102l10 122q8 92 64.5 150t143.5 58q86 0 135.5 -58t50.5 -152
l-76 -12q0 70 -29 112.5t-84 42.5z" />
    <glyph glyph-name="Euro" unicode="&#x20ac;" horiz-adv-x="912" 
d="M490 49q89 0 164.5 52.5t104.5 133.5l79 -15q-35 -106 -135 -175.5t-219 -69.5q-135 0 -225 78t-107 206h-111l5 57h103q0 32 7 79h-102l5 56h111q41 126 144 202.5t236 76.5q119 0 206.5 -73t104.5 -184l-83 -10q-13 83 -79.5 138t-155.5 55q-98 0 -175 -56t-112 -149
h306l-5 -56h-317q-5 -21 -6 -43q-2 -24 -1 -36h317l-5 -57h-307q17 -95 85 -152.5t167 -57.5z" />
    <glyph glyph-name="trademark" unicode="&#x2122;" horiz-adv-x="1102" 
d="M151 150l44 495h-151l5 60h369l-5 -60h-151l-44 -495h-67zM975 609l-225 -459h-53l-144 459l-40 -459h-65l48 555h97l139 -459l218 459h98l-48 -555h-65z" />
    <glyph glyph-name="minus" unicode="&#x2212;" horiz-adv-x="512" 
d="M66 347h410l-6 -70h-410z" />
    <glyph glyph-name="approxequal" unicode="&#x2248;" horiz-adv-x="360" 
 />
    <glyph glyph-name="notequal" unicode="&#x2260;" horiz-adv-x="572" 
d="M42 223h171l83 179h-238l6 70h265l76 164h69l-75 -164h135l-6 -70h-161l-83 -179h228l-6 -70h-254l-90 -193h-70l89 193h-145z" />
    <glyph glyph-name="lessequal" unicode="&#x2264;" horiz-adv-x="449" 
d="M380 69l-7 -69h-351l6 69h352zM53 358l366 162l-6 -72l-295 -129l272 -130l-6 -70l-338 162z" />
    <glyph glyph-name="greaterequal" unicode="&#x2265;" horiz-adv-x="449" 
d="M36 69h352l-6 -69h-352zM47 189l294 130l-272 129l7 72l337 -162l-6 -77l-366 -162z" />
    <glyph glyph-name="commaaccent" unicode="&#xf6c3;" horiz-adv-x="197" 
d="M89 -24q-20 0 -30.5 12.5t-8.5 32.5t15 32.5t33 12.5q22 0 35 -17t11 -43q-3 -37 -23.5 -73t-50.5 -57l-26 22q40 33 45 78z" />
    <glyph glyph-name="acute.case" horiz-adv-x="302" 
d="M284 735l-127 -145h-87l123 145h91z" />
    <glyph glyph-name="breve.case" horiz-adv-x="364" 
d="M287 735h59q-6 -65 -43.5 -104t-100.5 -39t-93.5 39.5t-25.5 103.5h60q-4 -38 14 -62.5t50 -24.5q31 0 53.5 24.5t26.5 62.5z" />
    <glyph glyph-name="caron.case" horiz-adv-x="431" 
d="M337 735h76l-137 -145h-82l-111 145h77l79 -102z" />
    <glyph glyph-name="circumflex.case" horiz-adv-x="431" 
d="M70 590l137 145h82l111 -145h-76l-80 102l-97 -102h-77z" />
    <glyph glyph-name="dieresis.case" horiz-adv-x="424" 
d="M123 559q-23 0 -36 14t-12 37q2 22 18 36t39 14t36 -14t11 -36q-1 -23 -17 -37t-39 -14zM342 559q-23 0 -36.5 14t-11.5 37q2 22 18 36t39 14t36 -14t11 -36q-2 -23 -17.5 -37t-38.5 -14z" />
    <glyph glyph-name="dotaccent.case" horiz-adv-x="206" 
d="M123 566q-23 0 -36 13.5t-11 35.5t17.5 35t38.5 13t36.5 -13t11.5 -35q-2 -23 -17.5 -36t-39.5 -13z" />
    <glyph glyph-name="grave.case" horiz-adv-x="302" 
d="M83 737h90l98 -145h-87z" />
    <glyph glyph-name="hungarumlaut.case" horiz-adv-x="448" 
d="M188 735h81l-130 -145h-69zM349 735h80l-134 -145h-68z" />
    <glyph glyph-name="ijacute" horiz-adv-x="480" 
d="M97 505h77l-44 -505h-77zM287 -77l51 582h77l-51 -584q-6 -63 -46 -102t-99 -39q-48 0 -84 13l5 59q32 -9 65 -9q34 0 56.5 22t25.5 58zM233 735l86 -1l-145 -164h-79zM470 735l86 -1l-145 -164h-79z" />
    <glyph glyph-name="ring.case" horiz-adv-x="288" 
d="M161 540q-41 0 -65.5 25.5t-21.5 63.5q4 39 32 64t69 25t65 -25t21 -64t-31.5 -64t-68.5 -25zM172 671q-19 0 -31.5 -11.5t-14.5 -29.5q-2 -19 9 -31t30 -12q18 0 31.5 12t14.5 31q2 18 -9 29.5t-30 11.5z" />
    <glyph glyph-name="tilde.case" horiz-adv-x="455" 
d="M115 605l-39 30q16 30 46.5 48.5t66.5 18.5q38 0 75 -28.5t59 -28.5q43 0 69 46l40 -30q-16 -31 -48 -49.5t-70 -18.5q-32 0 -55 14.5t-40.5 28.5t-35.5 14q-39 0 -68 -45z" />
    </font>
</defs>
</svg>
