<?xml version="1.0" standalone="no"?>
<!DOCTYPE svg PUBLIC "-//W3C//DTD SVG 1.1//EN" "http://www.w3.org/Graphics/SVG/1.1/DTD/svg11.dtd" >
<svg xmlns="http://www.w3.org/2000/svg" xmlns:xlink="http://www.w3.org/1999/xlink" version="1.1">
<metadata>
Created by FontForge 20170731 at Wed May 30 16:50:16 2018
 By Aleksey,,,
Copyright (c) 2017 by Alexander Slobzheninov. All rights reserved.
</metadata>
<defs>
<font id="Objectivity-Thin" horiz-adv-x="602" >
  <font-face 
    font-family="Objectivity Thin"
    font-weight="100"
    font-stretch="normal"
    units-per-em="1000"
    panose-1="0 0 0 0 0 0 0 0 0 0"
    ascent="800"
    descent="-200"
    x-height="500"
    cap-height="700"
    bbox="-59 -280 1446 990"
    underline-thickness="50"
    underline-position="-225"
    unicode-range="U+000D-F6C3"
  />
<missing-glyph horiz-adv-x="500" 
 />
    <glyph glyph-name=".notdef" horiz-adv-x="500" 
 />
    <glyph glyph-name=".null" horiz-adv-x="0" 
 />
    <glyph glyph-name="nonmarkingreturn" horiz-adv-x="333" 
 />
    <glyph glyph-name="NULL" horiz-adv-x="692" 
d="M601 700v-700h-510v700h510zM120 30h452v640h-452v-640z" />
    <glyph glyph-name="NULL" horiz-adv-x="692" 
d="M601 700v-700h-510v700h510zM120 30h452v640h-452v-640z" />
    <glyph glyph-name="CR" unicode="&#xd;" horiz-adv-x="30" 
 />
    <glyph glyph-name="space" unicode=" " horiz-adv-x="300" 
 />
    <glyph glyph-name="exclam" unicode="!" horiz-adv-x="162" 
d="M81 -10q-13 0 -21.5 8t-8.5 22q0 13 8.5 21.5t21.5 8.5t21.5 -8.5t8.5 -21.5t-8.5 -21.5t-21.5 -8.5zM66 700h30v-520h-30v520z" />
    <glyph glyph-name="quotedbl" unicode="&#x22;" horiz-adv-x="272" 
d="M81 699v-300h-30v300h30zM221 699v-300h-30v300h30z" />
    <glyph glyph-name="numbersign" unicode="#" horiz-adv-x="945" 
d="M387 484l-57 -210h213l56 210h-212zM844 274l-1 -30h-277l-65 -245h-31l65 245h-213l-66 -245h-31l66 245h-240v30h248l57 210h-255v30h263l59 222h31l-59 -222h212l59 222h31l-59 -222h255l1 -30h-264l-56 -210h270z" />
    <glyph glyph-name="dollar" unicode="$" horiz-adv-x="689" 
d="M359 -25v-98h-30v98q-114 6 -186 75t-72 172h30q0 -96 69.5 -156.5t177.5 -60.5q105 0 172.5 52t67.5 135q0 25 -7.5 44.5t-17.5 33.5t-30.5 25t-36 17t-45.5 12t-47.5 8.5t-52.5 6.5q-40 5 -66 9.5t-61 12.5t-57 20.5t-42.5 30t-30.5 44t-10 59.5q0 89 68.5 148
t176.5 62v95h30v-96q109 -5 180.5 -69t71.5 -159h-30q0 86 -68.5 142.5t-174.5 56.5q-99 0 -161.5 -50t-62.5 -128q0 -29 8.5 -51t28 -37t38 -24.5t52.5 -17t55 -10.5t62 -8t65.5 -9.5t59 -13t55 -20.5t41 -29.5t30 -44t9.5 -59.5q0 -94 -72.5 -154.5t-186.5 -63.5z" />
    <glyph glyph-name="percent" unicode="%" horiz-adv-x="1018" 
d="M564 190q0 87 57 143.5t145 56.5q87 0 144 -56.5t57 -143.5t-56.5 -143.5t-144.5 -56.5t-145 56.5t-57 143.5zM938 191q0 73 -48.5 121t-122.5 48q-76 0 -125 -47.5t-49 -121.5t49 -122.5t125 -48.5q74 0 122.5 48.5t48.5 122.5zM51 540q0 87 57.5 143.5t145.5 56.5
q87 0 144 -56.5t57 -143.5t-56.5 -143.5t-144.5 -56.5t-145.5 56.5t-57.5 143.5zM426 541q0 73 -48.5 121t-122.5 48q-76 0 -125 -47.5t-49 -121.5t49 -122.5t125 -48.5q74 0 122.5 48.5t48.5 122.5zM740 730h36l-496 -730h-36z" />
    <glyph glyph-name="ampersand" unicode="&#x26;" horiz-adv-x="764" 
d="M516 119q-41 37 -127.5 114.5t-130.5 117.5q-75 -32 -116 -73t-41 -109q0 -71 57.5 -117.5t145.5 -46.5q130 0 212 114zM278 375q47 -43 139.5 -126.5t115.5 -104.5q44 71 86 196h32q-47 -141 -96 -216q51 -47 138 -124h-45l-110 98q-89 -123 -234 -123q-101 0 -167 55
t-66 139q0 77 43.5 123.5t120.5 80.5q-94 92 -94 176q0 72 50.5 118.5t130.5 46.5q73 0 123 -45.5t62 -119.5l-29 -5q-10 63 -51.5 102t-102.5 39q-68 0 -110.5 -38t-42.5 -98q1 -77 107 -174z" />
    <glyph glyph-name="quotesingle" unicode="'" horiz-adv-x="132" 
d="M81 700v-300h-30v300h30z" />
    <glyph glyph-name="parenleft" unicode="(" horiz-adv-x="302" 
d="M261 -180h-41q-71 71 -115 198t-44 263t44 263t115 198h41q-78 -77 -124 -201t-46 -260q0 -138 46 -262.5t124 -198.5z" />
    <glyph glyph-name="parenright" unicode=")" horiz-adv-x="302" 
d="M82 -180h-41q78 74 124 198.5t46 262.5q0 136 -46 260t-124 201h41q71 -71 115 -198t44 -263t-44 -263t-115 -198z" />
    <glyph glyph-name="asterisk" unicode="*" horiz-adv-x="498" 
d="M447 383l-15 -26l-168 97v-194h-30v194l-168 -97l-15 26l168 97l-168 97l15 26l168 -97v194h30v-194l168 97l15 -26l-168 -97z" />
    <glyph glyph-name="plus" unicode="+" horiz-adv-x="572" 
d="M300 90h-29v214h-220v30h220v196h30v-196h220v-30h-221v-214z" />
    <glyph glyph-name="comma" unicode="," horiz-adv-x="170" 
d="M88 -10q-15 0 -24.5 8.5t-9.5 21.5t8.5 21.5t21.5 8.5q15 0 25 -11.5t10 -29.5q0 -36 -15.5 -69.5t-39.5 -49.5l-13 15q16 11 26.5 35t10.5 50z" />
    <glyph glyph-name="hyphen" unicode="-" horiz-adv-x="512" 
d="M51 331h410v-30h-410v30z" />
    <glyph glyph-name="period" unicode="." horiz-adv-x="162" 
d="M81 -10q-13 0 -21.5 8t-8.5 22q0 13 8.5 21.5t21.5 8.5t21.5 -8.5t8.5 -21.5t-8.5 -21.5t-21.5 -8.5z" />
    <glyph glyph-name="slash" unicode="/" horiz-adv-x="415" 
d="M342 700h32l-302 -930h-31z" />
    <glyph glyph-name="zero" unicode="0" horiz-adv-x="702" 
d="M351 -25q-122 0 -201 106t-79 269q0 164 79 269.5t201 105.5t201 -106t79 -269t-79 -269t-201 -106zM351 695q-109 0 -179.5 -97.5t-70.5 -247.5t70.5 -247.5t179.5 -97.5t179.5 97.5t70.5 247.5t-70.5 247.5t-179.5 97.5z" />
    <glyph glyph-name="one" unicode="1" horiz-adv-x="321" 
d="M191 0v653l-160 -132v39l170 140h20v-700h-30z" />
    <glyph glyph-name="two" unicode="2" horiz-adv-x="572" 
d="M100 510l-29 5q10 91 74 150.5t151 59.5q89 0 147 -60.5t58 -154.5q0 -67 -35 -122t-112 -131l-232 -227h369v-30h-420v20l277 274q63 62 93 110.5t30 105.5q0 80 -49 132.5t-123 52.5q-78 0 -133 -51t-66 -134z" />
    <glyph glyph-name="three" unicode="3" horiz-adv-x="612" 
d="M441 670h-330v30h380v-20l-220 -241q9 1 28 1q106 0 174 -64t68 -166t-66.5 -168.5t-168.5 -66.5q-95 0 -162 62.5t-73 157.5l28 5q4 -85 63 -140t145 -55q89 0 146.5 58t57.5 147q0 87 -59.5 143.5t-150.5 56.5q-60 0 -86 -19l-11 21z" />
    <glyph glyph-name="four" unicode="4" horiz-adv-x="532" 
d="M64 230h287v447zM351 200h-330v20l310 480h50v-470h90v-30h-90v-200h-30v200z" />
    <glyph glyph-name="five" unicode="5" horiz-adv-x="613" 
d="M272 400h-136l26 300h330v-30h-303l-20 -240h103q118 0 194 -63.5t76 -161.5q0 -100 -66.5 -165t-168.5 -65q-95 0 -161.5 62t-74.5 157l29 6q5 -85 64 -140t144 -55q89 0 146.5 56.5t57.5 143.5q0 85 -68 140t-172 55z" />
    <glyph glyph-name="six" unicode="6" horiz-adv-x="572" 
d="M291 5q87 0 143.5 60.5t56.5 154.5q0 91 -56.5 150.5t-143.5 59.5q-91 0 -150.5 -59t-59.5 -151q0 -94 59 -154.5t151 -60.5zM101 370l257 330h39l-207 -264q46 24 101 24q100 0 165 -68t65 -172q0 -106 -65 -175.5t-165 -69.5q-104 0 -172 69.5t-68 175.5q0 37 14 79.5
t36 70.5z" />
    <glyph glyph-name="seven" unicode="7" horiz-adv-x="502" 
d="M481 680l-286 -680h-33l282 670h-433v30h470v-20z" />
    <glyph glyph-name="eight" unicode="8" horiz-adv-x="642" 
d="M321 360q-96 0 -158 -51t-62 -129t62 -129t158 -51q95 0 157.5 51t62.5 129t-62.5 129t-157.5 51zM321 695q-83 0 -136.5 -42.5t-53.5 -108.5q0 -67 54 -110.5t136 -43.5t136 43.5t54 110.5q0 66 -53.5 108.5t-136.5 42.5zM321 725q95 0 157.5 -51t62.5 -130
q0 -63 -41 -109t-107 -60q80 -14 129 -67t49 -127q0 -90 -70.5 -148t-179.5 -58t-179.5 58t-70.5 147q0 74 49 127.5t128 67.5q-67 14 -107 60t-40 109q0 79 62 130t158 51z" />
    <glyph glyph-name="nine" unicode="9" horiz-adv-x="572" 
d="M281 695q-87 0 -143.5 -60.5t-56.5 -154.5q0 -91 56.5 -150.5t143.5 -59.5q91 0 150.5 59t59.5 151q0 94 -59 154.5t-151 60.5zM471 330l-257 -330h-39l207 265q-45 -25 -101 -25q-100 0 -165 68t-65 172q0 107 65 176t165 69q104 0 172 -69.5t68 -175.5q0 -37 -14 -79.5
t-36 -70.5z" />
    <glyph glyph-name="colon" unicode=":" horiz-adv-x="162" 
d="M81 -10q-13 0 -21.5 8t-8.5 22q0 13 8.5 21.5t21.5 8.5t21.5 -8.5t8.5 -21.5t-8.5 -21.5t-21.5 -8.5zM81 410q-13 0 -21.5 8t-8.5 22q0 13 8.5 21.5t21.5 8.5t21.5 -8.5t8.5 -21.5t-8.5 -21.5t-21.5 -8.5z" />
    <glyph glyph-name="semicolon" unicode=";" horiz-adv-x="170" 
d="M81 410q-13 0 -21.5 8t-8.5 22q0 13 8.5 21.5t21.5 8.5t21.5 -8.5t8.5 -21.5t-8.5 -21.5t-21.5 -8.5zM88 -10q-15 0 -24.5 8.5t-9.5 21.5t8.5 21.5t21.5 8.5q15 0 25 -11.5t10 -29.5q0 -36 -15.5 -69.5t-39.5 -49.5l-13 15q16 11 26.5 35t10.5 50z" />
    <glyph glyph-name="less" unicode="&#x3c;" horiz-adv-x="474" 
d="M76 250l337 -215v-35l-372 237v26l372 237v-35z" />
    <glyph glyph-name="equal" unicode="=" horiz-adv-x="572" 
d="M51 207h470v-30h-470v30zM51 458h470v-30h-470v30z" />
    <glyph glyph-name="greater" unicode="&#x3e;" horiz-adv-x="474" 
d="M433 263v-26l-372 -237v35l337 215l-337 215v35z" />
    <glyph glyph-name="question" unicode="?" horiz-adv-x="568" 
d="M267 -10q-13 0 -21.5 8t-8.5 22q0 13 8.5 21.5t21.5 8.5t21.5 -8.5t8.5 -21.5t-8.5 -21.5t-21.5 -8.5zM282 160h-30q0 75 25.5 113t93.5 81q26 17 39.5 27t32 29t26.5 43t8 55q0 80 -54 133.5t-137 53.5q-82 0 -133 -55t-62 -146l-30 6q13 101 73 163t153 62
q95 0 157.5 -62.5t62.5 -155.5q0 -36 -9.5 -64t-31 -51t-39 -36t-50.5 -35q-55 -35 -75 -66.5t-20 -94.5z" />
    <glyph glyph-name="at" unicode="@" horiz-adv-x="1003" 
d="M683 259q0 88 -49 139.5t-132 51.5q-80 0 -130.5 -53t-50.5 -138q0 -83 50.5 -135t130.5 -52q78 0 129.5 53t51.5 134zM501 665q-178 0 -294 -114.5t-116 -290.5q0 -174 107 -287t272 -113q79 0 134 37v-35q-61 -32 -135 -32q-178 0 -293 121.5t-115 308.5
q0 188 124.5 311.5t315.5 123.5q192 0 316.5 -123t123.5 -312q0 -123 -35 -195t-109 -72q-108 0 -115 159q-24 -51 -71.5 -80.5t-109.5 -29.5q-91 0 -150.5 61.5t-59.5 156.5q0 96 59.5 158t151.5 62q91 0 150.5 -58t59.5 -148l1 -124q0 -127 84 -127q59 0 86.5 65t27.5 172
q0 177 -115.5 291t-294.5 114z" />
    <glyph glyph-name="A" unicode="A" horiz-adv-x="638" 
d="M319 670l-191 -480h381zM116 160l-63 -160h-32l278 700h40l278 -700h-32l-64 160h-405z" />
    <glyph glyph-name="B" unicode="B" horiz-adv-x="642" 
d="M541 195q0 72 -56.5 118.5t-143.5 46.5h-220v-330h220q87 0 143.5 46.5t56.5 118.5zM351 670h-230v-280h230q74 0 122 39.5t48 100.5t-48 100.5t-122 39.5zM341 0h-250v700h260q87 0 143.5 -48t56.5 -122q0 -57 -37.5 -99t-99.5 -55q70 -14 113.5 -63t43.5 -118
q0 -85 -65 -140t-165 -55z" />
    <glyph glyph-name="C" unicode="C" horiz-adv-x="820" 
d="M431 5q111 0 195 64t104 159l29 -7q-22 -104 -114.5 -175t-213.5 -71q-161 0 -265.5 106t-104.5 269t104.5 269t265.5 106q121 0 213 -73.5t114 -181.5l-29 -5q-22 98 -106 164t-192 66q-148 0 -244 -97t-96 -248q0 -150 96 -247.5t244 -97.5z" />
    <glyph glyph-name="D" unicode="D" horiz-adv-x="732" 
d="M91 0v700h170q185 0 297.5 -96t112.5 -254t-112.5 -254t-297.5 -96h-170zM641 350q0 144 -104.5 232t-275.5 88h-140v-640h140q171 0 275.5 88t104.5 232z" />
    <glyph glyph-name="E" unicode="E" horiz-adv-x="622" 
d="M121 350v-320h450v-30h-480v700h470v-30h-440v-290h400v-30h-400z" />
    <glyph glyph-name="F" unicode="F" horiz-adv-x="552" 
d="M451 310h-330v-310h-30v700h420v-30h-390v-330h330v-30z" />
    <glyph glyph-name="G" unicode="G" horiz-adv-x="852" 
d="M431 5q144 0 237 96.5t93 248.5h-330v30h359q10 -176 -91.5 -290.5t-267.5 -114.5q-161 0 -265.5 106t-104.5 269t104.5 269t265.5 106q121 0 213.5 -70.5t114.5 -178.5l-29 -6q-23 98 -107.5 161.5t-191.5 63.5q-148 1 -244 -96.5t-96 -248.5q0 -149 96.5 -247
t243.5 -98z" />
    <glyph glyph-name="H" unicode="H" horiz-adv-x="690" 
d="M120 0h-30v700h30v-320h450v320h30v-700h-30v350h-450v-350z" />
    <glyph glyph-name="I" unicode="I" horiz-adv-x="212" 
d="M91 700h30v-700h-30v700z" />
    <glyph glyph-name="J" unicode="J" horiz-adv-x="432" 
d="M311 210v490h30v-490q0 -111 -53 -170.5t-141 -59.5q-54 0 -116 20v31q68 -21 120 -21q73 0 116.5 50.5t43.5 149.5z" />
    <glyph glyph-name="K" unicode="K" horiz-adv-x="541" 
d="M91 0v700h30v-311l337 311h45l-359 -330l366 -370h-42l-347 350v-350h-30z" />
    <glyph glyph-name="L" unicode="L" horiz-adv-x="552" 
d="M521 0h-430v700h30v-670h400v-30z" />
    <glyph glyph-name="M" unicode="M" horiz-adv-x="892" 
d="M121 659v-659h-30v700h44l311 -662l310 662h45v-700h-30v661l-310 -661h-30z" />
    <glyph glyph-name="N" unicode="N" horiz-adv-x="692" 
d="M131 700l440 -661v661h30v-700h-40l-440 660v-660h-30v700h40z" />
    <glyph glyph-name="O" unicode="O" horiz-adv-x="862" 
d="M431 -25q-161 0 -265.5 106t-104.5 269t104.5 269t265.5 106t265.5 -106t104.5 -269t-104.5 -269t-265.5 -106zM431 695q-148 0 -244 -97.5t-96 -247.5q0 -149 96 -247t244 -98t244 97.5t96 247.5t-96 247.5t-244 97.5z" />
    <glyph glyph-name="P" unicode="P" horiz-adv-x="632" 
d="M311 670h-190v-400h190q108 0 174 55t66 145t-66 145t-174 55zM311 240h-190v-240h-30v700h220q121 0 195.5 -63t74.5 -167t-74.5 -167t-195.5 -63z" />
    <glyph glyph-name="Q" unicode="Q" horiz-adv-x="862" 
d="M431 695q-148 0 -244 -97.5t-96 -247.5q0 -149 96 -247t244 -98t244 97.5t96 247.5t-96 247.5t-244 97.5zM801 350q0 -100 -42 -181.5t-116 -131.5l127 -147h-39l-115 131q-81 -46 -185 -46q-161 0 -265.5 106t-104.5 269t104.5 269t265.5 106t265.5 -106t104.5 -269z
" />
    <glyph glyph-name="R" unicode="R" horiz-adv-x="682" 
d="M381 670h-260v-360h260q95 0 152.5 49.5t57.5 130.5t-57.5 130.5t-152.5 49.5zM121 280v-280h-30v700h290q108 0 174 -58t66 -152q0 -83 -51.5 -138t-138.5 -68l183 -284h-36l-180 280h-277z" />
    <glyph glyph-name="S" unicode="S" horiz-adv-x="689" 
d="M618 193q0 -96 -76.5 -157t-194.5 -61q-120 0 -198 70t-78 177h30q0 -96 69.5 -156.5t177.5 -60.5q105 0 172.5 52t67.5 135q0 25 -7.5 44.5t-17.5 33.5t-30.5 25t-36 17t-45.5 12t-47.5 8.5t-52.5 6.5q-40 5 -66 9.5t-61 12.5t-57 20.5t-42.5 30t-30.5 44t-10 59.5
q0 91 71 150.5t183 59.5q117 0 195 -65t78 -164h-30q0 86 -68.5 142.5t-174.5 56.5q-99 0 -161.5 -50t-62.5 -128q0 -29 8.5 -51t28 -37t38 -24.5t52.5 -17t55 -10.5t62 -8t65.5 -9.5t59 -13t55 -20.5t41 -29.5t30 -44t9.5 -59.5z" />
    <glyph glyph-name="T" unicode="T" horiz-adv-x="572" 
d="M271 0v670h-250v30h530v-30h-250v-670h-30z" />
    <glyph glyph-name="U" unicode="U" horiz-adv-x="692" 
d="M581 280v420h30v-420q0 -137 -73 -221t-192 -84t-192 84t-73 221v420h30v-420q0 -125 64 -200t171 -75t171 75t64 200z" />
    <glyph glyph-name="V" unicode="V" horiz-adv-x="638" 
d="M21 700h33l265 -669l265 669h33l-278 -700h-40z" />
    <glyph glyph-name="W" unicode="W" horiz-adv-x="976" 
d="M508 700l200 -664l206 664h31l-217 -700h-40l-200 661l-200 -661h-40l-217 700h31l206 -664l200 664h40z" />
    <glyph glyph-name="X" unicode="X" horiz-adv-x="590" 
d="M31 0l244 370l-235 330h37l218 -306l219 306h37l-236 -330l244 -370h-36l-228 345l-228 -345h-36z" />
    <glyph glyph-name="Y" unicode="Y" horiz-adv-x="556" 
d="M263 0v290l-242 410h35l222 -377l222 377h35l-242 -410v-290h-30z" />
    <glyph glyph-name="Z" unicode="Z" 
d="M31 20l485 650h-475v30h520v-20l-485 -650h495v-30h-540v20z" />
    <glyph glyph-name="bracketleft" unicode="[" horiz-adv-x="432" 
d="M121 700v-850h270l-1 -30h-299v910h300v-30h-270z" />
    <glyph glyph-name="backslash" unicode="\" horiz-adv-x="415" 
d="M73 700l301 -930h-31l-302 930h32z" />
    <glyph glyph-name="bracketright" unicode="]" horiz-adv-x="432" 
d="M341 -180h-300v30h270v850h-270v30h300v-910z" />
    <glyph glyph-name="asciicircum" unicode="^" horiz-adv-x="570" 
d="M285 677l-207 -277h-37l224 300h40l224 -300h-37z" />
    <glyph glyph-name="underscore" unicode="_" horiz-adv-x="500" 
d="M0 0h500v-30h-500v30z" />
    <glyph glyph-name="grave" unicode="`" horiz-adv-x="252" 
d="M51 730h37l113 -160h-37z" />
    <glyph glyph-name="a" unicode="a" horiz-adv-x="662" 
d="M311 10q97 0 163.5 68.5t66.5 171.5t-66.5 171.5t-163.5 68.5q-100 0 -165 -68t-65 -172t65 -172t165 -68zM541 369v131h30v-500h-30v131q-27 -69 -88.5 -110t-141.5 -41q-114 0 -187 76t-73 194t73 194t187 76q80 0 141.5 -41t88.5 -110z" />
    <glyph glyph-name="b" unicode="b" horiz-adv-x="662" 
d="M351 490q-100 0 -165 -68t-65 -172t65 -172t165 -68t165 68t65 172t-65 172t-165 68zM611 250q0 -118 -73.5 -194t-186.5 -76q-81 0 -142 41t-88 110v-131h-30v730h30v-361q27 69 88 110t142 41q113 0 186.5 -76t73.5 -194z" />
    <glyph glyph-name="c" unicode="c" horiz-adv-x="594" 
d="M311 520q83 0 149 -49.5t83 -125.5l-30 -5q-17 65 -74 107.5t-128 42.5q-100 0 -165 -68t-65 -172t65 -172t165 -68q72 0 128.5 39.5t73.5 100.5l29 -6q-18 -71 -83.5 -117.5t-147.5 -46.5q-113 0 -186.5 76t-73.5 194t73.5 194t186.5 76z" />
    <glyph glyph-name="d" unicode="d" horiz-adv-x="662" 
d="M311 490q-100 0 -165 -68t-65 -172t65 -172t165 -68t165 68t65 172t-65 172t-165 68zM51 250q0 118 73.5 194t186.5 76q80 0 141.5 -41t88.5 -110v361h30v-730h-30v131q-27 -69 -88.5 -110t-141.5 -41q-113 0 -186.5 76t-73.5 194z" />
    <glyph glyph-name="e" unicode="e" horiz-adv-x="632" 
d="M81 270h469q-7 97 -70.5 158.5t-158.5 61.5q-100 0 -166.5 -61.5t-73.5 -158.5zM51 250q0 118 76 194t194 76q114 0 187 -76t73 -194v-10h-500q3 -101 70 -165.5t170 -64.5q72 0 133 40.5t83 103.5l30 -5q-24 -73 -93.5 -121t-152.5 -48q-118 0 -194 76t-76 194z" />
    <glyph glyph-name="f" unicode="f" horiz-adv-x="342" 
d="M161 630v-130h140v-30h-140v-470h-30v470h-90v30h90v130q0 59 30 89.5t80 30.5q40 0 70 -10v-30q-34 10 -70 10q-80 0 -80 -90z" />
    <glyph glyph-name="g" unicode="g" horiz-adv-x="662" 
d="M311 10q100 0 165 68t65 172t-65.5 172t-164.5 68q-102 0 -166 -67.5t-64 -172.5q0 -104 65.5 -172t164.5 -68zM321 -220q95 -1 157.5 61.5t62.5 158.5v127q-30 -68 -91 -107.5t-139 -39.5q-113 0 -186.5 76t-73.5 194t73.5 194t186.5 76q78 0 139 -39.5t91 -107.5v127
h30v-500q0 -109 -70.5 -179.5t-179.5 -70.5q-102 0 -175 55t-84 140l30 4q9 -74 73.5 -121.5t155.5 -47.5z" />
    <glyph glyph-name="h" unicode="h" 
d="M91 730h30v-333q23 56 76 89.5t119 33.5q93 0 149 -64.5t56 -165.5v-290h-30v290q0 88 -48.5 144t-129.5 56q-80 0 -136 -54t-56 -136v-300h-30v730z" />
    <glyph glyph-name="i" unicode="i" horiz-adv-x="222" 
d="M96 500h30v-500h-30v500zM111 610q-13 0 -21.5 8.5t-8.5 21.5t8.5 21.5t21.5 8.5t21.5 -8.5t8.5 -21.5t-8.5 -21.5t-21.5 -8.5z" />
    <glyph glyph-name="j" unicode="j" horiz-adv-x="218" 
d="M92 -111v611h30v-610q0 -48 -29.5 -79t-74.5 -31q-30 0 -67 13v31q40 -14 66 -14q33 0 54 22t21 57zM107 610q-13 0 -21.5 8.5t-8.5 21.5q0 14 8.5 22t21.5 8t21.5 -8.5t8.5 -21.5t-8.5 -21.5t-21.5 -8.5z" />
    <glyph glyph-name="k" unicode="k" horiz-adv-x="494" 
d="M91 0v730h30v-452l267 222h47l-290 -240l298 -260h-45l-277 241v-241h-30z" />
    <glyph glyph-name="l" unicode="l" horiz-adv-x="210" 
d="M90 730h30v-730h-30v730z" />
    <glyph glyph-name="m" unicode="m" horiz-adv-x="922" 
d="M121 0h-30v500h30v-82q21 48 65 75t105 27q68 0 114.5 -36t60.5 -97q14 61 63.5 97t121.5 36q85 0 137.5 -58t52.5 -152v-310h-30v310q0 81 -44 130.5t-116 49.5q-77 0 -123.5 -49.5t-46.5 -130.5v-310h-30v310q0 81 -44 130.5t-116 49.5q-77 0 -123.5 -49.5
t-46.5 -130.5v-310z" />
    <glyph glyph-name="n" unicode="n" 
d="M91 500h30v-100q24 55 79.5 87.5t123.5 32.5q93 0 145 -63.5t52 -166.5v-290h-30v290q0 90 -43.5 145t-123.5 55q-82 0 -142.5 -54.5t-60.5 -135.5v-300h-30v500z" />
    <glyph glyph-name="o" unicode="o" horiz-adv-x="620" 
d="M310 520q113 0 186.5 -76t73.5 -194t-73.5 -194t-186.5 -76t-186.5 76t-73.5 194t73.5 194t186.5 76zM310 10q100 0 165 68t65 172t-65 172t-165 68t-165 -68t-65 -172t65 -172t165 -68z" />
    <glyph glyph-name="p" unicode="p" horiz-adv-x="662" 
d="M351 10q100 0 165 68t65 172t-65 172t-165 68t-165 -68t-65 -172t65 -172t165 -68zM611 250q0 -118 -73.5 -194t-186.5 -76q-81 0 -142 41t-88 110v-361h-30v730h30v-131q27 69 88 110t142 41q113 0 186.5 -76t73.5 -194z" />
    <glyph glyph-name="q" unicode="q" horiz-adv-x="662" 
d="M311 10q100 0 165 68t65 172t-65 172t-165 68t-165 -68t-65 -172t65 -172t165 -68zM51 250q0 118 73.5 194t186.5 76q80 0 141.5 -41t88.5 -110v131h30v-730h-30v361q-27 -69 -88.5 -110t-141.5 -41q-113 0 -186.5 76t-73.5 194z" />
    <glyph glyph-name="r" unicode="r" horiz-adv-x="381" 
d="M91 500h30v-89q37 109 142 109q41 0 78 -17v-34q-37 21 -77 21q-65 0 -104 -55t-39 -145v-290h-30v500z" />
    <glyph glyph-name="s" unicode="s" horiz-adv-x="505" 
d="M454 134q0 -67 -55.5 -110.5t-139.5 -43.5q-91 0 -149.5 49.5t-58.5 126.5h30q0 -64 50 -105t127 -41q72 0 119 35t47 88q0 29 -14 49.5t-42 32t-54.5 17.5t-64.5 10q-39 5 -67.5 12t-56.5 20.5t-43 38t-15 58.5q0 65 52 107t130 42q83 0 138 -46.5t55 -118.5h-30
q0 59 -46 97t-116 38q-66 0 -109.5 -33.5t-43.5 -84.5q0 -48 40.5 -70t117.5 -30q40 -5 70 -12t62 -22t49.5 -41t17.5 -63z" />
    <glyph glyph-name="t" unicode="t" horiz-adv-x="352" 
d="M121 100v370h-90v30h90v112h30v-112h140v-30h-140v-370q0 -40 22 -65t62 -25q33 0 66 10v-30q-28 -10 -70 -10q-49 0 -79.5 33t-30.5 87z" />
    <glyph glyph-name="u" unicode="u" 
d="M511 0h-30v100q-25 -55 -80.5 -87.5t-122.5 -32.5q-93 0 -145 63.5t-52 166.5v290h30v-290q0 -90 43.5 -145t123.5 -55q82 0 142.5 54.5t60.5 135.5v300h30v-500z" />
    <glyph glyph-name="v" unicode="v" horiz-adv-x="556" 
d="M298 0h-40l-217 500h32l204 -473l206 473h32z" />
    <glyph glyph-name="w" unicode="w" horiz-adv-x="868" 
d="M269 0h-40l-178 500h32l166 -467l164 467h40l166 -467l166 467h32l-178 -500h-40l-166 466z" />
    <glyph glyph-name="x" unicode="x" horiz-adv-x="494" 
d="M88 0h-37l176 260l-166 240h37l149 -216l150 216h36l-166 -240l176 -260h-36l-160 236z" />
    <glyph glyph-name="y" unicode="y" horiz-adv-x="560" 
d="M61 -210v30q32 -10 59 -10q49 0 81 45t77 150l-237 495h34l219 -459l193 459h32l-210 -500q-48 -115 -88 -167.5t-103 -52.5q-32 0 -57 10z" />
    <glyph glyph-name="z" unicode="z" horiz-adv-x="542" 
d="M51 20l382 450h-372v30h420v-20l-382 -450h392v-30h-440v20z" />
    <glyph glyph-name="braceleft" unicode="{" horiz-adv-x="335" 
d="M244 -150h50l-1 -30h-49q-48 0 -79 34t-31 86v240q0 33 -18 54.5t-45 21.5h-10v47h10q27 0 45 21.5t18 55.5v230q0 52 31 86t79 34h50v-30h-50q-35 0 -57.5 -25.5t-22.5 -64.5v-230q0 -40 -20 -68t-50 -31l-10 -1l10 -1q30 -3 50 -31t20 -68v-240q0 -39 22.5 -64.5
t57.5 -25.5z" />
    <glyph glyph-name="bar" unicode="|" horiz-adv-x="212" 
d="M91 730h30v-960h-30v960z" />
    <glyph glyph-name="braceright" unicode="}" horiz-adv-x="335" 
d="M91 -180h-50v30h50q35 0 57.5 25.5t22.5 64.5v240q0 40 19.5 68t50.5 31l10 1l-10 1q-31 3 -50.5 31t-19.5 68v230q0 39 -22.5 64.5t-57.5 25.5h-50v30h50q48 0 79 -34t31 -86v-230q0 -34 17.5 -55.5t45.5 -21.5h10v-47h-10q-28 0 -45.5 -21.5t-17.5 -54.5v-240
q0 -52 -31 -86t-79 -34z" />
    <glyph glyph-name="asciitilde" unicode="~" horiz-adv-x="576" 
d="M69 319l-18 25q52 46 113 46q42 0 90.5 -30t94.5 -60t81 -30q42 0 79 31l17 -25q-47 -36 -97 -36q-33 0 -70.5 18.5t-66 41t-64.5 41.5t-65 19q-50 0 -94 -41z" />
    <glyph glyph-name="exclamdown" unicode="&#xa1;" horiz-adv-x="162" 
d="M96 -230h-30v520h30v-520zM81 480q13 0 21.5 -8.5t8.5 -21.5t-8.5 -21.5t-21.5 -8.5t-21.5 8.5t-8.5 21.5t8.5 21.5t21.5 8.5z" />
    <glyph glyph-name="cent" unicode="&#xa2;" horiz-adv-x="594" 
d="M331 -19v-81h-30v80q-110 4 -180 79.5t-70 190.5t70 190.5t180 79.5v80h30v-81q77 -6 136.5 -54.5t75.5 -119.5l-30 -5q-17 65 -74 107.5t-128 42.5q-100 0 -165 -68t-65 -172t65 -172t165 -68q72 0 128.5 39.5t73.5 100.5l29 -6q-16 -67 -75 -112.5t-136 -50.5z" />
    <glyph glyph-name="sterling" unicode="&#xa3;" horiz-adv-x="562" 
d="M507 514l-30 -4q-4 80 -46.5 132.5t-104.5 52.5q-58 0 -96.5 -46.5t-38.5 -118.5v-160h270v-30h-270q-3 -265 -101 -310h421v-30h-460v50q52 7 80.5 71.5t29.5 218.5h-100v30h100v160q0 85 46.5 140t117.5 55q73 0 124.5 -59.5t57.5 -151.5z" />
    <glyph glyph-name="currency" unicode="&#xa4;" horiz-adv-x="746" 
d="M373 20q100 0 165 65t65 165t-64.5 165t-165.5 65q-99 0 -164.5 -65t-65.5 -165t65 -165t165 -65zM555 441l108 109l21 -21l-109 -110q58 -69 58 -169t-58 -169l109 -110l-21 -21l-108 109q-72 -69 -182 -69t-181 69l-109 -109l-22 20l110 111q-58 69 -58 169t58 169
l-109 110l21 21l109 -109q71 69 181 69t182 -69z" />
    <glyph glyph-name="yen" unicode="&#xa5;" horiz-adv-x="637" 
d="M43 280h248l-260 420h35l252 -408l252 408h35l-260 -420h248v-30h-260v-140h260v-30h-260v-80h-30v80h-260v30h260v140h-260v30z" />
    <glyph glyph-name="section" unicode="&#xa7;" horiz-adv-x="592" 
d="M491 280q0 15 -3.5 28t-11.5 22.5t-16 16.5t-22 12.5t-23 9t-26.5 6.5t-26 4t-26.5 3t-23 3q-6 1 -17.5 2.5t-17.5 2.5q-84 -3 -130.5 -32t-46.5 -78q0 -25 11 -43.5t23.5 -28t42.5 -17.5t46 -10l56 -7q22 -2 33 -4q87 3 132.5 31t45.5 79zM101 540q0 72 53.5 118.5
t135.5 46.5q83 0 137 -51.5t54 -130.5l-29 -3q0 67 -45.5 111t-115.5 44q-71 0 -115.5 -38t-44.5 -97q0 -25 6.5 -44t22.5 -31.5t29.5 -20.5t41 -14t43 -8.5t48.5 -6.5q28 -4 42.5 -6t39.5 -7.5t38.5 -11t31 -15.5t26 -22.5t15 -31t6.5 -41.5q0 -50 -32.5 -83t-93.5 -43
q106 -32 106 -134q0 -76 -57.5 -125.5t-146.5 -49.5q-90 0 -148 51t-58 129l30 4q0 -69 48.5 -111.5t126.5 -42.5q77 0 126 40.5t49 104.5q0 25 -6.5 44.5t-23 32.5t-30 21t-42.5 13.5t-44 7.5t-50 6q-33 4 -51 6.5t-46 8.5t-43.5 15t-32 22.5t-24 34.5t-7.5 48
q0 48 33.5 82t96.5 44q-100 33 -100 134z" />
    <glyph glyph-name="dieresis" unicode="&#xa8;" horiz-adv-x="382" 
d="M81 600q-13 0 -21.5 8t-8.5 22t8.5 22t21.5 8t21.5 -8t8.5 -22t-8.5 -22t-21.5 -8zM301 600q-13 0 -21.5 8t-8.5 22t8.5 22t21.5 8t21.5 -8t8.5 -22t-8.5 -22t-21.5 -8z" />
    <glyph glyph-name="copyright" unicode="&#xa9;" horiz-adv-x="882" 
d="M441 600q-151 0 -250.5 -100.5t-99.5 -249.5q0 -152 99 -251t251 -99t251 99t99 251q0 149 -99.5 249.5t-250.5 100.5zM442 520q77 0 141.5 -41t86.5 -105l-27 -9q-25 58 -79 91.5t-123 33.5q-100 0 -165 -68t-65 -172q0 -106 64.5 -173t165.5 -67q67 0 123.5 36t79.5 92
l27 -12q-25 -64 -90 -105t-141 -41q-113 0 -186 76t-73 194t73.5 194t187.5 76zM441 -130q-166 0 -273 107.5t-107 272.5q0 162 107.5 271t272.5 109t272.5 -107.5t107.5 -272.5t-107.5 -272.5t-272.5 -107.5z" />
    <glyph glyph-name="guillemotleft" unicode="&#xab;" horiz-adv-x="570" 
d="M289 500l-209 -250l209 -250h-40l-208 250l209 250h39zM509 500l-209 -250l209 -250h-40l-208 250l209 250h39z" />
    <glyph glyph-name="logicalnot" unicode="&#xac;" horiz-adv-x="627" 
d="M536 70v238h-485v30h515v-268h-30z" />
    <glyph glyph-name="registered" unicode="&#xae;" horiz-adv-x="882" 
d="M91 253q0 -152 99 -251t251 -99t251 99t99 251q0 149 -99.5 249.5t-250.5 100.5t-250.5 -100.5t-99.5 -249.5zM491 473h-170v-230h170q52 0 86 32.5t34 82.5q0 51 -33.5 83t-86.5 32zM441 -127q-166 0 -273 107.5t-107 272.5q0 162 107.5 271t272.5 109t272.5 -107.5
t107.5 -272.5t-107.5 -272.5t-272.5 -107.5zM512 214l124 -201h-35l-123 200h-157v-200h-30v490h203q64 0 105.5 -41t41.5 -104q0 -56 -36.5 -96.5t-92.5 -47.5z" />
    <glyph glyph-name="macron" unicode="&#xaf;" horiz-adv-x="416" 
d="M365 660v-30h-314v30h314z" />
    <glyph glyph-name="degree" unicode="&#xb0;" horiz-adv-x="503" 
d="M252 347q-91 0 -146 53.5t-55 140.5q0 88 55 141.5t146 53.5q90 0 145 -53.5t55 -141.5q0 -87 -55 -140.5t-145 -53.5zM253 706q-77 0 -124.5 -45.5t-47.5 -119.5t47.5 -119t124.5 -45q76 0 122.5 45t46.5 119t-46.5 119.5t-122.5 45.5z" />
    <glyph glyph-name="plusminus" unicode="&#xb1;" horiz-adv-x="552" 
d="M51 30h450v-30h-450v30zM291 186h-30v149h-210v30h210v135h30v-135h210v-30h-210v-149z" />
    <glyph glyph-name="acute" unicode="&#xb4;" horiz-adv-x="252" 
d="M201 730l-113 -160h-37l113 160h37z" />
    <glyph glyph-name="paragraph" unicode="&#xb6;" horiz-adv-x="641" 
d="M561 670h-90v-900h-30v900h-140v-900h-30v570q-100 0 -160 49.5t-60 130.5t61 130.5t159 49.5h290v-30z" />
    <glyph glyph-name="periodcentered" unicode="&#xb7;" horiz-adv-x="162" 
d="M81 261q-13 0 -21.5 8.5t-8.5 21.5t8.5 21.5t21.5 8.5t21.5 -8.5t8.5 -21.5t-8.5 -21.5t-21.5 -8.5z" />
    <glyph glyph-name="cedilla" unicode="&#xb8;" horiz-adv-x="309" 
d="M143 -90h-35l10 92h30l-7 -62q54 0 85.5 -30.5t31.5 -79.5q0 -44 -28.5 -72t-74.5 -28q-40 0 -68 23t-36 61l29 6q6 -27 26.5 -43.5t49.5 -16.5q32 0 52 19.5t20 50.5q0 37 -23 58.5t-62 21.5z" />
    <glyph glyph-name="guillemotright" unicode="&#xbb;" horiz-adv-x="568" 
d="M308 250l-208 -250h-40l209 250l-209 250h39zM528 250l-208 -250h-40l209 250l-209 250h39z" />
    <glyph glyph-name="questiondown" unicode="&#xbf;" horiz-adv-x="568" 
d="M285 320h30q0 -75 -25.5 -113t-93.5 -81q-35 -22 -52.5 -36t-35 -45.5t-17.5 -72.5q0 -80 54 -133.5t137 -53.5q82 0 133 55t62 146l30 -6q-13 -101 -73 -163t-153 -62q-95 0 -157.5 62.5t-62.5 155.5q0 36 9.5 64t30.5 50.5t39 36.5t51 35q55 35 74.5 66t19.5 95z
M301 490q13 0 21.5 -8t8.5 -22q0 -13 -8.5 -21.5t-21.5 -8.5t-21.5 8.5t-8.5 21.5t8.5 21.5t21.5 8.5z" />
    <glyph glyph-name="Agrave" unicode="&#xc0;" horiz-adv-x="638" 
d="M319 670l-191 -480h381zM116 160l-63 -160h-32l278 700h40l278 -700h-32l-64 160h-405zM300 770l-102 140h37l103 -140h-38z" />
    <glyph glyph-name="Aacute" unicode="&#xc1;" horiz-adv-x="638" 
d="M319 670l-191 -480h381zM116 160l-63 -160h-32l278 700h40l278 -700h-32l-64 160h-405zM298 770l103 140h37l-103 -140h-37z" />
    <glyph glyph-name="Acircumflex" unicode="&#xc2;" horiz-adv-x="638" 
d="M319 670l-191 -480h381zM116 160l-63 -160h-32l278 700h40l278 -700h-32l-64 160h-405zM318 888l-107 -118h-42l129 140h40l128 -140h-40z" />
    <glyph glyph-name="Atilde" unicode="&#xc3;" horiz-adv-x="638" 
d="M319 670l-191 -480h381zM116 160l-63 -160h-32l278 700h40l278 -700h-32l-64 160h-405zM193 805l-25 15q10 22 35.5 36t56.5 14q33 0 71 -25t66 -25q51 0 68 38l27 -13q-11 -24 -37.5 -39.5t-59.5 -15.5q-34 0 -72 25t-64 25q-47 0 -66 -35z" />
    <glyph glyph-name="Adieresis" unicode="&#xc4;" horiz-adv-x="638" 
d="M319 670l-191 -480h381zM116 160l-63 -160h-32l278 700h40l278 -700h-32l-64 160h-405zM218 780q-13 0 -21.5 8.5t-8.5 21.5t8.5 21.5t21.5 8.5t21.5 -8.5t8.5 -21.5t-8.5 -21.5t-21.5 -8.5zM418 780q-13 0 -21.5 8.5t-8.5 21.5t8.5 21.5t21.5 8.5t21.5 -8.5t8.5 -21.5
t-8.5 -21.5t-21.5 -8.5z" />
    <glyph glyph-name="Aring" unicode="&#xc5;" horiz-adv-x="638" 
d="M319 670l-191 -480h381zM318 890q-24 0 -39.5 -15t-15.5 -38q0 -25 15 -40.5t40 -15.5q24 0 40 15.5t16 40.5q0 23 -15.5 38t-40.5 15zM116 160l-63 -160h-32l278 700h40l278 -700h-32l-64 160h-405zM318 751q-37 0 -61 24t-24 61t24 60.5t61 23.5t61 -23.5t24 -60.5
t-24.5 -61t-60.5 -24z" />
    <glyph glyph-name="AE" unicode="&#xc6;" horiz-adv-x="873" 
d="M155 190h256v483zM441 30h380v-30h-410v160h-272l-85 -160h-33l370 700h420v-29h-370v-301h330v-30h-330v-310z" />
    <glyph glyph-name="Ccedilla" unicode="&#xc7;" horiz-adv-x="820" 
d="M443 -90h-35l7 65q-155 6 -254.5 111t-99.5 264q0 163 104.5 269t265.5 106q121 0 213 -73.5t114 -181.5l-29 -5q-22 98 -106 164t-192 66q-148 0 -244 -97t-96 -248q0 -150 96 -247.5t244 -97.5q111 0 195 64t104 159l29 -7q-21 -101 -109 -171.5t-205 -74.5l-4 -35
q54 0 85.5 -30.5t31.5 -79.5q0 -44 -28.5 -72t-74.5 -28q-40 0 -68 23t-36 61l29 6q6 -27 26.5 -43.5t49.5 -16.5q32 0 52 19.5t20 50.5q0 37 -23 58.5t-62 21.5z" />
    <glyph glyph-name="Egrave" unicode="&#xc8;" horiz-adv-x="622" 
d="M121 350v-320h450v-30h-480v700h470v-30h-440v-290h400v-30h-400zM211 910h37l103 -140h-38z" />
    <glyph glyph-name="Eacute" unicode="&#xc9;" horiz-adv-x="622" 
d="M121 350v-320h450v-30h-480v700h470v-30h-440v-290h400v-30h-400zM414 910h37l-103 -140h-37z" />
    <glyph glyph-name="Ecircumflex" unicode="&#xca;" horiz-adv-x="622" 
d="M121 350v-320h450v-30h-480v700h470v-30h-440v-290h400v-30h-400zM224 770h-42l129 140h40l128 -140h-40l-108 118z" />
    <glyph glyph-name="Edieresis" unicode="&#xcb;" horiz-adv-x="622" 
d="M121 350v-320h450v-30h-480v700h470v-30h-440v-290h400v-30h-400zM231 780q-13 0 -21.5 8.5t-8.5 21.5t8.5 21.5t21.5 8.5t21.5 -8.5t8.5 -21.5t-8.5 -21.5t-21.5 -8.5zM431 780q-13 0 -21.5 8.5t-8.5 21.5t8.5 21.5t21.5 8.5t21.5 -8.5t8.5 -21.5t-8.5 -21.5t-21.5 -8.5
z" />
    <glyph glyph-name="Igrave" unicode="&#xcc;" horiz-adv-x="217" 
d="M91 700h30v-700h-30v700zM-14 910h37l103 -140h-38z" />
    <glyph glyph-name="Iacute" unicode="&#xcd;" horiz-adv-x="212" 
d="M96 700h30v-700h-30v700zM194 910h37l-103 -140h-37z" />
    <glyph glyph-name="Icircumflex" unicode="&#xce;" horiz-adv-x="219" 
d="M95 700h30v-700h-30v700zM3 770h-42l129 140h40l128 -140h-40l-108 118z" />
    <glyph glyph-name="Idieresis" unicode="&#xcf;" horiz-adv-x="212" 
d="M91 700h30v-700h-30v700zM6 780q-13 0 -21.5 8.5t-8.5 21.5t8.5 21.5t21.5 8.5t21.5 -8.5t8.5 -21.5t-8.5 -21.5t-21.5 -8.5zM206 780q-13 0 -21.5 8.5t-8.5 21.5t8.5 21.5t21.5 8.5t21.5 -8.5t8.5 -21.5t-8.5 -21.5t-21.5 -8.5z" />
    <glyph glyph-name="Ntilde" unicode="&#xd1;" horiz-adv-x="692" 
d="M131 700l440 -661v661h30v-700h-40l-440 660v-660h-30v700h40zM216 805l-25 15q10 22 35.5 36t56.5 14q33 0 71 -25t66 -25q51 0 68 38l27 -13q-11 -24 -37.5 -39.5t-59.5 -15.5q-34 0 -72 25t-64 25q-47 0 -66 -35z" />
    <glyph glyph-name="Ograve" unicode="&#xd2;" horiz-adv-x="862" 
d="M431 -25q-161 0 -265.5 106t-104.5 269t104.5 269t265.5 106t265.5 -106t104.5 -269t-104.5 -269t-265.5 -106zM431 695q-148 0 -244 -97.5t-96 -247.5q0 -149 96 -247t244 -98t244 97.5t96 247.5t-96 247.5t-244 97.5zM311 910h37l103 -140h-38z" />
    <glyph glyph-name="Oacute" unicode="&#xd3;" horiz-adv-x="862" 
d="M431 -25q-161 0 -265.5 106t-104.5 269t104.5 269t265.5 106t265.5 -106t104.5 -269t-104.5 -269t-265.5 -106zM431 695q-148 0 -244 -97.5t-96 -247.5q0 -149 96 -247t244 -98t244 97.5t96 247.5t-96 247.5t-244 97.5zM514 910h37l-103 -140h-37z" />
    <glyph glyph-name="Ocircumflex" unicode="&#xd4;" horiz-adv-x="862" 
d="M431 695q-148 0 -244 -97.5t-96 -247.5q0 -149 96 -247t244 -98t244 97.5t96 247.5t-96 247.5t-244 97.5zM431 -25q-161 0 -265.5 106t-104.5 269t104.5 269t265.5 106t265.5 -106t104.5 -269t-104.5 -269t-265.5 -106zM431 888l-107 -118h-42l129 140h40l128 -140h-40z
" />
    <glyph glyph-name="Otilde" unicode="&#xd5;" horiz-adv-x="862" 
d="M431 695q-148 0 -244 -97.5t-96 -247.5q0 -149 96 -247t244 -98t244 97.5t96 247.5t-96 247.5t-244 97.5zM431 -25q-161 0 -265.5 106t-104.5 269t104.5 269t265.5 106t265.5 -106t104.5 -269t-104.5 -269t-265.5 -106zM296 805l-25 15q10 22 35.5 36t56.5 14
q33 0 71 -25t66 -25q51 0 68 38l27 -13q-11 -24 -37.5 -39.5t-59.5 -15.5q-34 0 -72 25t-64 25q-47 0 -66 -35z" />
    <glyph glyph-name="Odieresis" unicode="&#xd6;" horiz-adv-x="862" 
d="M431 -25q-161 0 -265.5 106t-104.5 269t104.5 269t265.5 106t265.5 -106t104.5 -269t-104.5 -269t-265.5 -106zM431 695q-148 0 -244 -97.5t-96 -247.5q0 -149 96 -247t244 -98t244 97.5t96 247.5t-96 247.5t-244 97.5zM331 780q-13 0 -21.5 8.5t-8.5 21.5t8.5 21.5
t21.5 8.5t21.5 -8.5t8.5 -21.5t-8.5 -21.5t-21.5 -8.5zM531 780q-13 0 -21.5 8.5t-8.5 21.5t8.5 21.5t21.5 8.5t21.5 -8.5t8.5 -21.5t-8.5 -21.5t-21.5 -8.5z" />
    <glyph glyph-name="multiply" unicode="&#xd7;" horiz-adv-x="365" 
d="M72 160l-21 20l111 120l-111 120l21 20l110 -118l110 118l23 -20l-112 -120l111 -120l-22 -20l-110 118z" />
    <glyph glyph-name="Oslash" unicode="&#xd8;" horiz-adv-x="842" 
d="M421 695q-144 0 -237 -97.5t-93 -247.5q0 -103 46 -183.5t126 -123.5l312 616q-70 36 -154 36zM421 5q143 0 236.5 97t93.5 248q0 95 -40 172t-110 122l-310 -614q61 -25 130 -25zM277 3l-72 -143h-35l79 156q-87 46 -137.5 133.5t-50.5 200.5q0 163 101.5 269t258.5 106
q90 0 168 -39l88 174h34l-96 -189q78 -49 122 -133t44 -188q0 -163 -101.5 -269t-258.5 -106q-77 0 -144 28z" />
    <glyph glyph-name="Ugrave" unicode="&#xd9;" horiz-adv-x="692" 
d="M581 280v420h30v-420q0 -137 -73 -221t-192 -84t-192 84t-73 221v420h30v-420q0 -125 64 -200t171 -75t171 75t64 200zM236 910h37l103 -140h-38z" />
    <glyph glyph-name="Uacute" unicode="&#xda;" horiz-adv-x="692" 
d="M581 280v420h30v-420q0 -137 -73 -221t-192 -84t-192 84t-73 221v420h30v-420q0 -125 64 -200t171 -75t171 75t64 200zM419 910h37l-103 -140h-37z" />
    <glyph glyph-name="Ucircumflex" unicode="&#xdb;" horiz-adv-x="692" 
d="M581 280v420h30v-420q0 -137 -73 -221t-192 -84t-192 84t-73 221v420h30v-420q0 -125 64 -200t171 -75t171 75t64 200zM239 770h-42l129 140h40l128 -140h-40l-108 118z" />
    <glyph glyph-name="Udieresis" unicode="&#xdc;" horiz-adv-x="692" 
d="M581 280v420h30v-420q0 -137 -73 -221t-192 -84t-192 84t-73 221v420h30v-420q0 -125 64 -200t171 -75t171 75t64 200zM246 780q-13 0 -21.5 8.5t-8.5 21.5t8.5 21.5t21.5 8.5t21.5 -8.5t8.5 -21.5t-8.5 -21.5t-21.5 -8.5zM446 780q-13 0 -21.5 8.5t-8.5 21.5t8.5 21.5
t21.5 8.5t21.5 -8.5t8.5 -21.5t-8.5 -21.5t-21.5 -8.5z" />
    <glyph glyph-name="Yacute" unicode="&#xdd;" horiz-adv-x="556" 
d="M263 0v290l-242 410h35l222 -377l222 377h35l-242 -410v-290h-30zM351 910h37l-103 -140h-37z" />
    <glyph glyph-name="germandbls" unicode="&#xdf;" horiz-adv-x="632" 
d="M111 480v-480h-30v480q0 102 63 168.5t160 66.5q84 0 140.5 -53t56.5 -128q0 -66 -42.5 -106t-116.5 -52q101 -13 160 -65.5t59 -139.5q0 -85 -55.5 -140.5t-141.5 -55.5q-94 0 -156 53l11 29q57 -52 144 -52q74 0 121 46.5t47 120.5q-1 86 -73 137t-186 51h-31v30h34
q87 0 141.5 39t54.5 104q0 63 -47.5 107.5t-119.5 44.5q-84 0 -138.5 -58t-54.5 -147z" />
    <glyph glyph-name="agrave" unicode="&#xe0;" horiz-adv-x="662" 
d="M311 10q97 0 163.5 68.5t66.5 171.5t-66.5 171.5t-163.5 68.5q-100 0 -165 -68t-65 -172t65 -172t165 -68zM541 369v131h30v-500h-30v131q-27 -69 -88.5 -110t-141.5 -41q-114 0 -187 76t-73 194t73 194t187 76q80 0 141.5 -41t88.5 -110zM294 560l-113 160h37l113 -160
h-37z" />
    <glyph glyph-name="aacute" unicode="&#xe1;" horiz-adv-x="662" 
d="M311 10q97 0 163.5 68.5t66.5 171.5t-66.5 171.5t-163.5 68.5q-100 0 -165 -68t-65 -172t65 -172t165 -68zM541 369v131h30v-500h-30v131q-27 -69 -88.5 -110t-141.5 -41q-114 0 -187 76t-73 194t73 194t187 76q80 0 141.5 -41t88.5 -110zM291 560l113 160h37l-113 -160
h-37z" />
    <glyph glyph-name="acircumflex" unicode="&#xe2;" horiz-adv-x="662" 
d="M311 10q97 0 163.5 68.5t66.5 171.5t-66.5 171.5t-163.5 68.5q-100 0 -165 -68t-65 -172t65 -172t165 -68zM541 369v131h30v-500h-30v131q-27 -69 -88.5 -110t-141.5 -41q-114 0 -187 76t-73 194t73 194t187 76q80 0 141.5 -41t88.5 -110zM311 697l-107 -137h-38l125 160
h40l125 -160h-38z" />
    <glyph glyph-name="atilde" unicode="&#xe3;" horiz-adv-x="662" 
d="M311 10q97 0 163.5 68.5t66.5 171.5t-66.5 171.5t-163.5 68.5q-100 0 -165 -68t-65 -172t65 -172t165 -68zM541 369v131h30v-500h-30v131q-27 -69 -88.5 -110t-141.5 -41q-114 0 -187 76t-73 194t73 194t187 76q80 0 141.5 -41t88.5 -110zM196 598l-25 16q10 22 34.5 36
t50.5 14q32 0 77 -30t69 -30q21 0 40 11t26 27l27 -13q-10 -24 -36.5 -39.5t-55.5 -15.5q-34 0 -78.5 30t-67.5 30q-42 0 -61 -36z" />
    <glyph glyph-name="adieresis" unicode="&#xe4;" horiz-adv-x="662" 
d="M311 10q97 0 163.5 68.5t66.5 171.5t-66.5 171.5t-163.5 68.5q-100 0 -165 -68t-65 -172t65 -172t165 -68zM541 369v131h30v-500h-30v131q-27 -69 -88.5 -110t-141.5 -41q-114 0 -187 76t-73 194t73 194t187 76q80 0 141.5 -41t88.5 -110zM201 585q-13 0 -21.5 8.5
t-8.5 21.5t8.5 21.5t21.5 8.5t21.5 -8.5t8.5 -21.5t-8.5 -21.5t-21.5 -8.5zM421 585q-13 0 -21.5 8.5t-8.5 21.5t8.5 21.5t21.5 8.5t21.5 -8.5t8.5 -21.5t-8.5 -21.5t-21.5 -8.5z" />
    <glyph glyph-name="aring" unicode="&#xe5;" horiz-adv-x="662" 
d="M311 10q97 0 163.5 68.5t66.5 171.5t-66.5 171.5t-163.5 68.5q-100 0 -165 -68t-65 -172t65 -172t165 -68zM310 750q-37 0 -61 -24t-24 -61t24 -61t61 -24t61 24t24 61t-24 61t-61 24zM541 369v131h30v-500h-30v131q-27 -69 -88.5 -110t-141.5 -41q-114 0 -187 76
t-73 194t73 194t187 76q80 0 141.5 -41t88.5 -110zM311 550q-50 0 -83 32.5t-33 82.5t33 82.5t83 32.5t82 -32.5t32 -82.5t-32 -82.5t-82 -32.5z" />
    <glyph glyph-name="ae" unicode="&#xe6;" horiz-adv-x="1102" 
d="M311 490q-100 0 -165 -68t-65 -172q0 -103 65 -171t165 -69q100 0 165 68t65 172t-65 172t-165 68zM571 260h450q0 99 -66 164.5t-164 65.5q-95 0 -157.5 -66.5t-62.5 -163.5zM541 373v127h30v-120q30 64 89.5 102t130.5 38q113 0 186.5 -73.5t73.5 -186.5q0 -4 -0.5 -14
t-0.5 -16h-478q9 -99 69 -159.5t151 -60.5q74 0 134 39.5t82 103.5l27 -9q-20 -71 -89 -117.5t-154 -46.5q-76 0 -134.5 38.5t-86.5 107.5v-126h-30v127q-30 -68 -91 -107.5t-139 -39.5q-113 0 -186.5 76t-73.5 194t73.5 194t186.5 76q78 0 139 -39.5t91 -107.5z" />
    <glyph glyph-name="ccedilla" unicode="&#xe7;" horiz-adv-x="594" 
d="M323 -90h-35l7 70q-107 6 -175.5 81.5t-68.5 188.5q0 118 73.5 194t186.5 76q83 0 149 -49.5t83 -125.5l-30 -5q-17 65 -74 107.5t-128 42.5q-100 0 -165 -68t-65 -172t65 -172t165 -68q72 0 128.5 39.5t73.5 100.5l29 -6q-16 -68 -77 -113.5t-140 -50.5l-4 -40
q54 0 85.5 -30.5t31.5 -79.5q0 -44 -28.5 -72t-74.5 -28q-40 0 -68 23t-36 61l29 6q6 -27 26.5 -43.5t49.5 -16.5q32 0 52 19.5t20 50.5q0 37 -23 58.5t-62 21.5z" />
    <glyph glyph-name="egrave" unicode="&#xe8;" horiz-adv-x="632" 
d="M81 270h469q-7 97 -70.5 158.5t-158.5 61.5q-100 0 -166.5 -61.5t-73.5 -158.5zM51 250q0 118 76 194t194 76q114 0 187 -76t73 -194v-10h-500q3 -101 70 -165.5t170 -64.5q72 0 133 40.5t83 103.5l30 -5q-24 -73 -93.5 -121t-152.5 -48q-118 0 -194 76t-76 194zM304 560
l-113 160h37l113 -160h-37z" />
    <glyph glyph-name="eacute" unicode="&#xe9;" horiz-adv-x="632" 
d="M81 270h469q-7 97 -70.5 158.5t-158.5 61.5q-100 0 -166.5 -61.5t-73.5 -158.5zM51 250q0 118 76 194t194 76q114 0 187 -76t73 -194v-10h-500q3 -101 70 -165.5t170 -64.5q72 0 133 40.5t83 103.5l30 -5q-24 -73 -93.5 -121t-152.5 -48q-118 0 -194 76t-76 194zM301 560
l113 160h37l-113 -160h-37z" />
    <glyph glyph-name="ecircumflex" unicode="&#xea;" horiz-adv-x="632" 
d="M81 270h469q-7 97 -70.5 158.5t-158.5 61.5q-100 0 -166.5 -61.5t-73.5 -158.5zM51 250q0 118 76 194t194 76q114 0 187 -76t73 -194v-10h-500q3 -101 70 -165.5t170 -64.5q72 0 133 40.5t83 103.5l30 -5q-24 -73 -93.5 -121t-152.5 -48q-118 0 -194 76t-76 194zM321 697
l-107 -137h-38l125 160h40l125 -160h-38z" />
    <glyph glyph-name="edieresis" unicode="&#xeb;" horiz-adv-x="632" 
d="M81 270h469q-7 97 -70.5 158.5t-158.5 61.5q-100 0 -166.5 -61.5t-73.5 -158.5zM51 250q0 118 76 194t194 76q114 0 187 -76t73 -194v-10h-500q3 -101 70 -165.5t170 -64.5q72 0 133 40.5t83 103.5l30 -5q-24 -73 -93.5 -121t-152.5 -48q-118 0 -194 76t-76 194zM211 585
q-13 0 -21.5 8.5t-8.5 21.5t8.5 21.5t21.5 8.5t21.5 -8.5t8.5 -21.5t-8.5 -21.5t-21.5 -8.5zM431 585q-13 0 -21.5 8.5t-8.5 21.5t8.5 21.5t21.5 8.5t21.5 -8.5t8.5 -21.5t-8.5 -21.5t-21.5 -8.5z" />
    <glyph glyph-name="igrave" unicode="&#xec;" horiz-adv-x="197" 
d="M80 500h30v-500h-30v500zM-34 720h37l113 -160h-37z" />
    <glyph glyph-name="iacute" unicode="&#xed;" horiz-adv-x="197" 
d="M86 500h30v-500h-30v500zM194 720h37l-113 -160h-37z" />
    <glyph glyph-name="icircumflex" unicode="&#xee;" horiz-adv-x="192" 
d="M81 500h30v-500h-30v500zM-11 560h-38l125 160h40l125 -160h-38l-107 137z" />
    <glyph glyph-name="idieresis" unicode="&#xef;" horiz-adv-x="192" 
d="M81 500h30v-500h-30v500zM-14 585q-14 0 -22 8.5t-8 21.5t8 21.5t22 8.5t22 -8.5t8 -21.5t-8 -21.5t-22 -8.5zM206 585q-14 0 -22 8.5t-8 21.5t8 21.5t22 8.5t22 -8.5t8 -21.5t-8 -21.5t-22 -8.5z" />
    <glyph glyph-name="ntilde" unicode="&#xf1;" 
d="M91 500h30v-100q24 55 79.5 87.5t123.5 32.5q93 0 145 -63.5t52 -166.5v-290h-30v290q0 90 -43.5 145t-123.5 55q-82 0 -142.5 -54.5t-60.5 -135.5v-300h-30v500zM159 598l-25 16q11 22 35 36t50 14q32 0 77 -30t69 -30q22 0 40 10.5t26 27.5l27 -13q-10 -24 -36 -39.5
t-56 -15.5q-33 0 -78 30t-68 30q-42 0 -61 -36z" />
    <glyph glyph-name="ograve" unicode="&#xf2;" horiz-adv-x="622" 
d="M311 520q113 0 186.5 -76t73.5 -194t-73.5 -194t-186.5 -76t-186.5 76t-73.5 194t73.5 194t186.5 76zM311 10q100 0 165 68t65 172t-65 172t-165 68t-165 -68t-65 -172t65 -172t165 -68zM181 720h37l113 -160h-37z" />
    <glyph glyph-name="oacute" unicode="&#xf3;" horiz-adv-x="622" 
d="M311 520q113 0 186.5 -76t73.5 -194t-73.5 -194t-186.5 -76t-186.5 76t-73.5 194t73.5 194t186.5 76zM311 10q100 0 165 68t65 172t-65 172t-165 68t-165 -68t-65 -172t65 -172t165 -68zM404 720h37l-113 -160h-37z" />
    <glyph glyph-name="ocircumflex" unicode="&#xf4;" horiz-adv-x="622" 
d="M311 10q100 0 165 68t65 172t-65 172t-165 68t-165 -68t-65 -172t65 -172t165 -68zM311 520q113 0 186.5 -76t73.5 -194t-73.5 -194t-186.5 -76t-186.5 76t-73.5 194t73.5 194t186.5 76zM311 697l-107 -137h-38l125 160h40l125 -160h-38z" />
    <glyph glyph-name="otilde" unicode="&#xf5;" horiz-adv-x="622" 
d="M311 10q100 0 165 68t65 172t-65 172t-165 68t-165 -68t-65 -172t65 -172t165 -68zM311 520q113 0 186.5 -76t73.5 -194t-73.5 -194t-186.5 -76t-186.5 76t-73.5 194t73.5 194t186.5 76zM186 598l-25 16q10 22 34.5 36t50.5 14q32 0 77 -30t69 -30q21 0 40 11t26 27
l27 -13q-10 -24 -36.5 -39.5t-55.5 -15.5q-34 0 -78.5 30t-67.5 30q-42 0 -61 -36z" />
    <glyph glyph-name="odieresis" unicode="&#xf6;" horiz-adv-x="622" 
d="M311 520q113 0 186.5 -76t73.5 -194t-73.5 -194t-186.5 -76t-186.5 76t-73.5 194t73.5 194t186.5 76zM311 10q100 0 165 68t65 172t-65 172t-165 68t-165 -68t-65 -172t65 -172t165 -68zM201 585q-13 0 -21.5 8.5t-8.5 21.5t8.5 21.5t21.5 8.5t21.5 -8.5t8.5 -21.5
t-8.5 -21.5t-21.5 -8.5zM421 585q-13 0 -21.5 8.5t-8.5 21.5t8.5 21.5t21.5 8.5t21.5 -8.5t8.5 -21.5t-8.5 -21.5t-21.5 -8.5z" />
    <glyph glyph-name="divide" unicode="&#xf7;" horiz-adv-x="552" 
d="M276 20q-14 0 -22 8t-8 22t8 22t22 8t22 -8t8 -22t-8 -22t-22 -8zM51 270h450v-30h-450v30zM276 410q-14 0 -22 8t-8 22t8 22t22 8t22 -8t8 -22t-8 -22t-22 -8z" />
    <glyph glyph-name="oslash" unicode="&#xf8;" horiz-adv-x="622" 
d="M311 490q-100 0 -165 -68t-65 -172q0 -71 32 -127t87 -86l218 428q-48 25 -107 25zM311 10q100 0 165 68t65 172q0 131 -97 199l-216 -425q39 -14 83 -14zM214 -3l-39 -77h-34l45 90q-63 33 -99 96t-36 144q0 118 73.5 194t186.5 76q65 0 121 -28l55 108h34l-63 -123
q53 -36 83 -95t30 -132q0 -118 -73.5 -194t-186.5 -76q-51 0 -97 17z" />
    <glyph glyph-name="ugrave" unicode="&#xf9;" 
d="M511 0h-30v100q-25 -55 -80.5 -87.5t-122.5 -32.5q-93 0 -145 63.5t-52 166.5v290h30v-290q0 -90 43.5 -145t123.5 -55q82 0 142.5 54.5t60.5 135.5v300h30v-500zM176 720h37l113 -160h-37z" />
    <glyph glyph-name="uacute" unicode="&#xfa;" 
d="M511 0h-30v100q-25 -55 -80.5 -87.5t-122.5 -32.5q-93 0 -145 63.5t-52 166.5v290h30v-290q0 -90 43.5 -145t123.5 -55q82 0 142.5 54.5t60.5 135.5v300h30v-500zM379 720h37l-113 -160h-37z" />
    <glyph glyph-name="ucircumflex" unicode="&#xfb;" 
d="M511 0h-30v100q-25 -55 -80.5 -87.5t-122.5 -32.5q-93 0 -145 63.5t-52 166.5v290h30v-290q0 -90 43.5 -145t123.5 -55q82 0 142.5 54.5t60.5 135.5v300h30v-500zM189 560h-38l125 160h40l125 -160h-38l-107 137z" />
    <glyph glyph-name="udieresis" unicode="&#xfc;" 
d="M511 0h-30v100q-25 -55 -80.5 -87.5t-122.5 -32.5q-93 0 -145 63.5t-52 166.5v290h30v-290q0 -90 43.5 -145t123.5 -55q82 0 142.5 54.5t60.5 135.5v300h30v-500zM186 585q-14 0 -22 8.5t-8 21.5t8 21.5t22 8.5t22 -8.5t8 -21.5t-8 -21.5t-22 -8.5zM406 585
q-14 0 -22 8.5t-8 21.5t8 21.5t22 8.5t22 -8.5t8 -21.5t-8 -21.5t-22 -8.5z" />
    <glyph glyph-name="yacute" unicode="&#xfd;" horiz-adv-x="560" 
d="M61 -210v30q32 -10 59 -10q49 0 81 45t77 150l-237 495h34l219 -459l193 459h32l-210 -500q-48 -115 -88 -167.5t-103 -52.5q-32 0 -57 10zM251 560l113 160h37l-113 -160h-37z" />
    <glyph glyph-name="ydieresis" unicode="&#xff;" horiz-adv-x="560" 
d="M61 -210v30q32 -10 59 -10q49 0 81 45t77 150l-237 495h34l219 -459l193 459h32l-210 -500q-48 -115 -88 -167.5t-103 -52.5q-32 0 -57 10zM171 585q-13 0 -21.5 8.5t-8.5 21.5t8.5 21.5t21.5 8.5t21.5 -8.5t8.5 -21.5t-8.5 -21.5t-21.5 -8.5zM391 585q-13 0 -21.5 8.5
t-8.5 21.5t8.5 21.5t21.5 8.5t21.5 -8.5t8.5 -21.5t-8.5 -21.5t-21.5 -8.5z" />
    <glyph glyph-name="Amacron" unicode="&#x100;" horiz-adv-x="638" 
d="M319 670l-191 -480h381zM116 160l-63 -160h-32l278 700h40l278 -700h-32l-64 160h-405zM161 830h314v-30h-314v30z" />
    <glyph glyph-name="amacron" unicode="&#x101;" horiz-adv-x="662" 
d="M311 10q97 0 163.5 68.5t66.5 171.5t-66.5 171.5t-163.5 68.5q-100 0 -165 -68t-65 -172t65 -172t165 -68zM541 369v131h30v-500h-30v131q-27 -69 -88.5 -110t-141.5 -41q-114 0 -187 76t-73 194t73 194t187 76q80 0 141.5 -41t88.5 -110zM154 620h314v-30h-314v30z" />
    <glyph glyph-name="Abreve" unicode="&#x102;" horiz-adv-x="638" 
d="M319 670l-191 -480h381zM116 160l-63 -160h-32l278 700h40l278 -700h-32l-64 160h-405zM408 900h29q1 -56 -33 -93t-86 -37t-86 37t-34 93h30q0 -43 25.5 -71.5t64.5 -28.5t64.5 28.5t25.5 71.5z" />
    <glyph glyph-name="abreve" unicode="&#x103;" horiz-adv-x="662" 
d="M311 10q97 0 163.5 68.5t66.5 171.5t-66.5 171.5t-163.5 68.5q-100 0 -165 -68t-65 -172t65 -172t165 -68zM541 369v131h30v-500h-30v131q-27 -69 -88.5 -110t-141.5 -41q-114 0 -187 76t-73 194t73 194t187 76q80 0 141.5 -41t88.5 -110zM400 700h30q0 -61 -34 -100.5
t-86 -39.5t-86 39.5t-34 100.5h30q0 -48 25.5 -79t64.5 -31q40 0 65 31t25 79z" />
    <glyph glyph-name="Aogonek" unicode="&#x104;" horiz-adv-x="685" 
d="M319 670l-191 -480h381zM576 22l-55 138h-405l-63 -160h-32l278 700h40l278 -700h-32q-43 -13 -70 -46t-27 -74q0 -56 50 -92.5t126 -36.5v-30q-90 0 -148.5 44.5t-57.5 112.5q0 51 33.5 91t84.5 53z" />
    <glyph glyph-name="aogonek" unicode="&#x105;" horiz-adv-x="723" 
d="M311 10q97 0 163.5 68.5t66.5 171.5t-66.5 171.5t-163.5 68.5q-100 0 -165 -68t-65 -172t65 -172t165 -68zM541 20v111q-27 -69 -88.5 -110t-141.5 -41q-114 0 -187 76t-73 194t73 194t187 76q80 0 141.5 -41t88.5 -110v131h30v-500h-15q-44 -13 -71.5 -46.5t-28.5 -74.5
q0 -56 50 -92.5t127 -36.5v-30q-90 0 -148.5 44.5t-58.5 112.5q1 50 33 89.5t82 53.5z" />
    <glyph glyph-name="Cacute" unicode="&#x106;" horiz-adv-x="820" 
d="M431 5q111 0 195 64t104 159l29 -7q-22 -104 -114.5 -175t-213.5 -71q-161 0 -265.5 106t-104.5 269t104.5 269t265.5 106q121 0 213 -73.5t114 -181.5l-29 -5q-22 98 -106 164t-192 66q-148 0 -244 -97t-96 -248q0 -150 96 -247.5t244 -97.5zM514 910h37l-103 -140h-37z
" />
    <glyph glyph-name="cacute" unicode="&#x107;" horiz-adv-x="594" 
d="M311 520q83 0 149 -49.5t83 -125.5l-30 -5q-17 65 -74 107.5t-128 42.5q-100 0 -165 -68t-65 -172t65 -172t165 -68q72 0 128.5 39.5t73.5 100.5l29 -6q-18 -71 -83.5 -117.5t-147.5 -46.5q-113 0 -186.5 76t-73.5 194t73.5 194t186.5 76zM404 720h37l-113 -160h-37z" />
    <glyph glyph-name="Ccircumflex" unicode="&#x108;" horiz-adv-x="820" 
d="M431 5q111 0 195 64t104 159l29 -7q-22 -104 -114.5 -175t-213.5 -71q-161 0 -265.5 106t-104.5 269t104.5 269t265.5 106q121 0 213 -73.5t114 -181.5l-29 -5q-22 98 -106 164t-192 66q-148 0 -244 -97t-96 -248q0 -150 96 -247.5t244 -97.5zM324 770h-42l129 140h40
l128 -140h-40l-108 118z" />
    <glyph glyph-name="ccircumflex" unicode="&#x109;" horiz-adv-x="594" 
d="M311 520q83 0 149 -49.5t83 -125.5l-30 -5q-17 65 -74 107.5t-128 42.5q-100 0 -165 -68t-65 -172t65 -172t165 -68q72 0 128.5 39.5t73.5 100.5l29 -6q-18 -71 -83.5 -117.5t-147.5 -46.5q-113 0 -186.5 76t-73.5 194t73.5 194t186.5 76zM204 560h-38l125 160h40
l125 -160h-38l-107 137z" />
    <glyph glyph-name="Cdotaccent" unicode="&#x10a;" horiz-adv-x="820" 
d="M431 5q111 0 195 64t104 159l29 -7q-22 -104 -114.5 -175t-213.5 -71q-161 0 -265.5 106t-104.5 269t104.5 269t265.5 106q121 0 213 -73.5t114 -181.5l-29 -5q-22 98 -106 164t-192 66q-148 0 -244 -97t-96 -248q0 -150 96 -247.5t244 -97.5zM431 797q-13 0 -21.5 8.5
t-8.5 21.5t8.5 21.5t21.5 8.5t21.5 -8.5t8.5 -21.5t-8.5 -21.5t-21.5 -8.5z" />
    <glyph glyph-name="cdotaccent" unicode="&#x10b;" horiz-adv-x="594" 
d="M311 520q83 0 149 -49.5t83 -125.5l-30 -5q-17 65 -74 107.5t-128 42.5q-100 0 -165 -68t-65 -172t65 -172t165 -68q72 0 128.5 39.5t73.5 100.5l29 -6q-18 -71 -83.5 -117.5t-147.5 -46.5q-113 0 -186.5 76t-73.5 194t73.5 194t186.5 76zM312 590q-13 0 -21.5 8.5
t-8.5 21.5q0 14 8 22t22 8q13 0 21.5 -8.5t8.5 -21.5t-8.5 -21.5t-21.5 -8.5z" />
    <glyph glyph-name="Ccaron" unicode="&#x10c;" horiz-adv-x="820" 
d="M431 5q111 0 195 64t104 159l29 -7q-22 -104 -114.5 -175t-213.5 -71q-161 0 -265.5 106t-104.5 269t104.5 269t265.5 106q121 0 213 -73.5t114 -181.5l-29 -5q-22 98 -106 164t-192 66q-148 0 -244 -97t-96 -248q0 -150 96 -247.5t244 -97.5zM538 930h38l-125 -160h-40
l-125 160h38l107 -137z" />
    <glyph glyph-name="ccaron" unicode="&#x10d;" horiz-adv-x="594" 
d="M311 520q83 0 149 -49.5t83 -125.5l-30 -5q-17 65 -74 107.5t-128 42.5q-100 0 -165 -68t-65 -172t65 -172t165 -68q72 0 128.5 39.5t73.5 100.5l29 -6q-18 -71 -83.5 -117.5t-147.5 -46.5q-113 0 -186.5 76t-73.5 194t73.5 194t186.5 76zM418 720h38l-125 -160h-40
l-125 160h38l107 -137z" />
    <glyph glyph-name="Dcaron" unicode="&#x10e;" horiz-adv-x="732" 
d="M641 350q0 144 -104.5 232t-275.5 88h-140v-640h140q171 0 275.5 88t104.5 232zM261 0h-170v700h170q185 0 297.5 -96t112.5 -254t-112.5 -254t-297.5 -96zM331 783l107 137h38l-125 -160h-40l-125 160h38z" />
    <glyph glyph-name="dcaron" unicode="&#x10f;" horiz-adv-x="742" 
d="M311 490q-100 0 -165 -68t-65 -172t65 -172t165 -68t165 68t65 172t-65 172t-165 68zM51 250q0 118 73.5 194t186.5 76q80 0 141.5 -41t88.5 -110v361h30v-730h-30v131q-27 -69 -88.5 -110t-141.5 -41q-113 0 -186.5 76t-73.5 194zM676 650h-2q-15 0 -24 8.5t-9 22.5
q0 13 8 21.5t20 8.5q14 0 23.5 -13t9.5 -33q0 -46 -38 -94l-16 12q28 37 28 67z" />
    <glyph glyph-name="Dcroat" unicode="&#x110;" horiz-adv-x="782" 
d="M141 423v277h170q185 0 297.5 -96t112.5 -254t-112.5 -254t-297.5 -96h-170v393h-120v30h120zM691 350q0 144 -104.5 232t-275.5 88h-140v-247h250v-30h-250v-363h140q171 0 275.5 88t104.5 232z" />
    <glyph glyph-name="dcroat" unicode="&#x111;" horiz-adv-x="715" 
d="M311 490q-100 0 -165 -68t-65 -172t65 -172t165 -68t165 68t65 172t-65 172t-165 68zM541 369v249h-249v30h249v82h30v-82h103v-30h-103v-618h-30v131q-27 -69 -88.5 -110t-141.5 -41q-113 0 -186.5 76t-73.5 194t73.5 194t186.5 76q80 0 141.5 -41t88.5 -110z" />
    <glyph glyph-name="Emacron" unicode="&#x112;" horiz-adv-x="622" 
d="M121 350v-320h450v-30h-480v700h470v-30h-440v-290h400v-30h-400zM488 830v-30h-314v30h314z" />
    <glyph glyph-name="emacron" unicode="&#x113;" horiz-adv-x="632" 
d="M81 270h469q-7 97 -70.5 158.5t-158.5 61.5q-100 0 -166.5 -61.5t-73.5 -158.5zM51 250q0 118 76 194t194 76q114 0 187 -76t73 -194v-10h-500q3 -101 70 -165.5t170 -64.5q72 0 133 40.5t83 103.5l30 -5q-24 -73 -93.5 -121t-152.5 -48q-118 0 -194 76t-76 194zM164 620
h314v-30h-314v30z" />
    <glyph glyph-name="Ebreve" unicode="&#x114;" horiz-adv-x="622" 
d="M121 350v-320h450v-30h-480v700h470v-30h-440v-290h400v-30h-400zM421 900h29q1 -56 -33 -93t-86 -37t-86 37t-34 93h30q0 -43 25.5 -71.5t64.5 -28.5t64.5 28.5t25.5 71.5z" />
    <glyph glyph-name="ebreve" unicode="&#x115;" horiz-adv-x="632" 
d="M81 270h469q-7 97 -70.5 158.5t-158.5 61.5q-100 0 -166.5 -61.5t-73.5 -158.5zM51 250q0 118 76 194t194 76q114 0 187 -76t73 -194v-10h-500q3 -101 70 -165.5t170 -64.5q72 0 133 40.5t83 103.5l30 -5q-24 -73 -93.5 -121t-152.5 -48q-118 0 -194 76t-76 194zM410 700
h30q0 -61 -34 -100.5t-86 -39.5t-86 39.5t-34 100.5h30q0 -48 25.5 -79t64.5 -31q40 0 65 31t25 79z" />
    <glyph glyph-name="Edotaccent" unicode="&#x116;" horiz-adv-x="622" 
d="M121 350v-320h450v-30h-480v700h470v-30h-440v-290h400v-30h-400zM331 797q-13 0 -21.5 8.5t-8.5 21.5t8.5 21.5t21.5 8.5t21.5 -8.5t8.5 -21.5t-8.5 -21.5t-21.5 -8.5z" />
    <glyph glyph-name="edotaccent" unicode="&#x117;" horiz-adv-x="632" 
d="M81 270h469q-7 97 -70.5 158.5t-158.5 61.5q-100 0 -166.5 -61.5t-73.5 -158.5zM51 250q0 118 76 194t194 76q114 0 187 -76t73 -194v-10h-500q3 -101 70 -165.5t170 -64.5q72 0 133 40.5t83 103.5l30 -5q-24 -73 -93.5 -121t-152.5 -48q-118 0 -194 76t-76 194zM322 590
q-13 0 -21.5 8.5t-8.5 21.5q0 14 8 22t22 8q13 0 21.5 -8.5t8.5 -21.5t-8.5 -21.5t-21.5 -8.5z" />
    <glyph glyph-name="Eogonek" unicode="&#x118;" horiz-adv-x="622" 
d="M433 0h-342v700h470v-30h-440v-290h400v-30h-400v-320h450v-30h-80q-42 -13 -69 -46.5t-27 -73.5q-1 -56 49.5 -92.5t126.5 -36.5v-30q-90 0 -148.5 44.5t-57.5 112.5q0 77 68 122z" />
    <glyph glyph-name="eogonek" unicode="&#x119;" horiz-adv-x="632" 
d="M81 270h469q-7 97 -70.5 158.5t-158.5 61.5q-100 0 -166.5 -61.5t-73.5 -158.5zM330 -20q-122 0 -200.5 74t-78.5 196q0 118 76 194t194 76q114 0 187 -76t73 -194v-10h-500q3 -101 70 -165.5t170 -64.5q72 0 133 40.5t83 103.5l30 -5q-19 -58 -68.5 -101.5t-112.5 -59.5
q-32 -17 -51 -46t-20 -63q0 -56 50 -92.5t127 -36.5v-30q-90 0 -148.5 44.5t-58.5 112.5q1 59 45 103z" />
    <glyph glyph-name="Ecaron" unicode="&#x11a;" horiz-adv-x="622" 
d="M121 350v-320h450v-30h-480v700h470v-30h-440v-290h400v-30h-400zM438 930h38l-125 -160h-40l-125 160h38l107 -137z" />
    <glyph glyph-name="ecaron" unicode="&#x11b;" horiz-adv-x="632" 
d="M81 270h469q-7 97 -70.5 158.5t-158.5 61.5q-100 0 -166.5 -61.5t-73.5 -158.5zM51 250q0 118 76 194t194 76q114 0 187 -76t73 -194v-10h-500q3 -101 70 -165.5t170 -64.5q72 0 133 40.5t83 103.5l30 -5q-24 -73 -93.5 -121t-152.5 -48q-118 0 -194 76t-76 194zM321 583
l107 137h38l-125 -160h-40l-125 160h38z" />
    <glyph glyph-name="Gcircumflex" unicode="&#x11c;" horiz-adv-x="852" 
d="M431 5q144 0 237 96.5t93 248.5h-330v30h359q10 -176 -91.5 -290.5t-267.5 -114.5q-161 0 -265.5 106t-104.5 269t104.5 269t265.5 106q121 0 213.5 -70.5t114.5 -178.5l-29 -6q-23 98 -107.5 161.5t-191.5 63.5q-148 1 -244 -96.5t-96 -248.5q0 -149 96.5 -247
t243.5 -98zM324 770h-42l129 140h40l128 -140h-40l-108 118z" />
    <glyph glyph-name="gcircumflex" unicode="&#x11d;" horiz-adv-x="662" 
d="M311 10q100 0 165 68t65 172t-65.5 172t-164.5 68q-102 0 -166 -67.5t-64 -172.5q0 -104 65.5 -172t164.5 -68zM321 -220q95 -1 157.5 61.5t62.5 158.5v127q-30 -68 -91 -107.5t-139 -39.5q-113 0 -186.5 76t-73.5 194t73.5 194t186.5 76q78 0 139 -39.5t91 -107.5v127
h30v-500q0 -109 -70.5 -179.5t-179.5 -70.5q-102 0 -175 55t-84 140l30 4q9 -74 73.5 -121.5t155.5 -47.5zM311 697l-107 -137h-38l125 160h40l125 -160h-38z" />
    <glyph glyph-name="Gbreve" unicode="&#x11e;" horiz-adv-x="852" 
d="M431 5q144 0 237 96.5t93 248.5h-330v30h359q10 -176 -91.5 -290.5t-267.5 -114.5q-161 0 -265.5 106t-104.5 269t104.5 269t265.5 106q121 0 213.5 -70.5t114.5 -178.5l-29 -6q-23 98 -107.5 161.5t-191.5 63.5q-148 1 -244 -96.5t-96 -248.5q0 -149 96.5 -247
t243.5 -98zM521 900h29q1 -56 -33 -93t-86 -37t-86 37t-34 93h30q0 -43 25.5 -71.5t64.5 -28.5t64.5 28.5t25.5 71.5z" />
    <glyph glyph-name="gbreve" unicode="&#x11f;" horiz-adv-x="662" 
d="M311 10q100 0 165 68t65 172t-65.5 172t-164.5 68q-102 0 -166 -67.5t-64 -172.5q0 -104 65.5 -172t164.5 -68zM321 -220q95 -1 157.5 61.5t62.5 158.5v127q-30 -68 -91 -107.5t-139 -39.5q-113 0 -186.5 76t-73.5 194t73.5 194t186.5 76q78 0 139 -39.5t91 -107.5v127
h30v-500q0 -109 -70.5 -179.5t-179.5 -70.5q-102 0 -175 55t-84 140l30 4q9 -74 73.5 -121.5t155.5 -47.5zM401 700h30q0 -61 -34 -100.5t-86 -39.5t-86 39.5t-34 100.5h30q0 -48 25 -79t65 -31q39 0 64.5 31t25.5 79z" />
    <glyph glyph-name="Gdotaccent" unicode="&#x120;" horiz-adv-x="852" 
d="M431 5q144 0 237 96.5t93 248.5h-330v30h359q10 -176 -91.5 -290.5t-267.5 -114.5q-161 0 -265.5 106t-104.5 269t104.5 269t265.5 106q121 0 213.5 -70.5t114.5 -178.5l-29 -6q-23 98 -107.5 161.5t-191.5 63.5q-148 1 -244 -96.5t-96 -248.5q0 -149 96.5 -247
t243.5 -98zM431 797q-13 0 -21.5 8.5t-8.5 21.5t8.5 21.5t21.5 8.5t21.5 -8.5t8.5 -21.5t-8.5 -21.5t-21.5 -8.5z" />
    <glyph glyph-name="gdotaccent" unicode="&#x121;" horiz-adv-x="662" 
d="M311 10q100 0 165 68t65 172t-65.5 172t-164.5 68q-102 0 -166 -67.5t-64 -172.5q0 -104 65.5 -172t164.5 -68zM321 -220q95 -1 157.5 61.5t62.5 158.5v127q-30 -68 -91 -107.5t-139 -39.5q-113 0 -186.5 76t-73.5 194t73.5 194t186.5 76q78 0 139 -39.5t91 -107.5v127
h30v-500q0 -109 -70.5 -179.5t-179.5 -70.5q-102 0 -175 55t-84 140l30 4q9 -74 73.5 -121.5t155.5 -47.5zM312 590q-13 0 -21.5 8.5t-8.5 21.5q0 14 8 22t22 8q13 0 21.5 -8.5t8.5 -21.5t-8.5 -21.5t-21.5 -8.5z" />
    <glyph glyph-name="Gcommaaccent" unicode="&#x122;" horiz-adv-x="852" 
d="M431 5q144 0 237 96.5t93 248.5h-330v30h359q10 -176 -91.5 -290.5t-267.5 -114.5q-161 0 -265.5 106t-104.5 269t104.5 269t265.5 106q121 0 213.5 -70.5t114.5 -178.5l-29 -6q-23 98 -107.5 161.5t-191.5 63.5q-148 1 -244 -96.5t-96 -248.5q0 -149 96.5 -247
t243.5 -98zM436 -140h-2q-15 0 -24 8.5t-9 22.5q0 13 8 21.5t20 8.5q14 0 23.5 -13t9.5 -33q0 -46 -38 -94l-16 12q28 37 28 67z" />
    <glyph glyph-name="gcommaaccent" unicode="&#x123;" horiz-adv-x="662" 
d="M311 10q100 0 165 68t65 172t-65.5 172t-164.5 68q-102 0 -166 -67.5t-64 -172.5q0 -104 65.5 -172t164.5 -68zM321 -220q95 -1 157.5 61.5t62.5 158.5v127q-30 -68 -91 -107.5t-139 -39.5q-113 0 -186.5 76t-73.5 194t73.5 194t186.5 76q78 0 139 -39.5t91 -107.5v127
h30v-500q0 -109 -70.5 -179.5t-179.5 -70.5q-102 0 -175 55t-84 140l30 4q9 -74 73.5 -121.5t155.5 -47.5zM307 621q15 0 25 -8.5t10 -23.5q0 -13 -8 -21t-20 -8q-14 0 -23.5 13t-9.5 33q0 46 38 94l16 -12q-28 -38 -28 -67z" />
    <glyph glyph-name="Itilde" unicode="&#x128;" horiz-adv-x="216" 
d="M91 0v700h30v-700h-30zM-29 805l-25 15q10 22 35.5 36t56.5 14q33 0 71 -25t66 -25q51 0 68 38l27 -13q-11 -24 -37.5 -39.5t-59.5 -15.5q-34 0 -72 25t-64 25q-47 0 -66 -35z" />
    <glyph glyph-name="itilde" unicode="&#x129;" horiz-adv-x="216" 
d="M81 0v500h30v-500h-30zM-29 598l-25 16q10 22 34.5 36t50.5 14q32 0 77 -30t69 -30q21 0 40 11t26 27l27 -13q-10 -24 -36.5 -39.5t-55.5 -15.5q-34 0 -78.5 30t-67.5 30q-42 0 -61 -36z" />
    <glyph glyph-name="Imacron" unicode="&#x12a;" horiz-adv-x="216" 
d="M93 700h30v-700h-30v700zM265 830v-30h-314v30h314z" />
    <glyph glyph-name="imacron" unicode="&#x12b;" horiz-adv-x="196" 
d="M83 500h30v-500h-30v500zM255 620v-30h-314v30h314z" />
    <glyph glyph-name="Iogonek" unicode="&#x12e;" horiz-adv-x="213" 
d="M90 17v683h30v-700h-5q-43 -13 -71 -46.5t-28 -74.5q-1 -56 49.5 -92.5t126.5 -36.5v-30q-90 0 -148.5 44.5t-57.5 112.5q0 47 29 85.5t75 54.5z" />
    <glyph glyph-name="iogonek" unicode="&#x12f;" horiz-adv-x="208" 
d="M90 17v483h30v-500h-5q-43 -13 -71 -46.5t-28 -74.5q-1 -56 49.5 -92.5t126.5 -36.5v-30q-90 0 -148.5 44.5t-57.5 112.5q0 47 29 85.5t75 54.5zM105 610q-13 0 -21.5 8.5t-8.5 21.5t8.5 21.5t21.5 8.5t21.5 -8.5t8.5 -21.5t-8.5 -21.5t-21.5 -8.5z" />
    <glyph glyph-name="Idotaccent" unicode="&#x130;" horiz-adv-x="212" 
d="M91 700h30v-700h-30v700zM106 797q-13 0 -21.5 8.5t-8.5 21.5t8 21.5t22 8.5q13 0 21.5 -8.5t8.5 -21.5t-8.5 -21.5t-21.5 -8.5z" />
    <glyph glyph-name="dotlessi" unicode="&#x131;" horiz-adv-x="192" 
d="M81 500h30v-500h-30v500z" />
    <glyph glyph-name="IJ" unicode="&#x132;" horiz-adv-x="633" 
d="M91 700h30v-700h-30v700zM522 210v490h30v-490q0 -111 -53.5 -170.5t-140.5 -59.5q-54 0 -116 20v31q68 -21 120 -21q72 0 116 51t44 149z" />
    <glyph glyph-name="ij" unicode="&#x133;" horiz-adv-x="348" 
d="M96 500h30v-500h-30v500zM293 -111v611h30v-610q0 -48 -29.5 -79t-74.5 -31q-30 0 -67 13v31q40 -14 66 -14q33 0 54 22t21 57zM111 610q-13 0 -21.5 8.5t-8.5 21.5t8.5 21.5t21.5 8.5t21.5 -8.5t8.5 -21.5t-8.5 -21.5t-21.5 -8.5zM308 610q-13 0 -21.5 8.5t-8.5 21.5
q0 14 8 22t22 8q13 0 21.5 -8.5t8.5 -21.5t-8.5 -21.5t-21.5 -8.5z" />
    <glyph glyph-name="Kcommaaccent" unicode="&#x136;" horiz-adv-x="541" 
d="M91 0v700h30v-311l337 311h45l-359 -330l366 -370h-42l-347 350v-350h-30zM290 -151q-15 0 -25 8.5t-10 23.5q0 13 8 21t20 8q14 0 23.5 -13t9.5 -33q0 -46 -38 -94l-16 12q28 38 28 67z" />
    <glyph glyph-name="kcommaaccent" unicode="&#x137;" horiz-adv-x="494" 
d="M91 0v730h30v-452l267 222h47l-290 -240l298 -260h-45l-277 241v-241h-30zM272 -141q-15 0 -25 8.5t-10 22.5q0 13 8 21.5t20 8.5q14 0 23.5 -13t9.5 -33q0 -46 -38 -94l-16 12q28 37 28 67z" />
    <glyph glyph-name="Lacute" unicode="&#x139;" horiz-adv-x="552" 
d="M521 0h-430v700h30v-670h400v-30zM194 910h37l-103 -140h-37z" />
    <glyph glyph-name="lacute" unicode="&#x13a;" horiz-adv-x="306" 
d="M91 730h30v-730h-30v730zM186 907h37l-103 -140h-37z" />
    <glyph glyph-name="Lcommaaccent" unicode="&#x13b;" horiz-adv-x="552" 
d="M521 0h-430v700h30v-670h400v-30zM317 -151q-35 0 -35 32q0 13 8 21t20 8q14 0 23.5 -13t9.5 -33q0 -46 -38 -94l-16 12q28 38 28 67z" />
    <glyph glyph-name="lcommaaccent" unicode="&#x13c;" horiz-adv-x="216" 
d="M91 730h30v-730h-30v730zM112 -141q-15 0 -25 8.5t-10 22.5q0 13 8 21.5t20 8.5q14 0 23.5 -13t9.5 -33q0 -48 -37 -95l-17 13q28 35 28 67z" />
    <glyph glyph-name="Lcaron" unicode="&#x13d;" horiz-adv-x="552" 
d="M521 0h-430v700h30v-670h400v-30zM288 649h-2q-15 0 -24 8.5t-9 22.5q0 13 8 21.5t20 8.5q14 0 23.5 -13t9.5 -33q0 -46 -38 -94l-16 12q28 37 28 67z" />
    <glyph glyph-name="lcaron" unicode="&#x13e;" horiz-adv-x="293" 
d="M91 730h30v-730h-30v730zM227 649h-2q-15 0 -24 8.5t-9 22.5q0 13 8 21.5t20 8.5q14 0 23.5 -13t9.5 -33q0 -46 -38 -94l-16 12q28 37 28 67z" />
    <glyph glyph-name="Lslash" unicode="&#x141;" horiz-adv-x="482" 
d="M21 250l110 72v378h30v-358l380 249v-38l-380 -249v-274h400v-30h-430v284l-110 -72v38z" />
    <glyph glyph-name="lslash" unicode="&#x142;" horiz-adv-x="370" 
d="M370 503l-170 -111v-392h-30v373l-170 -111v38l170 111v319h30v-300l170 111v-38z" />
    <glyph glyph-name="Nacute" unicode="&#x143;" horiz-adv-x="692" 
d="M131 700l440 -661v661h30v-700h-40l-440 660v-660h-30v700h40zM434 910h37l-103 -140h-37z" />
    <glyph glyph-name="nacute" unicode="&#x144;" 
d="M91 500h30v-100q24 55 79.5 87.5t123.5 32.5q93 0 145 -63.5t52 -166.5v-290h-30v290q0 90 -43.5 145t-123.5 55q-82 0 -142.5 -54.5t-60.5 -135.5v-300h-30v500zM397 720h37l-113 -160h-37z" />
    <glyph glyph-name="Ncommaaccent" unicode="&#x145;" horiz-adv-x="692" 
d="M131 700l440 -661v661h30v-700h-40l-440 660v-660h-30v700h40zM355 -151q-15 0 -25 8.5t-10 23.5q0 13 8 21t20 8q15 0 24 -13t9 -33q0 -47 -37 -94l-17 12q28 36 28 67z" />
    <glyph glyph-name="ncommaaccent" unicode="&#x146;" 
d="M91 500h30v-100q24 55 79.5 87.5t123.5 32.5q93 0 145 -63.5t52 -166.5v-290h-30v290q0 90 -43.5 145t-123.5 55q-82 0 -142.5 -54.5t-60.5 -135.5v-300h-30v500zM319 -151q-15 0 -25 8.5t-10 22.5q0 13 8 21.5t20 8.5q14 0 23.5 -13t9.5 -33q0 -46 -38 -94l-16 12
q28 37 28 67z" />
    <glyph glyph-name="Ncaron" unicode="&#x147;" horiz-adv-x="692" 
d="M131 700l440 -661v661h30v-700h-40l-440 660v-660h-30v700h40zM458 930h38l-125 -160h-40l-125 160h38l107 -137z" />
    <glyph glyph-name="ncaron" unicode="&#x148;" 
d="M91 500h30v-100q24 55 79.5 87.5t123.5 32.5q93 0 145 -63.5t52 -166.5v-290h-30v290q0 90 -43.5 145t-123.5 55q-82 0 -142.5 -54.5t-60.5 -135.5v-300h-30v500zM421 720h38l-125 -160h-40l-125 160h38l107 -137z" />
    <glyph glyph-name="Omacron" unicode="&#x14c;" horiz-adv-x="862" 
d="M431 -25q-161 0 -265.5 106t-104.5 269t104.5 269t265.5 106t265.5 -106t104.5 -269t-104.5 -269t-265.5 -106zM431 695q-148 0 -244 -97.5t-96 -247.5q0 -149 96 -247t244 -98t244 97.5t96 247.5t-96 247.5t-244 97.5zM588 830v-30h-314v30h314z" />
    <glyph glyph-name="omacron" unicode="&#x14d;" horiz-adv-x="622" 
d="M311 520q113 0 186.5 -76t73.5 -194t-73.5 -194t-186.5 -76t-186.5 76t-73.5 194t73.5 194t186.5 76zM311 10q100 0 165 68t65 172t-65 172t-165 68t-165 -68t-65 -172t65 -172t165 -68zM468 620v-30h-314v30h314z" />
    <glyph glyph-name="Obreve" unicode="&#x14e;" horiz-adv-x="862" 
d="M431 695q-148 0 -244 -97.5t-96 -247.5q0 -149 96 -247t244 -98t244 97.5t96 247.5t-96 247.5t-244 97.5zM431 -25q-161 0 -265.5 106t-104.5 269t104.5 269t265.5 106t265.5 -106t104.5 -269t-104.5 -269t-265.5 -106zM521 900h29q1 -56 -33 -93t-86 -37t-86 37t-34 93
h30q0 -43 25.5 -71.5t64.5 -28.5t64.5 28.5t25.5 71.5z" />
    <glyph glyph-name="obreve" unicode="&#x14f;" horiz-adv-x="622" 
d="M311 10q100 0 165 68t65 172t-65 172t-165 68t-165 -68t-65 -172t65 -172t165 -68zM311 520q113 0 186.5 -76t73.5 -194t-73.5 -194t-186.5 -76t-186.5 76t-73.5 194t73.5 194t186.5 76zM400 700h30q0 -61 -34 -100.5t-86 -39.5t-86 39.5t-34 100.5h30q0 -48 25.5 -79
t64.5 -31q40 0 65 31t25 79z" />
    <glyph glyph-name="Ohungarumlaut" unicode="&#x150;" horiz-adv-x="862" 
d="M431 -25q-161 0 -265.5 106t-104.5 269t104.5 269t265.5 106t265.5 -106t104.5 -269t-104.5 -269t-265.5 -106zM431 695q-148 0 -244 -97.5t-96 -247.5q0 -149 96 -247t244 -98t244 97.5t96 247.5t-96 247.5t-244 97.5zM437 910h38l-107 -140h-37zM577 910h38l-107 -140
h-37z" />
    <glyph glyph-name="ohungarumlaut" unicode="&#x151;" horiz-adv-x="620" 
d="M310 520q113 0 186.5 -76t73.5 -194t-73.5 -194t-186.5 -76t-186.5 76t-73.5 194t73.5 194t186.5 76zM310 10q100 0 165 68t65 172t-65 172t-165 68t-165 -68t-65 -172t65 -172t165 -68zM341 740h38l-133 -180h-36zM482 740h37l-133 -180h-36z" />
    <glyph glyph-name="OE" unicode="&#x152;" horiz-adv-x="1052" 
d="M551 29v642q-55 24 -120 24q-148 0 -244 -97.5t-96 -247.5t96 -247.5t244 -97.5q65 0 120 24zM61 350q0 163 104.5 269t265.5 106q63 0 125 -25h435v-30h-410v-300h370v-30h-370v-310h420v-30h-446q-63 -25 -124 -25q-161 0 -265.5 106t-104.5 269z" />
    <glyph glyph-name="oe" unicode="&#x153;" horiz-adv-x="1122" 
d="M311 10q100 0 165 68t65 172t-65 172t-165 68t-165 -68t-65 -172t65 -172t165 -68zM571 270h469q-7 97 -70.5 158.5t-158.5 61.5q-100 0 -166.5 -61.5t-73.5 -158.5zM556 155q-27 -80 -92.5 -127.5t-152.5 -47.5q-113 0 -186.5 76t-73.5 194t73.5 194t186.5 76
q87 0 152.5 -47.5t92.5 -127.5q27 80 95.5 127.5t159.5 47.5q114 0 187 -76t73 -194v-10h-500q3 -101 70 -165.5t170 -64.5q72 0 133 40.5t83 103.5l30 -5q-24 -73 -93.5 -121t-152.5 -48q-91 0 -159.5 47.5t-95.5 127.5z" />
    <glyph glyph-name="Racute" unicode="&#x154;" horiz-adv-x="682" 
d="M381 670h-260v-360h260q95 0 152.5 49.5t57.5 130.5t-57.5 130.5t-152.5 49.5zM121 280v-280h-30v700h290q108 0 174 -58t66 -152q0 -83 -51.5 -138t-138.5 -68l183 -284h-36l-180 280h-277zM321 770l103 140h37l-103 -140h-37z" />
    <glyph glyph-name="racute" unicode="&#x155;" horiz-adv-x="387" 
d="M91 500h30v-89q37 109 142 109q41 0 78 -17v-34q-37 21 -77 21q-65 0 -104 -55t-39 -145v-290h-30v500zM309 720h37l-113 -160h-37z" />
    <glyph glyph-name="Rcommaaccent" unicode="&#x156;" horiz-adv-x="682" 
d="M381 670h-260v-360h260q95 0 152.5 49.5t57.5 130.5t-57.5 130.5t-152.5 49.5zM121 280v-280h-30v700h290q108 0 174 -58t66 -152q0 -83 -51.5 -138t-138.5 -68l183 -284h-36l-180 280h-277zM350 -151q-15 0 -25 8.5t-10 23.5q0 13 8 21t20 8q14 0 23.5 -13t9.5 -33
q0 -47 -37 -94l-17 12q28 36 28 67z" />
    <glyph glyph-name="rcommaaccent" unicode="&#x157;" horiz-adv-x="368" 
d="M91 500h30v-89q37 109 142 109q41 0 78 -17v-34q-37 21 -77 21q-65 0 -104 -55t-39 -145v-290h-30v500zM112 -140q-15 0 -25 8.5t-10 22.5q0 13 8 21.5t20 8.5q14 0 23.5 -13t9.5 -33q0 -46 -38 -94l-16 12q28 37 28 67z" />
    <glyph glyph-name="Rcaron" unicode="&#x158;" horiz-adv-x="682" 
d="M381 670h-260v-360h260q95 0 152.5 49.5t57.5 130.5t-57.5 130.5t-152.5 49.5zM121 280v-280h-30v700h290q108 0 174 -58t66 -152q0 -83 -51.5 -138t-138.5 -68l183 -284h-36l-180 280h-277zM341 793l107 137h38l-125 -160h-40l-125 160h38z" />
    <glyph glyph-name="rcaron" unicode="&#x159;" horiz-adv-x="382" 
d="M91 500h30v-89q37 109 142 109q41 0 78 -17v-34q-37 21 -77 21q-65 0 -104 -55t-39 -145v-290h-30v500zM323 720h38l-125 -160h-40l-125 160h38l107 -137z" />
    <glyph glyph-name="Sacute" unicode="&#x15a;" horiz-adv-x="689" 
d="M618 193q0 -96 -76.5 -157t-194.5 -61q-120 0 -198 70t-78 177h30q0 -96 69.5 -156.5t177.5 -60.5q105 0 172.5 52t67.5 135q0 25 -7.5 44.5t-17.5 33.5t-30.5 25t-36 17t-45.5 12t-47.5 8.5t-52.5 6.5q-40 5 -66 9.5t-61 12.5t-57 20.5t-42.5 30t-30.5 44t-10 59.5
q0 91 71 150.5t183 59.5q117 0 195 -65t78 -164h-30q0 86 -68.5 142.5t-174.5 56.5q-99 0 -161.5 -50t-62.5 -128q0 -29 8.5 -51t28 -37t38 -24.5t52.5 -17t55 -10.5t62 -8t65.5 -9.5t59 -13t55 -20.5t41 -29.5t30 -44t9.5 -59.5zM422 910h37l-103 -140h-37z" />
    <glyph glyph-name="sacute" unicode="&#x15b;" horiz-adv-x="505" 
d="M454 134q0 -67 -55.5 -110.5t-139.5 -43.5q-91 0 -149.5 49.5t-58.5 126.5h30q0 -64 50 -105t127 -41q72 0 119 35t47 88q0 29 -14 49.5t-42 32t-54.5 17.5t-64.5 10q-39 5 -67.5 12t-56.5 20.5t-43 38t-15 58.5q0 65 52 107t130 42q83 0 138 -46.5t55 -118.5h-30
q0 59 -46 97t-116 38q-66 0 -109.5 -33.5t-43.5 -84.5q0 -48 40.5 -70t117.5 -30q40 -5 70 -12t62 -22t49.5 -41t17.5 -63zM340 720h37l-113 -160h-37z" />
    <glyph glyph-name="Scircumflex" unicode="&#x15c;" horiz-adv-x="689" 
d="M618 193q0 -96 -76.5 -157t-194.5 -61q-120 0 -198 70t-78 177h30q0 -96 69.5 -156.5t177.5 -60.5q105 0 172.5 52t67.5 135q0 25 -7.5 44.5t-17.5 33.5t-30.5 25t-36 17t-45.5 12t-47.5 8.5t-52.5 6.5q-40 5 -66 9.5t-61 12.5t-57 20.5t-42.5 30t-30.5 44t-10 59.5
q0 91 71 150.5t183 59.5q117 0 195 -65t78 -164h-30q0 86 -68.5 142.5t-174.5 56.5q-99 0 -161.5 -50t-62.5 -128q0 -29 8.5 -51t28 -37t38 -24.5t52.5 -17t55 -10.5t62 -8t65.5 -9.5t59 -13t55 -20.5t41 -29.5t30 -44t9.5 -59.5zM231 770h-41l128 140h41l128 -140h-41
l-108 118z" />
    <glyph glyph-name="scircumflex" unicode="&#x15d;" horiz-adv-x="505" 
d="M454 134q0 -67 -55.5 -110.5t-139.5 -43.5q-91 0 -149.5 49.5t-58.5 126.5h30q0 -64 50 -105t127 -41q72 0 119 35t47 88q0 29 -14 49.5t-42 32t-54.5 17.5t-64.5 10q-39 5 -67.5 12t-56.5 20.5t-43 38t-15 58.5q0 65 52 107t130 42q83 0 138 -46.5t55 -118.5h-30
q0 59 -46 97t-116 38q-66 0 -109.5 -33.5t-43.5 -84.5q0 -48 40.5 -70t117.5 -30q40 -5 70 -12t62 -22t49.5 -41t17.5 -63zM140 560h-38l125 160h40l125 -160h-38l-107 137z" />
    <glyph glyph-name="Scedilla" unicode="&#x15e;" horiz-adv-x="689" 
d="M351 -90h-35l7 66q-111 8 -181.5 76t-70.5 170h30q0 -96 69.5 -156.5t177.5 -60.5q105 0 172.5 52t67.5 135q0 25 -7.5 44.5t-17.5 33.5t-30.5 25t-36 17t-45.5 12t-47.5 8.5t-52.5 6.5q-40 5 -66 9.5t-61 12.5t-57 20.5t-42.5 30t-30.5 44t-10 59.5q0 91 71 150.5
t183 59.5q117 0 195 -65t78 -164h-30q0 86 -68.5 142.5t-174.5 56.5q-99 0 -161.5 -50t-62.5 -128q0 -29 8.5 -51t28 -37t38 -24.5t52.5 -17t55 -10.5t62 -8t65.5 -9.5t59 -13t55 -20.5t41 -29.5t30 -44t9.5 -59.5q0 -95 -74.5 -155.5t-190.5 -62.5l-4 -35q54 0 85.5 -30.5
t31.5 -79.5q0 -44 -29 -72t-74 -28q-40 0 -68 23t-36 61l29 6q6 -27 26.5 -43.5t48.5 -16.5q33 0 53 19.5t20 50.5q0 37 -23 58.5t-62 21.5z" />
    <glyph glyph-name="scedilla" unicode="&#x15f;" horiz-adv-x="505" 
d="M259 -90h-35l8 71q-80 8 -130.5 56.5t-50.5 118.5h30q0 -64 50 -105t127 -41q72 0 119 35t47 88q0 29 -14 49.5t-42 32t-54.5 17.5t-64.5 10q-39 5 -67.5 12t-56.5 20.5t-43 38t-15 58.5q0 65 52 107t130 42q83 0 138 -46.5t55 -118.5h-30q0 59 -46 97t-116 38
q-66 0 -109.5 -33.5t-43.5 -84.5q0 -48 40.5 -70t117.5 -30q40 -5 70 -12t62 -22t49.5 -41t17.5 -63q0 -67 -54.5 -110t-138.5 -44l-4 -40q54 0 85.5 -30.5t31.5 -79.5q0 -44 -28.5 -72t-74.5 -28q-40 0 -68 23t-36 61l29 6q6 -27 26.5 -43.5t49.5 -16.5q32 0 52 19.5
t20 50.5q0 37 -23 58.5t-62 21.5z" />
    <glyph glyph-name="Scaron" unicode="&#x160;" horiz-adv-x="689" 
d="M618 193q0 -96 -76.5 -157t-194.5 -61q-120 0 -198 70t-78 177h30q0 -96 69.5 -156.5t177.5 -60.5q105 0 172.5 52t67.5 135q0 25 -7.5 44.5t-17.5 33.5t-30.5 25t-36 17t-45.5 12t-47.5 8.5t-52.5 6.5q-40 5 -66 9.5t-61 12.5t-57 20.5t-42.5 30t-30.5 44t-10 59.5
q0 91 71 150.5t183 59.5q117 0 195 -65t78 -164h-30q0 86 -68.5 142.5t-174.5 56.5q-99 0 -161.5 -50t-62.5 -128q0 -29 8.5 -51t28 -37t38 -24.5t52.5 -17t55 -10.5t62 -8t65.5 -9.5t59 -13t55 -20.5t41 -29.5t30 -44t9.5 -59.5zM446 930h38l-125 -160h-40l-125 160h38
l107 -137z" />
    <glyph glyph-name="scaron" unicode="&#x161;" horiz-adv-x="505" 
d="M454 134q0 -67 -55.5 -110.5t-139.5 -43.5q-91 0 -149.5 49.5t-58.5 126.5h30q0 -64 50 -105t127 -41q72 0 119 35t47 88q0 29 -14 49.5t-42 32t-54.5 17.5t-64.5 10q-39 5 -67.5 12t-56.5 20.5t-43 38t-15 58.5q0 65 52 107t130 42q83 0 138 -46.5t55 -118.5h-30
q0 59 -46 97t-116 38q-66 0 -109.5 -33.5t-43.5 -84.5q0 -48 40.5 -70t117.5 -30q40 -5 70 -12t62 -22t49.5 -41t17.5 -63zM354 720h38l-125 -160h-40l-125 160h38l107 -137z" />
    <glyph glyph-name="Tcommaaccent" unicode="&#x162;" horiz-adv-x="572" 
d="M271 0v670h-250v30h530v-30h-250v-670h-30zM293 -151q-15 0 -25 8.5t-10 22.5q0 13 8 21.5t20 8.5q14 0 23.5 -13t9.5 -33q0 -46 -37 -95l-17 13q28 37 28 67z" />
    <glyph glyph-name="tcommaaccent" unicode="&#x163;" horiz-adv-x="352" 
d="M121 100v370h-90v30h90v112h30v-112h140v-30h-140v-370q0 -40 22 -65t62 -25q33 0 66 10v-30q-28 -10 -70 -10q-49 0 -79.5 33t-30.5 87zM228 -151h-2q-15 0 -24 8.5t-9 22.5q0 13 8 21.5t20 8.5q14 0 23.5 -13t9.5 -33q0 -46 -38 -94l-16 12q28 37 28 67z" />
    <glyph glyph-name="Tcaron" unicode="&#x164;" horiz-adv-x="572" 
d="M271 0v670h-250v30h530v-30h-250v-670h-30zM393 900h38l-125 -160h-40l-125 160h38l107 -137z" />
    <glyph glyph-name="tcaron" unicode="&#x165;" horiz-adv-x="352" 
d="M121 100v370h-90v30h90v112h30v-112h140v-30h-140v-370q0 -40 22 -65t62 -25q33 0 66 10v-30q-28 -10 -70 -10q-49 0 -79.5 33t-30.5 87zM256 640h-2q-15 0 -24 8.5t-9 22.5q0 13 8 21.5t20 8.5q14 0 23.5 -13t9.5 -33q0 -46 -38 -94l-16 12q28 37 28 67z" />
    <glyph glyph-name="Utilde" unicode="&#x168;" horiz-adv-x="692" 
d="M581 280v420h30v-420q0 -137 -73 -221t-192 -84t-192 84t-73 221v420h30v-420q0 -125 64 -200t171 -75t171 75t64 200zM211 805l-25 15q10 22 35.5 36t56.5 14q33 0 71 -25t66 -25q51 0 68 38l27 -13q-11 -24 -37.5 -39.5t-59.5 -15.5q-34 0 -72 25t-64 25q-47 0 -66 -35
z" />
    <glyph glyph-name="utilde" unicode="&#x169;" 
d="M511 500v-500h-30v100q-25 -55 -80.5 -87.5t-122.5 -32.5q-93 0 -145 63.5t-52 166.5v290h30v-290q0 -90 43.5 -145t123.5 -55q82 0 142.5 54.5t60.5 135.5v300h30zM171 598l-25 16q10 22 34.5 36t50.5 14q32 0 77 -30t69 -30q21 0 40 11t26 27l27 -13
q-10 -24 -36.5 -39.5t-55.5 -15.5q-34 0 -78.5 30t-67.5 30q-42 0 -61 -36z" />
    <glyph glyph-name="Umacron" unicode="&#x16a;" horiz-adv-x="692" 
d="M581 280v420h30v-420q0 -137 -73 -221t-192 -84t-192 84t-73 221v420h30v-420q0 -125 64 -200t171 -75t171 75t64 200zM503 830v-30h-314v30h314z" />
    <glyph glyph-name="umacron" unicode="&#x16b;" 
d="M511 0h-30v100q-25 -55 -80.5 -87.5t-122.5 -32.5q-93 0 -145 63.5t-52 166.5v290h30v-290q0 -90 43.5 -145t123.5 -55q82 0 142.5 54.5t60.5 135.5v300h30v-500zM453 620v-30h-314v30h314z" />
    <glyph glyph-name="Ubreve" unicode="&#x16c;" horiz-adv-x="692" 
d="M581 280v420h30v-420q0 -137 -73 -221t-192 -84t-192 84t-73 221v420h30v-420q0 -125 64 -200t171 -75t171 75t64 200zM436 900h29q1 -56 -33 -93t-86 -37t-86 37t-34 93h30q0 -43 25.5 -71.5t64.5 -28.5t64.5 28.5t25.5 71.5z" />
    <glyph glyph-name="ubreve" unicode="&#x16d;" 
d="M511 500v-500h-30v100q-25 -55 -80.5 -87.5t-122.5 -32.5q-93 0 -145 63.5t-52 166.5v290h30v-290q0 -90 43.5 -145t123.5 -55q82 0 142.5 54.5t60.5 135.5v300h30zM385 700h30q0 -61 -34 -100.5t-86 -39.5t-86 39.5t-34 100.5h30q0 -48 25.5 -79t64.5 -31q40 0 65 31
t25 79z" />
    <glyph glyph-name="Uring" unicode="&#x16e;" horiz-adv-x="692" 
d="M345 960q-37 0 -61 -24t-24 -61t24 -61t61 -24t61 24t24 61t-24 61t-61 24zM581 280v420h30v-420q0 -137 -73 -221t-192 -84t-192 84t-73 221v420h30v-420q0 -125 64 -200t171 -75t171 75t64 200zM346 760q-50 0 -83 32.5t-33 82.5t33 82.5t83 32.5t82 -32.5t32 -82.5
t-32 -82.5t-82 -32.5z" />
    <glyph glyph-name="uring" unicode="&#x16f;" 
d="M295 750q-37 0 -61 -24t-24 -61t24 -61t61 -24t61 24t24 61t-24 61t-61 24zM511 500v-500h-30v100q-25 -55 -80.5 -87.5t-122.5 -32.5q-93 0 -145 63.5t-52 166.5v290h30v-290q0 -90 43.5 -145t123.5 -55q82 0 142.5 54.5t60.5 135.5v300h30zM296 550q-50 0 -83 32.5
t-33 82.5t33 82.5t83 32.5t82 -32.5t32 -82.5t-32 -82.5t-82 -32.5z" />
    <glyph glyph-name="Uhungarumlaut" unicode="&#x170;" horiz-adv-x="692" 
d="M581 280v420h30v-420q0 -137 -73 -221t-192 -84t-192 84t-73 221v420h30v-420q0 -125 64 -200t171 -75t171 75t64 200zM352 910h38l-107 -140h-37zM492 910h38l-107 -140h-37z" />
    <glyph glyph-name="uhungarumlaut" unicode="&#x171;" 
d="M511 0h-30v100q-25 -55 -80.5 -87.5t-122.5 -32.5q-93 0 -145 63.5t-52 166.5v290h30v-290q0 -90 43.5 -145t123.5 -55q82 0 142.5 54.5t60.5 135.5v300h30v-500zM327 740h38l-133 -180h-36zM468 740h37l-133 -180h-36z" />
    <glyph glyph-name="Uogonek" unicode="&#x172;" horiz-adv-x="692" 
d="M367 -24q-7 -1 -21 -1q-119 0 -192 84t-73 221v420h30v-420q0 -125 64 -200t171 -75t171 75t64 200v420h30v-420q0 -113 -51 -191.5t-139 -103.5q-63 -37 -65 -106q0 -56 50 -92.5t127 -36.5v-30q-90 0 -148.5 44.5t-58.5 112.5q1 56 41 99z" />
    <glyph glyph-name="uogonek" unicode="&#x173;" horiz-adv-x="673" 
d="M481 18v82q-25 -55 -80.5 -87.5t-122.5 -32.5q-93 0 -145 63.5t-52 166.5v290h30v-290q0 -90 43.5 -145t123.5 -55q82 0 142.5 54.5t60.5 135.5v300h30v-500h-9q-41 -13 -68 -46.5t-28 -73.5q0 -56 50 -92.5t127 -36.5v-30q-90 0 -148.5 44.5t-58.5 112.5q1 48 30 86
t75 54z" />
    <glyph glyph-name="Wcircumflex" unicode="&#x174;" horiz-adv-x="976" 
d="M508 700l200 -664l206 664h31l-217 -700h-40l-200 661l-200 -661h-40l-217 700h31l206 -664l200 664h40zM379 770h-42l129 140h40l128 -140h-40l-108 118z" />
    <glyph glyph-name="wcircumflex" unicode="&#x175;" horiz-adv-x="868" 
d="M269 0h-40l-178 500h32l166 -467l164 467h40l166 -467l166 467h32l-178 -500h-40l-166 466zM327 560h-38l125 160h40l125 -160h-38l-107 137z" />
    <glyph glyph-name="Ycircumflex" unicode="&#x176;" horiz-adv-x="556" 
d="M263 0v290l-242 410h35l222 -377l222 377h35l-242 -410v-290h-30zM171 770h-42l129 140h40l128 -140h-40l-108 118z" />
    <glyph glyph-name="ycircumflex" unicode="&#x177;" horiz-adv-x="560" 
d="M61 -210v30q32 -10 59 -10q49 0 81 45t77 150l-237 495h34l219 -459l193 459h32l-210 -500q-48 -115 -88 -167.5t-103 -52.5q-32 0 -57 10zM174 560h-38l125 160h40l125 -160h-38l-107 137z" />
    <glyph glyph-name="Ydieresis" unicode="&#x178;" horiz-adv-x="556" 
d="M263 0v290l-242 410h35l222 -377l222 377h35l-242 -410v-290h-30zM178 780q-13 0 -21.5 8.5t-8.5 21.5t8.5 21.5t21.5 8.5t21.5 -8.5t8.5 -21.5t-8.5 -21.5t-21.5 -8.5zM378 780q-13 0 -21.5 8.5t-8.5 21.5t8.5 21.5t21.5 8.5t21.5 -8.5t8.5 -21.5t-8.5 -21.5t-21.5 -8.5
z" />
    <glyph glyph-name="Zacute" unicode="&#x179;" 
d="M31 20l485 650h-475v30h520v-20l-485 -650h495v-30h-540v20zM384 910h37l-103 -140h-37z" />
    <glyph glyph-name="zacute" unicode="&#x17a;" horiz-adv-x="542" 
d="M51 20l382 450h-372v30h420v-20l-382 -450h392v-30h-440v20zM364 720h37l-113 -160h-37z" />
    <glyph glyph-name="Zdotaccent" unicode="&#x17b;" 
d="M31 20l485 650h-475v30h520v-20l-485 -650h495v-30h-540v20zM301 797q-13 0 -21.5 8.5t-8.5 21.5t8.5 21.5t21.5 8.5t21.5 -8.5t8.5 -21.5t-8.5 -21.5t-21.5 -8.5z" />
    <glyph glyph-name="zdotaccent" unicode="&#x17c;" horiz-adv-x="542" 
d="M51 20l382 450h-372v30h420v-20l-382 -450h392v-30h-440v20zM272 590q-13 0 -21.5 8.5t-8.5 21.5q0 14 8 22t22 8q13 0 21.5 -8.5t8.5 -21.5t-8.5 -21.5t-21.5 -8.5z" />
    <glyph glyph-name="Zcaron" unicode="&#x17d;" 
d="M31 20l485 650h-475v30h520v-20l-485 -650h495v-30h-540v20zM408 930h38l-125 -160h-40l-125 160h38l107 -137z" />
    <glyph glyph-name="zcaron" unicode="&#x17e;" horiz-adv-x="542" 
d="M51 20l382 450h-372v30h420v-20l-382 -450h392v-30h-440v20zM378 720h38l-125 -160h-40l-125 160h38l107 -137z" />
    <glyph glyph-name="Aacutering" unicode="&#x1fa;" horiz-adv-x="638" 
d="M319 670l-191 -480h381zM317 850q-24 0 -39.5 -15t-15.5 -38q0 -25 15 -40.5t40 -15.5q24 0 40 15.5t16 40.5q0 23 -15.5 38t-40.5 15zM116 160l-63 -160h-32l278 700h40l278 -700h-32l-64 160h-405zM317 711q-37 0 -61 24t-24 61t24 60.5t61 23.5t61 -23.5t24 -60.5
t-24.5 -61t-60.5 -24zM301 890l73 90h37l-73 -90h-37z" />
    <glyph glyph-name="aacutering" unicode="&#x1fb;" horiz-adv-x="662" 
d="M311 10q97 0 163.5 68.5t66.5 171.5t-66.5 171.5t-163.5 68.5q-100 0 -165 -68t-65 -172t65 -172t165 -68zM327 700q-24 0 -39.5 -15t-15.5 -38q0 -25 15 -40.5t40 -15.5q24 0 40 15.5t16 40.5q0 23 -15.5 38t-40.5 15zM541 369v131h30v-500h-30v131q-27 -69 -88.5 -110
t-141.5 -41q-114 0 -187 76t-73 194t73 194t187 76q80 0 141.5 -41t88.5 -110zM327 561q-37 0 -61 24t-24 61t24 60.5t61 23.5t61 -23.5t24 -60.5t-24.5 -61t-60.5 -24zM331 770l103 140h37l-103 -140h-37z" />
    <glyph glyph-name="AEacute" unicode="&#x1fc;" horiz-adv-x="873" 
d="M155 190h256v483zM441 30h380v-30h-410v160h-272l-85 -160h-33l370 700h420v-29h-370v-301h330v-30h-330v-310zM511 760l103 140h37l-103 -140h-37z" />
    <glyph glyph-name="aeacute" unicode="&#x1fd;" horiz-adv-x="1102" 
d="M311 490q-100 0 -165 -68t-65 -172q0 -103 65 -171t165 -69q100 0 165 68t65 172t-65 172t-165 68zM571 260h450q0 99 -66 164.5t-164 65.5q-95 0 -157.5 -66.5t-62.5 -163.5zM541 373v127h30v-120q30 64 89.5 102t130.5 38q113 0 186.5 -73.5t73.5 -186.5q0 -4 -0.5 -14
t-0.5 -16h-478q9 -99 69 -159.5t151 -60.5q74 0 134 39.5t82 103.5l27 -9q-20 -71 -89 -117.5t-154 -46.5q-76 0 -134.5 38.5t-86.5 107.5v-126h-30v127q-30 -68 -91 -107.5t-139 -39.5q-113 0 -186.5 76t-73.5 194t73.5 194t186.5 76q78 0 139 -39.5t91 -107.5zM530 570
l113 160h37l-113 -160h-37z" />
    <glyph glyph-name="Oslashacute" unicode="&#x1fe;" horiz-adv-x="842" 
d="M421 695q-144 0 -237 -97.5t-93 -247.5q0 -103 46 -183.5t126 -123.5l312 616q-70 36 -154 36zM421 5q143 0 236.5 97t93.5 248q0 95 -40 172t-110 122l-310 -614q61 -25 130 -25zM277 3l-72 -143h-35l79 156q-87 46 -137.5 133.5t-50.5 200.5q0 163 101.5 269t258.5 106
q90 0 168 -39l88 174h34l-96 -189q78 -49 122 -133t44 -188q0 -163 -101.5 -269t-258.5 -106q-77 0 -144 28zM421 760l103 140h37l-103 -140h-37z" />
    <glyph glyph-name="oslashacute" unicode="&#x1ff;" horiz-adv-x="622" 
d="M311 490q-100 0 -165 -68t-65 -172q0 -71 32 -127t87 -86l218 428q-48 25 -107 25zM311 10q100 0 165 68t65 172q0 131 -97 199l-216 -425q39 -14 83 -14zM214 -3l-39 -77h-34l45 90q-63 33 -99 96t-36 144q0 118 73.5 194t186.5 76q65 0 121 -28l55 108h34l-63 -123
q53 -36 83 -95t30 -132q0 -118 -73.5 -194t-186.5 -76q-51 0 -97 17zM404 720h37l-113 -160h-37z" />
    <glyph glyph-name="Scommaaccent" unicode="&#x218;" horiz-adv-x="689" 
d="M618 193q0 -96 -76.5 -157t-194.5 -61q-120 0 -198 70t-78 177h30q0 -96 69.5 -156.5t177.5 -60.5q105 0 172.5 52t67.5 135q0 25 -7.5 44.5t-17.5 33.5t-30.5 25t-36 17t-45.5 12t-47.5 8.5t-52.5 6.5q-40 5 -66 9.5t-61 12.5t-57 20.5t-42.5 30t-30.5 44t-10 59.5
q0 91 71 150.5t183 59.5q117 0 195 -65t78 -164h-30q0 86 -68.5 142.5t-174.5 56.5q-99 0 -161.5 -50t-62.5 -128q0 -29 8.5 -51t28 -37t38 -24.5t52.5 -17t55 -10.5t62 -8t65.5 -9.5t59 -13t55 -20.5t41 -29.5t30 -44t9.5 -59.5zM345 -151h-2q-15 0 -24 9t-9 23
q0 13 7.5 21t20.5 8q14 0 23.5 -13t9.5 -33q0 -46 -38 -94l-16 12q28 38 28 67z" />
    <glyph glyph-name="scommaaccent" unicode="&#x219;" horiz-adv-x="505" 
d="M454 134q0 -67 -55.5 -110.5t-139.5 -43.5q-91 0 -149.5 49.5t-58.5 126.5h30q0 -64 50 -105t127 -41q72 0 119 35t47 88q0 29 -14 49.5t-42 32t-54.5 17.5t-64.5 10q-39 5 -67.5 12t-56.5 20.5t-43 38t-15 58.5q0 65 52 107t130 42q83 0 138 -46.5t55 -118.5h-30
q0 59 -46 97t-116 38q-66 0 -109.5 -33.5t-43.5 -84.5q0 -48 40.5 -70t117.5 -30q40 -5 70 -12t62 -22t49.5 -41t17.5 -63zM253 -151h-2q-15 0 -24 8.5t-9 22.5q0 13 8 21.5t20 8.5q14 0 23.5 -13t9.5 -33q0 -46 -38 -94l-16 12q28 37 28 67z" />
    <glyph glyph-name="circumflex" unicode="&#x2c6;" horiz-adv-x="392" 
d="M51 570l125 160h40l125 -160h-38l-107 137l-107 -137h-38z" />
    <glyph glyph-name="caron" unicode="&#x2c7;" horiz-adv-x="392" 
d="M303 730h38l-125 -160h-40l-125 160h38l107 -137z" />
    <glyph glyph-name="breve" unicode="&#x2d8;" horiz-adv-x="342" 
d="M261 730h30q0 -61 -34 -100.5t-86 -39.5t-86 39.5t-34 100.5h30q0 -48 25.5 -79t64.5 -31t64.5 31t25.5 79z" />
    <glyph glyph-name="dotaccent" unicode="&#x2d9;" horiz-adv-x="162" 
d="M81 560q-13 0 -21.5 8.5t-8.5 21.5q0 14 8.5 22t21.5 8t21.5 -8.5t8.5 -21.5t-8.5 -21.5t-21.5 -8.5z" />
    <glyph glyph-name="ring" unicode="&#x2da;" horiz-adv-x="332" 
d="M167 540q-51 0 -83.5 32.5t-32.5 82.5t32.5 82.5t83.5 32.5q50 0 82 -32.5t32 -82.5t-32 -82.5t-82 -32.5zM166 740q-37 0 -61 -24t-24 -61t24 -61t61 -24t61 24t24 61t-24 61t-61 24z" />
    <glyph glyph-name="ogonek" unicode="&#x2db;" horiz-adv-x="308" 
d="M170 21l10 -21q-43 -13 -71 -46.5t-28 -74.5q-1 -56 49.5 -92.5t126.5 -36.5v-30q-90 0 -148.5 44.5t-57.5 112.5q0 51 33.5 91.5t85.5 52.5z" />
    <glyph glyph-name="tilde" unicode="&#x2dc;" horiz-adv-x="426" 
d="M76 598l-25 16q10 22 34.5 36t50.5 14q32 0 77 -30t69 -30q21 0 40 11t26 27l27 -13q-10 -24 -36.5 -39.5t-55.5 -15.5q-34 0 -78.5 30t-67.5 30q-42 0 -61 -36z" />
    <glyph glyph-name="hungarumlaut" unicode="&#x2dd;" horiz-adv-x="410" 
d="M182 750h38l-133 -180h-36zM323 750h37l-133 -180h-36z" />
    <glyph glyph-name="Wgrave" unicode="&#x1e80;" horiz-adv-x="976" 
d="M508 700l200 -664l206 664h31l-217 -700h-40l-200 661l-200 -661h-40l-217 700h31l206 -664l200 664h40zM366 910h37l103 -140h-38z" />
    <glyph glyph-name="wgrave" unicode="&#x1e81;" horiz-adv-x="868" 
d="M269 0h-40l-178 500h32l166 -467l164 467h40l166 -467l166 467h32l-178 -500h-40l-166 466zM304 720h37l113 -160h-37z" />
    <glyph glyph-name="Wacute" unicode="&#x1e82;" horiz-adv-x="976" 
d="M508 700l200 -664l206 664h31l-217 -700h-40l-200 661l-200 -661h-40l-217 700h31l206 -664l200 664h40zM569 910h37l-103 -140h-37z" />
    <glyph glyph-name="wacute" unicode="&#x1e83;" horiz-adv-x="868" 
d="M269 0h-40l-178 500h32l166 -467l164 467h40l166 -467l166 467h32l-178 -500h-40l-166 466zM527 720h37l-113 -160h-37z" />
    <glyph glyph-name="Wdieresis" unicode="&#x1e84;" horiz-adv-x="976" 
d="M508 700l200 -664l206 664h31l-217 -700h-40l-200 661l-200 -661h-40l-217 700h31l206 -664l200 664h40zM386 780q-13 0 -21.5 8.5t-8.5 21.5t8.5 21.5t21.5 8.5t21.5 -8.5t8.5 -21.5t-8.5 -21.5t-21.5 -8.5zM586 780q-13 0 -21.5 8.5t-8.5 21.5t8.5 21.5t21.5 8.5
t21.5 -8.5t8.5 -21.5t-8.5 -21.5t-21.5 -8.5z" />
    <glyph glyph-name="wdieresis" unicode="&#x1e85;" horiz-adv-x="868" 
d="M269 0h-40l-178 500h32l166 -467l164 467h40l166 -467l166 467h32l-178 -500h-40l-166 466zM324 585q-14 0 -22 8.5t-8 21.5t8 21.5t22 8.5t22 -8.5t8 -21.5t-8 -21.5t-22 -8.5zM544 585q-14 0 -22 8.5t-8 21.5t8 21.5t22 8.5t22 -8.5t8 -21.5t-8 -21.5t-22 -8.5z" />
    <glyph glyph-name="Germandbls" unicode="&#x1e9e;" horiz-adv-x="632" 
d="M111 480v-480h-30v480q0 102 63 168.5t160 66.5q84 0 140.5 -53t56.5 -128q0 -66 -42.5 -106t-116.5 -52q101 -13 160 -65.5t59 -139.5q0 -85 -55.5 -140.5t-141.5 -55.5q-94 0 -156 53l11 29q57 -52 144 -52q74 0 121 46.5t47 120.5q-1 86 -73 137t-186 51h-31v30h34
q87 0 141.5 39t54.5 104q0 63 -47.5 107.5t-119.5 44.5q-84 0 -138.5 -58t-54.5 -147z" />
    <glyph glyph-name="Ygrave" unicode="&#x1ef2;" horiz-adv-x="556" 
d="M263 0v290l-242 410h35l222 -377l222 377h35l-242 -410v-290h-30zM168 910h37l103 -140h-38z" />
    <glyph glyph-name="ygrave" unicode="&#x1ef3;" horiz-adv-x="518" 
d="M40 -210v30q32 -10 59 -10q49 0 81 45t78 150l-238 495h34l219 -459l193 459h32l-210 -500q-48 -115 -88 -167.5t-102 -52.5q-33 0 -58 10zM253 560l-113 160h37l113 -160h-37z" />
    <glyph glyph-name="endash" unicode="&#x2013;" horiz-adv-x="652" 
d="M611 331v-30h-570v30h570z" />
    <glyph glyph-name="emdash" unicode="&#x2014;" horiz-adv-x="812" 
d="M21 331h770v-30h-770v30z" />
    <glyph glyph-name="quoteleft" unicode="&#x2018;" horiz-adv-x="170" 
d="M82 630q14 0 24 -8.5t10 -21.5t-8.5 -21.5t-21.5 -8.5q-16 0 -25.5 11.5t-9.5 29.5q0 36 15.5 69.5t39.5 49.5l13 -15q-16 -11 -26.5 -35t-10.5 -50z" />
    <glyph glyph-name="quoteright" unicode="&#x2019;" horiz-adv-x="170" 
d="M88 660q-15 0 -24.5 8.5t-9.5 21.5t8.5 21.5t21.5 8.5q15 0 25 -11.5t10 -29.5q0 -36 -15.5 -69.5t-39.5 -49.5l-13 15q16 11 26.5 35t10.5 50z" />
    <glyph glyph-name="quotesinglbase" unicode="&#x201a;" horiz-adv-x="170" 
d="M88 -10q-15 0 -24.5 8.5t-9.5 21.5t8.5 21.5t21.5 8.5q15 0 25 -11.5t10 -29.5q0 -36 -15.5 -69.5t-39.5 -49.5l-13 15q16 11 26.5 35t10.5 50z" />
    <glyph glyph-name="quotedblleft" unicode="&#x201c;" horiz-adv-x="289" 
d="M118 600q0 -13 -8.5 -21.5t-21.5 -8.5q-15 0 -25 11.5t-10 29.5q0 36 15.5 69.5t39.5 49.5l13 -15q-16 -11 -26.5 -35t-10.5 -50q15 0 24.5 -8.5t9.5 -21.5zM233 600q0 -13 -8.5 -21.5t-21.5 -8.5q-15 0 -25 11.5t-10 29.5q0 36 15.5 69.5t39.5 49.5l13 -15
q-16 -11 -26.5 -35t-10.5 -50q15 0 24.5 -8.5t9.5 -21.5z" />
    <glyph glyph-name="quotedblright" unicode="&#x201d;" horiz-adv-x="285" 
d="M56 690q0 13 8.5 21.5t21.5 8.5q15 0 25 -11.5t10 -29.5q0 -36 -15.5 -69.5t-39.5 -49.5l-13 15q16 11 26.5 35t10.5 50q-15 0 -24.5 8.5t-9.5 21.5zM170 690q0 13 8.5 21.5t21.5 8.5q16 0 25.5 -11.5t9.5 -29.5q0 -36 -15.5 -69.5t-39.5 -49.5l-13 15q16 11 26.5 35
t10.5 50q-14 0 -24 8.5t-10 21.5z" />
    <glyph glyph-name="quotedblbase" unicode="&#x201e;" horiz-adv-x="286" 
d="M53 20q0 13 8.5 21.5t21.5 8.5q15 0 25 -11.5t10 -29.5q0 -36 -15.5 -69.5t-39.5 -49.5l-13 15q16 11 26.5 35t10.5 50q-15 0 -24.5 8.5t-9.5 21.5zM168 20q0 13 8.5 21.5t21.5 8.5q15 0 25 -11.5t10 -29.5q0 -36 -15.5 -69.5t-39.5 -49.5l-13 15q16 11 26.5 35t10.5 50
q-15 0 -24.5 8.5t-9.5 21.5z" />
    <glyph glyph-name="bullet" unicode="&#x2022;" horiz-adv-x="162" 
d="M81 280q-13 0 -21.5 8.5t-8.5 21.5t8.5 21.5t21.5 8.5t21.5 -8.5t8.5 -21.5t-8.5 -21.5t-21.5 -8.5z" />
    <glyph glyph-name="ellipsis" unicode="&#x2026;" horiz-adv-x="422" 
d="M81 -10q-13 0 -21.5 8t-8.5 22q0 13 8.5 21.5t21.5 8.5t21.5 -8.5t8.5 -21.5t-8.5 -21.5t-21.5 -8.5zM211 -10q-13 0 -21.5 8t-8.5 22q0 13 8.5 21.5t21.5 8.5t21.5 -8.5t8.5 -21.5t-8.5 -21.5t-21.5 -8.5zM341 -10q-13 0 -21.5 8t-8.5 22q0 13 8.5 21.5t21.5 8.5
t21.5 -8.5t8.5 -21.5t-8.5 -21.5t-21.5 -8.5z" />
    <glyph glyph-name="perthousand" unicode="&#x2030;" horiz-adv-x="1497" 
d="M563 190q0 87 57 143.5t145 56.5t145 -56.5t57 -143.5t-57 -143.5t-145 -56.5t-145 56.5t-57 143.5zM937 191q0 73 -48.5 121t-122.5 48q-76 0 -125 -47.5t-49 -121.5t49 -122.5t125 -48.5q74 0 122.5 48.5t48.5 122.5zM1042 189q0 87 57.5 143.5t145.5 56.5
q87 0 144 -56.5t57 -143.5t-57 -143.5t-145 -56.5t-145 56.5t-57 143.5zM1417 190q0 74 -48.5 121.5t-123.5 47.5t-124 -48t-49 -121q0 -74 49 -122.5t124 -48.5t123.5 48.5t48.5 122.5zM51 540q0 87 57 143.5t145 56.5t145 -56.5t57 -143.5t-57 -143.5t-145 -56.5
t-145 56.5t-57 143.5zM425 541q0 73 -48.5 121t-122.5 48q-76 0 -125 -47.5t-49 -121.5t49 -122.5t125 -48.5q74 0 122.5 48.5t48.5 122.5zM741 730h34l-499 -730h-33z" />
    <glyph glyph-name="guilsinglleft" unicode="&#x2039;" horiz-adv-x="340" 
d="M289 500l-209 -250l209 -250h-40l-208 250l209 250h39z" />
    <glyph glyph-name="guilsinglright" unicode="&#x203a;" horiz-adv-x="340" 
d="M299 250l-209 -250h-39l209 250l-209 250h39z" />
    <glyph glyph-name="lira" unicode="&#x20a4;" horiz-adv-x="565" 
d="M330 695q-59 0 -99 -47t-40 -118v-160h270v-30h-270q0 -37 -3 -70h273v-30h-275q-16 -173 -96 -210h421v-30h-460v50q42 6 69 49t36 141h-95v30h97q3 32 3 70h-100v30h100v160q0 84 48.5 139.5t120.5 55.5q74 0 125 -58.5t59 -149.5l-30 -5q-8 80 -50.5 131.5
t-103.5 51.5z" />
    <glyph glyph-name="Euro" unicode="&#x20ac;" horiz-adv-x="879" 
d="M490 5q111 0 195.5 64t104.5 159l28 -7q-21 -104 -113.5 -175t-214.5 -71q-139 0 -238 81.5t-124 213.5h-77v30h72q-3 24 -3 50q0 22 4 60h-73v30h79q27 128 125 206.5t235 78.5q120 0 212.5 -73.5t115.5 -181.5l-30 -5q-21 98 -105 164t-193 66q-124 0 -213.5 -70
t-116.5 -185h391v-30h-396q-5 -32 -5 -60q0 -26 3 -50h398v-30h-393q25 -119 115 -192t217 -73z" />
    <glyph glyph-name="trademark" unicode="&#x2122;" horiz-adv-x="1042" 
d="M171 150v520h-160v30h350v-30h-160v-520h-30zM931 668l-210 -518h-30l-210 518v-518h-30v550h50l205 -508l205 508h50v-550h-30v518z" />
    <glyph glyph-name="minus" unicode="&#x2212;" horiz-adv-x="512" 
d="M51 331h410v-30h-410v30z" />
    <glyph glyph-name="approxequal" unicode="&#x2248;" horiz-adv-x="620" 
 />
    <glyph glyph-name="notequal" unicode="&#x2260;" horiz-adv-x="572" 
d="M51 207h184l79 211h-263v30h274l71 188h32l-71 -188h164v-30h-175l-79 -211h254v-30h-265l-81 -217h-33l81 217h-172v30z" />
    <glyph glyph-name="lessequal" unicode="&#x2264;" horiz-adv-x="422" 
d="M361 30v-30h-340v30h340zM21 330l340 180v-34l-314 -166l314 -167v-34l-340 181v40z" />
    <glyph glyph-name="greaterequal" unicode="&#x2265;" horiz-adv-x="422" 
d="M61 30h340v-30h-340v30zM61 143l314 167l-314 166v34l340 -180v-40l-340 -181v34z" />
    <glyph glyph-name="commaaccent" unicode="&#xf6c3;" horiz-adv-x="162" 
d="M86 -10h-2q-15 0 -24 8.5t-9 22.5q0 13 8 21.5t20 8.5q14 0 23.5 -13t9.5 -33q0 -46 -38 -94l-16 12q28 37 28 67z" />
    <glyph glyph-name="acute.case" horiz-adv-x="242" 
d="M191 730l-103 -140h-37l103 140h37z" />
    <glyph glyph-name="breve.case" horiz-adv-x="341" 
d="M261 730h29q1 -56 -33 -93t-86 -37t-86 37t-34 93h30q0 -43 25.5 -71.5t64.5 -28.5t64.5 28.5t25.5 71.5z" />
    <glyph glyph-name="caron.case" horiz-adv-x="399" 
d="M308 730h40l-128 -140h-40l-129 140h42l107 -118z" />
    <glyph glyph-name="circumflex.case" horiz-adv-x="399" 
d="M51 590l129 140h40l128 -140h-40l-108 118l-107 -118h-42z" />
    <glyph glyph-name="dieresis.case" horiz-adv-x="362" 
d="M81 590q-13 0 -21.5 8.5t-8.5 21.5t8.5 21.5t21.5 8.5t21.5 -8.5t8.5 -21.5t-8.5 -21.5t-21.5 -8.5zM281 590q-13 0 -21.5 8.5t-8.5 21.5t8.5 21.5t21.5 8.5t21.5 -8.5t8.5 -21.5t-8.5 -21.5t-21.5 -8.5z" />
    <glyph glyph-name="dotaccent.case" horiz-adv-x="162" 
d="M81 587q-13 0 -21.5 8.5t-8.5 21.5t8.5 21.5t21.5 8.5t21.5 -8.5t8.5 -21.5t-8.5 -21.5t-21.5 -8.5z" />
    <glyph glyph-name="grave.case" horiz-adv-x="242" 
d="M51 740h37l103 -140h-38z" />
    <glyph glyph-name="hungarumlaut.case" horiz-adv-x="385" 
d="M157 730h38l-107 -140h-37zM297 730h38l-107 -140h-37z" />
    <glyph glyph-name="ijacute" horiz-adv-x="397" 
d="M87 500h30v-500h-30v500zM283 -111v611h30v-610q0 -48 -29 -79t-75 -31q-30 0 -67 13v31q40 -14 66 -14q34 0 54.5 22t20.5 57zM194 730h37l-113 -160h-37zM389 730h37l-113 -160h-37z" />
    <glyph glyph-name="ring.case" horiz-adv-x="272" 
d="M136 541q-37 0 -61 24t-24 61t24 60.5t61 23.5t61 -23.5t24 -60.5t-24.5 -61t-60.5 -24zM137 680q-25 0 -40.5 -15t-15.5 -38q0 -25 15.5 -40.5t40.5 -15.5q23 0 39 15.5t16 40.5q0 23 -15.5 38t-39.5 15z" />
    <glyph glyph-name="tilde.case" horiz-adv-x="426" 
d="M76 605l-25 15q10 22 35.5 36t56.5 14q33 0 71 -25t66 -25q51 0 68 38l27 -13q-11 -24 -37.5 -39.5t-59.5 -15.5q-34 0 -72 25t-64 25q-47 0 -66 -35z" />
    </font>
</defs>
</svg>
