<?xml version="1.0" standalone="no"?>
<!DOCTYPE svg PUBLIC "-//W3C//DTD SVG 1.1//EN" "http://www.w3.org/Graphics/SVG/1.1/DTD/svg11.dtd" >
<svg xmlns="http://www.w3.org/2000/svg" xmlns:xlink="http://www.w3.org/1999/xlink" version="1.1">
<metadata>
Created by FontForge 20170731 at Wed May 30 16:37:21 2018
 By Aleksey,,,
Copyright (c) 2017 by Alexander Slobzheninov. All rights reserved.
</metadata>
<defs>
<font id="Objectivity-Black" horiz-adv-x="642" >
  <font-face 
    font-family="Objectivity Black"
    font-weight="900"
    font-stretch="normal"
    units-per-em="1000"
    panose-1="0 0 0 0 0 0 0 0 0 0"
    ascent="800"
    descent="-200"
    x-height="520"
    cap-height="720"
    bbox="-79 -401 1591 1150"
    underline-thickness="50"
    underline-position="-225"
    unicode-range="U+000D-F6C3"
  />
<missing-glyph horiz-adv-x="500" 
 />
    <glyph glyph-name=".notdef" horiz-adv-x="500" 
 />
    <glyph glyph-name=".null" horiz-adv-x="0" 
 />
    <glyph glyph-name="nonmarkingreturn" horiz-adv-x="333" 
 />
    <glyph glyph-name="NULL" horiz-adv-x="742" 
d="M681 720v-720h-620v720h620zM261 170h220v380h-220v-380z" />
    <glyph glyph-name="NULL" horiz-adv-x="742" 
d="M681 720v-720h-620v720h620zM261 170h220v380h-220v-380z" />
    <glyph glyph-name="CR" unicode="&#xd;" horiz-adv-x="30" 
 />
    <glyph glyph-name="space" unicode=" " horiz-adv-x="300" 
 />
    <glyph glyph-name="exclam" unicode="!" horiz-adv-x="372" 
d="M186 -20q-54 0 -89.5 34t-35.5 86t35.5 86t89.5 34q55 0 90 -33.5t35 -86.5t-35 -86.5t-90 -33.5zM301 720v-200l-60 -260h-110l-60 260v200h230z" />
    <glyph glyph-name="quotedbl" unicode="&#x22;" horiz-adv-x="452" 
d="M191 580l-30 -240h-100l-30 240v140h160v-140zM421 580l-30 -240h-100l-30 240v140h160v-140z" />
    <glyph glyph-name="numbersign" unicode="#" horiz-adv-x="912" 
d="M511 420h-106l-25 -90h107zM680 330h151v-150h-191l-49 -180h-194l49 180h-106l-49 -180h-194l49 180h-115v150h156l24 90h-130v150h171l49 180h194l-50 -180h107l49 180h194l-50 -180h136v-150h-176z" />
    <glyph glyph-name="dollar" unicode="$" horiz-adv-x="731" 
d="M486 -8v-115h-240v112q-97 26 -154.5 93t-57.5 157h222q0 -36 31.5 -60t77.5 -24q35 0 58 14t23 36q0 14 -8 23.5t-27 15.5t-35 8.5t-47 5.5q-51 6 -90 14t-79 25.5t-66 41.5t-42 62.5t-16 88.5q0 90 56.5 154t153.5 88v88h240v-94q88 -28 140 -90.5t52 -144.5h-212
q0 32 -28.5 53t-72.5 21q-34 0 -56.5 -13t-22.5 -32q0 -9 3.5 -16t13 -12t17 -8.5t25 -6t27.5 -4t33 -3.5q49 -5 88 -13t78.5 -24.5t65.5 -40.5t42.5 -63t16.5 -89q0 -89 -56.5 -155t-153.5 -93z" />
    <glyph glyph-name="percent" unicode="%" horiz-adv-x="1132" 
d="M641 210q0 100 65 165t165 65t165 -65t65 -165t-65 -165t-165 -65t-165 65t-65 165zM931 210q0 26 -17 43t-43 17t-43 -17t-17 -43t17 -43t43 -17t43 17t17 43zM31 540q0 100 65 165t165 65t165 -65t65 -165t-65 -165t-165 -65t-165 65t-65 165zM321 540q0 26 -17 43
t-43 17t-43 -17t-17 -43t17 -43t43 -17t43 17t17 43zM721 750h187l-497 -750h-187z" />
    <glyph glyph-name="ampersand" unicode="&#x26;" horiz-adv-x="881" 
d="M431 153q-6 5 -67 58.5t-67 58.5q-29 -15 -29 -53q0 -31 27.5 -51.5t70.5 -20.5q33 0 65 8zM390 417q135 -125 175 -160q21 32 41 83h199q-31 -106 -114 -199q32 -27 155 -141h-240l-42 37q-110 -62 -238 -62q-133 0 -211.5 59.5t-78.5 165.5q0 132 139 193
q-39 62 -39 125q0 99 73 163t183 64q103 0 177.5 -57t85.5 -145l-190 -33q-6 33 -26 54t-45 21q-24 0 -41 -20t-17 -50q0 -50 54 -98z" />
    <glyph glyph-name="quotesingle" unicode="'" horiz-adv-x="222" 
d="M191 580l-30 -240h-100l-30 240v140h160v-140z" />
    <glyph glyph-name="parenleft" unicode="(" horiz-adv-x="396" 
d="M394 -180h-203q-73 73 -116.5 198.5t-43.5 266.5t43.5 266.5t116.5 198.5h204q-75 -89 -119.5 -215t-44.5 -250t44.5 -250t118.5 -215z" />
    <glyph glyph-name="parenright" unicode=")" horiz-adv-x="395" 
d="M205 -180h-203q74 89 118.5 215t44.5 250t-45 250t-119 215h204q73 -73 116.5 -198.5t43.5 -266.5t-43.5 -266.5t-116.5 -198.5z" />
    <glyph glyph-name="asterisk" unicode="*" horiz-adv-x="518" 
d="M487 455l-75 -130l-88 62l10 -107h-150l10 107l-88 -62l-75 130l97 45l-97 45l75 130l88 -62l-10 107h150l-10 -107l88 62l75 -130l-97 -45z" />
    <glyph glyph-name="plus" unicode="+" horiz-adv-x="532" 
d="M371 90h-210v140h-130v160h130v140h210v-140h130v-160h-130v-140z" />
    <glyph glyph-name="comma" unicode="," horiz-adv-x="312" 
d="M141 -20q-48 0 -79 34t-31 86t34.5 86t85.5 34q59 0 94.5 -46.5t35.5 -122.5q0 -63 -34 -131.5t-86 -109.5l-112 20q40 38 66 80t26 70z" />
    <glyph glyph-name="hyphen" unicode="-" horiz-adv-x="472" 
d="M31 400h410v-180h-410v180z" />
    <glyph glyph-name="period" unicode="." horiz-adv-x="312" 
d="M156 -20q-54 0 -89.5 34t-35.5 86t35.5 86t89.5 34q55 0 90 -33.5t35 -86.5t-35 -86.5t-90 -33.5z" />
    <glyph glyph-name="slash" unicode="/" horiz-adv-x="520" 
d="M325 720h194l-324 -950h-194z" />
    <glyph glyph-name="zero" unicode="0" horiz-adv-x="781" 
d="M391 -25q-152 0 -251 109t-99 276t99 276t251 109t251 -109t99 -276t-99 -276t-251 -109zM391 525q-39 0 -64.5 -46.5t-25.5 -118.5t25.5 -118.5t64.5 -46.5t64.5 46.5t25.5 118.5t-25.5 118.5t-64.5 46.5z" />
    <glyph glyph-name="one" unicode="1" horiz-adv-x="521" 
d="M201 0v460l-170 -123v233l200 150h220v-720h-250z" />
    <glyph glyph-name="two" unicode="2" horiz-adv-x="677" 
d="M262 440l-222 42q10 115 97 189t212 74q120 0 203.5 -68.5t84.5 -171.5q0 -61 -30 -115.5t-80 -93.5l-149 -116h239v-180h-581v140l299 240q72 58 72 104q0 27 -17.5 44t-44.5 17q-31 0 -54.5 -29.5t-28.5 -75.5z" />
    <glyph glyph-name="three" unicode="3" horiz-adv-x="676" 
d="M344 540h-298v180h570v-130l-139 -138q71 -23 115 -84t44 -139q0 -111 -87.5 -182.5t-222.5 -71.5q-138 0 -220 76.5t-90 198.5l226 31q5 -48 26 -77t58 -29q30 0 50 22.5t20 56.5q0 33 -20 54.5t-50 21.5q-34 0 -53 -11l-47 126z" />
    <glyph glyph-name="four" unicode="4" horiz-adv-x="709" 
d="M341 530l-100 -210h100v210zM341 0v140h-330v130l240 450h350v-400h78v-180h-78v-140h-260z" />
    <glyph glyph-name="five" unicode="5" horiz-adv-x="690" 
d="M327 330h-242l25 390h495v-180h-316l-5 -70h131q105 0 172.5 -66t67.5 -168q0 -116 -87.5 -188.5t-222.5 -72.5q-138 0 -220 76.5t-90 198.5l226 31q5 -48 26 -77t58 -29q30 0 50 21.5t20 53.5q0 35 -25 57.5t-63 22.5z" />
    <glyph glyph-name="six" unicode="6" horiz-adv-x="702" 
d="M351 175q27 0 43.5 23.5t16.5 61.5q0 36 -16.5 58t-43.5 22t-43.5 -22t-16.5 -58q0 -38 16.5 -61.5t43.5 -23.5zM96 426l195 294h277l-165 -236q27 6 55 6q95 0 154 -64t59 -167q0 -127 -90.5 -205.5t-237.5 -78.5q-140 0 -226 76t-86 200q0 77 65 175z" />
    <glyph glyph-name="seven" unicode="7" horiz-adv-x="542" 
d="M541 570l-230 -570h-265l213 520h-248v200h530v-150z" />
    <glyph glyph-name="eight" unicode="8" horiz-adv-x="721" 
d="M361 290q-26 0 -43 -16t-17 -41t17 -41.5t43 -16.5t43 16.5t17 41.5t-17 41t-43 16zM361 555q-26 0 -43 -16t-17 -40q0 -26 17 -42.5t43 -16.5t43 16.5t17 42.5q0 24 -17 40t-43 16zM361 750q127 0 208.5 -58t81.5 -149q0 -54 -29 -100.5t-74 -62.5q57 -12 95 -63
t38 -114q0 -97 -90.5 -160t-229.5 -63q-140 0 -230 63t-90 160q0 63 38 114t95 63q-45 16 -74 62t-29 100q0 91 82 149.5t208 58.5z" />
    <glyph glyph-name="nine" unicode="9" horiz-adv-x="702" 
d="M351 545q-27 0 -43.5 -23.5t-16.5 -61.5q0 -36 16.5 -58t43.5 -22t43.5 22t16.5 58q0 38 -16.5 61.5t-43.5 23.5zM606 294l-195 -294h-277l165 236q-29 -6 -56 -6q-94 0 -153 64t-59 167q0 127 90.5 205.5t237.5 78.5q140 0 226 -76t86 -200q0 -74 -65 -175z" />
    <glyph glyph-name="colon" unicode=":" horiz-adv-x="312" 
d="M156 -20q-54 0 -89.5 34t-35.5 86t35.5 86t89.5 34q55 0 90 -33.5t35 -86.5t-35 -86.5t-90 -33.5zM156 320q-54 0 -89.5 34t-35.5 86t35.5 86t89.5 34q55 0 90 -33.5t35 -86.5t-35 -86.5t-90 -33.5z" />
    <glyph glyph-name="semicolon" unicode=";" horiz-adv-x="312" 
d="M141 -20q-48 0 -79 34t-31 86t34.5 86t85.5 34q59 0 94.5 -46.5t35.5 -122.5q0 -63 -34 -131.5t-86 -109.5l-112 20q40 38 66 80t26 70zM156 320q-54 0 -89.5 34t-35.5 86t35.5 86t89.5 34q55 0 90 -33.5t35 -86.5t-35 -86.5t-90 -33.5z" />
    <glyph glyph-name="less" unicode="&#x3c;" horiz-adv-x="422" 
d="M162 260l229 -80v-192l-390 172v200l390 171v-191z" />
    <glyph glyph-name="equal" unicode="=" horiz-adv-x="532" 
d="M31 260h470v-170h-470v170zM31 520h470v-170h-470v170z" />
    <glyph glyph-name="greater" unicode="&#x3e;" horiz-adv-x="421" 
d="M421 360v-200l-390 -172v192l229 80l-229 80v191z" />
    <glyph glyph-name="question" unicode="?" horiz-adv-x="671" 
d="M331 -20q-54 0 -89.5 34t-35.5 86t35.5 86t89.5 34q55 0 90 -33.5t35 -86.5t-35 -86.5t-90 -33.5zM431 240h-200q0 71 22.5 115t76.5 79q61 36 61 71q0 22 -15.5 36t-38.5 14q-30 0 -50.5 -26t-25.5 -68l-230 42q8 107 96 174.5t222 67.5q127 0 209.5 -60t82.5 -154
q0 -58 -33 -105t-87 -72q-46 -21 -68 -45t-22 -69z" />
    <glyph glyph-name="at" unicode="@" horiz-adv-x="1041" 
d="M581 260q0 26 -17 43t-43 17t-43 -17t-17 -43t17 -43t43 -17t43 17t17 43zM521 565q-143 0 -236.5 -86t-93.5 -219q0 -125 68 -206t172 -81q89 0 159 40v-149q-70 -39 -159 -39q-173 0 -286.5 123t-113.5 312t138.5 312t351.5 123t351.5 -123t138.5 -312q0 -120 -59 -190
t-181 -70q-65 0 -111.5 27.5t-56.5 71.5q-23 -26 -63 -42.5t-81 -16.5q-80 0 -129 60.5t-49 159.5q0 96 68 158t172 62q108 0 174 -63.5t66 -166.5v-72v-9.5v-12t0.5 -11t2 -11t4.5 -9.5t6.5 -8.5t9.5 -4.5t14 -2q53 0 53 150q0 133 -93.5 219t-236.5 86z" />
    <glyph glyph-name="A" unicode="A" horiz-adv-x="804" 
d="M462 270l-60 231l-60 -231h120zM509 90h-214l-23 -90h-271l211 720h380l211 -720h-271z" />
    <glyph glyph-name="B" unicode="B" horiz-adv-x="801" 
d="M491 230q0 27 -19.5 43.5t-50.5 16.5h-100v-110h100q31 0 50.5 14t19.5 36zM401 540h-80v-100h80q31 0 50.5 14t19.5 36t-19.5 36t-50.5 14zM481 0h-420v720h393q128 0 207.5 -56.5t79.5 -143.5q0 -59 -27 -100t-73 -55q56 -13 88 -59.5t32 -115.5q0 -89 -76 -139.5
t-204 -50.5z" />
    <glyph glyph-name="C" unicode="C" horiz-adv-x="842" 
d="M439 195q48 0 85.5 30.5t46.5 77.5l241 -25q-7 -132 -114.5 -217.5t-266.5 -85.5q-174 0 -287 109t-113 276t113 276t287 109q155 0 262 -85.5t116 -217.5l-239 -25q-8 47 -45 77.5t-85 30.5q-67 0 -108 -45.5t-41 -119.5t41 -119.5t107 -45.5z" />
    <glyph glyph-name="D" unicode="D" horiz-adv-x="821" 
d="M61 0v720h320q185 0 297.5 -99t112.5 -261t-112.5 -261t-297.5 -99h-320zM531 360q0 76 -41.5 123t-108.5 47h-70v-340h70q67 0 108.5 47t41.5 123z" />
    <glyph glyph-name="E" unicode="E" horiz-adv-x="621" 
d="M311 280v-80h280v-200h-530v720h520v-200h-270v-70h230v-170h-230z" />
    <glyph glyph-name="F" unicode="F" horiz-adv-x="611" 
d="M531 220h-210v-220h-260v720h530v-220h-270v-90h210v-190z" />
    <glyph glyph-name="G" unicode="G" horiz-adv-x="861" 
d="M451 195q50 0 87.5 24t42.5 61h-150v140h397q22 -193 -87.5 -319t-299.5 -126q-178 0 -294 109t-116 276t116 276t294 109q138 0 236 -71t121 -184l-239 -40q-10 33 -43.5 54t-76.5 21q-65 0 -106.5 -46.5t-41.5 -118.5t45 -118.5t115 -46.5z" />
    <glyph glyph-name="H" unicode="H" horiz-adv-x="830" 
d="M320 0h-260v720h260v-250h190v250h260v-720h-260v270h-190v-270z" />
    <glyph glyph-name="I" unicode="I" horiz-adv-x="382" 
d="M61 720h260v-720h-260v720z" />
    <glyph glyph-name="J" unicode="J" horiz-adv-x="512" 
d="M201 280v440h260v-480q0 -116 -76.5 -188t-195.5 -72q-95 0 -158 20v190q35 -10 80 -10q41 0 65.5 27.5t24.5 72.5z" />
    <glyph glyph-name="K" unicode="K" horiz-adv-x="795" 
d="M61 0v720h260v-266l170 266h303l-243 -340l243 -380h-303l-170 295v-295h-260z" />
    <glyph glyph-name="L" unicode="L" horiz-adv-x="581" 
d="M551 0h-490v720h260v-500h230v-220z" />
    <glyph glyph-name="M" unicode="M" horiz-adv-x="1072" 
d="M311 414v-414h-250v720h326l149 -458l143 458h332v-720h-250v414l-130 -414h-190z" />
    <glyph glyph-name="N" unicode="N" horiz-adv-x="832" 
d="M321 720l210 -407v407h240v-720h-260l-210 405v-405h-240v720h260z" />
    <glyph glyph-name="O" unicode="O" horiz-adv-x="881" 
d="M441 -25q-185 0 -297.5 106t-112.5 279t112.5 279t297.5 106t297.5 -106t112.5 -279t-112.5 -279t-297.5 -106zM441 525q-67 0 -108.5 -45.5t-41.5 -119.5t41.5 -119.5t108.5 -45.5t108.5 45.5t41.5 119.5t-41.5 119.5t-108.5 45.5z" />
    <glyph glyph-name="P" unicode="P" horiz-adv-x="761" 
d="M381 540h-70v-180h70q45 0 72.5 25t27.5 65t-27.5 65t-72.5 25zM431 180h-120v-180h-250v720h373q138 0 222.5 -74.5t84.5 -195.5q0 -122 -85.5 -196t-224.5 -74z" />
    <glyph glyph-name="Q" unicode="Q" horiz-adv-x="881" 
d="M441 525q-67 0 -108.5 -45.5t-41.5 -119.5t41.5 -119.5t108.5 -45.5t108.5 45.5t41.5 119.5t-41.5 119.5t-108.5 45.5zM851 360q0 -195 -142 -305l123 -165h-230l-69 93q-46 -8 -92 -8q-185 0 -297.5 106t-112.5 279t112.5 279t297.5 106t297.5 -106t112.5 -279z" />
    <glyph glyph-name="R" unicode="R" horiz-adv-x="805" 
d="M391 540h-70v-160h70q42 0 71 21.5t29 58.5t-29 58.5t-71 21.5zM381 220h-60v-220h-260v720h383q139 0 223 -71t84 -189q0 -72 -37 -125.5t-103 -82.5l164 -252h-284z" />
    <glyph glyph-name="S" unicode="S" horiz-adv-x="731" 
d="M696 240q0 -118 -95.5 -191.5t-244.5 -73.5q-140 0 -231 74.5t-91 189.5h222q0 -36 31.5 -60t77.5 -24q35 0 58 14t23 36q0 14 -8 23.5t-27 15.5t-35 8.5t-47 5.5q-51 6 -90 14t-79 25.5t-66 41.5t-42 62.5t-16 88.5q0 114 89.5 184.5t230.5 70.5q140 0 231 -72t91 -182
h-212q0 32 -28.5 53t-72.5 21q-34 0 -56.5 -13t-22.5 -32q0 -9 3.5 -16t13 -12t17 -8.5t25 -6t27.5 -4t33 -3.5q49 -5 88 -13t78.5 -24.5t65.5 -40.5t42.5 -63t16.5 -89z" />
    <glyph glyph-name="T" unicode="T" horiz-adv-x="662" 
d="M201 0v510h-190v210h640v-210h-190v-510h-260z" />
    <glyph glyph-name="U" unicode="U" horiz-adv-x="812" 
d="M501 315v405h260v-415q0 -149 -97.5 -239.5t-257.5 -90.5t-257.5 90.5t-97.5 239.5v415h260v-405q0 -47 23.5 -81.5t71.5 -38.5q43 0 69 33t26 87z" />
    <glyph glyph-name="V" unicode="V" horiz-adv-x="799" 
d="M1 720h268l130 -529l130 529h269l-199 -720h-400z" />
    <glyph glyph-name="W" unicode="W" horiz-adv-x="1284" 
d="M762 720l131 -482l119 482h261l-191 -720h-350l-90 369l-90 -369h-350l-191 720h261l120 -482l130 482h240z" />
    <glyph glyph-name="X" unicode="X" horiz-adv-x="893" 
d="M11 0l228 380l-227 340h297l135 -206l135 206h302l-242 -340l243 -380h-303l-135 238l-135 -238h-298z" />
    <glyph glyph-name="Y" unicode="Y" horiz-adv-x="743" 
d="M245 0v240l-245 480h269l106 -260l95 260h273l-238 -480v-240h-260z" />
    <glyph glyph-name="Z" unicode="Z" horiz-adv-x="682" 
d="M41 170l260 350h-250v200h580v-170l-247 -350h257v-200h-600v170z" />
    <glyph glyph-name="bracketleft" unicode="[" horiz-adv-x="412" 
d="M281 600v-630h130v-150h-350v930h350v-150h-130z" />
    <glyph glyph-name="backslash" unicode="\" horiz-adv-x="520" 
d="M195 720l324 -950h-194l-324 950h194z" />
    <glyph glyph-name="bracketright" unicode="]" horiz-adv-x="412" 
d="M351 -180h-350v150h130v630h-130v150h350v-930z" />
    <glyph glyph-name="asciicircum" unicode="^" horiz-adv-x="632" 
d="M316 582l-78 -182h-207l175 320h220l175 -320h-205z" />
    <glyph glyph-name="underscore" unicode="_" horiz-adv-x="500" 
d="M0 0h500v-150h-500v150z" />
    <glyph glyph-name="grave" unicode="`" horiz-adv-x="369" 
d="M31 750h197l110 -180h-150z" />
    <glyph glyph-name="a" unicode="a" horiz-adv-x="683" 
d="M331 180q31 0 50.5 22.5t19.5 57.5t-19.5 57.5t-50.5 22.5t-50.5 -22.5t-19.5 -57.5t19.5 -57.5t50.5 -22.5zM402 458v62h230v-520h-230v62q-54 -82 -145 -82q-102 0 -164 77t-62 203t62 203t164 77q91 0 145 -82z" />
    <glyph glyph-name="b" unicode="b" horiz-adv-x="672" 
d="M341 340q-31 0 -50.5 -22.5t-19.5 -57.5t19.5 -57.5t50.5 -22.5t50.5 22.5t19.5 57.5t-19.5 57.5t-50.5 22.5zM641 260q0 -126 -60.5 -203t-159.5 -77q-87 0 -140 66v-46h-230v750h230v-278q54 68 140 68q99 0 159.5 -77t60.5 -203z" />
    <glyph glyph-name="c" unicode="c" horiz-adv-x="637" 
d="M329 540q110 0 191 -63.5t91 -159.5l-210 -27q-5 26 -24.5 43t-44.5 17q-31 0 -51 -25.5t-20 -64.5t20 -64.5t51 -25.5q25 0 44.5 17t24.5 43l210 -25q-11 -97 -91.5 -161t-190.5 -64q-128 0 -213 79.5t-85 200.5q0 122 84 201t214 79z" />
    <glyph glyph-name="d" unicode="d" horiz-adv-x="672" 
d="M331 340q-31 0 -50.5 -22.5t-19.5 -57.5t19.5 -57.5t50.5 -22.5t50.5 22.5t19.5 57.5t-19.5 57.5t-50.5 22.5zM31 260q0 126 60.5 203t159.5 77q85 0 140 -68v278h230v-750h-230v46q-53 -66 -140 -66q-99 0 -159.5 77t-60.5 203z" />
    <glyph glyph-name="e" unicode="e" horiz-adv-x="652" 
d="M265 310h126q0 27 -18 48.5t-45 21.5q-50 0 -63 -70zM31 260q0 125 83.5 202.5t216.5 77.5t211.5 -77.5t78.5 -205.5q0 -43 -3 -57h-350q19 -60 73 -60q46 0 60 40l200 -25q-15 -76 -92.5 -125.5t-182.5 -49.5q-132 0 -213.5 77t-81.5 203z" />
    <glyph glyph-name="f" unicode="f" horiz-adv-x="442" 
d="M321 530v-10h100v-170h-100v-350h-230v350h-60v170h60v20q0 103 55.5 166.5t146.5 63.5q65 0 128 -20v-185q-23 5 -45 5q-25 0 -40 -11t-15 -29z" />
    <glyph glyph-name="g" unicode="g" horiz-adv-x="672" 
d="M331 180q31 0 50.5 22.5t19.5 57.5t-19.5 57.5t-50.5 22.5t-50.5 -22.5t-19.5 -57.5t19.5 -57.5t50.5 -22.5zM320 -80q32 0 51.5 25t19.5 65v52q-56 -62 -142 -62q-95 0 -156.5 72t-61.5 188q0 125 61.5 202.5t156.5 77.5q87 0 142 -67v47h230v-520q0 -112 -79.5 -181
t-210.5 -69q-116 0 -195 59.5t-86 150.5l198 20q4 -26 25 -43t47 -17z" />
    <glyph glyph-name="h" unicode="h" 
d="M51 750h230v-281q50 71 146 71q78 0 126 -52.5t48 -137.5v-350h-230v280q0 27 -13 43.5t-33 16.5t-32 -16.5t-12 -43.5v-280h-230v750z" />
    <glyph glyph-name="i" unicode="i" horiz-adv-x="352" 
d="M61 520h230v-520h-230v520zM176 560q-54 0 -89.5 34t-35.5 86t35.5 86t89.5 34q55 0 90 -33.5t35 -86.5t-35 -86.5t-90 -33.5z" />
    <glyph glyph-name="j" unicode="j" horiz-adv-x="362" 
d="M71 10v510h230v-540q0 -99 -58.5 -159.5t-153.5 -60.5q-75 0 -138 20v175q23 -5 55 -5q29 0 47 16.5t18 43.5zM186 560q-54 0 -89.5 34t-35.5 86t35.5 86t89.5 34q55 0 90 -33.5t35 -86.5t-35 -86.5t-90 -33.5z" />
    <glyph glyph-name="k" unicode="k" horiz-adv-x="677" 
d="M51 0v750h230v-407l130 177h264l-194 -250l196 -270h-266l-130 196v-196h-230z" />
    <glyph glyph-name="l" unicode="l" horiz-adv-x="330" 
d="M50 750h230v-750h-230v750z" />
    <glyph glyph-name="m" unicode="m" horiz-adv-x="972" 
d="M281 0h-230v520h220v-67q22 42 64 64.5t92 22.5q102 0 148 -83q21 38 69.5 60.5t99.5 22.5q85 0 136 -52t51 -138v-350h-230v280q0 24 -13 41t-38 19q-23 0 -36 -16.5t-13 -43.5v-280h-230v280q0 27 -12.5 43.5t-33.5 16.5t-32.5 -16.5t-11.5 -43.5v-280z" />
    <glyph glyph-name="n" unicode="n" 
d="M51 520h220v-78q63 98 160 98q74 0 122 -56.5t48 -143.5v-340h-230v280q0 27 -12.5 43.5t-32.5 16.5t-32.5 -16.5t-12.5 -43.5v-280h-230v520z" />
    <glyph glyph-name="o" unicode="o" horiz-adv-x="660" 
d="M330 540q135 0 217.5 -77t82.5 -203t-82.5 -203t-217.5 -77t-217.5 77t-82.5 203t82.5 203t217.5 77zM330 180q32 0 51 22t19 58t-19 58t-51 22t-51 -22t-19 -58t19 -58t51 -22z" />
    <glyph glyph-name="p" unicode="p" horiz-adv-x="672" 
d="M341 180q31 0 50.5 22.5t19.5 57.5t-19.5 57.5t-50.5 22.5t-50.5 -22.5t-19.5 -57.5t19.5 -57.5t50.5 -22.5zM641 260q0 -126 -60.5 -203t-159.5 -77q-86 0 -140 68v-278h-230v750h230v-46q53 66 140 66q99 0 159.5 -77t60.5 -203z" />
    <glyph glyph-name="q" unicode="q" horiz-adv-x="672" 
d="M331 180q31 0 50.5 22.5t19.5 57.5t-19.5 57.5t-50.5 22.5t-50.5 -22.5t-19.5 -57.5t19.5 -57.5t50.5 -22.5zM31 260q0 126 60.5 203t159.5 77q87 0 140 -66v46h230v-750h-230v278q-55 -68 -140 -68q-99 0 -159.5 77t-60.5 203z" />
    <glyph glyph-name="r" unicode="r" horiz-adv-x="471" 
d="M51 520h220v-66q20 39 57 62.5t78 23.5q30 0 55 -12v-203q-53 23 -96 23q-38 0 -61 -24t-23 -64v-260h-230v520z" />
    <glyph glyph-name="s" unicode="s" horiz-adv-x="582" 
d="M562 181q0 -91 -77.5 -148.5t-202.5 -57.5q-109 0 -180 54.5t-71 138.5h181q0 -23 21 -38t54 -15q23 0 39 10t16 26q0 18 -21 26.5t-79 11.5q-46 2 -79 9t-65 23.5t-49 49t-17 79.5q0 85 70.5 140t179.5 55q110 0 182.5 -52t72.5 -132h-191q0 19 -18 31.5t-45 12.5
q-22 0 -36.5 -8.5t-14.5 -22.5q0 -30 70 -35q54 -5 91.5 -12t80.5 -23t65.5 -47t22.5 -76z" />
    <glyph glyph-name="t" unicode="t" horiz-adv-x="442" 
d="M81 210v140h-60v170h70l20 140h200v-140h100v-170h-100v-110q0 -27 15 -43.5t40 -16.5q22 0 45 5v-185q-63 -20 -128 -20q-90 0 -146 65t-56 165z" />
    <glyph glyph-name="u" unicode="u" 
d="M591 0h-220v78q-63 -98 -160 -98q-74 0 -122 56.5t-48 143.5v340h230v-280q0 -27 12.5 -43.5t32.5 -16.5t32.5 16.5t12.5 43.5v280h230v-520z" />
    <glyph glyph-name="v" unicode="v" horiz-adv-x="661" 
d="M496 0h-330l-165 520h245l85 -348l85 348h245z" />
    <glyph glyph-name="w" unicode="w" horiz-adv-x="967" 
d="M429 0h-280l-138 520h238l62 -287l78 287h189l88 -294l63 294h228l-138 -520h-280l-55 250z" />
    <glyph glyph-name="x" unicode="x" horiz-adv-x="711" 
d="M291 0h-280l170 270l-163 250h273l65 -127l65 127h273l-163 -250l170 -270h-280l-65 142z" />
    <glyph glyph-name="y" unicode="y" horiz-adv-x="657" 
d="M116 -220v155q15 -5 50 -5q32 0 47 2t30.5 15t23.5 41l-266 532h250l100 -243l70 243h235l-195 -550q-41 -115 -95.5 -162.5t-129.5 -47.5q-67 0 -120 20z" />
    <glyph glyph-name="z" unicode="z" horiz-adv-x="581" 
d="M41 150l190 190h-180v180h480v-150l-167 -190h177v-180h-500v150z" />
    <glyph glyph-name="braceleft" unicode="{" horiz-adv-x="461" 
d="M401 -30h60v-150h-210q-63 0 -101.5 38.5t-38.5 101.5v160q0 32 -19.5 51t-50.5 19h-10v200h10q31 0 50.5 19t19.5 51v150q0 63 38.5 101.5t101.5 38.5h210v-150h-60q-31 0 -50.5 -19t-19.5 -51v-90q0 -63 -38.5 -104t-101.5 -45l-10 -1l10 -1q63 -4 101.5 -45t38.5 -104
v-100q0 -32 19.5 -51t50.5 -19z" />
    <glyph glyph-name="bar" unicode="|" horiz-adv-x="322" 
d="M61 750h200v-980h-200v980z" />
    <glyph glyph-name="braceright" unicode="}" horiz-adv-x="461" 
d="M211 -180h-210v150h60q31 0 50.5 19t19.5 51v100q0 63 38.5 104t101.5 45l10 1l-10 1q-63 4 -101.5 45t-38.5 104v90q0 32 -19.5 51t-50.5 19h-60v150h210q63 0 101.5 -38.5t38.5 -101.5v-150q0 -32 19.5 -51t50.5 -19h10v-200h-10q-31 0 -50.5 -19t-19.5 -51v-160
q0 -63 -38.5 -101.5t-101.5 -38.5z" />
    <glyph glyph-name="asciitilde" unicode="~" horiz-adv-x="632" 
d="M86 210l-55 150q36 36 81.5 58t82.5 22q41 0 90.5 -25t94 -50t71.5 -25q55 0 93 40l57 -150q-36 -36 -81 -58t-82 -22q-52 0 -143.5 50t-123.5 50q-43 0 -85 -40z" />
    <glyph glyph-name="exclamdown" unicode="&#xa1;" horiz-adv-x="372" 
d="M186 510q54 0 89.5 -34t35.5 -86t-35.5 -86t-89.5 -34q-55 0 -90 33.5t-35 86.5t35 86.5t90 33.5zM71 -230v200l60 260h110l60 -260v-200h-230z" />
    <glyph glyph-name="cent" unicode="&#xa2;" horiz-adv-x="637" 
d="M407 -11v-109h-190v119q-85 30 -135.5 99.5t-50.5 161.5q0 93 50.5 162.5t135.5 99.5v98h190v-89q83 -21 139 -78.5t65 -135.5l-210 -27q-5 26 -24.5 43t-44.5 17q-31 0 -51 -25.5t-20 -64.5t20 -64.5t51 -25.5q25 0 44.5 17t24.5 43l210 -25q-9 -79 -65 -137t-139 -79z
" />
    <glyph glyph-name="sterling" unicode="&#xa3;" horiz-adv-x="702" 
d="M671 526l-200 -31q-4 26 -18 43t-32 17q-17 0 -28.5 -15.5t-11.5 -39.5v-70h190v-130h-203q-33 -78 -131 -120h434v-180h-640v200q38 13 65.5 39.5t38.5 60.5h-94v130h100v80q0 103 72 169t185 66q110 0 187 -62t86 -157z" />
    <glyph glyph-name="currency" unicode="&#xa4;" horiz-adv-x="718" 
d="M361 170q32 0 51 25t19 65t-19 65t-51 25q-31 0 -50.5 -25t-19.5 -65t19.5 -65t50.5 -25zM501 494l50 66l133 -100l-56 -73q33 -57 33 -127t-33 -128l59 -75l-136 -97l-50 65q-64 -25 -140 -25q-80 0 -140 24l-60 -64l-130 97l62 75q-32 56 -32 128t32 127l-54 73
l132 100l50 -65q62 25 140 25q77 0 140 -26z" />
    <glyph glyph-name="yen" unicode="&#xa5;" horiz-adv-x="805" 
d="M104 322h121l-214 398h279l116 -280l105 280h283l-209 -398h119v-100h-168v-42h168v-100h-168v-80h-260v80h-172v100h172v42h-172v100z" />
    <glyph glyph-name="section" unicode="&#xa7;" horiz-adv-x="661" 
d="M416 270q0 12 -11 21.5t-29 14.5q-10 3 -110 28q-13 -2 -21.5 -12t-8.5 -21q0 -31 60 -45q2 0 39.5 -9t40.5 -10q17 2 28.5 11.5t11.5 21.5zM66 510q0 88 70 141.5t188 53.5q101 0 170 -41.5t88 -118.5l-186 -26q-4 29 -25 47.5t-52 18.5q-23 0 -38 -10t-15 -25
q0 -22 30.5 -34t96.5 -26q43 -10 65.5 -15.5t60 -19t57 -28.5t35 -39.5t15.5 -55.5q0 -49 -33.5 -85.5t-90.5 -52.5q84 -46 84 -143q0 -89 -75.5 -147.5t-190.5 -58.5q-104 0 -175.5 47.5t-81.5 121.5l183 26q4 -28 28 -46.5t56 -18.5q24 0 40 9t16 23t-9 24t-31.5 18.5
t-38.5 13t-51 13.5q-40 9 -62 15t-57 20t-53.5 29.5t-33 41t-14.5 57.5q0 47 27.5 82.5t75.5 51.5q-73 42 -73 137z" />
    <glyph glyph-name="dieresis" unicode="&#xa8;" horiz-adv-x="552" 
d="M136 550q-46 0 -75.5 28t-29.5 72t29.5 72t75.5 28t75.5 -28t29.5 -72t-29.5 -72t-75.5 -28zM416 550q-46 0 -75.5 28t-29.5 72t29.5 72t75.5 28t75.5 -28t29.5 -72t-29.5 -72t-75.5 -28z" />
    <glyph glyph-name="copyright" unicode="&#xa9;" horiz-adv-x="1061" 
d="M531 605q-157 0 -253.5 -93.5t-96.5 -246.5q0 -157 96.5 -253.5t253.5 -96.5t253.5 96.5t96.5 253.5q0 153 -96.5 246.5t-253.5 93.5zM533 530q103 0 175.5 -60.5t83.5 -153.5l-154 -23q-8 42 -35.5 69.5t-63.5 27.5q-42 0 -71.5 -36.5t-29.5 -93.5q0 -56 29.5 -93
t71.5 -37q37 0 64 27.5t35 70.5l151 -27q-7 -92 -78.5 -151.5t-174.5 -59.5q-116 0 -192 75t-76 195q0 118 74.5 194t190.5 76zM531 -215q-225 0 -362.5 132t-137.5 348q0 211 137.5 340.5t362.5 129.5t362.5 -129.5t137.5 -340.5q0 -216 -137.5 -348t-362.5 -132z" />
    <glyph glyph-name="guillemotleft" unicode="&#xab;" horiz-adv-x="760" 
d="M420 520l-169 -250l169 -270h-229l-160 270l160 250h229zM730 520l-169 -250l169 -270h-229l-160 270l160 250h229z" />
    <glyph glyph-name="logicalnot" unicode="&#xac;" 
d="M440 70v150h-409v180h570v-330h-161z" />
    <glyph glyph-name="registered" unicode="&#xae;" horiz-adv-x="1061" 
d="M181 265q0 -157 96.5 -253.5t253.5 -96.5t253.5 96.5t96.5 253.5q0 153 -96.5 246.5t-253.5 93.5t-253.5 -93.5t-96.5 -246.5zM530 420h-59v-130h59q34 0 55 17t21 48q0 65 -76 65zM531 -215q-225 0 -362.5 132t-137.5 348q0 211 137.5 340.5t362.5 129.5t362.5 -129.5
t137.5 -340.5q0 -216 -137.5 -348t-362.5 -132zM658 215l104 -205h-181l-71 190h-39v-190h-160v510h253q93 0 150 -44t57 -116q0 -50 -30 -88t-83 -57z" />
    <glyph glyph-name="macron" unicode="&#xaf;" horiz-adv-x="432" 
d="M401 720v-130h-370v130h370z" />
    <glyph glyph-name="degree" unicode="&#xb0;" horiz-adv-x="562" 
d="M281 315q-113 0 -181.5 63.5t-68.5 166.5t68.5 166.5t181.5 63.5t181.5 -63.5t68.5 -166.5t-68.5 -166.5t-181.5 -63.5zM281 635q-41 0 -65.5 -24.5t-24.5 -65.5t24.5 -65.5t65.5 -24.5t65.5 24.5t24.5 65.5t-24.5 65.5t-65.5 24.5z" />
    <glyph glyph-name="plusminus" unicode="&#xb1;" horiz-adv-x="532" 
d="M31 140h470v-140h-470v140zM351 200h-170v90h-150v140h150v90h170v-90h150v-140h-150v-90z" />
    <glyph glyph-name="acute" unicode="&#xb4;" horiz-adv-x="389" 
d="M338 750l-157 -180h-150l110 180h197z" />
    <glyph glyph-name="paragraph" unicode="&#xb6;" horiz-adv-x="882" 
d="M831 560h-100v-760h-200v760h-70v-760h-200v480q-104 0 -167.5 60.5t-62.5 159.5t64 159.5t166 60.5h570v-160z" />
    <glyph glyph-name="periodcentered" unicode="&#xb7;" horiz-adv-x="312" 
d="M156 200q-54 0 -89.5 34t-35.5 86t35.5 86t89.5 34q55 0 90 -33.5t35 -86.5t-35 -86.5t-90 -33.5z" />
    <glyph glyph-name="cedilla" unicode="&#xb8;" horiz-adv-x="310" 
d="M111 -130h-50l30 160h110l-20 -110q44 0 71 -25.5t27 -66.5q0 -44 -37.5 -71t-99.5 -27q-37 0 -67 16.5t-44 43.5l50 50q15 -30 48 -30q32 0 32 30q0 14 -13.5 22t-36.5 8z" />
    <glyph glyph-name="guillemotright" unicode="&#xbb;" horiz-adv-x="759" 
d="M419 270l-160 -270h-229l169 270l-169 250h229zM729 270l-160 -270h-229l169 270l-169 250h229z" />
    <glyph glyph-name="questiondown" unicode="&#xbf;" horiz-adv-x="671" 
d="M241 260h200q0 -71 -22.5 -115t-77.5 -79q-19 -12 -28.5 -18.5t-20.5 -21.5t-11 -31q0 -22 15 -36t38 -14q31 0 51.5 26t25.5 68l230 -42q-8 -107 -96 -174.5t-222 -67.5q-127 0 -209.5 60t-82.5 154q0 58 33 105t87 72q46 21 68 45t22 69zM346 520q54 0 89.5 -34
t35.5 -86t-35.5 -86t-89.5 -34q-55 0 -90 33.5t-35 86.5t35 86.5t90 33.5z" />
    <glyph glyph-name="Agrave" unicode="&#xc0;" horiz-adv-x="804" 
d="M462 270l-60 231l-60 -231h120zM509 90h-214l-23 -90h-271l211 720h380l211 -720h-271zM476 790h-156l-158 160h198z" />
    <glyph glyph-name="Aacute" unicode="&#xc1;" horiz-adv-x="804" 
d="M462 270l-60 231l-60 -231h120zM509 90h-214l-23 -90h-271l211 720h380l211 -720h-271zM467 790h-157l117 160h198z" />
    <glyph glyph-name="Acircumflex" unicode="&#xc2;" horiz-adv-x="804" 
d="M462 270l-60 231l-60 -231h120zM509 90h-214l-23 -90h-271l211 720h380l211 -720h-271zM461 790l-60 80l-60 -80h-140l90 160h220l90 -160h-140z" />
    <glyph glyph-name="Atilde" unicode="&#xc3;" horiz-adv-x="804" 
d="M462 270l-60 231l-60 -231h120zM509 90h-214l-23 -90h-271l211 720h380l211 -720h-271zM275 823l-104 52q15 48 57.5 81.5t91.5 33.5q40 0 87.5 -25t59.5 -25q31 0 49 37l105 -52q-15 -47 -60 -81t-96 -34q-42 0 -89 25t-58 25q-24 0 -43 -37z" />
    <glyph glyph-name="Adieresis" unicode="&#xc4;" horiz-adv-x="804" 
d="M462 270l-60 231l-60 -231h120zM509 90h-214l-23 -90h-271l211 720h380l211 -720h-271zM261 780q-46 0 -75.5 29.5t-29.5 75.5t29.5 75.5t75.5 29.5t75.5 -29.5t29.5 -75.5t-29.5 -75.5t-75.5 -29.5zM541 780q-46 0 -75.5 29.5t-29.5 75.5t29.5 75.5t75.5 29.5
t75.5 -29.5t29.5 -75.5t-29.5 -75.5t-75.5 -29.5z" />
    <glyph glyph-name="Aring" unicode="&#xc5;" horiz-adv-x="804" 
d="M462 270l-60 231l-60 -231h120zM402 935q-16 0 -25.5 -9.5t-9.5 -25.5t9.5 -25.5t25.5 -9.5t25.5 9.5t9.5 25.5t-9.5 25.5t-25.5 9.5zM509 90h-214l-23 -90h-271l211 720h380l211 -720h-271zM402 765q-70 0 -112.5 37t-42.5 98t42.5 98t112.5 37t112.5 -37t42.5 -98
t-42.5 -98t-112.5 -37z" />
    <glyph glyph-name="AE" unicode="&#xc6;" horiz-adv-x="1049" 
d="M539 548l-131 -288h131v288zM769 280v-80h250v-200h-480v90h-209l-41 -90h-288l348 720h660v-200h-240v-70h200v-170h-200z" />
    <glyph glyph-name="Ccedilla" unicode="&#xc7;" horiz-adv-x="842" 
d="M411 -130h-50l20 108q-155 16 -252.5 121.5t-97.5 260.5q0 167 113 276t287 109q155 0 262 -85.5t116 -217.5l-239 -25q-8 47 -45 77.5t-85 30.5q-67 0 -108 -45.5t-41 -119.5t41 -119.5t107 -45.5q48 0 85.5 30.5t46.5 77.5l241 -25q-6 -119 -95 -201t-226 -98l-10 -59
q44 0 71 -25.5t27 -66.5q0 -44 -37.5 -71t-99.5 -27q-37 0 -67 16.5t-44 43.5l50 50q15 -30 48 -30q32 0 32 30q0 14 -14 22t-36 8z" />
    <glyph glyph-name="Egrave" unicode="&#xc8;" horiz-adv-x="621" 
d="M311 280v-80h280v-200h-530v720h520v-200h-270v-70h230v-170h-230zM82 950h198l116 -160h-156z" />
    <glyph glyph-name="Eacute" unicode="&#xc9;" horiz-adv-x="621" 
d="M311 280v-80h280v-200h-530v720h520v-200h-270v-70h230v-170h-230zM347 950h198l-158 -160h-157z" />
    <glyph glyph-name="Ecircumflex" unicode="&#xca;" horiz-adv-x="621" 
d="M311 280v-80h280v-200h-530v720h520v-200h-270v-70h230v-170h-230zM261 790h-140l90 160h220l90 -160h-140l-60 80z" />
    <glyph glyph-name="Edieresis" unicode="&#xcb;" horiz-adv-x="621" 
d="M311 280v-80h280v-200h-530v720h520v-200h-270v-70h230v-170h-230zM181 780q-46 0 -75.5 29.5t-29.5 75.5t29.5 75.5t75.5 29.5t75.5 -29.5t29.5 -75.5t-29.5 -75.5t-75.5 -29.5zM461 780q-46 0 -75.5 29.5t-29.5 75.5t29.5 75.5t75.5 29.5t75.5 -29.5t29.5 -75.5
t-29.5 -75.5t-75.5 -29.5z" />
    <glyph glyph-name="Igrave" unicode="&#xcc;" horiz-adv-x="381" 
d="M60 720h260v-720h-260v720zM-49 950h198l116 -160h-156z" />
    <glyph glyph-name="Iacute" unicode="&#xcd;" horiz-adv-x="385" 
d="M61 720h260v-720h-260v720zM217 950h198l-158 -160h-157z" />
    <glyph glyph-name="Icircumflex" unicode="&#xce;" horiz-adv-x="382" 
d="M61 720h260v-720h-260v720zM131 790h-140l90 160h220l90 -160h-140l-60 80z" />
    <glyph glyph-name="Idieresis" unicode="&#xcf;" horiz-adv-x="372" 
d="M56 720h260v-720h-260v720zM46 780q-46 0 -75.5 29.5t-29.5 75.5t29.5 75.5t75.5 29.5t75.5 -29.5t29.5 -75.5t-29.5 -75.5t-75.5 -29.5zM326 780q-46 0 -75.5 29.5t-29.5 75.5t29.5 75.5t75.5 29.5t75.5 -29.5t29.5 -75.5t-29.5 -75.5t-75.5 -29.5z" />
    <glyph glyph-name="Ntilde" unicode="&#xd1;" horiz-adv-x="832" 
d="M61 720h260l210 -407v407h240v-720h-260l-210 405v-405h-240v720zM292 823l-104 52q15 48 57.5 81.5t91.5 33.5q40 0 87.5 -25t59.5 -25q30 0 49 37l105 -52q-15 -47 -60 -81t-96 -34q-42 0 -89 25t-58 25q-25 0 -43 -37z" />
    <glyph glyph-name="Ograve" unicode="&#xd2;" horiz-adv-x="881" 
d="M441 -25q-185 0 -297.5 106t-112.5 279t112.5 279t297.5 106t297.5 -106t112.5 -279t-112.5 -279t-297.5 -106zM441 525q-67 0 -108.5 -45.5t-41.5 -119.5t41.5 -119.5t108.5 -45.5t108.5 45.5t41.5 119.5t-41.5 119.5t-108.5 45.5zM202 950h198l116 -160h-156z" />
    <glyph glyph-name="Oacute" unicode="&#xd3;" horiz-adv-x="881" 
d="M441 -25q-185 0 -297.5 106t-112.5 279t112.5 279t297.5 106t297.5 -106t112.5 -279t-112.5 -279t-297.5 -106zM441 525q-67 0 -108.5 -45.5t-41.5 -119.5t41.5 -119.5t108.5 -45.5t108.5 45.5t41.5 119.5t-41.5 119.5t-108.5 45.5zM467 950h198l-158 -160h-157z" />
    <glyph glyph-name="Ocircumflex" unicode="&#xd4;" horiz-adv-x="881" 
d="M441 525q-67 0 -108.5 -45.5t-41.5 -119.5t41.5 -119.5t108.5 -45.5t108.5 45.5t41.5 119.5t-41.5 119.5t-108.5 45.5zM441 -25q-185 0 -297.5 106t-112.5 279t112.5 279t297.5 106t297.5 -106t112.5 -279t-112.5 -279t-297.5 -106zM501 790l-60 80l-60 -80h-140l90 160
h220l90 -160h-140z" />
    <glyph glyph-name="Otilde" unicode="&#xd5;" horiz-adv-x="881" 
d="M441 525q-67 0 -108.5 -45.5t-41.5 -119.5t41.5 -119.5t108.5 -45.5t108.5 45.5t41.5 119.5t-41.5 119.5t-108.5 45.5zM441 -25q-185 0 -297.5 106t-112.5 279t112.5 279t297.5 106t297.5 -106t112.5 -279t-112.5 -279t-297.5 -106zM315 823l-104 52q15 48 57.5 81.5
t91.5 33.5q40 0 87.5 -25t59.5 -25q31 0 49 37l105 -52q-15 -47 -60 -81t-96 -34q-42 0 -89 25t-58 25q-24 0 -43 -37z" />
    <glyph glyph-name="Odieresis" unicode="&#xd6;" horiz-adv-x="881" 
d="M441 -25q-185 0 -297.5 106t-112.5 279t112.5 279t297.5 106t297.5 -106t112.5 -279t-112.5 -279t-297.5 -106zM441 525q-67 0 -108.5 -45.5t-41.5 -119.5t41.5 -119.5t108.5 -45.5t108.5 45.5t41.5 119.5t-41.5 119.5t-108.5 45.5zM301 780q-46 0 -75.5 29.5t-29.5 75.5
t29.5 75.5t75.5 29.5t75.5 -29.5t29.5 -75.5t-29.5 -75.5t-75.5 -29.5zM581 780q-46 0 -75.5 29.5t-29.5 75.5t29.5 75.5t75.5 29.5t75.5 -29.5t29.5 -75.5t-29.5 -75.5t-75.5 -29.5z" />
    <glyph glyph-name="multiply" unicode="&#xd7;" horiz-adv-x="502" 
d="M161 80l-130 130l90 90l-90 90l130 130l90 -90l90 90l131 -129l-91 -91l90 -90l-130 -130l-90 90z" />
    <glyph glyph-name="Oslash" unicode="&#xd8;" horiz-adv-x="861" 
d="M431 525q-61 0 -100.5 -46.5t-39.5 -118.5q0 -56 25 -98l137 261q-14 2 -22 2zM431 195q61 0 100.5 46.5t39.5 118.5q0 54 -26 98l-137 -261q7 -2 23 -2zM301 -6l-70 -134h-126l94 180q-79 51 -123.5 134.5t-44.5 185.5q0 167 113 276t287 109q65 0 130 -19l70 134h126
l-95 -180q79 -52 124 -135t45 -185q0 -167 -113 -276t-287 -109q-67 0 -130 19z" />
    <glyph glyph-name="Ugrave" unicode="&#xd9;" horiz-adv-x="812" 
d="M501 315v405h260v-415q0 -149 -97.5 -239.5t-257.5 -90.5t-257.5 90.5t-97.5 239.5v415h260v-405q0 -47 23.5 -81.5t71.5 -38.5q43 0 69 33t26 87zM325 790l-158 160h198l116 -160h-156z" />
    <glyph glyph-name="Uacute" unicode="&#xda;" horiz-adv-x="812" 
d="M501 315v405h260v-415q0 -149 -97.5 -239.5t-257.5 -90.5t-257.5 90.5t-97.5 239.5v415h260v-405q0 -47 23.5 -81.5t71.5 -38.5q43 0 69 33t26 87zM432 950h198l-158 -160h-157z" />
    <glyph glyph-name="Ucircumflex" unicode="&#xdb;" horiz-adv-x="812" 
d="M501 315v405h260v-415q0 -149 -97.5 -239.5t-257.5 -90.5t-257.5 90.5t-97.5 239.5v415h260v-405q0 -47 23.5 -81.5t71.5 -38.5q43 0 69 33t26 87zM406 870l-60 -80h-140l90 160h220l90 -160h-140z" />
    <glyph glyph-name="Udieresis" unicode="&#xdc;" horiz-adv-x="812" 
d="M501 315v405h260v-415q0 -149 -97.5 -239.5t-257.5 -90.5t-257.5 90.5t-97.5 239.5v415h260v-405q0 -47 23.5 -81.5t71.5 -38.5q43 0 69 33t26 87zM266 780q-46 0 -75.5 29.5t-29.5 75.5t29.5 75.5t75.5 29.5t75.5 -29.5t29.5 -75.5t-29.5 -75.5t-75.5 -29.5zM546 780
q-46 0 -75.5 29.5t-29.5 75.5t29.5 75.5t75.5 29.5t75.5 -29.5t29.5 -75.5t-29.5 -75.5t-75.5 -29.5z" />
    <glyph glyph-name="Yacute" unicode="&#xdd;" horiz-adv-x="743" 
d="M245 0v240l-245 480h269l106 -260l95 260h273l-238 -480v-240h-260zM398 950h198l-158 -160h-156z" />
    <glyph glyph-name="germandbls" unicode="&#xdf;" horiz-adv-x="811" 
d="M311 490v-490h-260v480q0 119 96 192t253 73q142 0 226.5 -61.5t84.5 -163.5q0 -41 -25 -73t-70 -49q65 -18 110 -75t45 -133q0 -94 -68 -154.5t-172 -60.5q-94 0 -181 39l35 144q34 -18 63 -18q27 0 45 21.5t18 54.5q0 42 -29 68t-76 26h-46v130h50q32 0 51.5 16.5
t19.5 43.5q0 35 -23.5 56.5t-61.5 21.5t-61.5 -24t-23.5 -64z" />
    <glyph glyph-name="agrave" unicode="&#xe0;" horiz-adv-x="683" 
d="M331 180q31 0 50.5 22.5t19.5 57.5t-19.5 57.5t-50.5 22.5t-50.5 -22.5t-19.5 -57.5t19.5 -57.5t50.5 -22.5zM402 458v62h230v-520h-230v62q-54 -82 -145 -82q-102 0 -164 77t-62 203t62 203t164 77q91 0 145 -82zM419 580h-150l-157 180h197z" />
    <glyph glyph-name="aacute" unicode="&#xe1;" horiz-adv-x="683" 
d="M331 180q31 0 50.5 22.5t19.5 57.5t-19.5 57.5t-50.5 22.5t-50.5 -22.5t-19.5 -57.5t19.5 -57.5t50.5 -22.5zM402 458v62h230v-520h-230v62q-54 -82 -145 -82q-102 0 -164 77t-62 203t62 203t164 77q91 0 145 -82zM392 580h-150l110 180h197z" />
    <glyph glyph-name="acircumflex" unicode="&#xe2;" horiz-adv-x="683" 
d="M331 180q31 0 50.5 22.5t19.5 57.5t-19.5 57.5t-50.5 22.5t-50.5 -22.5t-19.5 -57.5t19.5 -57.5t50.5 -22.5zM402 458v62h230v-520h-230v62q-54 -82 -145 -82q-102 0 -164 77t-62 203t62 203t164 77q91 0 145 -82zM392 580l-60 100l-60 -100h-147l97 180h220l97 -180
h-147z" />
    <glyph glyph-name="atilde" unicode="&#xe3;" horiz-adv-x="683" 
d="M331 180q31 0 50.5 22.5t19.5 57.5t-19.5 57.5t-50.5 22.5t-50.5 -22.5t-19.5 -57.5t19.5 -57.5t50.5 -22.5zM402 458v62h230v-520h-230v62q-54 -82 -145 -82q-102 0 -164 77t-62 203t62 203t164 77q91 0 145 -82zM216 603l-104 52q15 48 57.5 81.5t91.5 33.5
q40 0 87.5 -25t59.5 -25q30 0 49 37l105 -52q-15 -47 -60 -81t-96 -34q-42 0 -89 25t-58 25q-25 0 -43 -37z" />
    <glyph glyph-name="adieresis" unicode="&#xe4;" horiz-adv-x="683" 
d="M331 180q31 0 50.5 22.5t19.5 57.5t-19.5 57.5t-50.5 22.5t-50.5 -22.5t-19.5 -57.5t19.5 -57.5t50.5 -22.5zM402 458v62h230v-520h-230v62q-54 -82 -145 -82q-102 0 -164 77t-62 203t62 203t164 77q91 0 145 -82zM192 573q-46 0 -75.5 28t-29.5 72t29.5 72t75.5 28
t75.5 -28t29.5 -72t-29.5 -72t-75.5 -28zM472 573q-46 0 -75.5 28t-29.5 72t29.5 72t75.5 28t75.5 -28t29.5 -72t-29.5 -72t-75.5 -28z" />
    <glyph glyph-name="aring" unicode="&#xe5;" horiz-adv-x="683" 
d="M331 180q31 0 50.5 22.5t19.5 57.5t-19.5 57.5t-50.5 22.5t-50.5 -22.5t-19.5 -57.5t19.5 -57.5t50.5 -22.5zM332 770q-22 0 -36 -14t-14 -36t14 -36t36 -14t36 14t14 36t-14 36t-36 14zM402 458v62h230v-520h-230v62q-54 -82 -145 -82q-102 0 -164 77t-62 203t62 203
t164 77q91 0 145 -82zM332 570q-76 0 -123 41t-47 109t47 109t123 41t123 -41t47 -109t-47 -109t-123 -41z" />
    <glyph glyph-name="ae" unicode="&#xe6;" horiz-adv-x="1032" 
d="M340 360q-36 0 -58 -27.5t-22 -72.5t22 -72.5t58 -27.5t58 27.5t22 72.5t-22 72.5t-58 27.5zM645 300h127q-3 29 -20.5 49.5t-42.5 20.5q-52 0 -64 -70zM420 452v68h130v-76q25 43 76.5 69.5t116.5 26.5q113 0 186 -77.5t73 -197.5q0 -50 -3 -65h-353q5 -27 26 -43.5
t50 -16.5q23 0 41.5 11.5t23.5 28.5l194 -27q-23 -75 -92.5 -124t-154.5 -49q-61 0 -111 25.5t-73 65.5v-71h-130v68q-58 -88 -160 -88q-104 0 -167 77t-63 203t63 203t167 77q101 0 160 -88z" />
    <glyph glyph-name="ccedilla" unicode="&#xe7;" horiz-adv-x="637" 
d="M290 -130h-50l22 116q-103 20 -167 95t-64 179q0 122 84 201t214 79q110 0 191 -63.5t91 -159.5l-210 -27q-5 26 -24.5 43t-44.5 17q-31 0 -51 -25.5t-20 -64.5t20 -64.5t51 -25.5q25 0 44.5 17t24.5 43l210 -25q-10 -88 -77 -149t-163 -73l-11 -63q44 0 71 -25.5
t27 -66.5q0 -44 -37.5 -71t-99.5 -27q-37 0 -67 16.5t-44 43.5l50 50q15 -30 48 -30q32 0 32 30q0 14 -14 22t-36 8z" />
    <glyph glyph-name="egrave" unicode="&#xe8;" horiz-adv-x="652" 
d="M265 310h126q0 27 -18 48.5t-45 21.5q-50 0 -63 -70zM31 260q0 125 83.5 202.5t216.5 77.5t211.5 -77.5t78.5 -205.5q0 -43 -3 -57h-350q19 -60 73 -60q46 0 60 40l200 -25q-15 -76 -92.5 -125.5t-182.5 -49.5q-132 0 -213.5 77t-81.5 203zM418 580h-150l-157 180h197z
" />
    <glyph glyph-name="eacute" unicode="&#xe9;" horiz-adv-x="652" 
d="M265 310h126q0 27 -18 48.5t-45 21.5q-50 0 -63 -70zM31 260q0 125 83.5 202.5t216.5 77.5t211.5 -77.5t78.5 -205.5q0 -43 -3 -57h-350q19 -60 73 -60q46 0 60 40l200 -25q-15 -76 -92.5 -125.5t-182.5 -49.5q-132 0 -213.5 77t-81.5 203zM391 580h-150l110 180h197z
" />
    <glyph glyph-name="ecircumflex" unicode="&#xea;" horiz-adv-x="652" 
d="M265 310h126q0 27 -18 48.5t-45 21.5q-50 0 -63 -70zM31 260q0 125 83.5 202.5t216.5 77.5t211.5 -77.5t78.5 -205.5q0 -43 -3 -57h-350q19 -60 73 -60q46 0 60 40l200 -25q-15 -76 -92.5 -125.5t-182.5 -49.5q-132 0 -213.5 77t-81.5 203zM391 580l-60 100l-60 -100
h-147l97 180h220l97 -180h-147z" />
    <glyph glyph-name="edieresis" unicode="&#xeb;" horiz-adv-x="652" 
d="M265 310h126q0 27 -18 48.5t-45 21.5q-50 0 -63 -70zM31 260q0 125 83.5 202.5t216.5 77.5t211.5 -77.5t78.5 -205.5q0 -43 -3 -57h-350q19 -60 73 -60q46 0 60 40l200 -25q-15 -76 -92.5 -125.5t-182.5 -49.5q-132 0 -213.5 77t-81.5 203zM191 573q-46 0 -75.5 28
t-29.5 72t29.5 72t75.5 28t75.5 -28t29.5 -72t-29.5 -72t-75.5 -28zM471 573q-46 0 -75.5 28t-29.5 72t29.5 72t75.5 28t75.5 -28t29.5 -72t-29.5 -72t-75.5 -28z" />
    <glyph glyph-name="igrave" unicode="&#xec;" horiz-adv-x="336" 
d="M56 520h230v-520h-230v520zM-49 760h197l110 -180h-150z" />
    <glyph glyph-name="iacute" unicode="&#xed;" horiz-adv-x="334" 
d="M51 520h230v-520h-230v520zM187 760h197l-157 -180h-151z" />
    <glyph glyph-name="icircumflex" unicode="&#xee;" horiz-adv-x="336" 
d="M53 520h230v-520h-230v520zM108 580h-147l97 180h220l97 -180h-147l-60 100z" />
    <glyph glyph-name="idieresis" unicode="&#xef;" horiz-adv-x="332" 
d="M51 520h230v-520h-230v520zM26 573q-46 0 -75.5 28t-29.5 72t29.5 72t75.5 28t75.5 -28t29.5 -72t-29.5 -72t-75.5 -28zM306 573q-46 0 -75.5 28t-29.5 72t29.5 72t75.5 28t75.5 -28t29.5 -72t-29.5 -72t-75.5 -28z" />
    <glyph glyph-name="ntilde" unicode="&#xf1;" 
d="M281 0h-230v520h220v-78q63 98 160 98q74 0 122 -56.5t48 -143.5v-340h-230v280q0 27 -12.5 43.5t-32.5 16.5t-32.5 -16.5t-12.5 -43.5v-280zM200 603l-104 52q15 48 57.5 81.5t91.5 33.5q40 0 87.5 -25t59.5 -25q30 0 49 37l105 -52q-15 -47 -60 -81t-96 -34
q-42 0 -89 25t-58 25q-25 0 -43 -37z" />
    <glyph glyph-name="ograve" unicode="&#xf2;" horiz-adv-x="662" 
d="M331 540q135 0 217.5 -77t82.5 -203t-82.5 -203t-217.5 -77t-217.5 77t-82.5 203t82.5 203t217.5 77zM331 180q31 0 50.5 22t19.5 58t-19.5 58t-50.5 22t-50.5 -22t-19.5 -58t19.5 -58t50.5 -22zM111 760h197l110 -180h-150z" />
    <glyph glyph-name="oacute" unicode="&#xf3;" horiz-adv-x="662" 
d="M331 540q135 0 217.5 -77t82.5 -203t-82.5 -203t-217.5 -77t-217.5 77t-82.5 203t82.5 203t217.5 77zM331 180q31 0 50.5 22t19.5 58t-19.5 58t-50.5 22t-50.5 -22t-19.5 -58t19.5 -58t50.5 -22zM351 760h197l-157 -180h-150z" />
    <glyph glyph-name="ocircumflex" unicode="&#xf4;" horiz-adv-x="662" 
d="M331 180q31 0 50.5 22t19.5 58t-19.5 58t-50.5 22t-50.5 -22t-19.5 -58t19.5 -58t50.5 -22zM331 540q135 0 217.5 -77t82.5 -203t-82.5 -203t-217.5 -77t-217.5 77t-82.5 203t82.5 203t217.5 77zM391 580l-60 100l-60 -100h-147l97 180h220l97 -180h-147z" />
    <glyph glyph-name="otilde" unicode="&#xf5;" horiz-adv-x="662" 
d="M331 180q31 0 50.5 22t19.5 58t-19.5 58t-50.5 22t-50.5 -22t-19.5 -58t19.5 -58t50.5 -22zM331 540q135 0 217.5 -77t82.5 -203t-82.5 -203t-217.5 -77t-217.5 77t-82.5 203t82.5 203t217.5 77zM215 603l-104 52q15 48 57.5 81.5t91.5 33.5q40 0 87.5 -25t59.5 -25
q31 0 49 37l105 -52q-15 -47 -60 -81t-96 -34q-42 0 -89 25t-58 25q-24 0 -43 -37z" />
    <glyph glyph-name="odieresis" unicode="&#xf6;" horiz-adv-x="662" 
d="M331 540q135 0 217.5 -77t82.5 -203t-82.5 -203t-217.5 -77t-217.5 77t-82.5 203t82.5 203t217.5 77zM331 180q31 0 50.5 22t19.5 58t-19.5 58t-50.5 22t-50.5 -22t-19.5 -58t19.5 -58t50.5 -22zM191 573q-46 0 -75.5 28t-29.5 72t29.5 72t75.5 28t75.5 -28t29.5 -72
t-29.5 -72t-75.5 -28zM471 573q-46 0 -75.5 28t-29.5 72t29.5 72t75.5 28t75.5 -28t29.5 -72t-29.5 -72t-75.5 -28z" />
    <glyph glyph-name="divide" unicode="&#xf7;" horiz-adv-x="512" 
d="M256 20q-46 0 -75.5 28t-29.5 72t29.5 72t75.5 28t75.5 -28t29.5 -72t-29.5 -72t-75.5 -28zM31 410h450v-160h-450v160zM256 440q-46 0 -75.5 28t-29.5 72t29.5 72t75.5 28t75.5 -28t29.5 -72t-29.5 -72t-75.5 -28z" />
    <glyph glyph-name="oslash" unicode="&#xf8;" horiz-adv-x="682" 
d="M251 185l104 195h-14q-48 0 -79 -33.5t-31 -86.5q0 -44 20 -75zM341 140q49 0 79.5 33t30.5 87q0 43 -20 74l-103 -193q4 -1 13 -1zM248 -9l-37 -71h-102l55 102q-64 36 -98.5 97t-34.5 141q0 126 85.5 203t224.5 77q47 0 93 -11l37 71h101l-55 -103q64 -36 99 -97
t35 -140q0 -126 -85.5 -203t-224.5 -77q-47 0 -93 11z" />
    <glyph glyph-name="ugrave" unicode="&#xf9;" 
d="M591 0h-220v78q-63 -98 -160 -98q-74 0 -122 56.5t-48 143.5v340h230v-280q0 -27 12.5 -43.5t32.5 -16.5t32.5 16.5t12.5 43.5v280h230v-520zM96 760h197l110 -180h-150z" />
    <glyph glyph-name="uacute" unicode="&#xfa;" 
d="M591 0h-220v78q-63 -98 -160 -98q-74 0 -122 56.5t-48 143.5v340h230v-280q0 -27 12.5 -43.5t32.5 -16.5t32.5 16.5t12.5 43.5v280h230v-520zM336 760h197l-157 -180h-150z" />
    <glyph glyph-name="ucircumflex" unicode="&#xfb;" 
d="M591 0h-220v78q-63 -98 -160 -98q-74 0 -122 56.5t-48 143.5v340h230v-280q0 -27 12.5 -43.5t32.5 -16.5t32.5 16.5t12.5 43.5v280h230v-520zM256 580h-147l97 180h220l97 -180h-147l-60 100z" />
    <glyph glyph-name="udieresis" unicode="&#xfc;" 
d="M591 0h-220v78q-63 -98 -160 -98q-74 0 -122 56.5t-48 143.5v340h230v-280q0 -27 12.5 -43.5t32.5 -16.5t32.5 16.5t12.5 43.5v280h230v-520zM176 573q-46 0 -75.5 28t-29.5 72t29.5 72t75.5 28t75.5 -28t29.5 -72t-29.5 -72t-75.5 -28zM456 573q-46 0 -75.5 28t-29.5 72
t29.5 72t75.5 28t75.5 -28t29.5 -72t-29.5 -72t-75.5 -28z" />
    <glyph glyph-name="yacute" unicode="&#xfd;" horiz-adv-x="657" 
d="M116 -220v155q15 -5 50 -5q32 0 47 2t30.5 15t23.5 41l-266 532h250l100 -243l70 243h235l-195 -550q-41 -115 -95.5 -162.5t-129.5 -47.5q-67 0 -120 20zM389 580h-150l110 180h197z" />
    <glyph glyph-name="ydieresis" unicode="&#xff;" horiz-adv-x="657" 
d="M116 -220v155q15 -5 50 -5q32 0 47 2t30.5 15t23.5 41l-266 532h250l100 -243l70 243h235l-195 -550q-41 -115 -95.5 -162.5t-129.5 -47.5q-67 0 -120 20zM189 573q-46 0 -75.5 28t-29.5 72t29.5 72t75.5 28t75.5 -28t29.5 -72t-29.5 -72t-75.5 -28zM469 573
q-46 0 -75.5 28t-29.5 72t29.5 72t75.5 28t75.5 -28t29.5 -72t-29.5 -72t-75.5 -28z" />
    <glyph glyph-name="Amacron" unicode="&#x100;" horiz-adv-x="804" 
d="M462 270l-60 231l-60 -231h120zM509 90h-214l-23 -90h-271l211 720h380l211 -720h-271zM216 810v130h370v-130h-370z" />
    <glyph glyph-name="amacron" unicode="&#x101;" horiz-adv-x="683" 
d="M331 180q31 0 50.5 22.5t19.5 57.5t-19.5 57.5t-50.5 22.5t-50.5 -22.5t-19.5 -57.5t19.5 -57.5t50.5 -22.5zM402 458v62h230v-520h-230v62q-54 -82 -145 -82q-102 0 -164 77t-62 203t62 203t164 77q91 0 145 -82zM127 600v130h370v-130h-370z" />
    <glyph glyph-name="Abreve" unicode="&#x102;" horiz-adv-x="804" 
d="M462 270l-60 231l-60 -231h120zM509 90h-214l-23 -90h-271l211 720h380l211 -720h-271zM441 950h130q0 -72 -47 -116t-123 -44t-123 44t-47 116h130q0 -22 11 -36t29 -14t29 14t11 36z" />
    <glyph glyph-name="abreve" unicode="&#x103;" horiz-adv-x="683" 
d="M331 180q31 0 50.5 22.5t19.5 57.5t-19.5 57.5t-50.5 22.5t-50.5 -22.5t-19.5 -57.5t19.5 -57.5t50.5 -22.5zM402 458v62h230v-520h-230v62q-54 -82 -145 -82q-102 0 -164 77t-62 203t62 203t164 77q91 0 145 -82zM352 760h130q0 -180 -170 -180t-170 180h130
q0 -32 11 -51t29 -19t29 19t11 51z" />
    <glyph glyph-name="Aogonek" unicode="&#x104;" horiz-adv-x="830" 
d="M462 270l-60 231l-60 -231h120zM681 0h-149l-23 90h-214l-23 -90h-271l211 720h380l211 -720h-4q-96 -37 -96 -96q0 -38 35 -63t91 -25v-95q-112 0 -181 43t-69 110q0 42 27 75t75 51z" />
    <glyph glyph-name="aogonek" unicode="&#x105;" horiz-adv-x="707" 
d="M331 180q31 0 50.5 22.5t19.5 57.5t-19.5 57.5t-50.5 22.5t-50.5 -22.5t-19.5 -57.5t19.5 -57.5t50.5 -22.5zM509 0h-107v62q-54 -82 -145 -82q-102 0 -164 77t-62 203t62 203t164 77q91 0 145 -82v62h230v-520h-5q-96 -36 -96 -96q0 -38 35 -63t91 -25v-95
q-112 0 -181 43t-69 110q0 42 27 75t75 51z" />
    <glyph glyph-name="Cacute" unicode="&#x106;" horiz-adv-x="842" 
d="M439 195q48 0 85.5 30.5t46.5 77.5l241 -25q-7 -132 -114.5 -217.5t-266.5 -85.5q-174 0 -287 109t-113 276t113 276t287 109q155 0 262 -85.5t116 -217.5l-239 -25q-8 47 -45 77.5t-85 30.5q-67 0 -108 -45.5t-41 -119.5t41 -119.5t107 -45.5zM457 950h198l-158 -160
h-157z" />
    <glyph glyph-name="cacute" unicode="&#x107;" horiz-adv-x="637" 
d="M329 540q110 0 191 -63.5t91 -159.5l-210 -27q-5 26 -24.5 43t-44.5 17q-31 0 -51 -25.5t-20 -64.5t20 -64.5t51 -25.5q25 0 44.5 17t24.5 43l210 -25q-11 -97 -91.5 -161t-190.5 -64q-128 0 -213 79.5t-85 200.5q0 122 84 201t214 79zM340 760h197l-157 -180h-150z" />
    <glyph glyph-name="Ccircumflex" unicode="&#x108;" horiz-adv-x="842" 
d="M439 195q48 0 85.5 30.5t46.5 77.5l241 -25q-7 -132 -114.5 -217.5t-266.5 -85.5q-174 0 -287 109t-113 276t113 276t287 109q155 0 262 -85.5t116 -217.5l-239 -25q-8 47 -45 77.5t-85 30.5q-67 0 -108 -45.5t-41 -119.5t41 -119.5t107 -45.5zM371 790h-140l90 160h220
l90 -160h-140l-60 80z" />
    <glyph glyph-name="ccircumflex" unicode="&#x109;" horiz-adv-x="637" 
d="M329 540q110 0 191 -63.5t91 -159.5l-210 -27q-5 26 -24.5 43t-44.5 17q-31 0 -51 -25.5t-20 -64.5t20 -64.5t51 -25.5q25 0 44.5 17t24.5 43l210 -25q-11 -97 -91.5 -161t-190.5 -64q-128 0 -213 79.5t-85 200.5q0 122 84 201t214 79zM260 580h-147l97 180h220l97 -180
h-147l-60 100z" />
    <glyph glyph-name="Cdotaccent" unicode="&#x10a;" horiz-adv-x="842" 
d="M439 195q48 0 85.5 30.5t46.5 77.5l241 -25q-7 -132 -114.5 -217.5t-266.5 -85.5q-174 0 -287 109t-113 276t113 276t287 109q155 0 262 -85.5t116 -217.5l-239 -25q-8 47 -45 77.5t-85 30.5q-67 0 -108 -45.5t-41 -119.5t41 -119.5t107 -45.5zM431 790q-50 0 -82.5 31
t-32.5 79t32.5 79t82.5 31t82.5 -31t32.5 -79t-32.5 -79t-82.5 -31z" />
    <glyph glyph-name="cdotaccent" unicode="&#x10b;" horiz-adv-x="637" 
d="M329 540q110 0 191 -63.5t91 -159.5l-210 -27q-5 26 -24.5 43t-44.5 17q-31 0 -51 -25.5t-20 -64.5t20 -64.5t51 -25.5q25 0 44.5 17t24.5 43l210 -25q-11 -97 -91.5 -161t-190.5 -64q-128 0 -213 79.5t-85 200.5q0 122 84 201t214 79zM319 590q-50 0 -82.5 31t-32.5 79
t32.5 79t82.5 31q51 0 83 -31t32 -79t-32 -79t-83 -31z" />
    <glyph glyph-name="Ccaron" unicode="&#x10c;" horiz-adv-x="842" 
d="M439 195q48 0 85.5 30.5t46.5 77.5l241 -25q-7 -132 -114.5 -217.5t-266.5 -85.5q-174 0 -287 109t-113 276t113 276t287 109q155 0 262 -85.5t116 -217.5l-239 -25q-8 47 -45 77.5t-85 30.5q-67 0 -108 -45.5t-41 -119.5t41 -119.5t107 -45.5zM491 970h147l-97 -180
h-220l-97 180h147l60 -100z" />
    <glyph glyph-name="ccaron" unicode="&#x10d;" horiz-adv-x="637" 
d="M329 540q110 0 191 -63.5t91 -159.5l-210 -27q-5 26 -24.5 43t-44.5 17q-31 0 -51 -25.5t-20 -64.5t20 -64.5t51 -25.5q25 0 44.5 17t24.5 43l210 -25q-11 -97 -91.5 -161t-190.5 -64q-128 0 -213 79.5t-85 200.5q0 122 84 201t214 79zM380 760h147l-97 -180h-220
l-97 180h147l60 -100z" />
    <glyph glyph-name="Dcaron" unicode="&#x10e;" horiz-adv-x="821" 
d="M531 360q0 76 -41.5 123t-108.5 47h-70v-340h70q67 0 108.5 47t41.5 123zM381 0h-320v720h320q185 0 297.5 -99t112.5 -261t-112.5 -261t-297.5 -99zM316 970l60 -100l60 100h147l-97 -180h-220l-97 180h147z" />
    <glyph glyph-name="dcaron" unicode="&#x10f;" horiz-adv-x="848" 
d="M331 340q-31 0 -50.5 -22.5t-19.5 -57.5t19.5 -57.5t50.5 -22.5t50.5 22.5t19.5 57.5t-19.5 57.5t-50.5 22.5zM31 260q0 126 60.5 203t159.5 77q85 0 140 -68v278h230v-750h-230v46q-53 -66 -140 -66q-99 0 -159.5 77t-60.5 203zM728 560q-36 0 -58 26.5t-22 67.5
q0 43 25.5 69.5t67.5 26.5q48 0 77.5 -33.5t29.5 -88.5q0 -58 -27.5 -117t-69.5 -91l-93 20q30 25 50 58.5t20 61.5z" />
    <glyph glyph-name="Dcroat" unicode="&#x110;" horiz-adv-x="841" 
d="M81 440v280h320q185 0 297.5 -99t112.5 -261t-112.5 -261t-297.5 -99h-320v310h-80v130h80zM551 360q0 76 -41 123t-109 47h-70v-90h70v-130h-70v-120h70q68 0 109 47t41 123z" />
    <glyph glyph-name="dcroat" unicode="&#x111;" horiz-adv-x="681" 
d="M331 340q-31 0 -50.5 -22.5t-19.5 -57.5t19.5 -57.5t50.5 -22.5t50.5 22.5t19.5 57.5t-19.5 57.5t-50.5 22.5zM391 472v98h-120v110h120v70h230v-70h60v-110h-60v-570h-230v46q-53 -66 -140 -66q-99 0 -159.5 77t-60.5 203t60.5 203t159.5 77q85 0 140 -68z" />
    <glyph glyph-name="Emacron" unicode="&#x112;" horiz-adv-x="621" 
d="M311 280v-80h280v-200h-530v720h520v-200h-270v-70h230v-170h-230zM506 940v-130h-370v130h370z" />
    <glyph glyph-name="emacron" unicode="&#x113;" horiz-adv-x="652" 
d="M265 310h126q0 27 -18 48.5t-45 21.5q-50 0 -63 -70zM31 260q0 125 83.5 202.5t216.5 77.5t211.5 -77.5t78.5 -205.5q0 -43 -3 -57h-350q19 -60 73 -60q46 0 60 40l200 -25q-15 -76 -92.5 -125.5t-182.5 -49.5q-132 0 -213.5 77t-81.5 203zM146 600v130h370v-130h-370z
" />
    <glyph glyph-name="Ebreve" unicode="&#x114;" horiz-adv-x="621" 
d="M311 280v-80h280v-200h-530v720h520v-200h-270v-70h230v-170h-230zM361 950h130q0 -72 -46.5 -116t-123.5 -44t-123.5 44t-46.5 116h130q0 -22 11 -36t29 -14t29 14t11 36z" />
    <glyph glyph-name="ebreve" unicode="&#x115;" horiz-adv-x="652" 
d="M265 310h126q0 27 -18 48.5t-45 21.5q-50 0 -63 -70zM31 260q0 125 83.5 202.5t216.5 77.5t211.5 -77.5t78.5 -205.5q0 -43 -3 -57h-350q19 -60 73 -60q46 0 60 40l200 -25q-15 -76 -92.5 -125.5t-182.5 -49.5q-132 0 -213.5 77t-81.5 203zM371 760h130q0 -180 -170 -180
t-170 180h130q0 -32 11 -51t29 -19t29 19t11 51z" />
    <glyph glyph-name="Edotaccent" unicode="&#x116;" horiz-adv-x="621" 
d="M311 280v-80h280v-200h-530v720h520v-200h-270v-70h230v-170h-230zM321 790q-50 0 -82.5 31t-32.5 79t32.5 79t82.5 31t82.5 -31t32.5 -79t-32.5 -79t-82.5 -31z" />
    <glyph glyph-name="edotaccent" unicode="&#x117;" horiz-adv-x="652" 
d="M265 310h126q0 27 -18 48.5t-45 21.5q-50 0 -63 -70zM31 260q0 125 83.5 202.5t216.5 77.5t211.5 -77.5t78.5 -205.5q0 -43 -3 -57h-350q19 -60 73 -60q46 0 60 40l200 -25q-15 -76 -92.5 -125.5t-182.5 -49.5q-132 0 -213.5 77t-81.5 203zM330 590q-50 0 -82.5 31
t-32.5 79t32.5 79t82.5 31q51 0 83 -31t32 -79t-32 -79t-83 -31z" />
    <glyph glyph-name="Eogonek" unicode="&#x118;" horiz-adv-x="621" 
d="M443 0h-382v720h520v-200h-270v-70h230v-170h-230v-80h280v-200h-30q-96 -37 -96 -96q0 -38 35 -63t91 -25v-95q-112 0 -181 43t-69 110q0 42 27 75t75 51z" />
    <glyph glyph-name="eogonek" unicode="&#x119;" horiz-adv-x="652" 
d="M265 310h126q0 27 -18 48.5t-45 21.5q-50 0 -63 -70zM302 -19q-122 8 -196.5 84t-74.5 195q0 125 83.5 202.5t216.5 77.5t211.5 -77.5t78.5 -205.5q0 -43 -3 -57h-350q19 -60 73 -60q46 0 60 40l200 -25q-10 -51 -50 -91.5t-100 -62.5l9 -1q-99 -37 -99 -97q0 -38 35 -63
t91 -25v-95q-112 0 -181 43t-69 110t65 108z" />
    <glyph glyph-name="Ecaron" unicode="&#x11a;" horiz-adv-x="621" 
d="M311 280v-80h280v-200h-530v720h520v-200h-270v-70h230v-170h-230zM381 970h147l-97 -180h-220l-97 180h147l60 -100z" />
    <glyph glyph-name="ecaron" unicode="&#x11b;" horiz-adv-x="652" 
d="M265 310h126q0 27 -18 48.5t-45 21.5q-50 0 -63 -70zM31 260q0 125 83.5 202.5t216.5 77.5t211.5 -77.5t78.5 -205.5q0 -43 -3 -57h-350q19 -60 73 -60q46 0 60 40l200 -25q-15 -76 -92.5 -125.5t-182.5 -49.5q-132 0 -213.5 77t-81.5 203zM271 760l60 -100l60 100h147
l-97 -180h-220l-97 180h147z" />
    <glyph glyph-name="Gcircumflex" unicode="&#x11c;" horiz-adv-x="861" 
d="M451 195q50 0 87.5 24t42.5 61h-150v140h397q22 -193 -87.5 -319t-299.5 -126q-178 0 -294 109t-116 276t116 276t294 109q138 0 236 -71t121 -184l-239 -40q-10 33 -43.5 54t-76.5 21q-65 0 -106.5 -46.5t-41.5 -118.5t45 -118.5t115 -46.5zM381 790h-140l90 160h220
l90 -160h-140l-60 80z" />
    <glyph glyph-name="gcircumflex" unicode="&#x11d;" horiz-adv-x="672" 
d="M331 180q31 0 50.5 22.5t19.5 57.5t-19.5 57.5t-50.5 22.5t-50.5 -22.5t-19.5 -57.5t19.5 -57.5t50.5 -22.5zM320 -80q32 0 51.5 25t19.5 65v52q-56 -62 -142 -62q-95 0 -156.5 72t-61.5 188q0 125 61.5 202.5t156.5 77.5q87 0 142 -67v47h230v-520q0 -112 -79.5 -181
t-210.5 -69q-116 0 -195 59.5t-86 150.5l198 20q4 -26 25 -43t47 -17zM386 580l-60 100l-60 -100h-147l97 180h220l97 -180h-147z" />
    <glyph glyph-name="Gbreve" unicode="&#x11e;" horiz-adv-x="861" 
d="M451 195q50 0 87.5 24t42.5 61h-150v140h397q22 -193 -87.5 -319t-299.5 -126q-178 0 -294 109t-116 276t116 276t294 109q138 0 236 -71t121 -184l-239 -40q-10 33 -43.5 54t-76.5 21q-65 0 -106.5 -46.5t-41.5 -118.5t45 -118.5t115 -46.5zM481 950h130
q0 -72 -46.5 -116t-123.5 -44t-123.5 44t-46.5 116h130q0 -22 11 -36t29 -14t29 14t11 36z" />
    <glyph glyph-name="gbreve" unicode="&#x11f;" horiz-adv-x="672" 
d="M331 180q31 0 50.5 22.5t19.5 57.5t-19.5 57.5t-50.5 22.5t-50.5 -22.5t-19.5 -57.5t19.5 -57.5t50.5 -22.5zM320 -80q32 0 51.5 25t19.5 65v52q-56 -62 -142 -62q-95 0 -156.5 72t-61.5 188q0 125 61.5 202.5t156.5 77.5q87 0 142 -67v47h230v-520q0 -112 -79.5 -181
t-210.5 -69q-116 0 -195 59.5t-86 150.5l198 20q4 -26 25 -43t47 -17zM366 760h130q0 -180 -170 -180t-170 180h130q0 -32 11 -51t29 -19t29 19t11 51z" />
    <glyph glyph-name="Gdotaccent" unicode="&#x120;" horiz-adv-x="861" 
d="M451 195q50 0 87.5 24t42.5 61h-150v140h397q22 -193 -87.5 -319t-299.5 -126q-178 0 -294 109t-116 276t116 276t294 109q138 0 236 -71t121 -184l-239 -40q-10 33 -43.5 54t-76.5 21q-65 0 -106.5 -46.5t-41.5 -118.5t45 -118.5t115 -46.5zM441 790q-50 0 -82.5 31
t-32.5 79t32.5 79t82.5 31t82.5 -31t32.5 -79t-32.5 -79t-82.5 -31z" />
    <glyph glyph-name="gdotaccent" unicode="&#x121;" horiz-adv-x="672" 
d="M331 180q31 0 50.5 22.5t19.5 57.5t-19.5 57.5t-50.5 22.5t-50.5 -22.5t-19.5 -57.5t19.5 -57.5t50.5 -22.5zM320 -80q32 0 51.5 25t19.5 65v52q-56 -62 -142 -62q-95 0 -156.5 72t-61.5 188q0 125 61.5 202.5t156.5 77.5q87 0 142 -67v47h230v-520q0 -112 -79.5 -181
t-210.5 -69q-116 0 -195 59.5t-86 150.5l198 20q4 -26 25 -43t47 -17zM325 590q-50 0 -82.5 31t-32.5 79t32.5 79t82.5 31q51 0 83 -31t32 -79t-32 -79t-83 -31z" />
    <glyph glyph-name="Gcommaaccent" unicode="&#x122;" horiz-adv-x="861" 
d="M451 195q50 0 87.5 24t42.5 61h-150v140h397q22 -193 -87.5 -319t-299.5 -126q-178 0 -294 109t-116 276t116 276t294 109q138 0 236 -71t121 -184l-239 -40q-10 33 -43.5 54t-76.5 21q-65 0 -106.5 -46.5t-41.5 -118.5t45 -118.5t115 -46.5zM428 -260q-36 0 -58 26.5
t-22 67.5q0 43 25.5 69.5t67.5 26.5q48 0 77.5 -33.5t29.5 -88.5q0 -58 -27.5 -117t-69.5 -91l-93 20q30 25 50 58.5t20 61.5z" />
    <glyph glyph-name="gcommaaccent" unicode="&#x123;" horiz-adv-x="672" 
d="M331 180q31 0 50.5 22.5t19.5 57.5t-19.5 57.5t-50.5 22.5t-50.5 -22.5t-19.5 -57.5t19.5 -57.5t50.5 -22.5zM320 -80q32 0 51.5 25t19.5 65v52q-56 -62 -142 -62q-95 0 -156.5 72t-61.5 188q0 125 61.5 202.5t156.5 77.5q87 0 142 -67v47h230v-520q0 -112 -79.5 -181
t-210.5 -69q-116 0 -195 59.5t-86 150.5l198 20q4 -26 25 -43t47 -17zM333 760q36 0 58 -26.5t22 -67.5q0 -43 -25.5 -69.5t-67.5 -26.5q-48 0 -77.5 33.5t-29.5 88.5q0 58 27 117t69 91l94 -20q-31 -25 -50.5 -58.5t-19.5 -61.5z" />
    <glyph glyph-name="Itilde" unicode="&#x128;" horiz-adv-x="372" 
d="M61 0v720h260v-720h-260zM65 823l-104 52q15 48 57.5 81.5t91.5 33.5q40 0 87.5 -25t59.5 -25q31 0 49 37l105 -52q-15 -47 -60 -81t-96 -34q-42 0 -89 25t-58 25q-24 0 -43 -37z" />
    <glyph glyph-name="itilde" unicode="&#x129;" horiz-adv-x="332" 
d="M276 0h-230v520h230v-520zM45 603l-104 52q15 48 57.5 81.5t91.5 33.5q40 0 87.5 -25t59.5 -25q31 0 49 37l105 -52q-15 -47 -60 -81t-96 -34q-42 0 -89 25t-58 25q-24 0 -43 -37z" />
    <glyph glyph-name="Imacron" unicode="&#x12a;" horiz-adv-x="382" 
d="M61 720h260v-720h-260v720zM376 940v-130h-370v130h370z" />
    <glyph glyph-name="imacron" unicode="&#x12b;" horiz-adv-x="352" 
d="M61 520h230v-520h-230v520zM361 730v-130h-370v130h370z" />
    <glyph glyph-name="Iogonek" unicode="&#x12e;" horiz-adv-x="408" 
d="M200 0h-139v720h260v-720h-3q-97 -37 -97 -96q0 -38 35 -63t91 -25v-95q-112 0 -181 43t-69 110q0 41 27.5 74.5t75.5 51.5z" />
    <glyph glyph-name="iogonek" unicode="&#x12f;" horiz-adv-x="368" 
d="M169 0h-108v520h230v-520h-4q-96 -37 -96 -96q0 -38 35 -63t91 -25v-95q-112 0 -181 43t-69 110q0 42 27 75t75 51zM176 560q-54 0 -89.5 34t-35.5 86t35.5 86t89.5 34q55 0 90 -33.5t35 -86.5t-35 -86.5t-90 -33.5z" />
    <glyph glyph-name="Idotaccent" unicode="&#x130;" horiz-adv-x="382" 
d="M61 720h260v-720h-260v720zM191 790q-50 0 -82.5 31t-32.5 79t32.5 79t82.5 31t82.5 -31t32.5 -79t-32.5 -79t-82.5 -31z" />
    <glyph glyph-name="dotlessi" unicode="&#x131;" horiz-adv-x="332" 
d="M51 520h230v-520h-230v520z" />
    <glyph glyph-name="IJ" unicode="&#x132;" horiz-adv-x="882" 
d="M61 0v720h260v-720h-260zM562 280v440h260v-480q0 -116 -76.5 -188t-195.5 -72q-95 0 -158 20v190q35 -10 80 -10q40 0 65 27.5t25 72.5z" />
    <glyph glyph-name="ij" unicode="&#x133;" horiz-adv-x="692" 
d="M61 0v520h230v-520h-230zM402 10v510h230v-540q0 -99 -58.5 -159.5t-153.5 -60.5q-75 0 -138 20v175q23 -5 55 -5q29 0 47 16.5t18 43.5zM176 560q-54 0 -89.5 34t-35.5 86t35.5 86t89.5 34q55 0 90 -33.5t35 -86.5t-35 -86.5t-90 -33.5zM517 560q-54 0 -89.5 34
t-35.5 86t35.5 86t89.5 34q55 0 90 -33.5t35 -86.5t-35 -86.5t-90 -33.5z" />
    <glyph glyph-name="Kcommaaccent" unicode="&#x136;" horiz-adv-x="795" 
d="M321 0h-260v720h260v-266l170 266h303l-243 -340l243 -380h-303l-170 295v-295zM388 -260q-36 0 -58 26.5t-22 67.5q0 43 25.5 69.5t67.5 26.5q48 0 77.5 -33.5t29.5 -88.5q0 -58 -27.5 -117t-69.5 -91l-93 20q30 25 50 58.5t20 61.5z" />
    <glyph glyph-name="kcommaaccent" unicode="&#x137;" horiz-adv-x="677" 
d="M51 0v750h230v-407l130 177h264l-194 -250l196 -270h-266l-130 196v-196h-230zM323 -260q-36 0 -58 26.5t-22 67.5q0 43 25.5 69.5t67.5 26.5q48 0 77.5 -33.5t29.5 -88.5q0 -58 -27.5 -117t-69.5 -91l-93 20q30 25 50 58.5t20 61.5z" />
    <glyph glyph-name="Lacute" unicode="&#x139;" horiz-adv-x="581" 
d="M551 0h-490v720h260v-500h230v-220zM211 950h198l-158 -160h-156z" />
    <glyph glyph-name="lacute" unicode="&#x13a;" horiz-adv-x="429" 
d="M51 750h230v-750h-230v750zM181 960h197l-157 -180h-150z" />
    <glyph glyph-name="Lcommaaccent" unicode="&#x13b;" horiz-adv-x="581" 
d="M321 220h230v-220h-490v720h260v-500zM288 -260q-36 0 -58 26.5t-22 67.5q0 43 25.5 69.5t67.5 26.5q48 0 77.5 -33.5t29.5 -88.5q0 -58 -27.5 -117t-69.5 -91l-93 20q30 25 50 58.5t20 61.5z" />
    <glyph glyph-name="lcommaaccent" unicode="&#x13c;" horiz-adv-x="332" 
d="M51 0v750h230v-750h-230zM147 -260q-36 0 -58 26.5t-22 67.5q0 43 25.5 69.5t67.5 26.5q48 0 77.5 -33.5t29.5 -88.5q0 -58 -27.5 -117t-69.5 -91l-93 20q30 25 50 58.5t20 61.5z" />
    <glyph glyph-name="Lcaron" unicode="&#x13d;" horiz-adv-x="588" 
d="M551 0h-490v720h260v-500h230v-220zM438 560q-36 0 -58 26.5t-22 67.5q0 43 25.5 69.5t67.5 26.5q48 0 77.5 -33.5t29.5 -88.5q0 -58 -27.5 -117t-69.5 -91l-93 20q30 25 50 58.5t20 61.5z" />
    <glyph glyph-name="lcaron" unicode="&#x13e;" horiz-adv-x="521" 
d="M51 750h230v-750h-230v750zM401 560q-36 0 -58 26.5t-22 67.5q0 43 25.5 69.5t67.5 26.5q48 0 77.5 -33.5t29.5 -88.5q0 -58 -27.5 -117t-69.5 -91l-93 20q30 25 50 58.5t20 61.5z" />
    <glyph glyph-name="Lslash" unicode="&#x141;" horiz-adv-x="521" 
d="M1 310l100 63v347h260v-183l210 133v-187l-210 -133v-130h230v-220h-490v186l-100 -63v187z" />
    <glyph glyph-name="lslash" unicode="&#x142;" horiz-adv-x="510" 
d="M490 443l-120 -77v-366h-230v220l-120 -77v187l120 77v343h230v-197l120 77v-187z" />
    <glyph glyph-name="Nacute" unicode="&#x143;" horiz-adv-x="832" 
d="M321 720l210 -407v407h240v-720h-260l-210 405v-405h-240v720h260zM444 950h198l-158 -160h-157z" />
    <glyph glyph-name="nacute" unicode="&#x144;" 
d="M51 520h220v-78q63 98 160 98q74 0 122 -56.5t48 -143.5v-340h-230v280q0 27 -12.5 43.5t-32.5 16.5t-32.5 -16.5t-12.5 -43.5v-280h-230v520zM376 760h197l-157 -180h-150z" />
    <glyph glyph-name="Ncommaaccent" unicode="&#x145;" horiz-adv-x="832" 
d="M61 720h260l210 -407v407h240v-720h-260l-210 405v-405h-240v720zM403 -260q-36 0 -58 26.5t-22 67.5q0 43 25.5 69.5t67.5 26.5q48 0 77.5 -33.5t29.5 -88.5q0 -58 -27 -117t-69 -91l-94 20q31 25 50.5 58.5t19.5 61.5z" />
    <glyph glyph-name="ncommaaccent" unicode="&#x146;" 
d="M51 520h220v-78q63 98 160 98q74 0 122 -56.5t48 -143.5v-340h-230v280q0 27 -12.5 43.5t-32.5 16.5t-32.5 -16.5t-12.5 -43.5v-280h-230v520zM311 -260q-36 0 -58 26.5t-22 67.5q0 43 25.5 69.5t67.5 26.5q48 0 77.5 -33.5t29.5 -88.5q0 -58 -27.5 -117t-69.5 -91
l-93 20q30 25 50 58.5t20 61.5z" />
    <glyph glyph-name="Ncaron" unicode="&#x147;" horiz-adv-x="832" 
d="M321 720l210 -407v407h240v-720h-260l-210 405v-405h-240v720h260zM478 970h147l-97 -180h-220l-97 180h147l60 -100z" />
    <glyph glyph-name="ncaron" unicode="&#x148;" 
d="M51 520h220v-78q63 98 160 98q74 0 122 -56.5t48 -143.5v-340h-230v280q0 27 -12.5 43.5t-32.5 16.5t-32.5 -16.5t-12.5 -43.5v-280h-230v520zM416 760h147l-97 -180h-220l-97 180h147l60 -100z" />
    <glyph glyph-name="Omacron" unicode="&#x14c;" horiz-adv-x="881" 
d="M441 -25q-185 0 -297.5 106t-112.5 279t112.5 279t297.5 106t297.5 -106t112.5 -279t-112.5 -279t-297.5 -106zM441 525q-67 0 -108.5 -45.5t-41.5 -119.5t41.5 -119.5t108.5 -45.5t108.5 45.5t41.5 119.5t-41.5 119.5t-108.5 45.5zM626 940v-130h-370v130h370z" />
    <glyph glyph-name="omacron" unicode="&#x14d;" horiz-adv-x="662" 
d="M331 540q135 0 217.5 -77t82.5 -203t-82.5 -203t-217.5 -77t-217.5 77t-82.5 203t82.5 203t217.5 77zM331 180q31 0 50.5 22t19.5 58t-19.5 58t-50.5 22t-50.5 -22t-19.5 -58t19.5 -58t50.5 -22zM516 730v-130h-370v130h370z" />
    <glyph glyph-name="Obreve" unicode="&#x14e;" horiz-adv-x="881" 
d="M441 525q-67 0 -108.5 -45.5t-41.5 -119.5t41.5 -119.5t108.5 -45.5t108.5 45.5t41.5 119.5t-41.5 119.5t-108.5 45.5zM441 -25q-185 0 -297.5 106t-112.5 279t112.5 279t297.5 106t297.5 -106t112.5 -279t-112.5 -279t-297.5 -106zM481 950h130q0 -72 -46.5 -116
t-123.5 -44t-123.5 44t-46.5 116h130q0 -22 11 -36t29 -14t29 14t11 36z" />
    <glyph glyph-name="obreve" unicode="&#x14f;" horiz-adv-x="662" 
d="M331 180q31 0 50.5 22t19.5 58t-19.5 58t-50.5 22t-50.5 -22t-19.5 -58t19.5 -58t50.5 -22zM331 540q135 0 217.5 -77t82.5 -203t-82.5 -203t-217.5 -77t-217.5 77t-82.5 203t82.5 203t217.5 77zM371 760h130q0 -180 -170 -180t-170 180h130q0 -32 11 -51t29 -19t29 19
t11 51z" />
    <glyph glyph-name="Ohungarumlaut" unicode="&#x150;" horiz-adv-x="881" 
d="M441 -25q-185 0 -297.5 106t-112.5 279t112.5 279t297.5 106t297.5 -106t112.5 -279t-112.5 -279t-297.5 -106zM441 525q-67 0 -108.5 -45.5t-41.5 -119.5t41.5 -119.5t108.5 -45.5t108.5 45.5t41.5 119.5t-41.5 119.5t-108.5 45.5zM353 950h190l-130 -160h-152zM583 950
h190l-150 -160h-152z" />
    <glyph glyph-name="ohungarumlaut" unicode="&#x151;" horiz-adv-x="660" 
d="M330 540q135 0 217.5 -77t82.5 -203t-82.5 -203t-217.5 -77t-217.5 77t-82.5 203t82.5 203t217.5 77zM330 180q32 0 51 22t19 58t-19 58t-51 22t-51 -22t-19 -58t19 -58t51 -22zM233 760h197l-137 -180h-143zM463 760h207l-167 -180h-150z" />
    <glyph glyph-name="OE" unicode="&#x152;" horiz-adv-x="1041" 
d="M521 231v258q-38 36 -90 36q-61 0 -100.5 -46.5t-39.5 -118.5t39.5 -118.5t100.5 -46.5q52 0 90 36zM31 360q0 177 96.5 281t273.5 104q61 0 120 -25h480v-200h-230v-70h190v-170h-190v-80h240v-200h-488q-59 -25 -122 -25q-177 0 -273.5 104t-96.5 281z" />
    <glyph glyph-name="oe" unicode="&#x153;" horiz-adv-x="1023" 
d="M331 180q31 0 50.5 22t19.5 58t-19.5 58t-50.5 22t-50.5 -22t-19.5 -58t19.5 -58t50.5 -22zM636 310h126q0 27 -18 48.5t-45 21.5q-50 0 -63 -70zM517 50q-62 -70 -186 -70q-135 0 -217.5 77t-82.5 203t82.5 203t217.5 77q124 0 187 -71q66 71 194 71q126 0 203 -78
t77 -205q0 -43 -3 -57h-350q19 -60 72 -60q45 0 62 40l188 -38q-18 -70 -90 -116t-164 -46q-126 0 -190 70z" />
    <glyph glyph-name="Racute" unicode="&#x154;" horiz-adv-x="805" 
d="M391 540h-70v-160h70q42 0 71 21.5t29 58.5t-29 58.5t-71 21.5zM381 220h-60v-220h-260v720h383q139 0 223 -71t84 -189q0 -72 -37 -125.5t-103 -82.5l164 -252h-284zM457 790h-157l117 160h198z" />
    <glyph glyph-name="racute" unicode="&#x155;" horiz-adv-x="484" 
d="M51 520h220v-66q20 39 57 62.5t78 23.5q30 0 55 -12v-203q-53 23 -96 23q-38 0 -61 -24t-23 -64v-260h-230v520zM276 760h197l-157 -180h-150z" />
    <glyph glyph-name="Rcommaaccent" unicode="&#x156;" horiz-adv-x="805" 
d="M391 540h-70v-160h70q42 0 71 21.5t29 58.5t-29 58.5t-71 21.5zM381 220h-60v-220h-260v720h383q139 0 223 -71t84 -189q0 -72 -37 -125.5t-103 -82.5l164 -252h-284zM387 -260q-36 0 -58 26.5t-22 67.5q0 43 25.5 69.5t67.5 26.5q48 0 77.5 -33.5t29.5 -88.5
q0 -58 -27 -117t-69 -92l-94 21q31 24 50.5 58t19.5 62z" />
    <glyph glyph-name="rcommaaccent" unicode="&#x157;" horiz-adv-x="471" 
d="M281 0h-230v520h220v-66q20 39 57 62.5t78 23.5q30 0 55 -12v-203q-53 23 -96 23q-38 0 -61 -24t-23 -64v-260zM153 -260q-36 0 -58 26.5t-22 67.5q0 43 25.5 69.5t67.5 26.5q48 0 77.5 -33.5t29.5 -88.5q0 -58 -27.5 -117t-69.5 -91l-93 20q30 25 50 58.5t20 61.5z" />
    <glyph glyph-name="Rcaron" unicode="&#x158;" horiz-adv-x="805" 
d="M391 540h-70v-160h70q42 0 71 21.5t29 58.5t-29 58.5t-71 21.5zM381 220h-60v-220h-260v720h383q139 0 223 -71t84 -189q0 -72 -37 -125.5t-103 -82.5l164 -252h-284zM331 970l60 -100l60 100h147l-97 -180h-220l-97 180h147z" />
    <glyph glyph-name="rcaron" unicode="&#x159;" horiz-adv-x="471" 
d="M51 520h220v-66q20 39 57 62.5t78 23.5q30 0 55 -12v-203q-53 23 -96 23q-38 0 -61 -24t-23 -64v-260h-230v520zM316 760h147l-97 -180h-220l-97 180h147l60 -100z" />
    <glyph glyph-name="Sacute" unicode="&#x15a;" horiz-adv-x="731" 
d="M696 240q0 -118 -95.5 -191.5t-244.5 -73.5q-140 0 -231 74.5t-91 189.5h222q0 -36 31.5 -60t77.5 -24q35 0 58 14t23 36q0 14 -8 23.5t-27 15.5t-35 8.5t-47 5.5q-51 6 -90 14t-79 25.5t-66 41.5t-42 62.5t-16 88.5q0 114 89.5 184.5t230.5 70.5q140 0 231 -72t91 -182
h-212q0 32 -28.5 53t-72.5 21q-34 0 -56.5 -13t-22.5 -32q0 -9 3.5 -16t13 -12t17 -8.5t25 -6t27.5 -4t33 -3.5q49 -5 88 -13t78.5 -24.5t65.5 -40.5t42.5 -63t16.5 -89zM382 950h198l-158 -160h-157z" />
    <glyph glyph-name="sacute" unicode="&#x15b;" horiz-adv-x="602" 
d="M566 181q0 -91 -77.5 -148.5t-202.5 -57.5q-109 0 -180 54.5t-71 138.5h181q0 -23 21 -38t54 -15q24 0 39.5 10t15.5 26q0 17 -21 26t-78 12q-46 2 -79 9t-65.5 23.5t-49.5 49t-17 79.5q0 85 70.5 140t179.5 55q111 0 183 -52t72 -132h-190q-1 19 -19 31.5t-45 12.5
q-22 0 -36.5 -8.5t-14.5 -22.5q0 -30 71 -35q54 -5 91.5 -12t80 -23t65 -47t22.5 -76zM317 760h197l-157 -180h-151z" />
    <glyph glyph-name="Scircumflex" unicode="&#x15c;" horiz-adv-x="731" 
d="M696 240q0 -118 -95.5 -191.5t-244.5 -73.5q-140 0 -231 74.5t-91 189.5h222q0 -36 31.5 -60t77.5 -24q35 0 58 14t23 36q0 14 -8 23.5t-27 15.5t-35 8.5t-47 5.5q-51 6 -90 14t-79 25.5t-66 41.5t-42 62.5t-16 88.5q0 114 89.5 184.5t230.5 70.5q140 0 231 -72t91 -182
h-212q0 32 -28.5 53t-72.5 21q-34 0 -56.5 -13t-22.5 -32q0 -9 3.5 -16t13 -12t17 -8.5t25 -6t27.5 -4t33 -3.5q49 -5 88 -13t78.5 -24.5t65.5 -40.5t42.5 -63t16.5 -89zM296 790h-140l90 160h220l90 -160h-140l-60 80z" />
    <glyph glyph-name="scircumflex" unicode="&#x15d;" horiz-adv-x="602" 
d="M566 181q0 -91 -77.5 -148.5t-202.5 -57.5q-109 0 -180 54.5t-71 138.5h181q0 -23 21 -38t54 -15q24 0 39.5 10t15.5 26q0 17 -21 26t-78 12q-46 2 -79 9t-65.5 23.5t-49.5 49t-17 79.5q0 85 70.5 140t179.5 55q111 0 183 -52t72 -132h-190q-1 19 -19 31.5t-45 12.5
q-22 0 -36.5 -8.5t-14.5 -22.5q0 -30 71 -35q54 -5 91.5 -12t80 -23t65 -47t22.5 -76zM236 580h-147l97 180h220l97 -180h-147l-60 100z" />
    <glyph glyph-name="Scedilla" unicode="&#x15e;" horiz-adv-x="731" 
d="M316 -130h-50l20 110q-113 18 -182.5 88.5t-69.5 170.5h222q0 -36 31.5 -60t77.5 -24q35 0 58 14t23 36q0 14 -8 23.5t-27 15.5t-35 8.5t-47 5.5q-51 6 -90 14t-79 25.5t-66 41.5t-42 62.5t-16 88.5q0 114 89.5 184.5t230.5 70.5q140 0 231 -72t91 -182h-212
q0 32 -28.5 53t-72.5 21q-34 0 -56.5 -13t-22.5 -32q0 -9 3.5 -16t13 -12t17 -8.5t25 -6t27.5 -4t33 -3.5q49 -5 88 -13t78.5 -24.5t65.5 -40.5t42.5 -63t16.5 -89q0 -110 -83 -181.5t-217 -81.5l-10 -57q44 0 71 -25.5t27 -66.5q0 -44 -37.5 -71t-99.5 -27q-37 0 -67 16.5
t-44 43.5l50 50q15 -30 48 -30q32 0 32 30q0 14 -14 22t-36 8z" />
    <glyph glyph-name="scedilla" unicode="&#x15f;" horiz-adv-x="602" 
d="M276 -130h-50l20 107q-94 10 -152.5 62.5t-58.5 128.5h181q0 -23 21 -38t54 -15q24 0 39.5 10t15.5 26q0 17 -21 26t-78 12q-46 2 -79 9t-65.5 23.5t-49.5 49t-17 79.5q0 85 70.5 140t179.5 55q111 0 183 -52t72 -132h-190q-1 19 -19 31.5t-45 12.5q-22 0 -36.5 -8.5
t-14.5 -22.5q0 -30 71 -35q54 -5 91.5 -12t80 -23t65 -47t22.5 -76q0 -77 -56.5 -131t-152.5 -70l-11 -60q44 0 71 -25.5t27 -66.5q0 -44 -37.5 -71t-99.5 -27q-37 0 -67 16.5t-44 43.5l50 50q15 -30 48 -30q32 0 32 30q0 14 -14 22t-36 8z" />
    <glyph glyph-name="Scaron" unicode="&#x160;" horiz-adv-x="731" 
d="M696 240q0 -118 -95.5 -191.5t-244.5 -73.5q-140 0 -231 74.5t-91 189.5h222q0 -36 31.5 -60t77.5 -24q35 0 58 14t23 36q0 14 -8 23.5t-27 15.5t-35 8.5t-47 5.5q-51 6 -90 14t-79 25.5t-66 41.5t-42 62.5t-16 88.5q0 114 89.5 184.5t230.5 70.5q140 0 231 -72t91 -182
h-212q0 32 -28.5 53t-72.5 21q-34 0 -56.5 -13t-22.5 -32q0 -9 3.5 -16t13 -12t17 -8.5t25 -6t27.5 -4t33 -3.5q49 -5 88 -13t78.5 -24.5t65.5 -40.5t42.5 -63t16.5 -89zM416 970h147l-97 -180h-220l-97 180h147l60 -100z" />
    <glyph glyph-name="scaron" unicode="&#x161;" horiz-adv-x="602" 
d="M566 181q0 -91 -77.5 -148.5t-202.5 -57.5q-109 0 -180 54.5t-71 138.5h181q0 -23 21 -38t54 -15q24 0 39.5 10t15.5 26q0 17 -21 26t-78 12q-46 2 -79 9t-65.5 23.5t-49.5 49t-17 79.5q0 85 70.5 140t179.5 55q111 0 183 -52t72 -132h-190q-1 19 -19 31.5t-45 12.5
q-22 0 -36.5 -8.5t-14.5 -22.5q0 -30 71 -35q54 -5 91.5 -12t80 -23t65 -47t22.5 -76zM336 760h147l-97 -180h-220l-97 180h147l60 -100z" />
    <glyph glyph-name="Tcommaaccent" unicode="&#x162;" horiz-adv-x="662" 
d="M201 0v510h-190v210h640v-210h-190v-510h-260zM316 -260q-36 0 -58 26.5t-22 67.5q0 43 25.5 69.5t67.5 26.5q48 0 77.5 -33.5t29.5 -88.5q0 -58 -27.5 -117t-68.5 -91l-94 20q31 25 50.5 58.5t19.5 61.5z" />
    <glyph glyph-name="tcommaaccent" unicode="&#x163;" horiz-adv-x="442" 
d="M81 210v140h-60v170h70l20 140h200v-140h100v-170h-100v-110q0 -27 15 -43.5t40 -16.5q22 0 45 5v-185q-63 -20 -128 -20q-90 0 -146 65t-56 165zM242 -260q-36 0 -58 26.5t-22 67.5q0 43 25.5 69.5t67.5 26.5q48 0 77.5 -33.5t29.5 -88.5q0 -58 -27.5 -117t-69.5 -91
l-93 20q30 25 50 58.5t20 61.5z" />
    <glyph glyph-name="Tcaron" unicode="&#x164;" horiz-adv-x="662" 
d="M201 0v510h-190v210h640v-210h-190v-510h-260zM391 970h147l-97 -180h-220l-97 180h147l60 -100z" />
    <glyph glyph-name="tcaron" unicode="&#x165;" horiz-adv-x="519" 
d="M81 210v140h-60v170h70l20 140h200v-140h100v-170h-100v-110q0 -27 15 -43.5t40 -16.5q22 0 45 5v-185q-63 -20 -128 -20q-90 0 -146 65t-56 165zM399 700q-36 0 -58 26.5t-22 67.5q0 43 25.5 69.5t67.5 26.5q48 0 77.5 -33.5t29.5 -88.5q0 -58 -27.5 -117t-69.5 -91
l-93 20q30 25 50 58.5t20 61.5z" />
    <glyph glyph-name="Utilde" unicode="&#x168;" horiz-adv-x="812" 
d="M501 315v405h260v-415q0 -149 -97.5 -239.5t-257.5 -90.5t-257.5 90.5t-97.5 239.5v415h260v-405q0 -47 23.5 -81.5t71.5 -38.5q43 0 69 33t26 87zM280 823l-104 52q15 48 57.5 81.5t91.5 33.5q40 0 87.5 -25t59.5 -25q30 0 49 37l105 -52q-15 -47 -60 -81t-96 -34
q-42 0 -89 25t-58 25q-25 0 -43 -37z" />
    <glyph glyph-name="utilde" unicode="&#x169;" 
d="M591 520v-520h-220v78q-63 -98 -160 -98q-74 0 -122 56.5t-48 143.5v340h230v-280q0 -27 12.5 -43.5t32.5 -16.5t32.5 16.5t12.5 43.5v280h230zM200 603l-104 52q15 48 57.5 81.5t91.5 33.5q40 0 87.5 -25t59.5 -25q30 0 49 37l105 -52q-15 -47 -60 -81t-96 -34
q-42 0 -89 25t-58 25q-25 0 -43 -37z" />
    <glyph glyph-name="Umacron" unicode="&#x16a;" horiz-adv-x="812" 
d="M501 315v405h260v-415q0 -149 -97.5 -239.5t-257.5 -90.5t-257.5 90.5t-97.5 239.5v415h260v-405q0 -47 23.5 -81.5t71.5 -38.5q43 0 69 33t26 87zM591 940v-130h-370v130h370z" />
    <glyph glyph-name="umacron" unicode="&#x16b;" 
d="M591 0h-220v78q-63 -98 -160 -98q-74 0 -122 56.5t-48 143.5v340h230v-280q0 -27 12.5 -43.5t32.5 -16.5t32.5 16.5t12.5 43.5v280h230v-520zM501 730v-130h-370v130h370z" />
    <glyph glyph-name="Ubreve" unicode="&#x16c;" horiz-adv-x="812" 
d="M501 315v405h260v-415q0 -149 -97.5 -239.5t-257.5 -90.5t-257.5 90.5t-97.5 239.5v415h260v-405q0 -47 23.5 -81.5t71.5 -38.5q43 0 69 33t26 87zM446 950h130q0 -72 -47 -116t-123 -44t-123 44t-47 116h130q0 -22 11 -36t29 -14t29 14t11 36z" />
    <glyph glyph-name="ubreve" unicode="&#x16d;" 
d="M591 0h-220v78q-63 -98 -160 -98q-74 0 -122 56.5t-48 143.5v340h230v-280q0 -27 12.5 -43.5t32.5 -16.5t32.5 16.5t12.5 43.5v280h230v-520zM356 760h130q0 -180 -170 -180t-170 180h130q0 -32 11 -51t29 -19t29 19t11 51z" />
    <glyph glyph-name="Uring" unicode="&#x16e;" horiz-adv-x="812" 
d="M406 980q-22 0 -36 -14t-14 -36t14 -36t36 -14t36 14t14 36t-14 36t-36 14zM501 315v405h260v-415q0 -149 -97.5 -239.5t-257.5 -90.5t-257.5 90.5t-97.5 239.5v415h260v-405q0 -47 23.5 -81.5t71.5 -38.5q43 0 69 33t26 87zM406 780q-76 0 -123 41t-47 109t47 109
t123 41q77 0 123.5 -41t46.5 -109t-46.5 -109t-123.5 -41z" />
    <glyph glyph-name="uring" unicode="&#x16f;" 
d="M316 770q-22 0 -36 -14t-14 -36t14 -36t36 -14t36 14t14 36t-14 36t-36 14zM361 520h230v-520h-220v78q-63 -98 -160 -98q-74 0 -122 56.5t-48 143.5v340h230v-280q0 -27 12.5 -43.5t32.5 -16.5t32.5 16.5t12.5 43.5v280zM316 570q-76 0 -123 41t-47 109t47 109t123 41
t123 -41t47 -109t-47 -109t-123 -41z" />
    <glyph glyph-name="Uhungarumlaut" unicode="&#x170;" horiz-adv-x="812" 
d="M501 315v405h260v-415q0 -149 -97.5 -239.5t-257.5 -90.5t-257.5 90.5t-97.5 239.5v415h260v-405q0 -47 23.5 -81.5t71.5 -38.5q43 0 69 33t26 87zM313 950h190l-130 -160h-152zM543 950h190l-150 -160h-152z" />
    <glyph glyph-name="uhungarumlaut" unicode="&#x171;" horiz-adv-x="636" 
d="M591 0h-220v78q-63 -98 -160 -98q-74 0 -122 56.5t-48 143.5v340h230v-280q0 -27 12.5 -43.5t32.5 -16.5t32.5 16.5t12.5 43.5v280h230v-520zM209 760h196l-136 -180h-143zM439 760h206l-166 -180h-150z" />
    <glyph glyph-name="Uogonek" unicode="&#x172;" horiz-adv-x="812" 
d="M365 -23q-143 11 -228.5 100.5t-85.5 227.5v415h260v-405q0 -47 23.5 -81.5t71.5 -38.5q43 0 69 33t26 87v405h260v-415q0 -127 -73 -213.5t-198 -109.5q-59 -30 -59 -79q0 -38 35 -63t91 -25v-95q-112 0 -181 43t-69 110q0 63 58 104z" />
    <glyph glyph-name="uogonek" unicode="&#x173;" horiz-adv-x="662" 
d="M464 0h-93v78q-63 -98 -160 -98q-74 0 -122 56.5t-48 143.5v340h230v-280q0 -27 12.5 -43.5t32.5 -16.5t32.5 16.5t12.5 43.5v280h230v-520h-9q-96 -36 -96 -96q0 -38 35 -63t91 -25v-95q-112 0 -181 43t-69 110q0 42 27 75t75 51z" />
    <glyph glyph-name="Wcircumflex" unicode="&#x174;" horiz-adv-x="1284" 
d="M762 720l131 -482l119 482h261l-191 -720h-350l-90 369l-90 -369h-350l-191 720h261l120 -482l130 482h240zM581 790h-140l90 160h220l90 -160h-140l-60 80z" />
    <glyph glyph-name="wcircumflex" unicode="&#x175;" horiz-adv-x="967" 
d="M429 0h-280l-138 520h238l62 -287l78 287h189l88 -294l63 294h228l-138 -520h-280l-55 250zM424 580h-147l97 180h220l97 -180h-147l-60 100z" />
    <glyph glyph-name="Ycircumflex" unicode="&#x176;" horiz-adv-x="743" 
d="M245 0v240l-245 480h269l106 -260l95 260h273l-238 -480v-240h-260zM312 790h-140l90 160h220l90 -160h-140l-60 80z" />
    <glyph glyph-name="ycircumflex" unicode="&#x177;" horiz-adv-x="657" 
d="M116 -220v155q15 -5 50 -5q32 0 47 2t30.5 15t23.5 41l-266 532h250l100 -243l70 243h235l-195 -550q-41 -115 -95.5 -162.5t-129.5 -47.5q-67 0 -120 20zM329 680l-60 -100h-147l97 180h220l97 -180h-147z" />
    <glyph glyph-name="Ydieresis" unicode="&#x178;" horiz-adv-x="743" 
d="M245 0v240l-245 480h269l106 -260l95 260h273l-238 -480v-240h-260zM232 780q-46 0 -75.5 29.5t-29.5 75.5t29.5 75.5t75.5 29.5t75.5 -29.5t29.5 -75.5t-29.5 -75.5t-75.5 -29.5zM512 780q-46 0 -75.5 29.5t-29.5 75.5t29.5 75.5t75.5 29.5t75.5 -29.5t29.5 -75.5
t-29.5 -75.5t-75.5 -29.5z" />
    <glyph glyph-name="Zacute" unicode="&#x179;" horiz-adv-x="682" 
d="M41 170l260 350h-250v200h580v-170l-247 -350h257v-200h-600v170zM367 950h198l-158 -160h-157z" />
    <glyph glyph-name="zacute" unicode="&#x17a;" horiz-adv-x="581" 
d="M41 150l190 190h-180v180h480v-150l-167 -190h177v-180h-500v150zM312 760h197l-157 -180h-151z" />
    <glyph glyph-name="Zdotaccent" unicode="&#x17b;" horiz-adv-x="682" 
d="M41 170l260 350h-250v200h580v-170l-247 -350h257v-200h-600v170zM341 790q-50 0 -82.5 31t-32.5 79t32.5 79t82.5 31t82.5 -31t32.5 -79t-32.5 -79t-82.5 -31z" />
    <glyph glyph-name="zdotaccent" unicode="&#x17c;" horiz-adv-x="581" 
d="M41 150l190 190h-180v180h480v-150l-167 -190h177v-180h-500v150zM291 590q-50 0 -82.5 31t-32.5 79t32.5 79t82.5 31t82.5 -31t32.5 -79t-32.5 -79t-82.5 -31z" />
    <glyph glyph-name="Zcaron" unicode="&#x17d;" horiz-adv-x="682" 
d="M41 170l260 350h-250v200h580v-170l-247 -350h257v-200h-600v170zM401 970h147l-97 -180h-220l-97 180h147l60 -100z" />
    <glyph glyph-name="zcaron" unicode="&#x17e;" horiz-adv-x="581" 
d="M41 150l190 190h-180v180h480v-150l-167 -190h177v-180h-500v150zM351 760h147l-97 -180h-220l-97 180h147l60 -100z" />
    <glyph glyph-name="Aacutering" unicode="&#x1fa;" horiz-adv-x="804" 
d="M462 270l-60 231l-60 -231h120zM402 910q-16 0 -25.5 -9.5t-9.5 -25.5t9.5 -25.5t25.5 -9.5t25.5 9.5t9.5 25.5t-9.5 25.5t-25.5 9.5zM509 90h-214l-23 -90h-271l211 720h380l211 -720h-271zM402 740q-70 0 -112.5 37t-42.5 98t42.5 98t112.5 37t112.5 -37t42.5 -98
t-42.5 -98t-112.5 -37zM468 1030h-156l116 120h178z" />
    <glyph glyph-name="aacutering" unicode="&#x1fb;" horiz-adv-x="683" 
d="M331 180q31 0 50.5 22.5t19.5 57.5t-19.5 57.5t-50.5 22.5t-50.5 -22.5t-19.5 -57.5t19.5 -57.5t50.5 -22.5zM337 720q-16 0 -25.5 -9.5t-9.5 -25.5t9.5 -25.5t25.5 -9.5t25.5 9.5t9.5 25.5t-9.5 25.5t-25.5 9.5zM402 458v62h230v-520h-230v62q-54 -82 -145 -82
q-102 0 -164 77t-62 203t62 203t164 77q91 0 145 -82zM337 550q-70 0 -112.5 37t-42.5 98t42.5 98t112.5 37t112.5 -37t42.5 -98t-42.5 -98t-112.5 -37zM448 840h-146l86 110h168z" />
    <glyph glyph-name="AEacute" unicode="&#x1fc;" horiz-adv-x="1049" 
d="M539 548l-131 -288h131v288zM769 280v-80h250v-200h-480v90h-209l-41 -90h-288l348 720h660v-200h-240v-70h200v-170h-200zM659 770h-156l116 160h198z" />
    <glyph glyph-name="aeacute" unicode="&#x1fd;" horiz-adv-x="1032" 
d="M340 360q-36 0 -58 -27.5t-22 -72.5t22 -72.5t58 -27.5t58 27.5t22 72.5t-22 72.5t-58 27.5zM645 300h127q-3 29 -20.5 49.5t-42.5 20.5q-52 0 -64 -70zM420 452v68h130v-76q25 43 76.5 69.5t116.5 26.5q113 0 186 -77.5t73 -197.5q0 -50 -3 -65h-353q5 -27 26 -43.5
t50 -16.5q23 0 41.5 11.5t23.5 28.5l194 -27q-23 -75 -92.5 -124t-154.5 -49q-61 0 -111 25.5t-73 65.5v-71h-130v68q-58 -88 -160 -88q-104 0 -167 77t-63 203t63 203t167 77q101 0 160 -88zM561 570h-150l110 180h197z" />
    <glyph glyph-name="Oslashacute" unicode="&#x1fe;" horiz-adv-x="861" 
d="M431 525q-61 0 -100.5 -46.5t-39.5 -118.5q0 -56 25 -98l137 261q-14 2 -22 2zM431 195q61 0 100.5 46.5t39.5 118.5q0 54 -26 98l-137 -261q7 -2 23 -2zM301 -6l-70 -134h-126l94 180q-79 51 -123.5 134.5t-44.5 185.5q0 167 113 276t287 109q65 0 130 -19l70 134h126
l-95 -180q79 -52 124 -135t45 -185q0 -167 -113 -276t-287 -109q-67 0 -130 19zM500 780h-156l116 160h198z" />
    <glyph glyph-name="oslashacute" unicode="&#x1ff;" horiz-adv-x="682" 
d="M251 185l104 195h-14q-48 0 -79 -33.5t-31 -86.5q0 -44 20 -75zM341 140q49 0 79.5 33t30.5 87q0 43 -20 74l-103 -193q4 -1 13 -1zM248 -9l-37 -71h-102l55 102q-64 36 -98.5 97t-34.5 141q0 126 85.5 203t224.5 77q47 0 93 -11l37 71h101l-55 -103q64 -36 99 -97
t35 -140q0 -126 -85.5 -203t-224.5 -77q-47 0 -93 11zM251 580l110 180h197l-157 -180h-150z" />
    <glyph glyph-name="Scommaaccent" unicode="&#x218;" horiz-adv-x="731" 
d="M696 240q0 -118 -95.5 -191.5t-244.5 -73.5q-140 0 -231 74.5t-91 189.5h222q0 -36 31.5 -60t77.5 -24q35 0 58 14t23 36q0 14 -8 23.5t-27 15.5t-35 8.5t-47 5.5q-51 6 -90 14t-79 25.5t-66 41.5t-42 62.5t-16 88.5q0 114 89.5 184.5t230.5 70.5q140 0 231 -72t91 -182
h-212q0 32 -28.5 53t-72.5 21q-34 0 -56.5 -13t-22.5 -32q0 -9 3.5 -16t13 -12t17 -8.5t25 -6t27.5 -4t33 -3.5q49 -5 88 -13t78.5 -24.5t65.5 -40.5t42.5 -63t16.5 -89zM338 -260q-36 0 -58 26.5t-22 67.5q0 44 25.5 70t68.5 26q47 0 76.5 -33.5t29.5 -88.5q0 -58 -27 -117
t-69 -91l-94 20q31 25 50.5 58.5t19.5 61.5z" />
    <glyph glyph-name="scommaaccent" unicode="&#x219;" horiz-adv-x="602" 
d="M566 181q0 -91 -77.5 -148.5t-202.5 -57.5q-109 0 -180 54.5t-71 138.5h181q0 -23 21 -38t54 -15q24 0 39.5 10t15.5 26q0 17 -21 26t-78 12q-46 2 -79 9t-65.5 23.5t-49.5 49t-17 79.5q0 85 70.5 140t179.5 55q111 0 183 -52t72 -132h-190q-1 19 -19 31.5t-45 12.5
q-22 0 -36.5 -8.5t-14.5 -22.5q0 -30 71 -35q54 -5 91.5 -12t80 -23t65 -47t22.5 -76zM283 -260q-36 0 -58 26.5t-22 67.5q0 43 25.5 69.5t67.5 26.5q48 0 77.5 -33.5t29.5 -88.5q0 -58 -27 -117t-69 -91l-94 20q31 25 50.5 58.5t19.5 61.5z" />
    <glyph glyph-name="circumflex" unicode="&#x2c6;" horiz-adv-x="476" 
d="M31 570l97 180h220l97 -180h-147l-60 100l-60 -100h-147z" />
    <glyph glyph-name="caron" unicode="&#x2c7;" horiz-adv-x="476" 
d="M298 750h147l-97 -180h-220l-97 180h147l60 -100z" />
    <glyph glyph-name="breve" unicode="&#x2d8;" horiz-adv-x="402" 
d="M241 750h130q0 -180 -170 -180t-170 180h130q0 -32 11 -51t29 -19t29 19t11 51z" />
    <glyph glyph-name="dotaccent" unicode="&#x2d9;" horiz-adv-x="292" 
d="M146 560q-50 0 -82.5 31t-32.5 79t32.5 79t82.5 31t82.5 -31t32.5 -79t-32.5 -79t-82.5 -31z" />
    <glyph glyph-name="ring" unicode="&#x2da;" horiz-adv-x="402" 
d="M201 545q-77 0 -123.5 41.5t-46.5 108.5t46.5 108.5t123.5 41.5q76 0 123 -41.5t47 -108.5t-47 -108.5t-123 -41.5zM201 745q-23 0 -36.5 -13.5t-13.5 -36.5t13.5 -36.5t36.5 -13.5t36.5 13.5t13.5 36.5t-13.5 36.5t-36.5 13.5z" />
    <glyph glyph-name="ogonek" unicode="&#x2db;" horiz-adv-x="312" 
d="M171 10l83 -10q-99 -37 -99 -97q0 -38 35 -63t91 -25v-95q-112 0 -181 43t-69 110q0 50 38 86.5t102 50.5z" />
    <glyph glyph-name="tilde" unicode="&#x2dc;" horiz-adv-x="512" 
d="M135 583l-104 52q15 48 57.5 81.5t91.5 33.5q40 0 87.5 -25t59.5 -25q31 0 49 37l105 -52q-15 -47 -60 -81t-96 -34q-42 0 -89 25t-58 25q-24 0 -43 -37z" />
    <glyph glyph-name="hungarumlaut" unicode="&#x2dd;" horiz-adv-x="581" 
d="M114 750h196l-136 -180h-143zM344 750h206l-166 -180h-150z" />
    <glyph glyph-name="Wgrave" unicode="&#x1e80;" horiz-adv-x="1284" 
d="M762 720l131 -482l119 482h261l-191 -720h-350l-90 369l-90 -369h-350l-191 720h261l120 -482l130 482h240zM402 950h198l116 -160h-156z" />
    <glyph glyph-name="wgrave" unicode="&#x1e81;" horiz-adv-x="967" 
d="M429 0h-280l-138 520h238l62 -287l78 287h189l88 -294l63 294h228l-138 -520h-280l-55 250zM264 760h197l110 -180h-150z" />
    <glyph glyph-name="Wacute" unicode="&#x1e82;" horiz-adv-x="1284" 
d="M762 720l131 -482l119 482h261l-191 -720h-350l-90 369l-90 -369h-350l-191 720h261l120 -482l130 482h240zM667 950h198l-158 -160h-157z" />
    <glyph glyph-name="wacute" unicode="&#x1e83;" horiz-adv-x="967" 
d="M429 0h-280l-138 520h238l62 -287l78 287h189l88 -294l63 294h228l-138 -520h-280l-55 250zM504 760h197l-157 -180h-150z" />
    <glyph glyph-name="Wdieresis" unicode="&#x1e84;" horiz-adv-x="1284" 
d="M762 720l131 -482l119 482h261l-191 -720h-350l-90 369l-90 -369h-350l-191 720h261l120 -482l130 482h240zM501 780q-46 0 -75.5 29.5t-29.5 75.5t29.5 75.5t75.5 29.5t75.5 -29.5t29.5 -75.5t-29.5 -75.5t-75.5 -29.5zM781 780q-46 0 -75.5 29.5t-29.5 75.5t29.5 75.5
t75.5 29.5t75.5 -29.5t29.5 -75.5t-29.5 -75.5t-75.5 -29.5z" />
    <glyph glyph-name="wdieresis" unicode="&#x1e85;" horiz-adv-x="967" 
d="M429 0h-280l-138 520h238l62 -287l78 287h189l88 -294l63 294h228l-138 -520h-280l-55 250zM344 573q-46 0 -75.5 28t-29.5 72t29.5 72t75.5 28t75.5 -28t29.5 -72t-29.5 -72t-75.5 -28zM624 573q-46 0 -75.5 28t-29.5 72t29.5 72t75.5 28t75.5 -28t29.5 -72t-29.5 -72
t-75.5 -28z" />
    <glyph glyph-name="Germandbls" unicode="&#x1e9e;" horiz-adv-x="811" 
d="M311 490v-490h-260v480q0 119 96 192t253 73q142 0 226.5 -61.5t84.5 -163.5q0 -41 -25 -73t-70 -49q65 -18 110 -75t45 -133q0 -94 -68 -154.5t-172 -60.5q-94 0 -181 39l35 144q34 -18 63 -18q27 0 45 21.5t18 54.5q0 42 -29 68t-76 26h-46v130h50q32 0 51.5 16.5
t19.5 43.5q0 35 -23.5 56.5t-61.5 21.5t-61.5 -24t-23.5 -64z" />
    <glyph glyph-name="Ygrave" unicode="&#x1ef2;" horiz-adv-x="743" 
d="M245 0v240l-245 480h269l106 -260l95 260h273l-238 -480v-240h-260zM133 950h198l116 -160h-156z" />
    <glyph glyph-name="ygrave" unicode="&#x1ef3;" horiz-adv-x="657" 
d="M116 -220v155q15 -5 50 -5q32 0 47 2t30.5 15t23.5 41l-266 532h250l100 -243l70 243h235l-195 -550q-41 -115 -95.5 -162.5t-129.5 -47.5q-67 0 -120 20zM416 580h-150l-157 180h197z" />
    <glyph glyph-name="endash" unicode="&#x2013;" horiz-adv-x="632" 
d="M601 400v-180h-570v180h570z" />
    <glyph glyph-name="emdash" unicode="&#x2014;" horiz-adv-x="812" 
d="M21 400h770v-180h-770v180z" />
    <glyph glyph-name="quoteleft" unicode="&#x2018;" horiz-adv-x="312" 
d="M171 575q48 0 79 -34t31 -86t-34.5 -86t-85.5 -34q-59 0 -94.5 46.5t-35.5 122.5q0 63 34 131.5t86 109.5l112 -20q-40 -37 -66 -79.5t-26 -70.5z" />
    <glyph glyph-name="quoteright" unicode="&#x2019;" horiz-adv-x="312" 
d="M141 520q-48 0 -79 34t-31 86t34.5 86t85.5 34q59 0 94.5 -46.5t35.5 -122.5q0 -63 -34 -131.5t-86 -109.5l-112 20q40 38 66 80t26 70z" />
    <glyph glyph-name="quotesinglbase" unicode="&#x201a;" horiz-adv-x="312" 
d="M141 -20q-48 0 -79 34t-31 86t34.5 86t85.5 34q59 0 94.5 -46.5t35.5 -122.5q0 -63 -34 -131.5t-86 -109.5l-112 20q40 38 66 80t26 70z" />
    <glyph glyph-name="quotedblleft" unicode="&#x201c;" horiz-adv-x="616" 
d="M283 455q0 -52 -34.5 -86t-85.5 -34q-59 0 -94.5 46.5t-35.5 122.5q0 63 34 131.5t86 109.5l112 -20q-40 -38 -66 -80t-26 -70q48 0 79 -34t31 -86zM583 455q0 -52 -34.5 -86t-85.5 -34q-59 0 -94.5 46.5t-35.5 122.5q0 63 34 131.5t86 109.5l112 -20q-40 -38 -66 -80
t-26 -70q48 0 79 -34t31 -86z" />
    <glyph glyph-name="quotedblright" unicode="&#x201d;" horiz-adv-x="613" 
d="M33 650q0 52 34.5 86t85.5 34q59 0 94.5 -46.5t35.5 -122.5q0 -63 -34 -131.5t-86 -109.5l-112 20q40 38 66 80t26 70q-48 0 -79 34t-31 86zM333 650q0 52 34.5 86t85.5 34q59 0 94.5 -46.5t35.5 -122.5q0 -63 -34 -131.5t-86 -109.5l-112 20q40 38 66 80t26 70
q-48 0 -79 34t-31 86z" />
    <glyph glyph-name="quotedblbase" unicode="&#x201e;" horiz-adv-x="613" 
d="M33 100q0 52 34.5 86t85.5 34q59 0 94.5 -46.5t35.5 -122.5q0 -63 -34 -131.5t-86 -109.5l-112 20q40 38 66 80t26 70q-48 0 -79 34t-31 86zM333 100q0 52 34.5 86t85.5 34q59 0 94.5 -46.5t35.5 -122.5q0 -63 -34 -131.5t-86 -109.5l-112 20q40 38 66 80t26 70
q-48 0 -79 34t-31 86z" />
    <glyph glyph-name="bullet" unicode="&#x2022;" horiz-adv-x="392" 
d="M196 150q-72 0 -118.5 45t-46.5 115t46.5 115t118.5 45t118.5 -45t46.5 -115t-46.5 -115t-118.5 -45z" />
    <glyph glyph-name="ellipsis" unicode="&#x2026;" horiz-adv-x="912" 
d="M156 -20q-54 0 -89.5 34t-35.5 86t35.5 86t89.5 34q55 0 90 -33.5t35 -86.5t-35 -86.5t-90 -33.5zM456 -20q-54 0 -89.5 34t-35.5 86t35.5 86t89.5 34q55 0 90 -33.5t35 -86.5t-35 -86.5t-90 -33.5zM756 -20q-54 0 -89.5 34t-35.5 86t35.5 86t89.5 34q55 0 90 -33.5
t35 -86.5t-35 -86.5t-90 -33.5z" />
    <glyph glyph-name="perthousand" unicode="&#x2030;" horiz-adv-x="1622" 
d="M641 210q0 100 65 165t165 65t165 -65t65 -165t-65 -165t-165 -65t-165 65t-65 165zM931 210q0 26 -17 43t-43 17t-43 -17t-17 -43t17 -43t43 -17t43 17t17 43zM1131 210q0 100 65 165t165 65t165 -65t65 -165t-65 -165t-165 -65t-165 65t-65 165zM1421 210q0 26 -17 43
t-43 17t-43 -17t-17 -43t17 -43t43 -17t43 17t17 43zM31 540q0 100 65 165t165 65t165 -65t65 -165t-65 -165t-165 -65t-165 65t-65 165zM321 540q0 26 -17 43t-43 17t-43 -17t-17 -43t17 -43t43 -17t43 17t17 43zM721 750h187l-497 -750h-187z" />
    <glyph glyph-name="guilsinglleft" unicode="&#x2039;" horiz-adv-x="421" 
d="M390 520l-169 -250l169 -270h-229l-160 270l160 250h229z" />
    <glyph glyph-name="guilsinglright" unicode="&#x203a;" horiz-adv-x="420" 
d="M420 270l-160 -270h-229l169 270l-169 250h229z" />
    <glyph glyph-name="lira" unicode="&#x20a4;" horiz-adv-x="702" 
d="M423 555q-19 0 -30.5 -18t-11.5 -47v-30h190v-100h-190q0 -10 -2 -30h192v-100h-239q-39 -45 -95 -70h434v-160h-640v200q40 14 66 40h-66v90h110v30h-110v100h110v50q0 102 72 168.5t183 66.5q118 0 190 -60t86 -158l-202 -32q-12 60 -47 60z" />
    <glyph glyph-name="Euro" unicode="&#x20ac;" horiz-adv-x="902" 
d="M499 195q48 0 85.5 30.5t46.5 77.5l241 -25q-7 -132 -114.5 -217.5t-266.5 -85.5q-141 0 -245 74t-139 197h-86v100h70v29h-70v100h86q36 123 139.5 196.5t244.5 73.5q155 0 262 -85.5t116 -217.5l-239 -25q-8 47 -45 77.5t-85 30.5q-71 0 -112 -50h113v-100h-150v-29
h150v-100h-114q41 -51 112 -51z" />
    <glyph glyph-name="trademark" unicode="&#x2122;" horiz-adv-x="1232" 
d="M131 150v410h-120v160h430v-160h-120v-410h-190zM991 442l-100 -292h-130l-100 292v-292h-180v570h216l128 -329l124 329h222v-570h-180v292z" />
    <glyph glyph-name="minus" unicode="&#x2212;" horiz-adv-x="472" 
d="M31 400h410v-180h-410v180z" />
    <glyph glyph-name="approxequal" unicode="&#x2248;" horiz-adv-x="690" 
 />
    <glyph glyph-name="notequal" unicode="&#x2260;" horiz-adv-x="532" 
d="M31 260h162l27 90h-189v170h241l39 130h125l-39 -130h104v-170h-155l-26 -90h181v-170h-232l-38 -130h-128l39 130h-111v170z" />
    <glyph glyph-name="lessequal" unicode="&#x2264;" horiz-adv-x="452" 
d="M421 140v-140h-390v140h390zM31 450l390 70v-130l-268 -40l268 -40v-130l-390 70v200z" />
    <glyph glyph-name="greaterequal" unicode="&#x2265;" horiz-adv-x="452" 
d="M31 140h390v-140h-390v140zM31 310l268 40l-268 40v130l390 -70v-200l-390 -70v130z" />
    <glyph glyph-name="commaaccent" unicode="&#xf6c3;" horiz-adv-x="262" 
d="M111 -40q-36 0 -58 26.5t-22 67.5q0 43 25.5 69.5t67.5 26.5q48 0 77.5 -33.5t29.5 -88.5q0 -58 -27.5 -117t-69.5 -91l-93 20q30 25 50 58.5t20 61.5z" />
    <glyph glyph-name="acute.case" horiz-adv-x="376" 
d="M345 750l-158 -160h-156l116 160h198z" />
    <glyph glyph-name="breve.case" horiz-adv-x="402" 
d="M241 750h130q0 -72 -46.5 -116t-123.5 -44t-123.5 44t-46.5 116h130q0 -22 11 -36t29 -14t29 14t11 36z" />
    <glyph glyph-name="caron.case" horiz-adv-x="462" 
d="M291 750h140l-90 -160h-220l-90 160h140l60 -80z" />
    <glyph glyph-name="circumflex.case" horiz-adv-x="462" 
d="M31 590l90 160h220l90 -160h-140l-60 80l-60 -80h-140z" />
    <glyph glyph-name="dieresis.case" horiz-adv-x="552" 
d="M136 540q-46 0 -75.5 29.5t-29.5 75.5t29.5 75.5t75.5 29.5t75.5 -29.5t29.5 -75.5t-29.5 -75.5t-75.5 -29.5zM416 540q-46 0 -75.5 29.5t-29.5 75.5t29.5 75.5t75.5 29.5t75.5 -29.5t29.5 -75.5t-29.5 -75.5t-75.5 -29.5z" />
    <glyph glyph-name="dotaccent.case" horiz-adv-x="292" 
d="M146 560q-50 0 -82.5 31t-32.5 79t32.5 79t82.5 31t82.5 -31t32.5 -79t-32.5 -79t-82.5 -31z" />
    <glyph glyph-name="grave.case" horiz-adv-x="376" 
d="M31 950h198l116 -160h-156z" />
    <glyph glyph-name="hungarumlaut.case" horiz-adv-x="574" 
d="M123 750h190l-130 -160h-152zM353 750h190l-150 -160h-152z" />
    <glyph glyph-name="ijacute" horiz-adv-x="679" 
d="M51 0v520h230v-520h-230zM401 10v510h230v-520q0 -99 -58.5 -159.5t-153.5 -60.5q-75 0 -138 20v155q23 -5 55 -5q29 0 47 16.5t18 43.5zM78 570l111 180h197l-157 -180h-151zM421 570l110 180h197l-157 -180h-150z" />
    <glyph glyph-name="ring.case" horiz-adv-x="372" 
d="M186 540q-70 0 -112.5 37t-42.5 98t42.5 98t112.5 37t112.5 -37t42.5 -98t-42.5 -98t-112.5 -37zM186 710q-16 0 -25.5 -9.5t-9.5 -25.5t9.5 -25.5t25.5 -9.5t25.5 9.5t9.5 25.5t-9.5 25.5t-25.5 9.5z" />
    <glyph glyph-name="tilde.case" horiz-adv-x="512" 
d="M135 603l-104 52q15 48 57.5 81.5t91.5 33.5q40 0 87.5 -25t59.5 -25q31 0 49 37l105 -52q-15 -47 -60 -81t-96 -34q-42 0 -89 25t-58 25q-24 0 -43 -37z" />
    </font>
</defs>
</svg>
